<svg width="306" height="64" viewBox="0 0 306 64" fill="none" xmlns="http://www.w3.org/2000/svg">
<path d="M220.566 49.2146C220.682 49.1323 220.795 49.0458 220.905 48.9548C221.014 48.8639 221.12 48.7687 221.222 48.6697C221.325 48.5704 221.423 48.4675 221.517 48.3609C221.611 48.2544 221.701 48.1443 221.786 48.0308C221.872 47.917 221.953 47.8005 222.029 47.6809C222.105 47.561 222.177 47.4386 222.244 47.3131C222.311 47.188 222.373 47.0603 222.43 46.9304C222.486 46.8005 222.538 46.6684 222.585 46.5346C222.631 46.4005 222.673 46.265 222.708 46.1279C222.744 45.9908 222.775 45.8523 222.8 45.7129C222.825 45.5735 222.845 45.4331 222.859 45.2923C222.873 45.1513 222.882 45.01 222.885 44.8681C222.889 44.7266 222.886 44.585 222.878 44.4437C222.87 44.3021 222.857 44.1611 222.838 44.0206C222.819 43.8801 222.795 43.7408 222.765 43.6022C222.735 43.4634 222.7 43.3263 222.66 43.1906C222.619 43.0546 222.573 42.9205 222.522 42.7881C222.471 42.6557 222.415 42.5255 222.354 42.3975C222.293 42.2693 222.227 42.1439 222.156 42.0209C222.085 41.898 222.009 41.7778 221.929 41.6607C221.848 41.5433 221.764 41.4296 221.675 41.3189C221.585 41.2081 221.492 41.1011 221.394 40.9976C221.296 40.8941 221.195 40.7942 221.09 40.6986C220.984 40.6029 220.875 40.5114 220.763 40.424C220.65 40.3367 220.534 40.2538 220.415 40.1754C220.296 40.0969 220.175 40.0229 220.05 39.9539C219.925 39.885 219.798 39.8207 219.668 39.7612C219.538 39.7019 219.406 39.6477 219.272 39.5985C219.138 39.5492 219.002 39.5053 218.865 39.4663C218.727 39.4277 218.588 39.394 218.448 39.3659C218.308 39.3378 218.167 39.315 218.025 39.2978C217.883 39.2805 217.741 39.2686 217.598 39.2622C217.694 39.2343 217.79 39.2088 217.887 39.1854C217.984 39.162 218.081 39.1406 218.179 39.1217C218.277 39.1028 218.375 39.0858 218.474 39.0713C218.572 39.0566 218.671 39.0444 218.77 39.0341C218.869 39.0241 218.969 39.0163 219.068 39.0104C219.168 39.0049 219.267 39.0015 219.367 39.0004C219.467 38.9993 219.567 39.0004 219.666 39.0038C219.766 39.0071 219.865 39.0129 219.965 39.0207C220.064 39.0285 220.163 39.0388 220.262 39.051C220.361 39.0633 220.459 39.078 220.558 39.0947C220.656 39.1117 220.754 39.1306 220.851 39.1517C220.949 39.1732 221.045 39.1965 221.142 39.2221C221.238 39.2477 221.334 39.2755 221.429 39.3056C221.524 39.3353 221.618 39.3673 221.712 39.4015C221.805 39.4357 221.898 39.4722 221.99 39.5106C222.082 39.5489 222.172 39.5893 222.263 39.6318C222.353 39.6744 222.441 39.7189 222.529 39.7653C222.617 39.8118 222.704 39.8605 222.79 39.9108C222.876 39.9612 222.96 40.0135 223.043 40.068C223.127 40.1222 223.209 40.1781 223.289 40.2363C223.37 40.2941 223.45 40.3539 223.528 40.4154C223.606 40.4772 223.682 40.5403 223.757 40.6054C223.832 40.6705 223.906 40.7369 223.978 40.8054C224.05 40.8738 224.12 40.9436 224.189 41.0151C224.258 41.0866 224.325 41.1597 224.39 41.2343C224.456 41.3088 224.519 41.3848 224.581 41.4624C224.643 41.5397 224.703 41.6184 224.762 41.6988C224.82 41.7789 224.876 41.8601 224.931 41.943C224.986 42.0256 225.038 42.1097 225.089 42.1948C225.14 42.2796 225.188 42.3658 225.235 42.4532C225.282 42.5405 225.326 42.6287 225.369 42.718C225.412 42.8073 225.452 42.8977 225.491 42.9886C225.529 43.0799 225.566 43.1719 225.6 43.2646C225.634 43.3575 225.666 43.4509 225.696 43.5452C225.726 43.6395 225.754 43.7344 225.78 43.8298C225.805 43.9252 225.829 44.0214 225.85 44.1179C225.871 44.2145 225.89 44.3113 225.907 44.4089C225.924 44.5063 225.938 44.6039 225.95 44.7021C225.963 44.8 225.973 44.8985 225.98 44.9969C225.988 45.0954 225.994 45.1941 225.997 45.2929C226 45.3916 226.001 45.4904 226 45.5891C225.998 45.6879 225.994 45.7866 225.989 45.8854C225.983 45.9838 225.974 46.0823 225.964 46.1808C225.954 46.2789 225.941 46.3769 225.926 46.4745C225.911 46.5724 225.894 46.6695 225.874 46.7666C225.855 46.8633 225.833 46.9599 225.809 47.0558C225.786 47.1518 225.759 47.2472 225.731 47.3418C225.703 47.4366 225.672 47.5306 225.64 47.6241C225.607 47.7176 225.573 47.8102 225.536 47.902C225.499 47.9938 225.46 48.0847 225.419 48.1746C225.378 48.2647 225.335 48.3537 225.29 48.4419C225.245 48.5301 225.198 48.6171 225.149 48.7031C225.099 48.789 225.048 48.8739 224.995 48.9576C224.942 49.0413 224.887 49.1237 224.83 49.2049C224.774 49.2861 224.715 49.3659 224.655 49.4444C224.594 49.5231 224.532 49.6001 224.468 49.6758C224.404 49.7515 224.338 49.8257 224.27 49.8986C224.203 49.9712 224.134 50.0424 224.063 50.1122C223.992 50.1818 223.92 50.2496 223.846 50.3161C223.772 50.3826 223.697 50.4471 223.62 50.51C223.543 50.5731 223.465 50.6343 223.385 50.6936C223.306 50.7531 223.225 50.8107 223.142 50.8663C223.06 50.9222 222.977 50.9759 222.892 51.0279C222.807 51.0799 222.721 51.13 222.634 51.1781C222.547 51.2262 222.459 51.2724 222.37 51.3164C222.28 51.3606 222.19 51.4026 222.099 51.4426C222.008 51.4827 221.916 51.5205 221.823 51.5564C221.73 51.5923 221.636 51.6262 221.542 51.6577C221.447 51.6894 221.352 51.7189 221.257 51.7461C221.161 51.7736 221.065 51.7987 220.967 51.8218C220.87 51.8446 220.773 51.8654 220.675 51.8841C220.577 51.9027 220.479 51.9191 220.38 51.933C220.282 51.9472 220.183 51.9592 220.083 51.9689C219.984 51.9784 219.885 51.9859 219.785 51.9912C219.686 51.9962 219.586 51.9992 219.486 51.9998C219.387 52.0006 219.287 51.999 219.187 51.9951C219.088 51.9912 218.988 51.985 218.889 51.977C218.79 51.9686 218.69 51.9581 218.592 51.945C218.493 51.9322 218.394 51.9172 218.296 51.8999C218.198 51.8827 218.1 51.8632 218.003 51.8415C217.906 51.8198 217.809 51.7962 217.713 51.77C217.617 51.7439 217.521 51.7158 217.426 51.6855C217.331 51.6549 217.237 51.6226 217.144 51.5878C217.051 51.5533 216.958 51.5166 216.866 51.4777C216.775 51.439 216.684 51.3981 216.594 51.355C216.504 51.3122 216.416 51.2674 216.328 51.2204C216.24 51.1734 216.154 51.1247 216.068 51.0738C215.983 51.0229 215.898 50.9701 215.815 50.9155C215.732 50.861 215.65 50.8043 215.57 50.7461C215.489 50.6877 215.41 50.6276 215.333 50.5656C215.255 50.5039 215.179 50.4402 215.104 50.3748C215.029 50.3094 214.956 50.2424 214.884 50.1737C214.813 50.105 214.742 50.0349 214.674 49.9628C214.606 49.8911 214.539 49.8177 214.474 49.7428C214.409 49.668 214.345 49.5918 214.284 49.5139C214.222 49.4363 214.163 49.3573 214.105 49.2769C214.068 49.2263 214.035 49.1746 214 49.1228C214.117 49.2107 214.237 49.2936 214.36 49.3718C214.484 49.4499 214.61 49.5231 214.739 49.5915C214.869 49.6597 215.001 49.7228 215.135 49.7809C215.269 49.8388 215.406 49.8914 215.544 49.9384C215.683 49.9857 215.823 50.0274 215.965 50.0635C216.107 50.0997 216.25 50.1303 216.394 50.1553C216.538 50.1801 216.683 50.1996 216.829 50.2129C216.975 50.2265 217.121 50.2343 217.268 50.2363C217.414 50.2385 217.561 50.2346 217.707 50.2252C217.853 50.2157 217.998 50.2007 218.143 50.1798C218.288 50.1587 218.432 50.1322 218.575 50.1C218.718 50.0677 218.859 50.0302 218.999 49.9868C219.139 49.9434 219.277 49.8947 219.413 49.8405C219.549 49.7865 219.682 49.727 219.814 49.6624C219.945 49.5976 220.073 49.5281 220.199 49.4533C220.324 49.3787 220.447 49.2992 220.566 49.2146Z" fill="#D4D766"/>
<path d="M178.417 22H179.417V32H178.417V22Z" fill="#D4D766"/>
<path fill-rule="evenodd" clip-rule="evenodd" d="M179.221 49.4119C179.148 50.1412 179.05 50.8952 178.978 51.6245C178.953 51.892 178.929 52.1595 178.88 52.427C178.88 52.4997 178.88 52.5729 178.856 52.6703C178.856 52.6945 178.856 52.7672 178.832 52.7919C178.759 53.0589 178.491 53.1805 178.248 53.2537C177.956 53.3264 177.64 53.3996 177.348 53.448C177.226 53.4727 177.105 53.4727 176.983 53.497C176.765 53.5212 176.156 53.5939 175.937 53.5454C175.816 53.497 175.695 53.3996 175.646 53.2537C175.597 53.0836 175.67 52.7187 175.695 52.5244C175.767 52.1353 175.865 51.7219 175.962 51.3086C176.254 50.0685 176.594 48.8038 176.935 47.5637L170.879 41.5093C170.587 41.1202 170.417 40.6584 170.417 40.1965C170.417 39.6373 170.636 39.1024 171.025 38.7132L177.737 32.0022C178.126 31.6131 178.661 31.394 179.221 31.394C179.78 31.394 180.291 31.6131 180.704 32.0022L187.392 38.7132C187.781 39.1024 188 39.6373 188 40.1965C188 40.7315 187.781 41.266 187.417 41.6552H187.392L181.483 47.5637C181.847 48.8038 182.163 50.0685 182.48 51.3086C182.577 51.7219 182.674 52.1353 182.747 52.5244C182.772 52.7187 182.845 53.0836 182.772 53.2537C182.723 53.3996 182.626 53.497 182.48 53.5454C182.261 53.5939 181.677 53.5212 181.434 53.497C181.312 53.4727 181.215 53.4727 181.093 53.448C180.777 53.3996 180.461 53.3264 180.169 53.2537C179.95 53.1805 179.659 53.0589 179.585 52.7919C179.585 52.7672 179.585 52.6945 179.561 52.6703C179.561 52.5729 179.561 52.4997 179.537 52.427C179.513 52.1595 179.488 51.892 179.464 51.6245C179.367 50.8952 179.294 50.1412 179.221 49.4119ZM176.181 45.6428L178.637 43.2116L176.181 40.78L173.749 43.2116L176.181 45.6428ZM182.237 34.7256L179.804 37.1567L182.237 39.5884L184.669 37.1567L182.237 34.7256ZM179.221 36.5733L181.653 34.1416L180.121 32.5856C179.878 32.3671 179.561 32.2207 179.221 32.2207C178.88 32.2207 178.564 32.3671 178.321 32.5856L176.789 34.1416L179.221 36.5733ZM178.321 47.7827H178.345C178.564 48.026 178.88 48.1476 179.221 48.1476C179.537 48.1476 179.853 48.026 180.096 47.7827L181.653 46.2267L179.221 43.7951L176.789 46.2267L178.321 47.7827ZM180.826 48.2445L180.704 48.3662C180.68 48.3662 180.68 48.3662 180.68 48.3904C180.656 48.3904 180.656 48.3904 180.656 48.3904V48.4151H180.632C180.632 48.4151 180.632 48.4394 180.607 48.4394C180.607 48.4394 180.607 48.4394 180.583 48.4636L180.534 48.512H180.51V48.5363H180.485V48.561C180.315 48.6579 180.169 48.7553 179.974 48.8285L180.023 49.2171C180.096 49.9711 180.194 50.7247 180.267 51.4787C180.291 51.7219 180.315 51.9894 180.364 52.2322C180.364 52.3054 180.364 52.3786 180.364 52.4512C180.388 52.4512 180.413 52.4512 180.413 52.4512C180.68 52.5486 180.972 52.5971 181.239 52.6213C181.337 52.6456 181.434 52.6703 181.556 52.6703C181.677 52.6945 181.798 52.7187 181.945 52.7187C181.92 52.6213 181.896 52.5244 181.872 52.427C181.823 52.1111 181.75 51.8189 181.677 51.5029C181.409 50.4087 181.118 49.3145 180.826 48.2445ZM176.497 52.7187C176.619 52.7187 176.765 52.6945 176.886 52.6703C176.983 52.6703 177.081 52.6456 177.178 52.6213C177.445 52.5971 177.737 52.5486 178.005 52.4512C178.029 52.4512 178.054 52.4512 178.054 52.4512C178.054 52.3786 178.078 52.3054 178.078 52.2322C178.102 51.9894 178.126 51.7219 178.175 51.4787C178.248 50.7247 178.321 49.9711 178.394 49.2171L178.443 48.8285C178.297 48.7795 178.175 48.7068 178.054 48.6094C178.029 48.6094 178.029 48.6094 178.029 48.6094L178.005 48.5852H177.98C177.98 48.561 177.98 48.561 177.98 48.561H177.956C177.956 48.561 177.956 48.561 177.956 48.5363C177.932 48.5363 177.932 48.5363 177.932 48.5363C177.859 48.4878 177.81 48.4394 177.761 48.3904L177.616 48.2445C177.324 49.3145 177.032 50.4087 176.765 51.5029C176.691 51.8189 176.619 52.1111 176.546 52.427C176.521 52.5244 176.497 52.6213 176.497 52.7187ZM176.789 40.1965L179.221 42.6277L181.653 40.1965L179.221 37.7407L176.789 40.1965ZM185.252 37.7407L182.82 40.1965L185.252 42.6277L186.809 41.0717C187.052 40.8284 187.173 40.5125 187.173 40.1965C187.173 39.8559 187.052 39.5399 186.809 39.2967L185.252 37.7407ZM184.669 43.2116L182.237 40.78L179.804 43.2116L182.237 45.6428L184.669 43.2116ZM176.181 39.5884L178.637 37.1567L176.181 34.7256L173.749 37.1567L176.181 39.5884ZM175.597 40.1965L173.165 37.7407L171.633 39.2967C171.39 39.5399 171.244 39.8559 171.244 40.1965C171.244 40.5125 171.365 40.8284 171.609 41.0475L173.165 42.6277L175.597 40.1965Z" fill="#D4D766"/>
<path d="M137.417 6H138.417V20H137.417V6Z" fill="#D4D766"/>
<path fill-rule="evenodd" clip-rule="evenodd" d="M138.427 33.622C138.369 34.2027 138.291 34.803 138.233 35.3837C138.214 35.5967 138.194 35.8097 138.156 36.0226C138.156 36.0805 138.156 36.1388 138.136 36.2163C138.136 36.2356 138.136 36.2935 138.117 36.3132C138.059 36.5258 137.846 36.6226 137.652 36.6809C137.42 36.7387 137.168 36.797 136.936 36.8356C136.839 36.8553 136.742 36.8553 136.645 36.8746C136.471 36.8938 135.987 36.9517 135.812 36.9131C135.716 36.8746 135.619 36.797 135.58 36.6809C135.542 36.5454 135.599 36.2549 135.619 36.1002C135.677 35.7904 135.755 35.4612 135.832 35.1321C136.064 34.1448 136.335 33.1378 136.606 32.1504L131.785 27.3298C131.552 27.02 131.417 26.6523 131.417 26.2846C131.417 25.8393 131.591 25.4133 131.901 25.1035L137.245 19.7601C137.555 19.4503 137.981 19.2759 138.427 19.2759C138.872 19.2759 139.279 19.4503 139.608 19.7601L144.933 25.1035C145.243 25.4133 145.417 25.8393 145.417 26.2846C145.417 26.7105 145.243 27.1361 144.952 27.4459H144.933L140.228 32.1504C140.518 33.1378 140.77 34.1448 141.022 35.1321C141.099 35.4612 141.176 35.7904 141.235 36.1002C141.254 36.2549 141.312 36.5454 141.254 36.6809C141.215 36.797 141.138 36.8746 141.022 36.9131C140.847 36.9517 140.383 36.8938 140.189 36.8746C140.092 36.8553 140.015 36.8553 139.918 36.8356C139.666 36.797 139.414 36.7387 139.182 36.6809C139.008 36.6226 138.775 36.5258 138.717 36.3132C138.717 36.2935 138.717 36.2356 138.698 36.2163C138.698 36.1388 138.698 36.0805 138.678 36.0226C138.659 35.8097 138.64 35.5967 138.621 35.3837C138.543 34.803 138.485 34.2027 138.427 33.622ZM136.006 30.621L137.962 28.6852L136.006 26.7491L134.07 28.6852L136.006 30.621ZM140.828 21.9285L138.891 23.8642L140.828 25.8003L142.764 23.8642L140.828 21.9285ZM138.427 23.3997L140.363 21.4636L139.143 20.2246C138.95 20.0506 138.698 19.9341 138.427 19.9341C138.156 19.9341 137.904 20.0506 137.71 20.2246L136.49 21.4636L138.427 23.3997ZM137.71 32.3248H137.73C137.904 32.5185 138.156 32.6153 138.427 32.6153C138.678 32.6153 138.93 32.5185 139.124 32.3248L140.363 31.0859L138.427 29.1498L136.49 31.0859L137.71 32.3248ZM139.705 32.6925L139.608 32.7893C139.589 32.7893 139.589 32.7893 139.589 32.8086C139.569 32.8086 139.569 32.8086 139.569 32.8086V32.8283H139.55C139.55 32.8283 139.55 32.8476 139.53 32.8476C139.53 32.8476 139.53 32.8476 139.511 32.8669L139.472 32.9055H139.453V32.9248H139.433V32.9444C139.298 33.0216 139.182 33.0992 139.027 33.1574L139.066 33.4669C139.124 34.0672 139.201 34.6672 139.259 35.2676C139.279 35.4612 139.298 35.6742 139.337 35.8675C139.337 35.9258 139.337 35.9841 139.337 36.0419C139.356 36.0419 139.376 36.0419 139.376 36.0419C139.589 36.1195 139.821 36.1581 140.034 36.1774C140.111 36.1966 140.189 36.2163 140.286 36.2163C140.383 36.2356 140.479 36.2549 140.596 36.2549C140.576 36.1774 140.557 36.1002 140.537 36.0226C140.499 35.7711 140.441 35.5384 140.383 35.2868C140.169 34.4156 139.937 33.5444 139.705 32.6925ZM136.258 36.2549C136.355 36.2549 136.471 36.2356 136.568 36.2163C136.645 36.2163 136.723 36.1966 136.8 36.1774C137.013 36.1581 137.245 36.1195 137.458 36.0419C137.478 36.0419 137.497 36.0419 137.497 36.0419C137.497 35.9841 137.517 35.9258 137.517 35.8675C137.536 35.6742 137.555 35.4612 137.594 35.2676C137.652 34.6672 137.71 34.0672 137.768 33.4669L137.807 33.1574C137.691 33.1185 137.594 33.0606 137.497 32.983C137.478 32.983 137.478 32.983 137.478 32.983L137.458 32.9637H137.439C137.439 32.9444 137.439 32.9444 137.439 32.9444H137.42C137.42 32.9444 137.42 32.9444 137.42 32.9248C137.401 32.9248 137.401 32.9248 137.401 32.9248C137.342 32.8862 137.304 32.8476 137.265 32.8086L137.149 32.6925C136.916 33.5444 136.684 34.4156 136.471 35.2868C136.413 35.5384 136.355 35.7711 136.297 36.0226C136.277 36.1002 136.258 36.1774 136.258 36.2549ZM136.49 26.2846L138.427 28.2203L140.363 26.2846L138.427 24.3292L136.49 26.2846ZM143.229 24.3292L141.292 26.2846L143.229 28.2203L144.468 26.9814C144.662 26.7877 144.759 26.5361 144.759 26.2846C144.759 26.0133 144.662 25.7618 144.468 25.5681L143.229 24.3292ZM142.764 28.6852L140.828 26.7491L138.891 28.6852L140.828 30.621L142.764 28.6852ZM136.006 25.8003L137.962 23.8642L136.006 21.9285L134.07 23.8642L136.006 25.8003ZM135.542 26.2846L133.605 24.3292L132.385 25.5681C132.192 25.7618 132.075 26.0133 132.075 26.2846C132.075 26.5361 132.172 26.7877 132.366 26.9621L133.605 28.2203L135.542 26.2846Z" fill="#D4D766"/>
<path d="M6.85742 0H8.00029V16.0001H6.85742V0Z" fill="#D4D766"/>
<path fill-rule="evenodd" clip-rule="evenodd" d="M8.01131 31.5682C7.94472 32.2318 7.85609 32.9179 7.78995 33.5816C7.7679 33.825 7.74541 34.0684 7.70132 34.3118C7.70132 34.3779 7.70132 34.4445 7.67927 34.5331C7.67927 34.5552 7.67927 34.6213 7.65722 34.6438C7.59064 34.8868 7.34723 34.9975 7.12587 35.0641C6.86041 35.1302 6.57291 35.1968 6.30701 35.2409C6.19633 35.2634 6.08565 35.2634 5.97497 35.2854C5.7761 35.3075 5.2227 35.3736 5.02338 35.3295C4.91314 35.2854 4.80246 35.1968 4.75793 35.0641C4.71383 34.9093 4.77998 34.5772 4.80246 34.4004C4.86861 34.0463 4.95724 33.6702 5.04587 33.2941C5.31133 32.1657 5.62088 31.0148 5.93087 29.8863L0.420673 24.377C0.154776 24.0229 0 23.6027 0 23.1825C0 22.6736 0.199313 22.1868 0.553401 21.8327L6.6611 15.7259C7.01519 15.3718 7.502 15.1725 8.01131 15.1725C8.52017 15.1725 8.98494 15.3718 9.36108 15.7259L15.4467 21.8327C15.8008 22.1868 16.0001 22.6736 16.0001 23.1825C16.0001 23.6693 15.8008 24.1557 15.4692 24.5098H15.4467L10.0693 29.8863C10.4013 31.0148 10.6888 32.1657 10.9767 33.2941C11.0649 33.6702 11.1536 34.0463 11.2202 34.4004C11.2422 34.5772 11.3088 34.9093 11.2422 35.0641C11.1981 35.1968 11.1095 35.2854 10.9767 35.3295C10.7774 35.3736 10.2465 35.3075 10.0252 35.2854C9.91448 35.2634 9.82585 35.2634 9.71517 35.2409C9.42766 35.1968 9.13972 35.1302 8.87426 35.0641C8.67495 34.9975 8.40949 34.8868 8.34291 34.6438C8.34291 34.6213 8.34291 34.5552 8.32086 34.5331C8.32086 34.4445 8.32086 34.3779 8.29881 34.3118C8.27677 34.0684 8.25472 33.825 8.23267 33.5816C8.14404 32.9179 8.07745 32.2318 8.01131 31.5682ZM5.24474 28.1384L7.47996 25.9261L5.24474 23.7134L3.03202 25.9261L5.24474 28.1384ZM10.7554 18.2041L8.54222 20.4163L10.7554 22.6291L12.9685 20.4163L10.7554 18.2041ZM8.01131 19.8854L10.224 17.6727L8.83017 16.2568C8.60881 16.0579 8.32086 15.9248 8.01131 15.9248C7.70132 15.9248 7.41381 16.0579 7.19245 16.2568L5.79815 17.6727L8.01131 19.8854ZM7.19245 30.0857H7.2145C7.41381 30.307 7.70132 30.4177 8.01131 30.4177C8.29881 30.4177 8.58676 30.307 8.80768 30.0857L10.224 28.6697L8.01131 26.457L5.79815 28.6697L7.19245 30.0857ZM9.47176 30.5059L9.36108 30.6166C9.33903 30.6166 9.33903 30.6166 9.33903 30.6386C9.31698 30.6386 9.31698 30.6386 9.31698 30.6386V30.6611H9.29494C9.29494 30.6611 9.29494 30.6832 9.27245 30.6832C9.27245 30.6832 9.27245 30.6832 9.2504 30.7052L9.2063 30.7493H9.18426V30.7713H9.16177V30.7938C9.00699 30.882 8.87426 30.9707 8.697 31.0372L8.74153 31.3909C8.80768 32.077 8.89631 32.7627 8.96289 33.4488C8.98494 33.6702 9.00699 33.9136 9.05109 34.1345C9.05109 34.2011 9.05109 34.2677 9.05109 34.3338C9.07358 34.3338 9.09562 34.3338 9.09562 34.3338C9.33903 34.4225 9.60449 34.4666 9.8479 34.4886C9.93653 34.5107 10.0252 34.5331 10.1358 34.5331C10.2465 34.5552 10.3568 34.5772 10.4899 34.5772C10.4674 34.4886 10.4454 34.4004 10.4233 34.3118C10.3792 34.0243 10.3127 33.7584 10.2465 33.4709C10.0027 32.4752 9.73722 31.4795 9.47176 30.5059ZM5.53269 34.5772C5.64337 34.5772 5.7761 34.5552 5.88678 34.5331C5.97497 34.5331 6.0636 34.5107 6.15223 34.4886C6.39564 34.4666 6.6611 34.4225 6.90451 34.3338C6.927 34.3338 6.94904 34.3338 6.94904 34.3338C6.94904 34.2677 6.97109 34.2011 6.97109 34.1345C6.99314 33.9136 7.01519 33.6702 7.05972 33.4488C7.12587 32.7627 7.19245 32.077 7.2586 31.3909L7.30313 31.0372C7.1704 30.9927 7.05972 30.9266 6.94904 30.8379C6.927 30.8379 6.927 30.8379 6.927 30.8379L6.90451 30.8159H6.88246C6.88246 30.7938 6.88246 30.7938 6.88246 30.7938H6.86041C6.86041 30.7938 6.86041 30.7938 6.86041 30.7713C6.83836 30.7713 6.83836 30.7713 6.83836 30.7713C6.77178 30.7272 6.72768 30.6832 6.68315 30.6386L6.55042 30.5059C6.28496 31.4795 6.01951 32.4752 5.7761 33.4709C5.70951 33.7584 5.64337 34.0243 5.57679 34.3118C5.55474 34.4004 5.53269 34.4886 5.53269 34.5772ZM5.79815 23.1825L8.01131 25.3948L10.224 23.1825L8.01131 20.9477L5.79815 23.1825ZM13.4995 20.9477L11.2863 23.1825L13.4995 25.3948L14.9158 23.9788C15.1372 23.7575 15.2479 23.47 15.2479 23.1825C15.2479 22.8725 15.1372 22.585 14.9158 22.3636L13.4995 20.9477ZM12.9685 25.9261L10.7554 23.7134L8.54222 25.9261L10.7554 28.1384L12.9685 25.9261ZM5.24474 22.6291L7.47996 20.4163L5.24474 18.2041L3.03202 20.4163L5.24474 22.6291ZM4.71383 23.1825L2.50067 20.9477L1.10636 22.3636C0.885442 22.585 0.752273 22.8725 0.752273 23.1825C0.752273 23.47 0.862953 23.7575 1.08431 23.9568L2.50067 25.3948L4.71383 23.1825Z" fill="#D4D766"/>
<path d="M238 3.03906L241.414 -0.489583H244.593L242.183 -2.89974L242.351 -7.57321L247.262 -7.65422L249.51 -5.40538V-8.81467L252.933 -12L256.463 -8.58594V-5.40538L258.669 -7.61155L263.63 -7.602L263.486 -2.59867L261.378 -0.489583H264.497L268 3.0246L264.361 6.46253H261.378L263.584 8.66884L263.575 13.6296L258.571 13.4863L256.463 11.3777V14.4973L252.948 18L249.51 14.361V11.3802L247.1 13.7898L242.427 13.6218L242.346 8.71137L244.595 6.46267H241.185L238 3.03906ZM249.51 -4.00087L246.857 -6.65394L243.309 -6.59578L243.191 -3.29644L245.997 -0.489583H249.51V-4.00087ZM255.47 -8.16536L252.92 -10.6308L250.503 -8.38194V-4.41175L252.986 -1.92896L255.47 -4.41175V-8.16536ZM262.505 -3.02156L262.608 -6.61082L259.079 -6.61733L256.463 -4.00087V-0.489583H259.973L262.505 -3.02156ZM263.966 5.46904L266.577 3.00362L264.085 0.503471H260.385L257.902 2.98625L260.385 5.46904H263.966ZM256.463 9.97324L258.994 12.5052L262.584 12.6078L262.59 9.07914L259.973 6.46267H256.463V9.97324ZM250.503 13.9661L252.969 16.5762L255.47 14.0843V10.3848L252.987 7.90205L250.503 10.3866V13.9661ZM250.503 5.46904V8.98134L252.986 6.49682L255.47 8.98018V5.46904H258.98L256.497 2.98625L258.98 0.503327H255.47V-3.00723L252.986 -0.52445L250.503 -3.00723V0.503327H246.992L249.476 2.98625L246.993 5.46904H250.503ZM243.346 9.11574L243.404 12.663L246.704 12.7818L249.51 9.97497V6.46253H245.999L243.346 9.11574ZM245.588 5.46904L248.071 2.98625L245.586 0.503327H241.835L239.369 3.05281L241.618 5.46904H245.588Z" fill="#42C56E"/>
<path d="M109 14L108.056 17.0556H105L107.472 18.9444L106.527 22L109 20.1117L111.472 22L110.527 18.9444L113 17.0556H109.944L109 14Z" fill="#42C56E"/>
<path d="M191.5 9L190.91 10.9098H189L190.545 12.0902L189.955 14L191.5 12.8198L193.045 14L192.455 12.0902L194 10.9098H192.09L191.5 9Z" fill="#42C56E"/>
<path d="M288 32L287.292 34.2917H285L286.854 35.7083L286.146 38L288 36.5837L289.854 38L289.146 35.7083L291 34.2917H288.708L288 32Z" fill="#42C56E"/>
<path d="M130 0C155.729 23.7522 237.5 43.5 306 7.5" stroke="#E6D412"/>
<path d="M211 0C215 19.5 255 50.5 306.5 50.5" stroke="#E6D412"/>
<path fill-rule="evenodd" clip-rule="evenodd" d="M30.0111 42.086C34.9222 33.3211 47.5103 28.0516 55.0397 23.1761C59.329 20.4022 63.0941 17.4475 66.1218 14C69.1503 17.4467 72.899 20.4015 77.1882 23.1761C85.0293 28.2482 97.3885 33.4191 102.25 42.1518C103.396 44.0396 104.329 46.0748 105 48.2415C104.263 46.8957 102.381 46.1077 101.169 45.3361C100.531 44.9092 99.9577 44.4665 99.4836 43.9409C99.025 44.4665 98.4525 44.9092 97.7971 45.3361C96.9785 45.8617 95.8489 46.403 94.9647 47.1252V45.0901C94.9647 43.6785 93.8188 42.5293 92.4111 42.5293H92.4604C93.0329 42.5293 93.4915 42.0531 93.4915 41.4789C93.4915 41.1507 93.3438 40.8553 93.0822 40.6587C93.3274 40.166 93.4915 39.6733 93.5243 39.2307C93.7532 35.7667 89.5139 34.1585 87.0908 32.5989C86.0753 31.926 85.1918 31.2366 84.4716 30.4157C83.7514 31.2366 82.8508 31.926 81.8361 32.5989C79.4137 34.1585 75.1737 35.7675 75.4026 39.2307C75.4354 39.674 75.5987 40.166 75.8447 40.6587C75.5994 40.8553 75.4354 41.1507 75.4354 41.4789C75.4354 42.0538 75.9103 42.5293 76.4829 42.5293H76.5157C75.1245 42.5293 73.9622 43.6785 73.9622 45.0901V47.1252C73.0951 46.403 71.9484 45.8617 71.1298 45.3361C70.4752 44.9092 69.9026 44.4665 69.444 43.9409C68.9855 44.4665 68.4129 44.9092 67.7576 45.3361C66.2031 46.3544 63.4855 47.3712 63.6324 49.5873C63.6488 49.8826 63.7636 50.1944 63.9105 50.5226C63.7464 50.6378 63.6488 50.8344 63.6488 51.0482C63.6488 51.4093 63.9433 51.7211 64.3198 51.7211H64.3526C63.73 51.7211 63.1902 52.0658 62.9121 52.5742L62.3224 39.9021H62.5349C62.9278 39.9021 63.2551 39.5738 63.2551 39.1798C63.2551 38.9503 63.1403 38.7529 62.977 38.6221C63.1895 38.326 63.3699 37.9163 63.3863 37.588C63.4519 36.3566 62.2568 35.7989 61.5694 35.2404C61.2913 35.0108 61.0296 34.7477 60.8328 34.4688C60.6203 34.7477 60.375 35.0101 60.0798 35.2404C59.4087 35.7989 58.2136 36.3566 58.2792 37.588C58.2956 37.9163 58.4753 38.3267 58.6885 38.6221C58.5088 38.7529 58.4104 38.9503 58.4104 39.1798C58.4104 39.5738 58.7377 39.9021 59.1306 39.9021H59.3431L58.7534 52.5907C58.4097 51.5566 57.4278 50.8015 56.2811 50.8015H56.3303C56.9029 50.8015 57.3942 50.3252 57.3942 49.7346C57.3942 49.3899 57.2302 49.0781 56.9685 48.8979C57.2138 48.3895 57.3778 47.8796 57.4106 47.437C57.6559 43.9073 53.3346 42.2662 50.8631 40.6744C49.8156 40.0015 48.9149 39.2793 48.1783 38.4419C47.4417 39.2785 46.541 40.0007 45.5099 40.6744C43.0376 42.2662 38.7164 43.908 38.946 47.437C38.9788 47.8804 39.1428 48.3888 39.3881 48.8979C39.1428 49.0781 38.9788 49.3899 38.9788 49.7346C38.9788 50.326 39.4537 50.8015 40.0427 50.8015H40.0755C38.6515 50.8015 37.4892 51.9664 37.4892 53.3951V55.4804C36.5893 54.7417 35.4269 54.1996 34.5919 53.6583C33.9209 53.2314 33.3475 52.7716 32.8726 52.2303C32.3977 52.7716 31.8251 53.2314 31.1541 53.6583C29.566 54.6923 26.7992 55.7428 26.9469 57.9918C26.9633 58.2871 27.0781 58.6153 27.225 58.9436C27.0617 59.0587 26.9633 59.2553 26.9633 59.4849C26.9633 59.846 27.2742 60.1578 27.6507 60.1578H27.6671C27.1273 60.1578 26.6516 60.4209 26.3407 60.8307C26.1118 59.3862 25.997 57.9088 25.997 56.415C25.997 51.1619 27.4539 46.2542 30.0074 42.0845L30.0111 42.086ZM28.3903 61.6194C28.816 61.6194 29.1597 61.9641 29.1597 62.391V64H27.6209V62.391C27.6209 61.9641 27.9646 61.6194 28.3903 61.6194ZM31.8117 61.6194C32.2374 61.6194 32.5811 61.9641 32.5811 62.391V64H31.0423V62.391C31.0423 61.9641 31.386 61.6194 31.8117 61.6194ZM35.2331 61.6194C35.6424 61.6194 36.0025 61.9641 36.0025 62.391V64H34.4636V62.391C34.4636 61.9641 34.8074 61.6194 35.2331 61.6194ZM84.4731 44.7454C83.1632 44.7454 82.0836 45.8288 82.0836 47.1417V52.148H86.8634V47.1417C86.8634 45.828 85.7831 44.7454 84.4739 44.7454H84.4731ZM91.348 44.7454C90.7098 44.7454 90.1692 45.2867 90.1692 45.9275V48.3895H92.5267V45.9275C92.5267 45.2875 91.9862 44.7454 91.348 44.7454ZM77.5811 44.7454C78.2357 44.7454 78.7599 45.2867 78.7599 45.9275V48.3895H76.4188V45.9275C76.4188 45.2875 76.9429 44.7454 77.5811 44.7454ZM103.888 53.1499C103.478 53.1499 103.135 53.4789 103.135 53.905V55.4811H104.641V53.905C104.641 53.4781 104.297 53.1499 103.888 53.1499ZM100.532 53.1499C100.123 53.1499 99.7788 53.4789 99.7788 53.905V55.4811H101.285V53.905C101.285 53.4781 100.941 53.1499 100.532 53.1499ZM97.176 53.1499C96.7667 53.1499 96.423 53.4789 96.423 53.905V55.4811H97.9291V53.905C97.9291 53.4781 97.6018 53.1499 97.176 53.1499ZM65.0422 53.1499C65.4679 53.1499 65.7952 53.4789 65.7952 53.905V55.4811H64.2892V53.905C64.2892 53.4781 64.6329 53.1499 65.0422 53.1499ZM68.398 53.1499C68.8237 53.1499 69.151 53.4789 69.151 53.905V55.4811H67.645V53.905C67.645 53.4781 67.9887 53.1499 68.398 53.1499ZM71.7538 53.1499C72.1631 53.1499 72.5068 53.4789 72.5068 53.905V55.4811H71.0008V53.905C71.0008 53.4781 71.3445 53.1499 71.7538 53.1499ZM60.835 41.1342C60.4421 41.1342 60.1312 41.446 60.1312 41.84V43.3009H61.5388V41.84C61.5388 41.446 61.2115 41.1342 60.835 41.1342ZM60.835 49.2097C60.3601 49.2097 59.9679 49.6037 59.9679 50.08V51.9021H61.7028V50.08C61.7028 49.6037 61.3099 49.2097 60.835 49.2097Z" fill="#D4D766"/>
</svg>
