<svg width="217" height="168" viewBox="0 0 217 168" fill="none" xmlns="http://www.w3.org/2000/svg">
<path d="M143.87 2.44861H18.7535V124.957H143.87V2.44861Z" fill="#EC0A23"/>
<path d="M140.659 6.36584H21.9753V124.957H140.659V6.36584Z" fill="white"/>
<path d="M143.869 123.23V124.957H80.816L94.4454 111.339L113.209 92.564L143.869 123.23Z" fill="#002373"/>
<path opacity="0.7" d="M143.869 123.23V124.957H80.816L94.4454 111.339L113.209 92.564L143.869 123.23Z" fill="black"/>
<path d="M18.7534 124.957V113.182L57.5208 74.4146L108.063 124.957H18.7534Z" fill="#002373"/>
<path opacity="0.7" d="M18.7534 124.957V113.182L57.5208 74.4146L108.063 124.957H18.7534Z" fill="black"/>
<path d="M120.857 44.8423C122.552 34.3985 115.46 24.5579 105.016 22.8626C94.5725 21.1673 84.7318 28.2594 83.0365 38.7032C81.3413 49.147 88.4333 58.9877 98.8772 60.683C109.321 62.3782 119.162 55.2861 120.857 44.8423Z" fill="#002373"/>
<path opacity="0.7" d="M120.857 44.8423C122.552 34.3985 115.46 24.5579 105.016 22.8626C94.5725 21.1673 84.7318 28.2594 83.0365 38.7032C81.3413 49.147 88.4333 58.9877 98.8772 60.683C109.321 62.3782 119.162 55.2861 120.857 44.8423Z" fill="black"/>
<path d="M55.8579 0.0387894L43.9458 121.967L168.469 134.132L180.381 12.2045L55.8579 0.0387894Z" fill="#002373"/>
<path opacity="0.1" d="M55.8581 -2.898e-05L43.946 121.928L168.469 134.094L180.381 12.1657L55.8581 -2.898e-05Z" fill="black"/>
<path d="M58.6846 4.25077L47.1534 122.28L165.275 133.82L176.806 15.7911L58.6846 4.25077Z" fill="white"/>
<path d="M166.491 8.80827L166.435 9.38501L170.576 9.78957L170.632 9.21283L166.491 8.80827Z" fill="#002373"/>
<path d="M153.301 6.67193L153.243 7.24854L163.426 8.26672L163.484 7.69012L153.301 6.67193Z" fill="#002373"/>
<path opacity="0.1" d="M166.491 8.80827L166.435 9.38501L170.576 9.78957L170.632 9.21283L166.491 8.80827Z" fill="black"/>
<path opacity="0.1" d="M153.301 6.67193L153.243 7.24854L163.426 8.26672L163.484 7.69012L153.301 6.67193Z" fill="black"/>
<path opacity="0.1" d="M168.631 132.403L168.463 134.124L105.711 127.993L120.598 115.766L141.1 98.9034L168.631 132.403Z" fill="black"/>
<path d="M168.631 132.403L168.463 134.124L105.711 127.993L120.598 115.766L141.1 98.9034L168.631 132.403Z" fill="#002373"/>
<path opacity="0.1" d="M168.631 132.403L168.463 134.124L105.711 127.993L120.598 115.766L141.1 98.9034L168.631 132.403Z" fill="black"/>
<path opacity="0.1" d="M134.83 66.4177C145.41 66.4177 153.987 57.8405 153.987 47.26C153.987 36.6795 145.41 28.1023 134.83 28.1023C124.249 28.1023 115.672 36.6795 115.672 47.26C115.672 57.8405 124.249 66.4177 134.83 66.4177Z" fill="black"/>
<path d="M134.83 66.4177C145.41 66.4177 153.987 57.8405 153.987 47.26C153.987 36.6795 145.41 28.1023 134.83 28.1023C124.249 28.1023 115.672 36.6795 115.672 47.26C115.672 57.8405 124.249 66.4177 134.83 66.4177Z" fill="#5CC9FC"/>
<path d="M124.85 16.22L0 24.3812L7.9911 146.629L132.841 138.468L124.85 16.22Z" fill="#002373"/>
<path d="M121.895 20.3361L3.46397 28.0778L11.1996 146.416L129.631 138.675L121.895 20.3361Z" fill="white"/>
<path opacity="0.5" d="M124.85 16.22L0 24.3812L7.9911 146.629L132.841 138.468L124.85 16.22Z" fill="white"/>
<path d="M132.714 136.755L132.824 138.476L69.9098 142.585L82.6178 128.109L100.118 108.152L132.714 136.755Z" fill="#002373"/>
<path opacity="0.5" d="M132.714 136.755L132.824 138.476L69.9098 142.585L82.6178 128.109L100.118 108.152L132.714 136.755Z" fill="white"/>
<path d="M7.97476 146.63L7.20985 134.884L43.3696 93.6708L97.0934 140.812L7.97476 146.63Z" fill="#002373"/>
<path opacity="0.5" d="M7.97476 146.63L7.20985 134.884L43.3696 93.6708L97.0934 140.812L7.97476 146.63Z" fill="white"/>
<path d="M85.5732 77.3583C96.1537 77.3583 104.731 68.7812 104.731 58.2007C104.731 47.6202 96.1537 39.043 85.5732 39.043C74.9927 39.043 66.4155 47.6202 66.4155 58.2007C66.4155 68.7812 74.9927 77.3583 85.5732 77.3583Z" fill="#002373"/>
<path opacity="0.5" d="M85.5732 77.3583C96.1537 77.3583 104.731 68.7812 104.731 58.2007C104.731 47.6202 96.1537 39.043 85.5732 39.043C74.9927 39.043 66.4155 47.6202 66.4155 58.2007C66.4155 68.7812 74.9927 77.3583 85.5732 77.3583Z" fill="white"/>
<path opacity="0.2" d="M122.128 126.062C111.341 130.253 99.5537 131.15 88.2565 128.642C76.9594 126.134 66.6598 120.332 58.66 111.97C50.6602 103.608 45.3196 93.062 43.3135 81.6649C41.3074 70.2679 42.7259 58.5319 47.3896 47.9411C52.0534 37.3502 59.7529 28.3801 69.5145 22.165C79.2761 15.9499 90.6615 12.769 102.231 13.0245C113.8 13.28 125.034 16.9605 134.512 23.6004C143.99 30.2404 151.286 39.5417 155.477 50.3281C158.262 57.4905 159.607 65.1312 159.438 72.8139C159.269 80.4965 157.588 88.0706 154.491 95.1034C151.394 102.136 146.942 108.49 141.389 113.802C135.836 119.114 129.291 123.28 122.128 126.062Z" fill="#002373"/>
<path opacity="0.1" d="M111.539 13.9802L65.647 118.206C64.9403 117.671 64.2399 117.117 63.5523 116.557C59.1167 112.887 55.254 108.576 52.0919 103.766L91.732 13.7383C98.2993 12.6805 105 12.7624 111.539 13.9802Z" fill="white"/>
<path opacity="0.1" d="M144.165 32.0614L101.016 130.054C92.0539 130.063 83.2094 128.011 75.1669 124.056L122.282 17.0483C130.628 20.3127 138.115 25.4488 144.165 32.0614Z" fill="white"/>
<path d="M52.7665 32.1087C60.5631 22.582 71.0096 15.5812 82.785 11.9916C94.5604 8.40203 107.136 8.38483 118.921 11.9422C130.706 15.4996 141.172 22.4718 148.994 31.9771C156.817 41.4824 161.645 53.094 162.869 65.3434C164.092 77.5928 161.656 89.9299 155.868 100.795C150.079 111.659 141.2 120.564 130.351 126.382C119.502 132.2 107.172 134.67 94.9189 133.48C82.6661 132.29 71.0414 127.494 61.5146 119.698C48.7409 109.242 40.6433 94.1403 39.0028 77.7147C37.3622 61.2891 42.3131 44.8844 52.7665 32.1087ZM145.162 107.722C152.319 98.9734 156.721 88.2995 157.812 77.0496C158.902 65.7997 156.632 54.4791 151.289 44.5192C145.946 34.5593 137.77 26.4074 127.794 21.0943C117.818 15.7812 106.49 13.5456 95.2436 14.6701C83.9971 15.7945 73.3366 20.2286 64.61 27.4117C55.8834 34.5947 49.4827 44.2041 46.2173 55.0247C42.9519 65.8453 42.9684 77.3913 46.2647 88.2025C49.5611 99.0138 55.9892 108.605 64.7362 115.763C70.5448 120.516 77.2329 124.079 84.4185 126.247C91.6041 128.416 99.1465 129.148 106.615 128.401C114.083 127.654 121.332 125.444 127.946 121.895C134.56 118.347 140.41 113.531 145.162 107.722Z" fill="#EC0A23"/>
<path d="M150.658 107.504C156.789 111.165 162.621 115.189 168.351 119.34C174.081 123.491 179.665 127.814 185.16 132.252C190.654 136.69 196.047 141.255 201.249 146.049C203.855 148.443 206.402 150.9 208.889 153.422C211.385 155.968 213.836 158.515 216.147 161.278C216.681 161.918 216.975 162.724 216.98 163.557C216.984 164.391 216.698 165.199 216.17 165.844C215.642 166.49 214.907 166.931 214.089 167.092C213.272 167.253 212.423 167.125 211.69 166.728C208.507 165.009 205.527 163.112 202.554 161.17C199.581 159.228 196.677 157.204 193.812 155.122C188.082 150.97 182.536 146.596 177.106 142.082C171.675 137.568 166.326 132.952 161.125 128.152C155.923 123.351 150.823 118.436 146.023 113.151C145.423 112.498 145.079 111.65 145.054 110.763C145.029 109.877 145.325 109.011 145.887 108.325C146.448 107.638 147.239 107.178 148.113 107.027C148.987 106.876 149.886 107.046 150.645 107.504H150.658Z" fill="#EC0A23"/>
</svg>
