<svg width="147" height="113" viewBox="0 0 147 113" fill="none" xmlns="http://www.w3.org/2000/svg">
<path d="M97.2558 1.6553H12.6774V84.471H97.2558V1.6553Z" fill="#EC0A23"/>
<path d="M95.0855 4.30341H14.8553V84.471H95.0855V4.30341Z" fill="white"/>
<path d="M97.2557 83.3036V84.471H54.6316L63.8451 75.2653L76.5293 62.5732L97.2557 83.3036Z" fill="#002373"/>
<path opacity="0.7" d="M97.2557 83.3036V84.471H54.6316L63.8451 75.2653L76.5293 62.5732L97.2557 83.3036Z" fill="black"/>
<path d="M12.6774 84.471V76.511L38.8841 50.3043L73.0508 84.471H12.6774Z" fill="#002373"/>
<path opacity="0.7" d="M12.6774 84.471V76.511L38.8841 50.3043L73.0508 84.471H12.6774Z" fill="black"/>
<path d="M81.6993 30.3134C82.8453 23.2534 78.051 16.6011 70.991 15.4551C63.931 14.3091 57.2787 19.1033 56.1327 26.1633C54.9867 33.2234 59.7809 39.8756 66.841 41.0216C73.901 42.1676 80.5533 37.3734 81.6993 30.3134Z" fill="#002373"/>
<path opacity="0.7" d="M81.6993 30.3134C82.8453 23.2534 78.051 16.6011 70.991 15.4551C63.931 14.3091 57.2787 19.1033 56.1327 26.1633C54.9867 33.2234 59.7809 39.8756 66.841 41.0216C73.901 42.1676 80.5533 37.3734 81.6993 30.3134Z" fill="black"/>
<path d="M37.7599 0.0261558L29.7073 82.4494L113.885 90.6734L121.938 8.25018L37.7599 0.0261558Z" fill="#002373"/>
<path opacity="0.1" d="M37.7601 -2.82485e-05L29.7075 82.4232L113.885 90.6472L121.938 8.224L37.7601 -2.82485e-05Z" fill="black"/>
<path d="M39.6707 2.87362L31.8756 82.6613L111.726 90.4625L119.521 10.6748L39.6707 2.87362Z" fill="white"/>
<path d="M112.548 5.95443L112.51 6.3443L115.309 6.61778L115.347 6.22791L112.548 5.95443Z" fill="#002373"/>
<path d="M103.631 4.51027L103.592 4.90005L110.476 5.58835L110.515 5.19856L103.631 4.51027Z" fill="#002373"/>
<path opacity="0.1" d="M112.548 5.95443L112.51 6.3443L115.309 6.61778L115.347 6.22791L112.548 5.95443Z" fill="black"/>
<path opacity="0.1" d="M103.631 4.51027L103.592 4.90005L110.476 5.58835L110.515 5.19856L103.631 4.51027Z" fill="black"/>
<path opacity="0.1" d="M113.995 89.5047L113.881 90.6682L71.4604 86.5236L81.524 78.2581L95.3834 66.8588L113.995 89.5047Z" fill="black"/>
<path d="M113.995 89.5047L113.881 90.6682L71.4604 86.5236L81.524 78.2581L95.3834 66.8588L113.995 89.5047Z" fill="#002373"/>
<path opacity="0.1" d="M113.995 89.5047L113.881 90.6682L71.4604 86.5236L81.524 78.2581L95.3834 66.8588L113.995 89.5047Z" fill="black"/>
<path opacity="0.1" d="M91.1448 44.8984C98.2972 44.8984 104.095 39.1002 104.095 31.9478C104.095 24.7954 98.2972 18.9972 91.1448 18.9972C83.9924 18.9972 78.1942 24.7954 78.1942 31.9478C78.1942 39.1002 83.9924 44.8984 91.1448 44.8984Z" fill="black"/>
<path d="M91.1448 44.8984C98.2972 44.8984 104.095 39.1002 104.095 31.9478C104.095 24.7954 98.2972 18.9972 91.1448 18.9972C83.9924 18.9972 78.1942 24.7954 78.1942 31.9478C78.1942 39.1002 83.9924 44.8984 91.1448 44.8984Z" fill="#5CC9FC"/>
<path d="M84.3983 10.9647L0 16.4817L5.40198 99.121L89.8003 93.604L84.3983 10.9647Z" fill="#002373"/>
<path d="M82.4011 13.7473L2.34167 18.9806L7.57093 98.9775L87.6303 93.7441L82.4011 13.7473Z" fill="white"/>
<path opacity="0.5" d="M84.3983 10.9647L0 16.4817L5.40198 99.121L89.8003 93.604L84.3983 10.9647Z" fill="white"/>
<path d="M89.7147 92.4466L89.7892 93.61L47.259 96.3874L55.8497 86.602L67.6799 73.1108L89.7147 92.4466Z" fill="#002373"/>
<path opacity="0.5" d="M89.7147 92.4466L89.7892 93.61L47.259 96.3874L55.8497 86.602L67.6799 73.1108L89.7147 92.4466Z" fill="white"/>
<path d="M5.39092 99.1216L4.87384 91.1813L29.3178 63.3214L65.6351 95.1887L5.39092 99.1216Z" fill="#002373"/>
<path opacity="0.5" d="M5.39092 99.1216L4.87384 91.1813L29.3178 63.3214L65.6351 95.1887L5.39092 99.1216Z" fill="white"/>
<path d="M57.8474 52.2943C64.9999 52.2943 70.7981 46.4961 70.7981 39.3437C70.7981 32.1912 64.9999 26.3931 57.8474 26.3931C50.695 26.3931 44.8969 32.1912 44.8969 39.3437C44.8969 46.4961 50.695 52.2943 57.8474 52.2943Z" fill="#002373"/>
<path opacity="0.5" d="M57.8474 52.2943C64.9999 52.2943 70.7981 46.4961 70.7981 39.3437C70.7981 32.1912 64.9999 26.3931 57.8474 26.3931C50.695 26.3931 44.8969 32.1912 44.8969 39.3437C44.8969 46.4961 50.695 52.2943 57.8474 52.2943Z" fill="white"/>
<path opacity="0.2" d="M82.5583 85.2178C75.2664 88.0507 67.2982 88.6577 59.6614 86.962C52.0245 85.2664 45.062 81.3443 39.6541 75.6917C34.2463 70.0391 30.636 62.9098 29.2799 55.2054C27.9238 47.501 28.8827 39.5675 32.0354 32.4081C35.188 25.2487 40.3929 19.1849 46.9918 14.9835C53.5906 10.7821 61.2872 8.63182 69.1081 8.80454C76.929 8.97726 84.5231 11.4652 90.9301 15.9538C97.337 20.4425 102.269 26.7301 105.103 34.0217C106.985 38.8635 107.895 44.0287 107.78 49.2221C107.666 54.4156 106.529 59.5357 104.436 64.2899C102.342 69.0441 99.3327 73.3393 95.5789 76.9301C91.8251 80.521 87.4007 83.3372 82.5583 85.2178Z" fill="#002373"/>
<path opacity="0.1" d="M75.4006 9.45059L44.3774 79.907C43.8996 79.5455 43.4262 79.171 42.9614 78.7923C39.9629 76.3118 37.3517 73.3974 35.2142 70.1456L62.0109 9.28704C66.4504 8.572 70.9799 8.62733 75.4006 9.45059Z" fill="white"/>
<path opacity="0.1" d="M97.4552 21.6735L68.287 87.9163C62.2285 87.9228 56.2496 86.5356 50.8128 83.862L82.6624 11.5247C88.3048 13.7313 93.3656 17.2034 97.4552 21.6735Z" fill="white"/>
<path d="M35.6702 21.7054C40.9407 15.2654 48.0025 10.5328 55.9627 8.10627C63.9228 5.6797 72.4238 5.66808 80.3905 8.07287C88.3573 10.4777 95.4321 15.1909 100.72 21.6165C106.008 28.0421 109.272 35.8915 110.099 44.1721C110.926 52.4527 109.279 60.7926 105.366 68.1371C101.454 75.4817 95.4509 81.501 88.1171 85.434C80.7833 89.3669 72.448 91.0368 64.1652 90.2326C55.8823 89.4283 48.024 86.1859 41.5839 80.9155C32.9488 73.8474 27.4749 63.6388 26.3659 52.5351C25.2569 41.4313 28.6037 30.3418 35.6702 21.7054ZM98.1298 72.8197C102.968 66.9059 105.943 59.6904 106.681 52.0855C107.418 44.4805 105.883 36.8278 102.272 30.0949C98.6596 23.362 93.1322 17.8513 86.3885 14.2597C79.6447 10.668 71.9874 9.15674 64.3847 9.91689C56.782 10.677 49.5755 13.6745 43.6763 18.5302C37.7772 23.3859 33.4503 29.8819 31.2429 37.1966C29.0355 44.5114 29.0467 52.3164 31.275 59.6248C33.5033 66.9332 37.8487 73.4168 43.7617 78.2556C47.6883 81.469 52.2095 83.8773 57.0669 85.3432C61.9244 86.8091 67.023 87.3037 72.0717 86.7989C77.1203 86.2941 82.0201 84.7998 86.4912 82.4012C90.9623 80.0026 94.9171 76.7468 98.1298 72.8197Z" fill="#EC0A23"/>
<path d="M101.845 72.6726C105.989 75.1474 109.932 77.8675 113.805 80.6737C117.679 83.4799 121.454 86.4024 125.168 89.4022C128.882 92.4021 132.528 95.4881 136.044 98.729C137.806 100.347 139.527 102.009 141.209 103.713C142.896 105.435 144.553 107.156 146.115 109.024C146.476 109.457 146.675 110.001 146.678 110.565C146.681 111.128 146.488 111.675 146.131 112.111C145.774 112.547 145.277 112.845 144.724 112.954C144.172 113.063 143.598 112.976 143.103 112.708C140.951 111.546 138.936 110.264 136.926 108.951C134.916 107.638 132.954 106.27 131.017 104.862C127.143 102.056 123.395 99.0991 119.723 96.0476C116.052 92.9961 112.437 89.8757 108.92 86.6305C105.404 83.3853 101.956 80.0626 98.7112 76.4903C98.306 76.0484 98.0736 75.4753 98.0568 74.876C98.0399 74.2767 98.2396 73.6914 98.6194 73.2275C98.9991 72.7636 99.5334 72.4521 100.124 72.3502C100.715 72.2482 101.323 72.3627 101.836 72.6726H101.845Z" fill="#EC0A23"/>
</svg>
