<svg xmlns="http://www.w3.org/2000/svg" xmlns:xlink="http://www.w3.org/1999/xlink" viewBox="0 0 1080 665.26"><defs><style>.cls-1{isolation:isolate;}.cls-2{fill:#25306d;}.cls-3{fill:#ea1d27;}.cls-4{mix-blend-mode:multiply;fill:url(#linear-gradient);}</style><linearGradient id="linear-gradient" x1="624.32" y1="332.2" x2="720.97" y2="530.81" gradientUnits="userSpaceOnUse"><stop offset="0" stop-color="#fff" stop-opacity="0"/><stop offset="0.67" stop-color="#737071" stop-opacity="0.64"/><stop offset="1" stop-color="#231f20"/></linearGradient></defs><g class="cls-1"><g id="Layer_1" data-name="Layer 1"><path class="cls-2" d="M831,528.89a34.51,34.51,0,0,1-15-3.42,35,35,0,0,1-16.45-46.63l96.69-202.11a38.28,38.28,0,0,1,69.06,0L1062,478.84a35,35,0,0,1-16.45,46.63,34.5,34.5,0,0,1-15,3.42h0a35.21,35.21,0,0,1-31.57-19.79l-57-118.42a12.39,12.39,0,0,0-22.32,0l-57,118.42A35.19,35.19,0,0,1,831,528.89Z"/><path class="cls-2" d="M416.94,528.89A138.06,138.06,0,0,1,279.22,383.21C283.17,311,343,253.8,415.39,253h1.93a138,138,0,0,1,129.19,90.46,58.45,58.45,0,0,1-54.9,78.46H394.39c-15.3,0-28.48-10.35-31.35-24.61A31.19,31.19,0,0,1,379.89,363a30.77,30.77,0,0,1,13.93-3h82.64a5.79,5.79,0,0,0,5.18-3,6.15,6.15,0,0,0-.17-6.24A75.34,75.34,0,0,0,416.94,315a80,80,0,0,0-9.91.62C373,319.9,345.37,347.84,341.45,382A76.36,76.36,0,0,0,373,453,75.12,75.12,0,0,0,416.73,467,85.22,85.22,0,0,0,454,458.1c4.31-2.07,8.08-5.26,12.42-9.42a30.82,30.82,0,0,1,21.38-8.61,32.48,32.48,0,0,1,4.71.36,31.07,31.07,0,0,1,22.59,15.84C522,468.74,519,484.84,508,494.55A137.84,137.84,0,0,1,416.94,528.89Z"/><path class="cls-2" d="M135.8,528.89c-37.87,0-73.45-11.43-97.64-31.34a76.08,76.08,0,0,1-13.87-15c-8.13-11.67-7.39-25.28,1.94-35.51a31.34,31.34,0,0,1,23.43-10.38,33.89,33.89,0,0,1,13.22,2.74c6.23,2.63,11.82,6.81,16.76,10.5,17,12.72,39.4,20,61.38,20,14.35,0,27.09-3.3,34.08-8.82,5.51-4.34,7.5-8.9,6.46-14.8s-11.07-9.54-17.06-11.76l-.66-.24c-15.88-5.9-31.72-10.77-47-15.49-28-8.59-52.05-16-68.34-26.94A61.65,61.65,0,0,1,14.91,338.6c-.57-27.06,16-52.2,45.46-69C80.73,258.74,105.71,253,132.57,253c37.86,0,73.44,11.42,97.63,31.34a75.68,75.68,0,0,1,13.87,15c8.13,11.68,7.4,25.29-1.93,35.51a31.37,31.37,0,0,1-23.43,10.38,33.88,33.88,0,0,1-13.24-2.74c-6.24-2.63-11.82-6.81-16.75-10.5-17-12.72-39.4-20-61.38-20-14.35,0-27.09,3.29-34.08,8.81-5.5,4.34-7.49,8.9-6.46,14.8s11.07,9.54,17.07,11.76l.66.25c15.92,5.91,31.8,10.79,47.14,15.51,27.92,8.59,52,16,68.24,26.91a61.64,61.64,0,0,1,33.54,53.28c.57,27.06-16,52.2-45.45,69-20.37,10.88-45.35,16.64-72.2,16.64Z"/><path class="cls-3" d="M705.3,534.81a37.34,37.34,0,0,1-33.54-20.87l-104-211.57a37.34,37.34,0,0,1,67-32.95L738.77,481a37.35,37.35,0,0,1-33.47,53.81Z"/><path class="cls-4" d="M705.3,534.81a37.34,37.34,0,0,1-33.54-20.87l-104-211.57a37.34,37.34,0,0,1,67-32.95L738.77,481a37.35,37.35,0,0,1-33.47,53.81Z"/><path class="cls-3" d="M705.27,534.76a37.37,37.37,0,0,1-33.7-53.39l152.31-320a37.34,37.34,0,1,1,67.43,32.09L739,513.46A37.33,37.33,0,0,1,705.27,534.76Z"/><path class="cls-2" d="M593.44,224.46A37.35,37.35,0,0,1,559,172.82l.92-2.19a256,256,0,0,1,413.39-84,37.33,37.33,0,1,1-51.87,53.71,181.31,181.31,0,0,0-292.8,59.56l-.65,1.56A37.36,37.36,0,0,1,593.44,224.46Z"/><path class="cls-2" d="M917.82,568.39a26.21,26.21,0,0,0-10.27-2.15c-3.48,0-8,1.51-8,7,0,8.7,22.13,5,22.13,21.85,0,11-8.75,15.17-19,15.17-5.49,0-7.95-.72-12.94-1.94l.94-9.06a24.55,24.55,0,0,0,11.43,3.08c3.83,0,9-1.93,9-6.46,0-9.57-22.13-5.61-22.13-22.21,0-11.21,8.75-15.31,17.65-15.31a38.39,38.39,0,0,1,12.08,1.8Z"/><polygon class="cls-2" points="941.55 567.1 927.07 567.1 927.07 559.19 966.14 559.19 966.14 567.1 951.67 567.1 951.67 609.36 941.55 609.36 941.55 567.1"/><path class="cls-2" d="M973.15,559.19h10.93c10.85,0,23.79-.35,23.79,13.58a11.51,11.51,0,0,1-10.41,11.65v.15c2.75.21,4.34,2.94,5.35,5.17l8.1,19.62H999.63l-6.08-15.67c-1.44-3.74-2.74-5.17-7-5.17h-3.26v20.84H973.15Zm10.13,21.42h3.32c5,0,10.71-.71,10.71-7,0-6-5.63-6.54-10.71-6.54h-3.32Z"/><path class="cls-2" d="M1034.13,559.19h11.43l19.82,50.17h-11.22l-4.34-11.5h-20.47l-4.41,11.5h-10.48Zm5.58,10.06h-.16l-7.3,20.7H1047Z"/><path class="cls-2" d="M851.5,559.19h11.42l19.82,50.17H871.53l-4.34-11.5H846.72l-4.42,11.5H831.82Zm5.56,10.06h-.15l-7.3,20.7h14.76Z"/><path class="cls-2" d="M463.29,609.22H459v-37.3h4.31v5.62h.15a11.37,11.37,0,0,1,4.75-4.93,13.86,13.86,0,0,1,6.77-1.7,14.64,14.64,0,0,1,4.39.58,10,10,0,0,1,3.06,1.55,8.83,8.83,0,0,1,2.09,2.27,15.26,15.26,0,0,1,1.4,2.8,12.62,12.62,0,0,1,5-5.43,14.29,14.29,0,0,1,7.16-1.77,12.56,12.56,0,0,1,6.09,1.27,9.06,9.06,0,0,1,3.49,3.31,13,13,0,0,1,1.62,4.71,37.81,37.81,0,0,1,.39,5.48v23.54h-4.32V583.44a10.48,10.48,0,0,0-1.69-6.33q-1.69-2.31-6.3-2.31a10.46,10.46,0,0,0-8.42,4.25,8.4,8.4,0,0,0-1.19,2.2,18.43,18.43,0,0,0-.76,2.62,21.77,21.77,0,0,0-.39,2.74c-.07.91-.11,1.75-.11,2.52v20.09h-4.32V583.44a10.55,10.55,0,0,0-1.69-6.33q-1.7-2.31-6.3-2.31a10.46,10.46,0,0,0-8.43,4.25,8.38,8.38,0,0,0-1.18,2.2,17.21,17.21,0,0,0-.76,2.62,23.82,23.82,0,0,0-.4,2.74c-.07.91-.11,1.75-.11,2.52Z"/><path class="cls-2" d="M522.19,591.58a20.17,20.17,0,0,0,.79,5.72,13.9,13.9,0,0,0,2.34,4.68,11.26,11.26,0,0,0,3.93,3.17,13,13,0,0,0,12.74-1,10.72,10.72,0,0,0,4-6.34h4.83a23.43,23.43,0,0,1-2.09,4.93,15.2,15.2,0,0,1-3.24,4,13.91,13.91,0,0,1-4.61,2.63,18.78,18.78,0,0,1-6.19.94,18.22,18.22,0,0,1-7.71-1.51,14.45,14.45,0,0,1-5.32-4.15,17.25,17.25,0,0,1-3.1-6.19,28.09,28.09,0,0,1-1-7.66,24.51,24.51,0,0,1,1.19-7.71,19.65,19.65,0,0,1,3.38-6.3,15.93,15.93,0,0,1,5.37-4.25,16.21,16.21,0,0,1,7.2-1.55c5.13,0,9.17,1.77,12.09,5.3s4.37,8.65,4.32,15.37Zm24.34-3.6a17.29,17.29,0,0,0-.76-5.15,12.06,12.06,0,0,0-2.23-4.18,10.65,10.65,0,0,0-3.71-2.8,11.87,11.87,0,0,0-5.11-1.05,11.4,11.4,0,0,0-5.08,1.08,11.68,11.68,0,0,0-3.74,2.88,14.37,14.37,0,0,0-2.48,4.18,19,19,0,0,0-1.23,5Z"/><path class="cls-2" d="M563.3,609.22H559v-37.3h4.32v5.62h.15a11.32,11.32,0,0,1,4.75-4.93,13.86,13.86,0,0,1,6.77-1.7,14.64,14.64,0,0,1,4.39.58,10,10,0,0,1,3.06,1.55,8.83,8.83,0,0,1,2.09,2.27,15.26,15.26,0,0,1,1.4,2.8,12.62,12.62,0,0,1,5-5.43,14.26,14.26,0,0,1,7.16-1.77,12.52,12.52,0,0,1,6.08,1.27,9.09,9.09,0,0,1,3.5,3.31,13,13,0,0,1,1.62,4.71,37.81,37.81,0,0,1,.39,5.48v23.54h-4.32V583.44a10.48,10.48,0,0,0-1.69-6.33q-1.7-2.31-6.3-2.31a10.5,10.5,0,0,0-8.43,4.25,8.68,8.68,0,0,0-1.18,2.2,17.21,17.21,0,0,0-.76,2.62,23.82,23.82,0,0,0-.4,2.74c-.07.91-.1,1.75-.1,2.52v20.09h-4.32V583.44a10.48,10.48,0,0,0-1.7-6.33q-1.68-2.31-6.3-2.31a10.46,10.46,0,0,0-8.42,4.25,8.7,8.7,0,0,0-1.19,2.2,18.41,18.41,0,0,0-.75,2.62,20.12,20.12,0,0,0-.4,2.74c-.07.91-.11,1.75-.11,2.52Z"/><path class="cls-2" d="M624.36,609.22H620V557.38h4.32V577.9a13.36,13.36,0,0,1,5.72-5.22,17.15,17.15,0,0,1,7.6-1.77,15.87,15.87,0,0,1,7.38,1.62,15.14,15.14,0,0,1,5.18,4.32,18.58,18.58,0,0,1,3.06,6.3,27.8,27.8,0,0,1,1,7.49,30.28,30.28,0,0,1-.94,7.71,16.89,16.89,0,0,1-3,6.22,14.34,14.34,0,0,1-5.22,4.15,17.93,17.93,0,0,1-7.71,1.51,13.93,13.93,0,0,1-3.67-.51,16.82,16.82,0,0,1-3.64-1.44,14.66,14.66,0,0,1-3.24-2.34,11.75,11.75,0,0,1-2.41-3.27h-.14Zm0-18.79a22.74,22.74,0,0,0,.83,6.3,15.31,15.31,0,0,0,2.41,5,11.24,11.24,0,0,0,4,3.34,11.55,11.55,0,0,0,5.4,1.23,13,13,0,0,0,5-1,11.58,11.58,0,0,0,4-2.85,13.34,13.34,0,0,0,2.7-4.57,18.28,18.28,0,0,0,1-6.23,24.66,24.66,0,0,0-.57-6.59,15.67,15.67,0,0,0-2.31-5.36,11.41,11.41,0,0,0-4.07-3.64A12.13,12.13,0,0,0,637,574.8a10.94,10.94,0,0,0-5.29,1.26,12.17,12.17,0,0,0-4,3.39,15.62,15.62,0,0,0-2.49,5A20.81,20.81,0,0,0,624.36,590.43Z"/><path class="cls-2" d="M666.19,591.58a20.17,20.17,0,0,0,.79,5.72,13.9,13.9,0,0,0,2.34,4.68,11.26,11.26,0,0,0,3.93,3.17,13,13,0,0,0,12.74-1,10.72,10.72,0,0,0,4-6.34h4.83a23.43,23.43,0,0,1-2.09,4.93,15.2,15.2,0,0,1-3.24,4,14,14,0,0,1-4.61,2.63,18.78,18.78,0,0,1-6.19.94,18.22,18.22,0,0,1-7.71-1.51,14.45,14.45,0,0,1-5.32-4.15,17.25,17.25,0,0,1-3.1-6.19,28.09,28.09,0,0,1-1-7.66,24.51,24.51,0,0,1,1.19-7.71,19.65,19.65,0,0,1,3.38-6.3,15.93,15.93,0,0,1,5.37-4.25,16.21,16.21,0,0,1,7.2-1.55c5.13,0,9.17,1.77,12.09,5.3s4.37,8.65,4.32,15.37Zm24.34-3.6a17.29,17.29,0,0,0-.76-5.15,12.06,12.06,0,0,0-2.23-4.18,10.65,10.65,0,0,0-3.71-2.8,11.87,11.87,0,0,0-5.11-1.05,11.4,11.4,0,0,0-5.08,1.08,11.68,11.68,0,0,0-3.74,2.88,14.62,14.62,0,0,0-2.49,4.18,19.36,19.36,0,0,0-1.22,5Z"/><path class="cls-2" d="M708.09,609.22h-4.32v-37.3h4.32v7h.15c1.2-3,2.74-5,4.64-6.23a14.11,14.11,0,0,1,7.53-1.77v4.68a12.65,12.65,0,0,0-6,1.16,9.82,9.82,0,0,0-3.78,3.31,13,13,0,0,0-2,4.93,31.85,31.85,0,0,0-.54,5.94Z"/><path class="cls-2" d="M762.38,610.23a19.37,19.37,0,0,1-6.73-1.3,15,15,0,0,1-5.47-3.67,17.56,17.56,0,0,1-3.71-6.12,24.54,24.54,0,0,1-1.37-8.57,26.38,26.38,0,0,1,1.08-7.67,18.07,18.07,0,0,1,3.24-6.22,15.44,15.44,0,0,1,5.4-4.22,19.38,19.38,0,0,1,15.19,0,15.7,15.7,0,0,1,5.4,4.18,17.3,17.3,0,0,1,3.21,6.23,27.77,27.77,0,0,1,1,7.7,25,25,0,0,1-1.22,8.06,18.21,18.21,0,0,1-3.49,6.2,15.45,15.45,0,0,1-5.48,4A17.39,17.39,0,0,1,762.38,610.23Zm12.67-19.66a25.44,25.44,0,0,0-.72-6.19,14.69,14.69,0,0,0-2.23-5,10.67,10.67,0,0,0-3.89-3.34,12.54,12.54,0,0,0-5.83-1.23,11.92,11.92,0,0,0-5.8,1.33,11.49,11.49,0,0,0-3.92,3.53,15.58,15.58,0,0,0-2.23,5,23.83,23.83,0,0,0-.72,5.87,22.94,22.94,0,0,0,.83,6.37,14.87,14.87,0,0,0,2.41,5,10.85,10.85,0,0,0,4,3.24,12.36,12.36,0,0,0,5.47,1.15,11.81,11.81,0,0,0,5.8-1.33,11.21,11.21,0,0,0,3.92-3.57,15.87,15.87,0,0,0,2.23-5A23.34,23.34,0,0,0,775.05,590.57Z"/><path class="cls-2" d="M783.84,575.52v-3.6h5.54V566a12.2,12.2,0,0,1,1.8-7.06q1.8-2.6,6.12-2.59c.67,0,1.3,0,1.87.07s1.15.12,1.73.22v4a10.77,10.77,0,0,0-2.59-.36,4.66,4.66,0,0,0-2.59.61,3.59,3.59,0,0,0-1.37,1.62,7.2,7.2,0,0,0-.54,2.27c-.07.84-.11,1.69-.11,2.55v4.61h7.2v3.6h-7.2v33.7h-4.32v-33.7Z"/></g></g></svg>