<svg width="60" height="64" fill="none" xmlns="http://www.w3.org/2000/svg"><path d="M57.024 4.702a.545.545 0 0 0-.16.383.535.535 0 0 0 .242.45.555.555 0 0 0 .607 0 .544.544 0 0 0 .233-.556.531.531 0 0 0-.233-.344.538.538 0 0 0-.41-.08.548.548 0 0 0-.28.147ZM56.269.736a.549.549 0 0 0-.056.31.524.524 0 0 0 .127.287.543.543 0 0 0 .48.186.55.55 0 0 0 .461-.39.53.53 0 0 0-.11-.498.553.553 0 0 0-.584-.163.545.545 0 0 0-.318.268ZM56.505 8.705a.552.552 0 0 0-.272.314.54.54 0 0 0 .668.688.531.531 0 0 0 .267-.17.528.528 0 0 0 .13-.393.544.544 0 0 0-.793-.44ZM55.168 12.45a.534.534 0 0 0-.3-.103.555.555 0 0 0-.463.222.537.537 0 0 0 .314.844.543.543 0 0 0 .413-.065.544.544 0 0 0 .254-.546.53.53 0 0 0-.218-.353ZM51.34 15.738a.529.529 0 0 0 .098.403.534.534 0 0 0 .253.19.535.535 0 0 0 .316.018.571.571 0 0 0 .194-.089.527.527 0 0 0 .191-.25.543.543 0 0 0-.016-.414.523.523 0 0 0-.125-.17.55.55 0 0 0-.883.21.539.539 0 0 0-.028.102ZM47.656 17.462a.544.544 0 0 0-.033.413.535.535 0 0 0 .371.353.541.541 0 0 0 .415-.049.558.558 0 0 0 .22-.226.546.546 0 0 0 .033-.412.54.54 0 0 0-.584-.37.532.532 0 0 0-.29.125.553.553 0 0 0-.132.166ZM43.874 17.828a.551.551 0 0 0-.386.338.528.528 0 0 0 .014.413.537.537 0 0 0 .41.31.545.545 0 0 0 .584-.759.526.526 0 0 0-.21-.235.55.55 0 0 0-.412-.067ZM39.609 17.223a.544.544 0 0 0-.297.524.529.529 0 0 0 .116.293.552.552 0 0 0 .577.185.557.557 0 0 0 .267-.17.535.535 0 0 0 .013-.685.541.541 0 0 0-.471-.204.547.547 0 0 0-.205.057ZM36.035 15.284a.544.544 0 0 0-.38.816.535.535 0 0 0 .338.244.543.543 0 0 0 .498-.13.546.546 0 0 0 .175-.375.527.527 0 0 0-.145-.388.559.559 0 0 0-.273-.159.55.55 0 0 0-.213-.008ZM32.93 12.385a.556.556 0 0 0-.238.207.547.547 0 0 0-.068.408.544.544 0 0 0 .93.247.54.54 0 0 0-.522-.896.53.53 0 0 0-.101.034ZM31.42 9.693a.548.548 0 0 0 .376-.472.537.537 0 0 0-.396-.563.556.556 0 0 0-.577.186.539.539 0 0 0 .493.871.55.55 0 0 0 .105-.022ZM30.472 4.548a.541.541 0 1 0 .445.965.541.541 0 0 0 .178-.663.545.545 0 0 0-.623-.302ZM31.193.435a.55.55 0 0 0-.423.291.531.531 0 0 0 .009.51.547.547 0 0 0 .997-.43.523.523 0 0 0-.18-.257.546.546 0 0 0-.403-.114ZM43.998 2.57c-.109 0-.218.008-.326.022l-.12-.37v-7.808a.443.443 0 0 1 .133-.32.453.453 0 0 1 .323-.132.45.45 0 0 1 .254.076.463.463 0 0 1 .195.288.45.45 0 0 1 .008.088v7.809l-.122.371a2.572 2.572 0 0 0-.345-.023ZM44.465 2.614v-.391l2.436-7.426a.452.452 0 0 1 .399-.307.458.458 0 0 1 .49.5.448.448 0 0 1-.02.087l-2.436 7.425-.234.319a2.473 2.473 0 0 0-.635-.207Z" fill="#F1B95C"/><path d="m44.343 2.594.122-.371v.391a2.618 2.618 0 0 0-.122-.02ZM45.211 2.88l.123-.376 4.634-6.316a.457.457 0 0 1 .561-.145.458.458 0 0 1 .266.43.451.451 0 0 1-.087.248l-4.635 6.316-.328.236a2.53 2.53 0 0 0-.534-.393Z" fill="#F1B95C"/><path d="m45.1 2.823.234-.32-.123.377c-.038-.02-.073-.04-.11-.057ZM45.834 3.363l.239-.326 6.378-4.588a.45.45 0 0 1 .247-.075.458.458 0 0 1 .458.514.448.448 0 0 1-.169.293L46.61 3.77l-.392.126a2.45 2.45 0 0 0-.383-.534Z" fill="#F1B95C"/><path d="m45.745 3.273.328-.236-.239.326a2.636 2.636 0 0 0-.089-.09ZM46.274 4.012l.335-.241 7.499-2.413a.475.475 0 0 1 .265-.005.46.46 0 0 1 .31.296.439.439 0 0 1-.028.346.448.448 0 0 1-.267.224l-7.499 2.413h-.422a2.434 2.434 0 0 0-.193-.62ZM46.217 3.897l.392-.127-.335.241a1.731 1.731 0 0 0-.057-.114ZM46.505 5.052c0-.097-.006-.194-.018-.29l.404-.13h7.883a.476.476 0 0 1 .255.076.46.46 0 0 1 .194.288.438.438 0 0 1-.026.262.451.451 0 0 1-.333.27.465.465 0 0 1-.09.01H46.89l-.41-.135c.017-.117.026-.234.026-.351Z" fill="#F1B95C"/><path d="M46.469 4.632h.42l-.403.13a1.354 1.354 0 0 0-.017-.13ZM46.457 5.537h.432l7.499 2.411a.456.456 0 0 1 .313.484.462.462 0 0 1-.107.24.454.454 0 0 1-.401.156.452.452 0 0 1-.087-.019l-7.499-2.413-.355-.255c.095-.193.163-.394.205-.604Z" fill="#F1B95C"/><path d="m46.48 5.405.41.134h-.433c.008-.045.016-.09.022-.134ZM46.186 6.263l.42.134 6.377 4.59a.454.454 0 0 1 .147.556.464.464 0 0 1-.258.235.457.457 0 0 1-.427-.06L46.066 7.13l-.262-.358c.15-.154.277-.323.382-.509Z" fill="#F1B95C"/><path d="m46.25 6.142.355.256-.418-.134.064-.122ZM45.705 6.87l.361.26 4.634 6.315a.45.45 0 0 1-.35.723.454.454 0 0 1-.39-.19L45.327 7.66l-.139-.424c.188-.1.361-.223.518-.368Z" fill="#F1B95C"/><path d="m45.805 6.772.263.358-.362-.26.1-.098ZM45.062 7.3l.264.36 2.436 7.426a.454.454 0 0 1-.642.543.47.47 0 0 1-.191-.182.443.443 0 0 1-.036-.081L44.456 7.94v-.448c.21-.038.412-.103.605-.194ZM45.187 7.237l.14.424-.265-.362c.042-.02.084-.04.125-.062ZM43.998 7.534c.106 0 .211-.008.316-.021l.14.426v7.807a.45.45 0 0 1-.367.443.465.465 0 0 1-.343-.067.452.452 0 0 1-.203-.376V7.937l.14-.424c.106.013.211.02.317.02Z" fill="#F1B95C"/><path d="M44.456 7.491v.448l-.14-.426c.048-.006.094-.012.14-.022ZM43.542 7.491v.448l-2.436 7.425a.44.44 0 0 1-.152.215.448.448 0 0 1-.247.096.462.462 0 0 1-.443-.246.45.45 0 0 1-.028-.345l2.437-7.425.262-.358c.194.09.396.153.607.19ZM43.682 7.513l-.14.424V7.49c.046.01.092.017.14.023Z" fill="#F1B95C"/><path d="m42.81 7.237-.135.42-4.636 6.315a.44.44 0 0 1-.212.159.461.461 0 0 1-.587-.268.466.466 0 0 1-.015-.262.44.44 0 0 1 .074-.16l4.635-6.318.356-.256a2.5 2.5 0 0 0 .52.37Z" fill="#F1B95C"/><path d="m42.935 7.299-.262.358.135-.42.127.062ZM42.191 6.77l-.258.353-6.377 4.589a.459.459 0 0 1-.72-.437.455.455 0 0 1 .183-.296l6.379-4.59.41-.134c.106.189.233.36.383.516Z" fill="#F1B95C"/><path d="m42.29 6.867-.356.256.257-.352c.033.033.066.065.1.096ZM41.746 6.14l-.348.25-7.499 2.412a.463.463 0 0 1-.54-.209.453.453 0 0 1-.009-.427.459.459 0 0 1 .266-.225l7.499-2.413h.423c.042.213.112.417.208.611ZM41.809 6.258l-.411.134.348-.25c.02.038.039.077.063.116ZM33.233 4.623h7.885l.396.127a2.44 2.44 0 0 0 .005.65l-.4.128h-7.886a.473.473 0 0 1-.254-.076.464.464 0 0 1-.195-.288.452.452 0 0 1 .45-.541Z" fill="#F1B95C"/><path d="M41.54 5.528h-.423l.4-.13c.007.045.014.088.023.13ZM41.532 4.623h-.414L33.62 2.21a.464.464 0 0 1-.265-.225.455.455 0 0 1 .008-.426.474.474 0 0 1 .191-.183.462.462 0 0 1 .349-.027L41.4 3.763 41.73 4c-.095.2-.16.407-.198.624Z" fill="#F1B95C"/><path d="m41.514 4.75-.395-.127h.414a1.042 1.042 0 0 0-.02.127ZM41.785 3.886l-.385-.124-6.376-4.588a.451.451 0 0 1 .286-.819.461.461 0 0 1 .251.086l6.38 4.59.234.32c-.154.161-.284.34-.39.535Z" fill="#F1B95C"/><path d="m41.73 3.998-.328-.236.383.124a8.077 8.077 0 0 0-.055.112ZM42.263 3.263l-.322-.232-4.635-6.316a.443.443 0 0 1-.07-.332.448.448 0 0 1 .257-.332.458.458 0 0 1 .553.133L42.681 2.5l.122.371a2.502 2.502 0 0 0-.54.392ZM42.175 3.351l-.234-.32.322.232c-.03.029-.059.058-.087.088ZM42.914 2.815l-.231-.315-2.436-7.425a.456.456 0 0 1 .009-.362.45.45 0 0 1 .274-.24.463.463 0 0 1 .504.157.457.457 0 0 1 .08.167l2.437 7.426v.39a2.5 2.5 0 0 0-.637.202ZM43.551 2.61v-.387l.122.37c-.041.005-.081.01-.122.018Z" fill="#F1B95C"/><path d="M42.803 2.871 42.68 2.5l.233.315a1.7 1.7 0 0 0-.111.056ZM42.808 5.08a1.215 1.215 0 0 0 .051.344 1.165 1.165 0 0 0 .3.493 1.2 1.2 0 0 0 1.603.078 1.2 1.2 0 0 0 .386-.571 1.157 1.157 0 0 0 .028-.575 1.168 1.168 0 0 0-.414-.684 1.218 1.218 0 0 0-.525-.246 1.252 1.252 0 0 0-.467 0 1.27 1.27 0 0 0-.33.117 1.237 1.237 0 0 0-.36.293 1.146 1.146 0 0 0-.22.407 1.23 1.23 0 0 0-.052.344ZM15.433 26.186v-.004c.275 0 .55-.002.825.001.07 0 .127-.02.178-.065.038-.033.032-.085-.011-.113a.358.358 0 0 0-.203-.046l-1.554-.008c-.032 0-.065 0-.097.002-.031.003-.048.024-.05.056 0 .04-.001.08.002.12.002.032.021.052.052.054.032.003.065.003.097.003h.76Zm-2.495.01v-.006h.744c.065-.001.077-.016.08-.08a.78.78 0 0 0 0-.068c-.003-.078-.015-.094-.084-.095-.248-.004-.495-.004-.743-.019-.199-.011-.4.004-.598-.009a.866.866 0 0 0-.375.08c-.02.009-.038.022-.04.049a.059.059 0 0 0 .03.056.629.629 0 0 0 .307.093c.227-.002.453 0 .68 0ZM11.332 13.25c.14.11.278.142.427.133.048-.003.096-.012.145-.014.378-.011.756-.008 1.133-.032.383-.024.767-.01 1.15-.035.373-.023.746-.012 1.119-.033.355-.02.713-.007 1.07-.012a.893.893 0 0 0 .449-.123.038.038 0 0 0-.003-.067 1.266 1.266 0 0 0-.698-.098c-.037.005-.074.012-.112.013-.292.008-.583.01-.875.033-.28.02-.56.011-.841.033-.29.022-.583.013-.875.035-.285.021-.572.013-.858.034-.269.02-.54.009-.81.016a.721.721 0 0 0-.42.117Zm2.177 18.03h.004v.584c.001.055.016.072.068.076.102.01.204.02.307.023.318.014.637-.007.955.031a.16.16 0 0 0 .048-.003c.024-.003.04-.017.042-.043a.51.51 0 0 0 .005-.051c.01-.39-.01-.779.021-1.167.008-.09-.01-.105-.105-.105-.41.002-.82.004-1.231.008-.108 0-.113.007-.114.115v.532Zm2.667-6.134c.033.006.054.013.075.011a.97.97 0 0 1 .458.087c.084.036.096.031.15-.044.12-.17.232-.345.336-.526.223-.387.415-.79.6-1.199.314-.698.593-1.412.837-2.14.178-.529.345-1.06.448-1.613a7.855 7.855 0 0 0 .14-1.86 4.393 4.393 0 0 0-.079-.68 6.076 6.076 0 0 0-.354-1.193 2.948 2.948 0 0 0-.61-.965c-.174-.18-.341-.366-.53-.53a1.543 1.543 0 0 0-.294-.213 1.283 1.283 0 0 1-.17-.1c-.104-.077-.228-.101-.34-.155a.114.114 0 0 0-.064-.008 8.773 8.773 0 0 0-.335.057c-.042.008-.053.04-.029.075.041.06.085.118.127.178.29.423.562.856.748 1.342.102.266.194.534.253.815.043.207.074.415.099.625.025.21.056.42.056.632 0 .36-.003.721-.005 1.082 0 .046-.002.092-.007.137-.028.233-.055.466-.087.697-.049.351-.105.7-.185 1.045-.09.389-.182.778-.271 1.166-.233 1.007-.503 2.002-.863 2.967-.037.1-.068.202-.104.31Zm-4.652-10.94c-.104-.066-.2-.074-.288.033-.021.026-.052.042-.077.063-.274.234-.565.444-.834.684a4.966 4.966 0 0 0-1.263 1.744c-.196.45-.306.916-.29 1.412.007.24.022.48.033.72.001.018.004.035.006.052l.053.494c.028.273.071.543.147.808.094.329.204.651.317.973.233.667.505 1.316.833 1.937.238.45.513.875.822 1.276.154.2.331.377.49.572.064.078.136.148.204.221.021.023.047.03.072.01.096-.08.208-.09.323-.085.043.002.087 0 .13-.003.028-.002.048-.031.041-.06a.596.596 0 0 0-.025-.082c-.08-.206-.159-.413-.243-.618a26.11 26.11 0 0 1-.609-1.665 23.294 23.294 0 0 1-.514-1.755c-.16-.641-.317-1.284-.372-1.948-.024-.285-.052-.57-.054-.856-.002-.217 0-.434.02-.652.016-.165.024-.332.05-.495.082-.498.215-.98.408-1.443.175-.42.37-.828.586-1.226.019-.034.046-.066.034-.11Zm2.216 9.767c-.013-.446-.014-.893-.025-1.34-.025-.984-.008-1.97-.034-2.955-.026-.933-.008-1.867-.031-2.8-.021-.831-.014-1.662-.02-2.493 0-.057 0-.114-.006-.171-.004-.038-.026-.063-.064-.065-.027-.002-.054-.002-.081-.002-.287.004-.574.012-.86.011-.092 0-.146.035-.197.116a9.871 9.871 0 0 0-.907 1.839 4.966 4.966 0 0 0-.315 1.674 8.86 8.86 0 0 0 .034 1.03c.015.147.025.296.046.443.056.379.14.752.229 1.123.245 1.028.559 2.033.927 3.018.146.394.303.784.457 1.175.062.159.127.316.19.474.016.038.035.073.08.074.174 0 .347.002.52 0 .04 0 .055-.03.056-.068v-1.083Zm.648-9.384c-.006.212.016.423.02.635.016.997.005 1.994.032 2.99.025.911.01 1.822.03 2.733.024 1.151.012 2.303.04 3.455.004.206.001.412.004.619.002.099.011.11.101.112.178.004.357.005.535.016.214.013.186.024.266-.19.098-.26.186-.525.278-.788.138-.391.265-.787.375-1.189.217-.797.393-1.606.586-2.41.085-.355.139-.717.193-1.078.042-.283.081-.566.076-.854 0-.028.002-.057.005-.085.027-.246.022-.493.008-.738a10.06 10.06 0 0 0-.078-.785 4.408 4.408 0 0 0-.472-1.47 7.907 7.907 0 0 0-.719-1.102c-.085-.111-.168-.224-.272-.317-.039-.034-.076-.057-.13-.058-.27-.002-.54.017-.81.033-.05.002-.067.02-.067.075-.002.132 0 .264 0 .396ZM14.255-5c-.003.051-.009.102-.008.154.003.82-.004 1.64.014 2.458.027 1.18.008 2.361.034 3.541.024 1.129.006 2.258.031 3.386.026 1.163.008 2.326.033 3.49.025 1.128.016 2.257.03 3.385.003.24.011.48.018.721.002.08.012.09.086.09.054.002.109.005.162-.003.167-.027.335-.02.502-.026.292-.011.584-.024.875-.034a6.86 6.86 0 0 1 .406-.005c.337.008.651.096.928.31.106.083.19.185.25.311a.72.72 0 0 1 .032.565c-.011.033-.026.063-.039.095-.013.03-.006.056.02.073a.65.65 0 0 0 .07.043c.153.077.287.181.418.293.257.222.492.467.717.722.31.351.532.764.704 1.207.175.452.305.918.385 1.398.027.158.037.318.053.478.027.28.028.56.018.84-.012.367-.052.73-.107 1.092-.106.682-.303 1.335-.517 1.984a25.924 25.924 0 0 1-.65 1.722c-.178.437-.38.861-.59 1.282a7.823 7.823 0 0 1-.69 1.162 1.957 1.957 0 0 1-.137.17.207.207 0 0 0-.059.152c.001.396-.21.647-.516.827a1.075 1.075 0 0 1-.402.126.397.397 0 0 1-.162 0c-.128-.037-.257-.026-.386-.026-.282 0-.563 0-.845.004-.107.002-.215.011-.323.019-.048.003-.064.022-.067.077-.002.04-.001.08-.001.12.003.528-.001 1.055.012 1.582.007.298.014.595.018.893 0 .023.002.046.004.069.003.032.021.052.052.054.043.003.086.003.13.003.189 0 .378-.005.568-.002a.38.38 0 0 1 .372.277c.017.05.018.1.018.152 0 .224.002.447.001.67l-.008 1.359c0 .063 0 .125-.015.188-.048.205-.179.32-.377.34-.156.015-.311.032-.468.01-.064-.009-.13-.004-.194-.003-.055 0-.073.02-.068.07.028.263.02.527.024.79.002.102.027.169.117.22.256.144.437.371.576.636.13.25.245.51.348.776.024.063.042.13.054.197.036.219-.101.444-.298.482a.34.34 0 0 1-.3-.09.568.568 0 0 1-.147-.223c-.061-.146-.124-.292-.185-.44a2.906 2.906 0 0 0-.189-.379.769.769 0 0 0-.268-.27c-.033-.02-.06-.013-.087.015a.462.462 0 0 0-.098.177c-.029.092-.054.186-.075.28-.038.18-.07.36-.106.538a.763.763 0 0 1-.086.24.357.357 0 0 1-.408.174c-.14-.032-.261-.183-.274-.345a.873.873 0 0 1 .01-.24c.042-.212.082-.426.13-.637.026-.117.062-.232.103-.344.073-.201.191-.37.347-.511.043-.039.071-.08.069-.146-.015-.303 0-.608-.033-.91-.009-.077-.018-.09-.09-.092a18.44 18.44 0 0 0-.55-.005.4.4 0 0 1-.219-.053.37.37 0 0 1-.193-.317c-.008-.16-.016-.32-.018-.48-.004-.493-.005-.986-.007-1.479a.82.82 0 0 1 .019-.204.397.397 0 0 1 .236-.286c.064-.028.13-.053.195-.082.062-.028.127-.024.192-.026.113-.003.227.007.34-.015.073-.014.083-.02.082-.099-.005-.263.011-.527-.015-.79-.005-.045-.003-.091-.004-.137l-.01-1.582c0-.04 0-.08-.002-.12-.003-.056-.018-.074-.067-.077-.043-.002-.086-.001-.13-.001-.454.002-.909.003-1.363.007a.624.624 0 0 1-.27-.05c-.058-.026-.123-.038-.184-.061a.93.93 0 0 1-.454-.346.888.888 0 0 1-.16-.547c0-.045 0-.092.007-.137.009-.057-.012-.098-.048-.138-.104-.116-.205-.236-.31-.35a8.582 8.582 0 0 1-1.149-1.596 14.111 14.111 0 0 1-.995-2.215 15.957 15.957 0 0 1-.398-1.235c-.06-.226-.1-.456-.127-.69-.031-.272-.06-.545-.088-.818l-.004-.051c-.009-.178-.022-.355-.026-.532a4.175 4.175 0 0 1 .268-1.628c.243-.62.571-1.182.99-1.684.244-.293.521-.55.814-.787l.529-.427c.053-.043.05-.045.022-.114-.024-.057-.05-.114-.067-.174-.101-.346.09-.669.281-.82.223-.176.475-.271.752-.285.152-.007.304.007.454-.008.2-.02.4-.019.6-.027l.908-.035c.074-.003.084-.013.082-.092-.003-.154.008-.31-.012-.463-.007-.051-.005-.103-.005-.155-.005-.934 0-1.868-.017-2.802-.024-1.25-.01-2.498-.035-3.747-.021-1.077-.008-2.155-.03-3.231-.026-1.226-.01-2.453-.035-3.678-.02-.963-.015-1.925-.027-2.888L13.476-5h.78ZM5.817 59.291c-1.791 1.034-2.086 6.666-2.009 9.353 0 1.626 1.864 1.464 1.88.85.012-.492.734-4.9 1.093-7.042.129-.242.808-.937 2.496-1.777 1.689-.84 3.744-1.006 4.561-.984.155 1.172-2.882 2.505-3.38 2.86-.5.355-1.374 3.468-1.08 6.427.295 2.959 1.593 2.563 2.035 2.022.443-.542.091-3.687.564-5.457s2.825-2.691 5.25-4.04c1.939-1.08 3.49-3.165 4.024-4.073.442-.541 1.854-1.623 3.963-1.615 2.109.007 7.369-1.299 9.735-1.953 4.67 2.032 13.036.903 13.236.232.2-.67-.083-1.6-3.275-1.44-2.553.128-5.203-1.123-6.21-1.765.727.388 3.128.957 6.925.124 4.746-1.04 6.687-2.649 5.348-3.053-1.339-.405-3.45.645-7.424.23-3.974-.413-3.157-3.711-2.514-4.923.514-.97 2.448-1.492 3.35-1.632 3.153-4.539-3.276-6.318-6.886-6.64-1.294-3.183-5.473-5.106-7.4-5.67-.003 2.114 2.035 4.46 3.055 5.369-3.246-1.612-5.949-1.574-6.894-1.353-.408-.011-.562.415 2.091 2.208 2.653 1.792 6.261 2.156 7.734 2.113.365.092.865.712-.061 2.458-1.157 2.182-8.411 2.971-16.648 3.857-6.59.709-8.812 4.313-9.1 6.027-.084-.72-.626-1.923-2.12-.98-1.496.944.17 2.998 1.19 3.906.09.515.174 1.898-.204 3.315-.473 1.77-1.086 1.754-3.325 3.046Z" fill="#F1B95C"/></svg>