<svg width="265" height="64" viewBox="0 0 265 64" fill="none" xmlns="http://www.w3.org/2000/svg">
<path d="M126.289 23.7434H144.958C145.043 23.7434 145.127 23.7474 145.21 23.7553C145.293 23.7633 145.373 23.7752 145.452 23.7909C145.53 23.8066 145.604 23.8259 145.674 23.8487C145.745 23.8715 145.81 23.8974 145.87 23.9263C145.929 23.9554 145.983 23.987 146.03 24.0211C146.077 24.0551 146.117 24.0911 146.149 24.1291C146.182 24.167 146.206 24.206 146.222 24.2463C146.239 24.2865 146.247 24.3273 146.247 24.3682V24.3684C146.247 24.4094 146.239 24.45 146.222 24.4902C146.206 24.5304 146.182 24.5695 146.149 24.6074C146.117 24.6453 146.077 24.6813 146.03 24.7156C145.983 24.7497 145.929 24.7813 145.87 24.8102C145.81 24.8393 145.745 24.8651 145.674 24.8879C145.604 24.9107 145.53 24.9299 145.452 24.9456C145.373 24.9613 145.293 24.9731 145.21 24.9812C145.127 24.9892 145.043 24.9932 144.958 24.9932H126.289C126.205 24.9932 126.121 24.9892 126.038 24.9812C125.955 24.9731 125.874 24.9613 125.796 24.9456C125.718 24.9299 125.644 24.9107 125.573 24.8879C125.503 24.8651 125.437 24.8393 125.378 24.8102C125.318 24.7813 125.265 24.7497 125.218 24.7156C125.17 24.6813 125.131 24.6453 125.098 24.6074C125.066 24.5695 125.041 24.5304 125.025 24.4902C125.008 24.45 125 24.4094 125 24.3684V24.3682C125 24.3273 125.008 24.2865 125.025 24.2463C125.041 24.206 125.066 24.167 125.098 24.1291C125.131 24.0911 125.17 24.0551 125.218 24.0211C125.265 23.987 125.318 23.9554 125.378 23.9263C125.437 23.8974 125.503 23.8715 125.573 23.8487C125.644 23.8259 125.718 23.8066 125.796 23.7909C125.874 23.7752 125.955 23.7633 126.038 23.7553C126.121 23.7474 126.205 23.7434 126.289 23.7434Z" fill="#D4D766"/>
<path d="M129.823 19.994H141.424C141.5 19.994 141.576 19.9967 141.652 20.0019C141.727 20.007 141.803 20.0146 141.877 20.0246C141.952 20.0349 142.025 20.0477 142.098 20.0628C142.171 20.078 142.243 20.0956 142.313 20.1156C142.383 20.1354 142.452 20.1579 142.519 20.1825C142.586 20.2072 142.652 20.234 142.715 20.263C142.778 20.292 142.839 20.3231 142.898 20.3562C142.957 20.3895 143.013 20.4244 143.067 20.4613C143.121 20.4984 143.172 20.5369 143.22 20.5775C143.268 20.6179 143.314 20.6596 143.356 20.7032C143.398 20.7465 143.437 20.7912 143.473 20.8375C143.509 20.8836 143.542 20.9307 143.57 20.9789C143.599 21.0271 143.625 21.0764 143.647 21.1263C143.669 21.1764 143.688 21.2271 143.703 21.2783C143.717 21.3294 143.729 21.3812 143.736 21.4332C143.744 21.4852 143.747 21.5372 143.747 21.5895V22.4937H127.5V21.5895C127.5 21.5372 127.503 21.4852 127.511 21.4332C127.518 21.3812 127.529 21.3294 127.544 21.2783C127.559 21.2271 127.578 21.1764 127.6 21.1263C127.622 21.0764 127.647 21.0271 127.677 20.9789C127.706 20.9307 127.738 20.8836 127.774 20.8375C127.81 20.7912 127.849 20.7465 127.891 20.7032C127.934 20.6596 127.979 20.6179 128.027 20.5775C128.075 20.5369 128.126 20.4984 128.18 20.4613C128.234 20.4244 128.29 20.3895 128.349 20.3562C128.408 20.3231 128.469 20.292 128.532 20.263C128.596 20.234 128.661 20.2072 128.728 20.1825C128.795 20.1579 128.864 20.1354 128.934 20.1156C129.004 20.0956 129.076 20.078 129.149 20.0628C129.221 20.0477 129.295 20.0349 129.37 20.0246C129.445 20.0146 129.52 20.007 129.596 20.0019C129.671 19.9967 129.747 19.994 129.823 19.994Z" fill="#D4D766"/>
<path d="M126.289 36.2418H144.958C145.043 36.2418 145.127 36.2458 145.21 36.2537C145.293 36.2617 145.373 36.2736 145.452 36.2893C145.53 36.305 145.604 36.3244 145.674 36.3471C145.745 36.3699 145.81 36.3958 145.87 36.4247C145.929 36.4538 145.983 36.4854 146.03 36.5195C146.077 36.5536 146.117 36.5896 146.149 36.6275C146.182 36.6654 146.206 36.7045 146.222 36.7447C146.239 36.7849 146.247 36.8257 146.247 36.8666V36.8668C146.247 36.9078 146.239 36.9484 146.222 36.9886C146.206 37.0288 146.182 37.0679 146.149 37.1058C146.117 37.1437 146.077 37.1797 146.03 37.214C145.983 37.2481 145.929 37.2797 145.87 37.3086C145.81 37.3377 145.745 37.3635 145.674 37.3863C145.604 37.4091 145.53 37.4283 145.452 37.444C145.373 37.4597 145.293 37.4715 145.21 37.4796C145.127 37.4876 145.043 37.4917 144.958 37.4917H126.289C126.205 37.4917 126.121 37.4876 126.038 37.4796C125.955 37.4715 125.874 37.4597 125.796 37.444C125.718 37.4283 125.644 37.4091 125.573 37.3863C125.503 37.3635 125.437 37.3377 125.378 37.3086C125.318 37.2797 125.265 37.2481 125.218 37.214C125.17 37.1797 125.131 37.1437 125.098 37.1058C125.066 37.0679 125.041 37.0288 125.025 36.9886C125.008 36.9484 125 36.9078 125 36.8668V36.8666C125 36.8257 125.008 36.7849 125.025 36.7447C125.041 36.7045 125.066 36.6654 125.098 36.6275C125.131 36.5896 125.17 36.5536 125.218 36.5195C125.265 36.4854 125.318 36.4538 125.378 36.4247C125.437 36.3958 125.503 36.3699 125.573 36.3471C125.644 36.3244 125.718 36.305 125.796 36.2893C125.874 36.2736 125.955 36.2617 126.038 36.2537C126.121 36.2458 126.205 36.2418 126.289 36.2418Z" fill="#D4D766"/>
<path d="M127.806 37.4916H144.341C144.341 37.6778 144.333 37.8635 144.314 38.0485C144.296 38.2339 144.269 38.4177 144.232 38.6003C144.196 38.7828 144.151 38.9634 144.097 39.1412C144.042 39.3193 143.98 39.4947 143.909 39.6664C143.837 39.8386 143.758 40.0067 143.67 40.1708C143.582 40.3349 143.487 40.4942 143.383 40.6491C143.28 40.804 143.169 40.9533 143.051 41.0969C142.933 41.241 142.808 41.3786 142.676 41.5102C142.545 41.6418 142.407 41.7666 142.262 41.885C142.119 42.003 141.969 42.1137 141.814 42.2173C141.659 42.3208 141.5 42.4163 141.336 42.5038C141.171 42.5916 141.003 42.6711 140.831 42.7425C140.659 42.8135 140.484 42.8761 140.306 42.9303C140.128 42.9845 139.947 43.0294 139.765 43.0659C139.582 43.102 139.398 43.1293 139.212 43.1478C139.027 43.1658 138.841 43.1751 138.655 43.1751H133.492C133.306 43.1751 133.12 43.1658 132.935 43.1478C132.75 43.1293 132.566 43.102 132.383 43.0659C132.2 43.0294 132.02 42.9845 131.842 42.9303C131.664 42.8761 131.489 42.8135 131.316 42.7425C131.144 42.6711 130.976 42.5916 130.812 42.5038C130.648 42.4163 130.488 42.3208 130.333 42.2173C130.178 42.1137 130.029 42.003 129.885 41.885C129.741 41.7666 129.603 41.6418 129.471 41.5102C129.34 41.3786 129.215 41.241 129.097 41.0969C128.979 40.9533 128.868 40.804 128.764 40.6491C128.661 40.4942 128.565 40.3349 128.477 40.1708C128.39 40.0067 128.31 39.8386 128.239 39.6664C128.168 39.4947 128.105 39.3193 128.051 39.1412C127.997 38.9634 127.952 38.7828 127.915 38.6003C127.879 38.4177 127.851 38.2339 127.833 38.0485C127.815 37.8635 127.806 37.6778 127.806 37.4916Z" fill="#D4D766"/>
<path d="M127.5 24.9933H129.999V36.2418H127.5V24.9933Z" fill="#D4D766"/>
<path d="M141.248 24.9933H143.748V36.2418H141.248V24.9933Z" fill="#D4D766"/>
<path d="M97.9627 47.8577C97.7493 47.7057 97.5421 47.546 97.3415 47.3781C97.1404 47.2102 96.9466 47.0346 96.7589 46.8518C96.5717 46.6684 96.3917 46.4784 96.2194 46.2817C96.0466 46.0851 95.8821 45.8817 95.7252 45.6722C95.5684 45.4622 95.4198 45.247 95.2799 45.0262C95.14 44.8049 95.0084 44.5789 94.886 44.3473C94.7636 44.1162 94.65 43.8805 94.5456 43.6407C94.4417 43.4009 94.3466 43.157 94.2612 42.91C94.1758 42.6625 94.1003 42.4124 94.0344 42.1592C93.9686 41.906 93.9126 41.6503 93.8663 41.393C93.82 41.1358 93.784 40.8764 93.7578 40.6166C93.7321 40.3562 93.7161 40.0954 93.7099 39.8335C93.7043 39.5721 93.7084 39.3107 93.7233 39.0498C93.7377 38.7885 93.7619 38.5281 93.7969 38.2688C93.8313 38.0095 93.876 37.7522 93.9306 37.4964C93.9851 37.2402 94.0499 36.987 94.1239 36.7364C94.1985 36.4853 94.2823 36.2378 94.3759 35.9934C94.469 35.7489 94.5718 35.5086 94.6839 35.2724C94.796 35.0357 94.9174 34.8041 95.0475 34.5771C95.1776 34.3501 95.3164 34.1283 95.4635 33.9121C95.6111 33.6954 95.7664 33.4853 95.9299 33.281C96.0934 33.0766 96.2652 32.8789 96.4442 32.6878C96.6231 32.4968 96.8087 32.3125 97.0021 32.1358C97.1955 31.9592 97.3955 31.7902 97.6017 31.629C97.8079 31.4677 98.0203 31.3147 98.2383 31.1699C98.4569 31.0251 98.6801 30.8885 98.9089 30.7611C99.1377 30.6338 99.3712 30.5151 99.6093 30.4052C99.8474 30.2959 100.089 30.1957 100.335 30.1048C100.581 30.0139 100.83 29.9328 101.082 29.8609C101.334 29.7895 101.588 29.7274 101.845 29.6755C102.102 29.6237 102.36 29.5816 102.62 29.5497C102.88 29.5179 103.142 29.4958 103.403 29.484C103.228 29.4326 103.052 29.3854 102.874 29.3423C102.696 29.2991 102.518 29.2596 102.338 29.2247C102.159 29.1897 101.979 29.1584 101.798 29.1317C101.617 29.1045 101.436 29.0819 101.254 29.0629C101.073 29.0444 100.89 29.03 100.708 29.0193C100.526 29.009 100.343 29.0028 100.16 29.0008C99.9775 28.9987 99.7944 29.0008 99.6119 29.0069C99.4293 29.0131 99.2468 29.0239 99.0647 29.0383C98.8827 29.0526 98.7006 29.0716 98.5196 29.0942C98.3381 29.1168 98.1576 29.144 97.9771 29.1749C97.7971 29.2062 97.6176 29.2411 97.4392 29.2801C97.2608 29.3197 97.0834 29.3628 96.907 29.41C96.7301 29.4573 96.5547 29.5086 96.3809 29.5641C96.2066 29.619 96.0338 29.6781 95.862 29.7413C95.6908 29.8044 95.5206 29.8717 95.3524 29.9426C95.1838 30.0134 95.0171 30.0879 94.8521 30.1665C94.687 30.245 94.524 30.3272 94.363 30.413C94.2016 30.4987 94.0427 30.5886 93.8853 30.6815C93.7279 30.7745 93.5732 30.871 93.4204 30.9717C93.2677 31.0718 93.117 31.175 92.9694 31.2823C92.8213 31.3892 92.6758 31.4996 92.5329 31.613C92.3899 31.727 92.2495 31.8436 92.1117 31.9638C91.9744 32.0839 91.8397 32.2067 91.7075 32.333C91.5753 32.4593 91.4463 32.5882 91.3203 32.7202C91.1943 32.8522 91.0709 32.9872 90.9511 33.1248C90.8312 33.2625 90.7145 33.4027 90.6009 33.5459C90.4872 33.6887 90.3772 33.834 90.2702 33.9824C90.1632 34.1303 90.0599 34.2803 89.9601 34.4333C89.8598 34.5858 89.7637 34.7409 89.6706 34.898C89.5775 35.0547 89.488 35.2138 89.4027 35.3751C89.3168 35.5363 89.235 35.6991 89.1569 35.864C89.0787 36.0288 89.0041 36.1957 88.9337 36.3636C88.8627 36.5321 88.7964 36.702 88.7331 36.873C88.6704 37.0445 88.6118 37.2171 88.5568 37.3912C88.5017 37.5653 88.4508 37.7404 88.4035 37.9165C88.3567 38.0926 88.314 38.2703 88.275 38.4485C88.2359 38.6267 88.2014 38.8054 88.1706 38.9857C88.1397 39.1654 88.1135 39.3456 88.0909 39.5269C88.0682 39.7077 88.0502 39.8894 88.0358 40.0712C88.022 40.253 88.0117 40.4353 88.006 40.6176C88.0004 40.7999 87.9988 40.9822 88.0009 41.1645C88.0034 41.3468 88.0101 41.5291 88.0209 41.7114C88.0317 41.8932 88.0472 42.075 88.0662 42.2568C88.0852 42.438 88.1083 42.6188 88.1361 42.7991C88.1634 42.9798 88.1947 43.159 88.2302 43.3382C88.2662 43.517 88.3058 43.6951 88.3495 43.8723C88.3932 44.0495 88.4411 44.2256 88.493 44.4002C88.5444 44.5753 88.6005 44.7489 88.6601 44.9214C88.7198 45.094 88.7835 45.265 88.8509 45.4344C88.9183 45.6039 88.9898 45.7718 89.0648 45.9377C89.1404 46.1041 89.2191 46.2684 89.3019 46.4312C89.3847 46.594 89.4711 46.7547 89.5611 46.9134C89.6511 47.0721 89.7447 47.2287 89.8418 47.3832C89.939 47.5378 90.0398 47.6898 90.1442 47.8398C90.2481 47.9897 90.3561 48.1371 90.4666 48.2819C90.5777 48.4272 90.6919 48.5695 90.8091 48.7092C90.9269 48.8488 91.0472 48.9859 91.1712 49.1205C91.2946 49.2545 91.4211 49.386 91.5512 49.5149C91.6808 49.6432 91.8134 49.7685 91.9487 49.8913C92.0839 50.014 92.2223 50.1331 92.3632 50.2492C92.5041 50.3658 92.6475 50.4787 92.7936 50.5881C92.9396 50.698 93.0882 50.8043 93.2389 50.907C93.3896 51.0102 93.5428 51.1093 93.6986 51.2054C93.8539 51.3014 94.0113 51.3938 94.1712 51.4827C94.3306 51.5715 94.4921 51.6568 94.6556 51.7379C94.8197 51.8195 94.9847 51.8971 95.1519 51.971C95.319 52.045 95.4877 52.1148 95.6579 52.1811C95.8281 52.2473 95.9999 52.31 96.1732 52.368C96.3464 52.4265 96.5208 52.481 96.6961 52.5313C96.872 52.5821 97.0484 52.6283 97.2263 52.671C97.4042 52.7131 97.5827 52.7516 97.7621 52.786C97.9416 52.8204 98.1221 52.8507 98.3031 52.8764C98.4836 52.9026 98.6652 52.9246 98.8472 52.9426C99.0292 52.9601 99.2113 52.9739 99.3938 52.9837C99.5764 52.9929 99.7589 52.9986 99.9415 52.9996C100.125 53.0012 100.307 52.9981 100.49 52.9909C100.672 52.9837 100.855 52.9724 101.037 52.9575C101.219 52.9421 101.401 52.9226 101.582 52.8984C101.763 52.8748 101.944 52.8471 102.124 52.8153C102.304 52.7834 102.483 52.7475 102.661 52.7074C102.839 52.6674 103.017 52.6237 103.193 52.5754C103.369 52.5272 103.544 52.4753 103.719 52.4193C103.892 52.3628 104.065 52.3033 104.236 52.2391C104.407 52.1754 104.577 52.1076 104.745 52.0357C104.913 51.9644 105.079 51.8889 105.244 51.8093C105.409 51.7302 105.571 51.6475 105.732 51.5607C105.893 51.4739 106.052 51.3841 106.209 51.2901C106.365 51.1961 106.52 51.0986 106.672 50.9979C106.825 50.8973 106.974 50.7925 107.122 50.6852C107.269 50.5773 107.414 50.4664 107.557 50.3519C107.699 50.2379 107.839 50.1203 107.976 49.9996C108.113 49.879 108.247 49.7552 108.379 49.6284C108.51 49.5015 108.639 49.3721 108.764 49.2391C108.89 49.1066 109.012 48.971 109.131 48.8329C109.251 48.6948 109.367 48.5541 109.48 48.4103C109.592 48.267 109.702 48.1212 109.808 47.9728C109.875 47.8793 109.936 47.7838 110 47.6883C109.786 47.8505 109.565 48.0036 109.339 48.1479C109.113 48.2922 108.882 48.4272 108.644 48.5536C108.407 48.6794 108.166 48.7959 107.919 48.9033C107.673 49.0101 107.423 49.1071 107.169 49.1939C106.915 49.2812 106.658 49.3582 106.398 49.425C106.138 49.4918 105.876 49.5482 105.611 49.5945C105.347 49.6402 105.08 49.6761 104.813 49.7008C104.545 49.7259 104.278 49.7403 104.009 49.7439C103.741 49.748 103.472 49.7408 103.204 49.7234C102.936 49.7059 102.67 49.6782 102.404 49.6397C102.138 49.6006 101.874 49.5518 101.612 49.4923C101.351 49.4327 101.091 49.3634 100.835 49.2833C100.579 49.2032 100.326 49.1133 100.077 49.0132C99.8273 48.9135 99.5826 48.8036 99.3419 48.6845C99.1017 48.5649 98.8662 48.4365 98.6358 48.2983C98.4055 48.1607 98.1813 48.0138 97.9627 47.8577Z" fill="#D4D766"/>
<path d="M142.045 21.2266C141.981 21.2266 141.919 21.2124 141.861 21.1839C141.802 21.1555 141.751 21.1152 141.708 21.0631L135.63 13.712L129.552 21.0636C129.533 21.0892 129.511 21.1124 129.488 21.1337C129.464 21.1546 129.438 21.1726 129.411 21.1882C129.384 21.2033 129.356 21.2157 129.327 21.2247C129.297 21.2341 129.267 21.2398 129.237 21.2422C129.206 21.245 129.176 21.2441 129.146 21.2398C129.115 21.236 129.085 21.2285 129.057 21.218C129.028 21.2071 129 21.1934 128.974 21.1768C128.947 21.1598 128.923 21.1403 128.9 21.1185C128.877 21.0963 128.857 21.0716 128.839 21.0451C128.82 21.0186 128.805 20.9902 128.792 20.9603C128.779 20.93 128.769 20.8987 128.762 20.8665C128.755 20.8343 128.751 20.8016 128.75 20.7685C128.749 20.7353 128.751 20.7021 128.756 20.6694C128.761 20.6368 128.769 20.605 128.78 20.5742C128.792 20.543 128.806 20.5136 128.822 20.4861C128.839 20.4582 128.857 20.4321 128.879 20.4084L135.294 12.6509C135.316 12.6262 135.34 12.604 135.365 12.5845C135.391 12.5656 135.419 12.549 135.448 12.5357C135.477 12.5225 135.507 12.512 135.537 12.5054C135.568 12.4988 135.599 12.495 135.63 12.495C135.662 12.495 135.693 12.4988 135.724 12.5054C135.755 12.512 135.785 12.5225 135.814 12.5357C135.842 12.549 135.87 12.5656 135.896 12.5845C135.922 12.604 135.946 12.6262 135.968 12.6509L142.383 20.4084C142.411 20.4439 142.435 20.4828 142.454 20.5259C142.473 20.5685 142.485 20.6135 142.492 20.66C142.499 20.7069 142.499 20.7538 142.494 20.8007C142.488 20.8476 142.476 20.893 142.458 20.9362C142.441 20.9793 142.417 21.0191 142.389 21.0551C142.361 21.0911 142.328 21.1219 142.292 21.1479C142.255 21.174 142.216 21.1934 142.174 21.2071C142.132 21.2204 142.09 21.227 142.046 21.2275L142.045 21.2266Z" fill="#D4D766"/>
<path d="M135.276 12.8187C135.239 12.8187 135.204 12.8115 135.17 12.7975C135.136 12.7834 135.106 12.7633 135.08 12.7373C135.054 12.7116 135.034 12.6815 135.02 12.6474C135.006 12.6133 134.999 12.578 134.999 12.5415V-24.7227C134.999 -24.7592 135.006 -24.795 135.02 -24.8287C135.034 -24.8628 135.054 -24.8929 135.08 -24.9185C135.106 -24.9446 135.136 -24.9647 135.17 -24.9787C135.204 -24.9928 135.239 -25 135.276 -25C135.313 -25 135.348 -24.9928 135.382 -24.9787C135.416 -24.9647 135.446 -24.9446 135.472 -24.9185C135.499 -24.8929 135.519 -24.8628 135.533 -24.8287C135.547 -24.795 135.553 -24.7592 135.553 -24.7227V12.5415C135.553 12.578 135.547 12.6133 135.533 12.6474C135.519 12.6815 135.499 12.7116 135.472 12.7373C135.446 12.7633 135.416 12.7834 135.382 12.7975C135.348 12.8115 135.313 12.8187 135.276 12.8187Z" fill="#D4D766"/>
<path d="M96.2773 30.7061C96.2408 30.7061 96.205 30.6989 96.1713 30.6848C96.1372 30.6708 96.1071 30.6507 96.0811 30.6247C96.055 30.5986 96.0349 30.5685 96.0209 30.5348C96.0068 30.5007 96 30.4654 96 30.4284V-27.7227C96 -27.7592 96.0068 -27.795 96.0209 -27.8287C96.0349 -27.8628 96.055 -27.8929 96.0811 -27.9185C96.1071 -27.9446 96.1372 -27.9647 96.1713 -27.9787C96.205 -27.9928 96.2408 -28 96.2773 -28C96.3142 -28 96.3495 -27.9928 96.3836 -27.9787C96.4177 -27.9647 96.4474 -27.9446 96.4735 -27.9185C96.4996 -27.8929 96.5196 -27.8628 96.5337 -27.8287C96.5477 -27.795 96.5549 -27.7592 96.5549 -27.7227V30.4284C96.5549 30.4654 96.5477 30.5007 96.5337 30.5348C96.5196 30.5685 96.4996 30.5986 96.4735 30.6247C96.4474 30.6507 96.4177 30.6708 96.3836 30.6848C96.3495 30.6989 96.3142 30.7061 96.2773 30.7061Z" fill="#D4D766"/>
<path d="M265 57.5716L258.741 51.1024H252.913L257.331 46.6838L257.024 38.1158L248.02 37.9673L243.898 42.0901V35.8398L237.622 30L231.152 36.2591V42.0901L227.107 38.0455L218.012 38.063L218.275 47.2358L222.141 51.1024H216.422L210 57.5451L216.672 63.848H222.141L218.096 67.8929L218.113 76.9877L227.286 76.7248L231.152 72.8592V78.5783L237.596 85L243.898 78.3284V72.8637L248.316 77.2813L256.884 76.9733L257.032 67.9708L252.909 63.8482H259.16L265 57.5716ZM243.898 44.6651L248.763 39.8011L255.266 39.9077L255.483 45.9565L250.338 51.1024H243.898V44.6651ZM232.972 37.0302L237.646 32.5102L242.077 36.6331V43.9118L237.525 48.4636L232.972 43.9118V37.0302ZM220.074 46.4605L219.886 39.8802L226.355 39.8682L231.152 44.6651V51.1024H224.716L220.074 46.4605ZM217.395 62.0266L212.609 57.5066L217.177 52.923H223.961L228.513 57.4748L223.961 62.0266H217.395ZM231.152 70.2843L226.511 74.9262L219.93 75.1143L219.919 68.6451L224.716 63.8482H231.152V70.2843ZM242.077 77.6046L237.556 82.3898L232.972 77.8213V71.0389L237.524 66.4871L242.077 71.0421V77.6046ZM242.077 62.0266V68.4658L237.525 63.9108L232.972 68.4637V62.0266H226.536L231.088 57.4748L226.536 52.9228H232.972V46.4867L237.525 51.0385L242.077 46.4867V52.9228H248.515L243.961 57.4748L248.513 62.0266H242.077ZM255.199 68.7122L255.092 75.2156L249.042 75.4334L243.898 70.2874V63.848H250.335L255.199 68.7122ZM251.088 62.0266L246.536 57.4748L251.092 52.9228H257.97L262.49 57.5968L258.367 62.0266H251.088Z" fill="#42C5A5"/>
<path d="M55 13.5716L48.7409 7.10243H42.9133L47.3309 2.68381L47.024 -5.88421L38.0204 -6.03275L33.8976 -1.90987V-8.16023L27.622 -14L21.152 -7.74089V-1.90987L17.1071 -5.9545L8.01235 -5.93699L8.2752 3.23577L12.1408 7.10243H6.42171L0 13.5451L6.67156 19.848H12.1408L8.0959 23.8929L8.11261 32.9877L17.2864 32.7248L21.152 28.8592V34.5783L27.5958 41L33.8976 34.3284V28.8637L38.3162 33.2813L46.8842 32.9733L47.0317 23.9708L42.9088 19.8482H49.1602L55 13.5716ZM33.8976 0.665074L38.7629 -4.19888L45.266 -4.09226L45.4827 1.95652L40.3381 7.10243H33.8976V0.665074ZM22.9724 -6.96984L27.6464 -11.4898L32.077 -7.3669V-0.0882044L27.5252 4.46357L22.9724 -0.0882044V-6.96984ZM10.0738 2.46048L9.88573 -4.11984L16.3549 -4.13178L21.152 0.665074V7.10243H14.7157L10.0738 2.46048ZM7.3954 18.0266L2.60916 13.5066L7.17737 8.92303H13.9611L18.5129 13.4748L13.9611 18.0266H7.3954ZM21.152 26.2843L16.5109 30.9262L9.92976 31.1143L9.91862 24.6451L14.7157 19.8482H21.152V26.2843ZM32.077 33.6046L27.5562 38.3898L22.9724 33.8213V27.0389L27.5241 22.4871L32.077 27.042V33.6046ZM32.077 18.0266V24.4658L27.5252 19.9108L22.9724 24.4637V18.0266H16.5363L21.0881 13.4748L16.5363 8.92277H22.9724V2.48674L27.5252 7.03851L32.077 2.48674V8.92277H38.5154L33.9615 13.4748L38.5133 18.0266H32.077ZM45.1989 24.7122L45.0923 31.2156L39.0424 31.4333L33.8976 26.2874V19.848H40.3349L45.1989 24.7122ZM41.0882 18.0266L36.5364 13.4748L41.0917 8.92277H47.9698L52.4898 13.5968L48.3669 18.0266H41.0882Z" fill="#42C5A5"/>
<path d="M198 15L198.944 18.0556H202L199.528 19.9444L200.473 23L198 21.1117L195.528 23L196.473 19.9444L194 18.0556H197.056L198 15Z" fill="#42C5A5"/>
<path d="M63.5 37L64.3264 39.6737H67L64.8371 41.3263L65.6635 44L63.5 42.3477L61.3371 44L62.1635 41.3263L60 39.6737H62.6739L63.5 37Z" fill="#42C5A5"/>
<path d="M168.5 41L170.035 45.9654H175L170.983 49.0346L172.518 54L168.5 50.9314L164.483 54L166.018 49.0346L162 45.9654H166.966L168.5 41Z" fill="#42C5A5"/>
</svg>
