<svg width="47" height="53" viewBox="0 0 47 53" fill="none" xmlns="http://www.w3.org/2000/svg">
<path d="M47 48.5612L41.6513 43.033H36.6714L40.4464 39.2571L40.1841 31.9353L32.4902 31.8084L28.967 35.3316V29.9903L23.6043 25L18.0754 30.3487V35.3316L14.6188 31.8752L6.84691 31.8902L7.07153 39.7288L10.3749 43.033H5.48764L0 48.5385L5.70115 53.9246H10.3749L6.91831 57.3812L6.93259 65.1531L14.772 64.9285L18.0754 61.6251V66.5124L23.5818 72L28.967 66.2988V61.629L32.7429 65.404L40.0647 65.1408L40.1907 57.4478L36.6675 53.9249H42.0096L47 48.5612ZM28.967 37.532L33.1246 33.3755L38.6818 33.4666L38.867 38.6356L34.4707 43.033H28.967V37.532ZM19.6309 31.0076L23.6251 27.1451L27.4112 30.6683V36.8883L23.5215 40.778L19.6309 36.8883V31.0076ZM8.60851 39.0662L8.44781 33.443L13.976 33.4328L18.0754 37.532V43.033H12.5753L8.60851 39.0662ZM6.3197 52.3682L2.22964 48.5057L6.13339 44.5888H11.9304L15.8201 48.4785L11.9304 52.3682H6.3197ZM18.0754 59.4247L14.1093 63.3915L8.48543 63.5522L8.47591 58.024L12.5753 53.9249H18.0754V59.4247ZM27.4112 65.6803L23.5481 69.7694L19.6309 65.8655V60.0696L23.5206 56.1799L27.4112 60.0723V65.6803ZM27.4112 52.3682V57.8708L23.5215 53.9783L19.6309 57.8689V52.3682H14.1311L18.0207 48.4785L14.1311 44.5885H19.6309V39.0887L23.5215 42.9784L27.4112 39.0887V44.5885H32.9131L29.0216 48.4785L32.9113 52.3682H27.4112ZM38.6245 58.0813L38.5334 63.6388L33.3635 63.8249L28.967 59.4275V53.9246H34.468L38.6245 58.0813ZM35.1117 52.3682L31.222 48.4785L35.1147 44.5885H40.9924L44.8549 48.5827L41.3317 52.3682H35.1117Z" fill="#42C5A5"/>
<path d="M39.5 7L40.5625 10.4376H44L41.2192 12.5624L42.2816 16L39.5 13.8756L36.7191 16L37.7816 12.5624L35 10.4376H38.4379L39.5 7Z" fill="#42C5A5"/>
<path d="M21 0L21.4722 1.52782H23L21.7641 2.47218L22.2363 4L21 3.05583L19.7641 4L20.2363 2.47218L19 1.52782H20.528L21 0Z" fill="#42C5A5"/>
</svg>
