<svg width="307" height="63" fill="none" xmlns="http://www.w3.org/2000/svg"><path d="M301.916 4.385a1.128 1.128 0 0 0-.245.362 1.101 1.101 0 0 0-.064.646 1.092 1.092 0 0 0 .309.572 1.107 1.107 0 0 0 .366.242 1.12 1.12 0 0 0 .652.064 1.143 1.143 0 0 0 .578-.306 1.078 1.078 0 0 0 .244-.363 1.095 1.095 0 0 0-.104-1.048 1.064 1.064 0 0 0-.311-.308 1.149 1.149 0 0 0-.627-.189 1.135 1.135 0 0 0-.798.328ZM300.843 12.656a1.137 1.137 0 0 0-.561.65 1.12 1.12 0 0 0-.052.434 1.125 1.125 0 0 0 .392.762 1.131 1.131 0 0 0 .822.264 1.135 1.135 0 0 0 .985-.769 1.12 1.12 0 0 0-.068-.852 1.118 1.118 0 0 0-.454-.468 1.181 1.181 0 0 0-.419-.135 1.143 1.143 0 0 0-.645.114ZM298.081 20.395a1.13 1.13 0 0 0-.84-.2 1.114 1.114 0 0 0-.413.151 1.199 1.199 0 0 0-.177.133 1.185 1.185 0 0 0-.259.352 1.093 1.093 0 0 0-.103.424c-.002.073.002.146.013.22a1.116 1.116 0 0 0 .643.84 1.102 1.102 0 0 0 .428.101 1.139 1.139 0 0 0 .957-.46 1.078 1.078 0 0 0 .185-.395 1.138 1.138 0 0 0 .017-.436 1.116 1.116 0 0 0-.451-.73ZM290.17 27.192a1.147 1.147 0 0 0 .018.436 1.093 1.093 0 0 0 .331.56 1.121 1.121 0 0 0 .81.296 1.154 1.154 0 0 0 .429-.102 1.104 1.104 0 0 0 .356-.256 1.154 1.154 0 0 0 .23-.372 1.113 1.113 0 0 0-.034-.855 1.074 1.074 0 0 0-.259-.352 1.121 1.121 0 0 0-.81-.296 1.154 1.154 0 0 0-.619.212 1.14 1.14 0 0 0-.299.32 1.119 1.119 0 0 0-.153.41ZM282.555 30.755a1.143 1.143 0 0 0-.12.42 1.146 1.146 0 0 0 .052.433 1.108 1.108 0 0 0 .561.65 1.119 1.119 0 0 0 .645.114 1.124 1.124 0 0 0 .601-.26 1.13 1.13 0 0 0 .353-.546 1.126 1.126 0 0 0 .034-.435 1.049 1.049 0 0 0-.136-.415 1.112 1.112 0 0 0-.678-.53 1.145 1.145 0 0 0-1.04.226 1.156 1.156 0 0 0-.272.343ZM274.739 31.512a1.167 1.167 0 0 0-.401.182 1.147 1.147 0 0 0-.3.319 1.113 1.113 0 0 0-.067 1.052 1.156 1.156 0 0 0 .258.353 1.139 1.139 0 0 0 1.595-.056 1.17 1.17 0 0 0 .231-.371 1.105 1.105 0 0 0-.464-1.341 1.14 1.14 0 0 0-.852-.138ZM265.924 30.26a1.106 1.106 0 0 0-.472.45 1.13 1.13 0 0 0-.136.415 1.146 1.146 0 0 0 .034.435 1.072 1.072 0 0 0 .2.388 1.12 1.12 0 0 0 .538.371 1.101 1.101 0 0 0 .437.051 1.114 1.114 0 0 0 .61-.236 1.076 1.076 0 0 0 .286-.332 1.137 1.137 0 0 0 .136-.414 1.07 1.07 0 0 0-.034-.435 1.086 1.086 0 0 0-.2-.389 1.099 1.099 0 0 0-.335-.283 1.128 1.128 0 0 0-.858-.1c-.071.02-.14.046-.206.08ZM258.538 26.253a1.141 1.141 0 0 0-.736.447 1.088 1.088 0 0 0-.185.396 1.136 1.136 0 0 0-.017.436 1.106 1.106 0 0 0 .286.584 1.176 1.176 0 0 0 .356.256 1.145 1.145 0 0 0 1.063-.062 1.122 1.122 0 0 0 .525-1.128 1.118 1.118 0 0 0-.643-.84 1.112 1.112 0 0 0-.428-.102 1.147 1.147 0 0 0-.221.013ZM252.123 20.261a1.122 1.122 0 0 0-.662 1.056 1.06 1.06 0 0 0 .1.424 1.152 1.152 0 0 0 .257.354 1.114 1.114 0 0 0 .588.287 1.11 1.11 0 0 0 .44-.014 1.13 1.13 0 0 0 .857-.907 1.143 1.143 0 0 0-.015-.436 1.156 1.156 0 0 0-.328-.562 1.094 1.094 0 0 0-.374-.23 1.118 1.118 0 0 0-.654-.042c-.072.017-.142.04-.209.07ZM249.003 14.698a1.119 1.119 0 0 0 .537-.371 1.075 1.075 0 0 0 .2-.389 1.125 1.125 0 0 0 .034-.434 1.117 1.117 0 0 0-1.032-.983 1.136 1.136 0 0 0-1.094.607 1.086 1.086 0 0 0-.115.639 1.049 1.049 0 0 0 .136.415 1.099 1.099 0 0 0 .472.45 1.111 1.111 0 0 0 .424.118 1.144 1.144 0 0 0 .438-.052ZM247.043 4.066a1.112 1.112 0 0 0-.401.181 1.157 1.157 0 0 0-.3.32 1.104 1.104 0 0 0-.138.844 1.101 1.101 0 0 0 .329.56 1.141 1.141 0 0 0 .809.3 1.125 1.125 0 0 0 .92-.53 1.118 1.118 0 0 0 .154-.408 1.068 1.068 0 0 0-.015-.436 1.087 1.087 0 0 0-.183-.397 1.107 1.107 0 0 0-.521-.393 1.143 1.143 0 0 0-.654-.04ZM274.996-.02c-.226 0-.451.014-.675.044l-.249-.764v-16.137a.93.93 0 0 1 .76-.917.936.936 0 0 1 .546.053.93.93 0 0 1 .565.682.93.93 0 0 1 .018.182V-.74l-.252.768a5.306 5.306 0 0 0-.713-.049ZM275.961.069V-.74l5.035-15.346a.938.938 0 0 1 .642-.604.93.93 0 0 1 .366-.028.956.956 0 0 1 .628.348.947.947 0 0 1 .199.684.91.91 0 0 1-.038.178L277.757-.162l-.483.659a5.11 5.11 0 0 0-1.313-.428Z" fill="#F1B95C"/><path d="m275.709.028.252-.768V.07a5.227 5.227 0 0 0-.252-.04ZM277.503.618l.254-.777 9.577-13.053a.88.88 0 0 1 .271-.247.954.954 0 0 1 .889-.052.945.945 0 0 1 .538.704.936.936 0 0 1-.169.697L279.284.944l-.677.487c-.332-.32-.7-.59-1.104-.813Z" fill="#F1B95C"/><path d="m277.274.5.484-.659-.255.777c-.08-.04-.151-.08-.229-.117ZM278.79 1.617l.494-.673 13.182-9.483a.913.913 0 0 1 .331-.136.966.966 0 0 1 .532.044.943.943 0 0 1 .593 1 .937.937 0 0 1-.348.605l-13.182 9.485-.811.261a5.051 5.051 0 0 0-.791-1.103ZM278.607 1.43l.677-.487-.494.674a5.358 5.358 0 0 0-.183-.186Z" fill="#F1B95C"/><path d="m279.699 2.958.693-.499 15.497-4.985a.976.976 0 0 1 .366-.043.942.942 0 0 1 .644.325.93.93 0 0 1 .121 1.033.95.95 0 0 1-.552.464l-15.497 4.986h-.872a5.018 5.018 0 0 0-.4-1.281ZM279.581 2.72l.811-.262-.693.499a3.305 3.305 0 0 0-.118-.237ZM280.176 5.107c0-.2-.012-.4-.036-.6l.834-.268h16.293a.975.975 0 0 1 .362.07.959.959 0 0 1 .424.345.918.918 0 0 1 .141.703.897.897 0 0 1-.141.338.892.892 0 0 1-.261.258.982.982 0 0 1-.341.14.952.952 0 0 1-.184.017h-16.296l-.847-.277c.035-.241.052-.483.052-.726Z" fill="#F1B95C"/><path d="M280.102 4.24h.869l-.834.267a2.7 2.7 0 0 0-.035-.268ZM280.077 6.11h.894l15.497 4.983a.931.931 0 0 1 .45.31.933.933 0 0 1 .082 1.037.927.927 0 0 1-.395.376.923.923 0 0 1-.355.1.953.953 0 0 1-.366-.044l-15.497-4.986-.733-.528a5.02 5.02 0 0 0 .423-1.248Z" fill="#F1B95C"/><path d="m280.124 5.837.847.278h-.894c.018-.095.033-.185.047-.278ZM279.518 7.61l.866.278 13.181 9.485a.95.95 0 0 1 .332.433.898.898 0 0 1 .057.36.93.93 0 0 1-.797.888.953.953 0 0 1-.704-.168L279.271 9.4l-.542-.74a5.16 5.16 0 0 0 .789-1.05Z" fill="#F1B95C"/><path d="m279.651 7.36.733.529-.866-.278c.046-.083.091-.165.133-.25ZM278.523 8.863l.747.538 9.577 13.052a.978.978 0 0 1 .16.332.942.942 0 0 1-.109.714.92.92 0 0 1-.252.27 1 1 0 0 1-.338.155.957.957 0 0 1-.867-.231.954.954 0 0 1-.122-.14L277.741 10.5l-.288-.875a5.208 5.208 0 0 0 1.07-.761ZM278.73 8.662l.543.74-.747-.538c.068-.066.136-.133.204-.202Z" fill="#F1B95C"/><path d="m277.194 9.752.547.747 5.035 15.345a.918.918 0 0 1 .01.543.877.877 0 0 1-.167.326.924.924 0 0 1-.45.31.974.974 0 0 1-.366.043.933.933 0 0 1-.355-.099.985.985 0 0 1-.289-.226.877.877 0 0 1-.18-.318l-5.036-15.346v-.924a5.14 5.14 0 0 0 1.251-.4Z" fill="#F1B95C"/><path d="m277.453 9.624.288.874-.547-.746a5.2 5.2 0 0 0 .259-.128ZM274.996 10.236c.219 0 .437-.015.653-.043l.29.88v16.135a.928.928 0 0 1-.582.864.946.946 0 0 1-.722 0 .93.93 0 0 1-.512-.506.93.93 0 0 1-.072-.358V11.07l.292-.878c.217.028.434.042.653.043ZM275.943 10.149v.925l-.29-.88a3.72 3.72 0 0 0 .29-.045Z" fill="#F1B95C"/><path d="M274.053 10.149v.925l-5.034 15.345a.869.869 0 0 1-.075.168.908.908 0 0 1-.395.376.942.942 0 0 1-.721.056.912.912 0 0 1-.321-.178.934.934 0 0 1-.285-1l5.035-15.346.543-.74c.4.185.818.316 1.253.394ZM274.343 10.193l-.288.878v-.925c.094.022.189.035.288.047Z" fill="#F1B95C"/><path d="m272.542 9.623-.28.867-9.582 13.052a.963.963 0 0 1-.616.374.958.958 0 0 1-.842-.288.966.966 0 0 1-.192-.311.915.915 0 0 1 .028-.716.89.89 0 0 1 .094-.158l9.578-13.056.736-.53c.326.301.684.557 1.076.766Z" fill="#F1B95C"/><path d="m272.8 9.75-.543.74.28-.867c.087.045.175.087.263.127ZM271.262 8.66l-.534.727-13.179 9.484a.925.925 0 0 1-.334.152.966.966 0 0 1-.714-.112.98.98 0 0 1-.271-.248.962.962 0 0 1-.154-.331.927.927 0 0 1 .224-.853.94.94 0 0 1 .138-.122l13.184-9.485.849-.277c.218.388.481.744.791 1.065Z" fill="#F1B95C"/><path d="m271.467 8.858-.737.53.532-.728c.068.067.135.134.205.198ZM270.341 7.354l-.719.518-15.497 4.986a.95.95 0 0 1-.877-.155.961.961 0 0 1-.24-.277.933.933 0 0 1 .532-1.348l15.497-4.986h.874c.088.44.231.86.43 1.262ZM270.471 7.6l-.849.277.719-.518c.042.079.081.16.13.24ZM252.748 4.22h16.296l.818.263a5.01 5.01 0 0 0 .011 1.343l-.829.266h-16.296a.986.986 0 0 1-.362-.071.968.968 0 0 1-.307-.203.956.956 0 0 1-.205-.304.893.893 0 0 1-.072-.358.934.934 0 0 1 .946-.935Z" fill="#F1B95C"/><path d="M269.915 6.092h-.874l.829-.269c.013.092.028.181.045.269ZM269.898 4.22h-.854L253.547-.764a.957.957 0 0 1-.448-.31.882.882 0 0 1-.167-.325.919.919 0 0 1 .19-.86.958.958 0 0 1 .462-.294.964.964 0 0 1 .548.011l15.497 4.987.679.488c-.195.411-.332.84-.41 1.289Z" fill="#F1B95C"/><path d="m269.862 4.483-.815-.262h.854a1.966 1.966 0 0 0-.039.262ZM270.422 2.698l-.795-.256L256.45-7.04a.9.9 0 0 1-.251-.268.995.995 0 0 1-.128-.342.926.926 0 0 1 .169-.696.885.885 0 0 1 .271-.248.903.903 0 0 1 .345-.127.938.938 0 0 1 .544.074.988.988 0 0 1 .16.093L270.744.931l.485.661a5.105 5.105 0 0 0-.807 1.106Z" fill="#F1B95C"/><path d="m270.309 2.93-.679-.488.792.256c-.037.075-.076.153-.113.232ZM271.41 1.41l-.666-.48-9.577-13.053a.945.945 0 0 1-.141-.329.89.89 0 0 1-.007-.357.939.939 0 0 1 .883-.771.968.968 0 0 1 .522.125.944.944 0 0 1 .272.235l9.578 13.053.252.768a5.2 5.2 0 0 0-1.116.81ZM271.229 1.592l-.485-.661.666.48c-.061.058-.122.119-.181.181ZM272.756.485l-.478-.652-5.035-15.345a.986.986 0 0 1-.069-.376.937.937 0 0 1 1.038-.907.963.963 0 0 1 .526.225.927.927 0 0 1 .298.484L274.072-.74v.805a5.16 5.16 0 0 0-1.316.42ZM274.072.062V-.74l.251.766a3.449 3.449 0 0 0-.251.036Z" fill="#F1B95C"/><path d="m272.526.6-.252-.767.482.652c-.08.037-.156.075-.23.116ZM272.536 5.165a2.402 2.402 0 0 0 .188.937 2.457 2.457 0 0 0 1.566 1.405 2.624 2.624 0 0 0 .475.094 2.52 2.52 0 0 0 1.188-.175 2.46 2.46 0 0 0 1.526-2.26c0-.08-.004-.16-.013-.24a2.37 2.37 0 0 0-.279-.914 2.42 2.42 0 0 0-.612-.738 2.267 2.267 0 0 0-.403-.267 2.463 2.463 0 0 0-1.165-.289 2.523 2.523 0 0 0-.945.187 2.622 2.622 0 0 0-.428.226 2.418 2.418 0 0 0-.374.304 2.472 2.472 0 0 0-.536.794 2.306 2.306 0 0 0-.14.459 2.383 2.383 0 0 0-.048.477ZM42.036 53.053a.816.816 0 0 0-.24.574.802.802 0 0 0 .364.674.832.832 0 0 0 .615.121.826.826 0 0 0 .597-.485.8.8 0 0 0-.076-.76.787.787 0 0 0-.226-.224.805.805 0 0 0-.455-.137.818.818 0 0 0-.58.237ZM22.325 32.917a.808.808 0 0 0-.412.236.815.815 0 0 0-.197.74.792.792 0 0 0 .238.407.81.81 0 0 0 .428.207.841.841 0 0 0 .471-.063.824.824 0 0 0 .427-.454.788.788 0 0 0 .03-.47.824.824 0 0 0-.239-.407.824.824 0 0 0-.746-.196ZM28.159 34.098a.819.819 0 0 0-.233.41.817.817 0 0 0 .11.612.808.808 0 0 0 .515.355.815.815 0 0 0 .617-.109.811.811 0 0 0 .321-.979.803.803 0 0 0-.434-.447.812.812 0 0 0-.472-.056.833.833 0 0 0-.424.214ZM33.668 37.036a.824.824 0 0 0-.156.446.817.817 0 0 0 .12.455.809.809 0 0 0 .507.366.813.813 0 0 0 .475-.028.827.827 0 0 0 .46-.422.792.792 0 0 0 .066-.466.796.796 0 0 0-.208-.424.81.81 0 0 0-.41-.238.818.818 0 0 0-.854.311ZM37.97 41.794a.805.805 0 0 0 .38.818.836.836 0 0 0 .62.098.85.85 0 0 0 .29-.133.82.82 0 0 0 .328-.53.805.805 0 0 0-.526-.887.832.832 0 0 0-.765.105.82.82 0 0 0-.328.529ZM40.903 47.105a.823.823 0 0 0-.083.463.785.785 0 0 0 .098.301.818.818 0 0 0 1.115.312.808.808 0 0 0-.178-1.489.827.827 0 0 0-.952.413ZM41.257 59.057a.826.826 0 0 0-.408.472.8.8 0 0 0 .248.867.82.82 0 0 0 .903.106.808.808 0 0 0-.275-1.528.837.837 0 0 0-.468.083ZM3.631 60.54a.828.828 0 0 0 .477-.404.8.8 0 0 0 .048-.62.8.8 0 0 0-.272-.386.801.801 0 0 0-.443-.171.806.806 0 0 0-.464.1.826.826 0 0 0-.33.34.821.821 0 0 0-.083.464.802.802 0 0 0 .306.542.805.805 0 0 0 .443.171.829.829 0 0 0 .318-.037ZM2.208 52.822a.81.81 0 0 0-.508.363.806.806 0 0 0 .41 1.187.824.824 0 0 0 1.095-.63.818.818 0 0 0-.063-.467.816.816 0 0 0-.934-.453ZM3.29 46.653a.824.824 0 0 0-.635.436.797.797 0 0 0-.05.619.816.816 0 0 0 1.03.523.823.823 0 0 0 .537-.55.81.81 0 0 0-.882-1.028ZM5.761 42.566a.827.827 0 0 0 1.038-.06.806.806 0 0 0-.213-1.333.835.835 0 0 0-.627-.024.829.829 0 0 0-.379.284.798.798 0 0 0-.146.604.816.816 0 0 0 .327.529ZM9.873 37.445a.802.802 0 0 0 .314.7.818.818 0 0 0 .76.13.824.824 0 0 0 .533-.555.822.822 0 0 0-.012-.47.796.796 0 0 0-.274-.385.819.819 0 0 0-.761-.13.823.823 0 0 0-.475.405.799.799 0 0 0-.085.305ZM15.637 34.199a.798.798 0 0 0-.15.602.805.805 0 0 0 .462.613.812.812 0 0 0 .47.068.804.804 0 0 0 .43-.203.82.82 0 0 0 .266-.562.82.82 0 0 0-.117-.456.814.814 0 0 0-.664-.391.812.812 0 0 0-.46.115.827.827 0 0 0-.237.214ZM22.497 49.856c-.164 0-.327.01-.49.032l-.18-.554V37.621a.676.676 0 0 1 .551-.665.677.677 0 0 1 .396.038.668.668 0 0 1 .308.25.664.664 0 0 1 .116.377v11.713l-.183.557a3.86 3.86 0 0 0-.518-.035Z" fill="#F1B95C"/><path d="M23.198 49.921v-.587l3.654-11.138a.688.688 0 0 1 .466-.439.668.668 0 0 1 .265-.02.687.687 0 0 1 .602.616.664.664 0 0 1-.029.262l-3.655 11.138-.35.479a3.712 3.712 0 0 0-.953-.311ZM23.015 49.892l.183-.558v.587a3.961 3.961 0 0 0-.183-.03ZM24.316 50.32l.185-.564 6.95-9.474a.68.68 0 0 1 .448-.272.702.702 0 0 1 .51.122.674.674 0 0 1 .265.708.675.675 0 0 1-.112.241l-6.953 9.475-.491.353a3.792 3.792 0 0 0-.802-.59Z" fill="#F1B95C"/><path d="m24.15 50.234.351-.478-.185.563c-.057-.03-.11-.058-.166-.085ZM25.25 51.044l.36-.488 9.566-6.883a.686.686 0 0 1 .627-.066.69.69 0 0 1 .416.467.64.64 0 0 1 .015.258.673.673 0 0 1-.253.44l-9.568 6.883-.588.19a3.677 3.677 0 0 0-.574-.8Z" fill="#F1B95C"/><path d="m25.118 50.91.491-.354-.358.488a4.123 4.123 0 0 0-.133-.135ZM25.91 52.018l.503-.362 11.248-3.618a.716.716 0 0 1 .266-.032.692.692 0 0 1 .544.346.666.666 0 0 1 .011.64.68.68 0 0 1-.4.337l-11.248 3.619H26.2a3.648 3.648 0 0 0-.29-.93ZM25.825 51.845l.588-.19-.502.362a2.552 2.552 0 0 0-.086-.172ZM26.257 53.578c0-.146-.01-.291-.027-.436l.605-.194h11.826a.708.708 0 0 1 .382.114.693.693 0 0 1 .252.305.662.662 0 0 1 .04.392.658.658 0 0 1-.188.348.686.686 0 0 1-.486.199H26.833l-.614-.202c.025-.174.037-.35.038-.526Z" fill="#F1B95C"/><path d="M26.203 52.948h.63l-.605.194a2.095 2.095 0 0 0-.025-.194ZM26.185 54.306h.649l11.247 3.616a.688.688 0 0 1 .449.462.674.674 0 0 1-.35.79.683.683 0 0 1-.522.04l-11.248-3.62-.532-.382c.142-.29.244-.591.307-.906Z" fill="#F1B95C"/><path d="m26.219 54.108.614.201h-.648c.013-.068.024-.134.034-.201ZM25.78 55.395l.627.2 9.568 6.885a.678.678 0 0 1-.431 1.228.697.697 0 0 1-.376-.13L25.6 56.694l-.394-.536a3.74 3.74 0 0 0 .573-.763Z" fill="#F1B95C"/><path d="m25.875 55.214.532.383-.628-.202c.033-.06.066-.12.096-.181ZM25.057 56.304l.542.39 6.951 9.474a.674.674 0 0 1-.391 1.067.7.7 0 0 1-.522-.085.693.693 0 0 1-.196-.184l-6.952-9.475-.209-.635a3.77 3.77 0 0 0 .777-.552ZM25.207 56.158l.394.537-.542-.39c.05-.048.099-.097.148-.147Z" fill="#F1B95C"/><path d="m24.092 56.95.397.54 3.654 11.139a.682.682 0 0 1-.113.63.677.677 0 0 1-.327.226.706.706 0 0 1-.398.007.687.687 0 0 1-.466-.443L23.184 57.91v-.671a3.72 3.72 0 0 0 .908-.29ZM24.28 56.856l.21.635-.398-.542c.064-.03.127-.06.189-.093ZM22.497 57.3c.159 0 .317-.01.474-.03l.21.638v11.71a.673.673 0 0 1-.422.627.686.686 0 0 1-.747-.147.666.666 0 0 1-.2-.48V57.906l.21-.637c.158.02.316.03.475.031Z" fill="#F1B95C"/><path d="M23.184 57.237v.671l-.21-.639a2.67 2.67 0 0 0 .21-.032ZM21.813 57.237v.671l-3.654 11.138a.654.654 0 0 1-.131.231.687.687 0 0 1-.856.151.683.683 0 0 1-.346-.672.67.67 0 0 1 .028-.13l3.655-11.138.394-.537c.29.135.594.23.91.286ZM22.023 57.27l-.21.636v-.67c.069.015.138.025.21.033Z" fill="#F1B95C"/><path d="m20.716 56.855-.204.63-6.954 9.473a.657.657 0 0 1-.197.18.684.684 0 0 1-.645.038.687.687 0 0 1-.39-.51.68.68 0 0 1 .123-.506l6.952-9.476.534-.384c.236.218.496.403.78.556Z" fill="#F1B95C"/><path d="m20.903 56.948-.394.537.203-.63c.064.033.127.064.19.093ZM19.787 56.156l-.388.528-9.565 6.884a.706.706 0 0 1-.376.128.7.7 0 0 1-.385-.1.71.71 0 0 1-.196-.18.678.678 0 0 1-.089-.633.68.68 0 0 1 .24-.314l9.568-6.884.617-.202c.158.282.349.54.574.773ZM19.935 56.3l-.534.384.386-.528c.05.05.098.098.148.144Z" fill="#F1B95C"/><path d="m19.119 55.209-.523.376L7.35 59.203a.69.69 0 0 1-.894-.565.694.694 0 0 1 .07-.389.684.684 0 0 1 .4-.338l11.247-3.619h.634c.064.32.168.625.313.917ZM19.213 55.387l-.617.2.523-.375c.03.057.058.116.094.175ZM6.35 52.934h11.827l.593.19a3.688 3.688 0 0 0 .009.975l-.602.193H6.349a.705.705 0 0 1-.381-.114.7.7 0 0 1-.253-.305.66.66 0 0 1 0-.52.67.67 0 0 1 .372-.367.679.679 0 0 1 .262-.052Z" fill="#F1B95C"/><path d="M18.81 54.292h-.635l.602-.194c.01.066.02.13.032.194ZM18.797 52.934h-.62L6.929 49.316a.7.7 0 0 1-.325-.226.67.67 0 0 1-.06-.75.702.702 0 0 1 .287-.274.689.689 0 0 1 .523-.04l11.248 3.619.492.354c-.141.298-.24.61-.297.935ZM18.77 53.125l-.591-.19h.62a1.531 1.531 0 0 0-.028.19ZM19.177 51.83l-.577-.186-9.564-6.883a.664.664 0 0 1-.24-.315.688.688 0 0 1-.024-.393.693.693 0 0 1 .2-.34.685.685 0 0 1 .626-.162.685.685 0 0 1 .243.11l9.57 6.886.352.48c-.232.241-.427.509-.586.802Z" fill="#F1B95C"/><path d="m19.095 51.998-.492-.355.574.186c-.027.054-.055.111-.082.169ZM19.895 50.895l-.484-.349-6.951-9.474a.668.668 0 0 1-.072-.623.66.66 0 0 1 .14-.22.676.676 0 0 1 .465-.215.705.705 0 0 1 .38.091.707.707 0 0 1 .197.17l6.951 9.475.183.557c-.296.16-.566.356-.81.588Z" fill="#F1B95C"/><path d="m19.763 51.027-.352-.48.483.348a3.562 3.562 0 0 0-.13.132ZM20.87 50.223l-.346-.473-3.654-11.138a.687.687 0 0 1-.032-.41.669.669 0 0 1 .328-.435.677.677 0 0 1 .407-.086.687.687 0 0 1 .598.515l3.655 11.138v.584a3.75 3.75 0 0 0-.955.305ZM21.826 49.916v-.582l.183.556c-.061.006-.122.016-.183.026Z" fill="#F1B95C"/><path d="m20.704 50.307-.183-.557.35.473a2.517 2.517 0 0 0-.167.084ZM20.712 53.62a1.777 1.777 0 0 0 .302.987 1.734 1.734 0 0 0 .354.386 1.757 1.757 0 0 0 .617.327 1.899 1.899 0 0 0 .52.076 1.81 1.81 0 0 0 1.387-.65 1.783 1.783 0 0 0 .398-.952 1.717 1.717 0 0 0-.069-.69 1.836 1.836 0 0 0-.224-.47 1.765 1.765 0 0 0-.646-.58 1.859 1.859 0 0 0-.67-.202 1.81 1.81 0 0 0-1.667.781 1.752 1.752 0 0 0-.302.987ZM211.806 28.766v-.008c-.504 0-1.009-.003-1.513.002a.476.476 0 0 1-.327-.114c-.07-.058-.058-.149.021-.198.115-.072.242-.08.372-.08l2.849-.016c.059 0 .118 0 .177.005.058.005.089.042.091.098.003.07.004.14-.001.21-.005.056-.04.091-.096.096-.06.004-.119.004-.178.004h-1.395Zm4.573.018v-.012c-.455 0-.909.002-1.363 0-.119-.002-.141-.028-.146-.14a1.207 1.207 0 0 1 0-.12c.005-.136.026-.163.153-.166.454-.007.908-.008 1.362-.033.365-.02.732.006 1.097-.016.247-.015.465.059.687.142.036.014.07.037.073.083a.103.103 0 0 1-.056.1c-.176.091-.357.165-.562.163-.415-.003-.83 0-1.245 0Zm2.944-22.736c-.256.19-.508.249-.781.233-.089-.005-.177-.022-.266-.025-.693-.02-1.386-.014-2.079-.055-.702-.043-1.406-.02-2.109-.062-.682-.04-1.366-.021-2.049-.058-.652-.036-1.307-.013-1.961-.022a1.686 1.686 0 0 1-.824-.216c-.049-.028-.045-.093.005-.118.035-.017.072-.032.109-.046.38-.14.77-.178 1.17-.125.068.009.137.02.206.022.535.015 1.069.019 1.603.057.513.038 1.029.02 1.544.06.532.039 1.068.022 1.602.06.524.038 1.049.023 1.574.06.493.034.99.016 1.485.028.258.006.513.037.771.207Zm-3.99 31.662h-.008c0 .342.002.683-.001 1.025-.001.096-.028.126-.123.134a11.01 11.01 0 0 1-.563.04c-.583.025-1.168-.012-1.75.055-.03.003-.06 0-.089-.005-.043-.006-.071-.032-.077-.077a.67.67 0 0 1-.008-.09c-.018-.682.016-1.366-.04-2.048-.013-.16.019-.185.192-.184.753.002 1.505.007 2.259.014.196 0 .206.012.207.202.003.31.001.623.001.934Zm-4.89-10.772c-.061.01-.099.023-.136.02-.294-.024-.57.044-.84.152-.155.062-.176.055-.275-.078a11.284 11.284 0 0 1-.617-.923c-.409-.68-.761-1.39-1.099-2.106a39.317 39.317 0 0 1-1.536-3.758c-.325-.928-.631-1.863-.82-2.832a13.196 13.196 0 0 1-.263-2.241c-.007-.341-.003-.684.007-1.026.011-.402.067-.8.143-1.195.139-.723.363-1.42.65-2.094.27-.633.624-1.21 1.117-1.694.32-.315.626-.644.973-.93.17-.14.34-.277.538-.375a2.33 2.33 0 0 0 .311-.176c.191-.135.419-.178.626-.272a.217.217 0 0 1 .116-.014c.205.03.411.062.614.1.078.014.097.069.053.13-.076.107-.157.208-.232.314-.531.742-1.031 1.503-1.373 2.358a9.116 9.116 0 0 0-.462 1.43c-.079.364-.137.729-.182 1.098-.045.369-.103.736-.103 1.109.001.633.005 1.267.009 1.901.001.08.003.162.013.24.051.41.102.818.16 1.225.089.616.192 1.23.339 1.834.166.683.333 1.366.497 2.048.426 1.769.922 3.515 1.582 5.21.068.175.124.355.19.545Zm8.529-19.21c.19-.119.367-.132.529.056.038.045.094.073.14.11.502.411 1.035.78 1.529 1.2a8.744 8.744 0 0 1 2.315 3.064c.36.79.561 1.61.533 2.48-.013.422-.04.844-.062 1.265-.001.03-.007.06-.01.09l-.097.868c-.052.48-.131.954-.27 1.418a29.267 29.267 0 0 1-.581 1.71 24.221 24.221 0 0 1-1.528 3.4c-.436.793-.94 1.538-1.506 2.241-.282.352-.607.663-.9 1.005-.116.137-.248.26-.373.39-.039.039-.085.053-.132.015-.176-.14-.38-.156-.592-.148-.079.003-.159 0-.238-.006a.085.085 0 0 1-.076-.105 1.01 1.01 0 0 1 .046-.143c.148-.363.292-.727.446-1.086.413-.959.772-1.94 1.116-2.924.354-1.015.672-2.04.942-3.081.293-1.127.582-2.255.683-3.422.043-.5.096-1 .099-1.503a10.95 10.95 0 0 0-.038-1.145c-.029-.29-.043-.583-.091-.869a10.973 10.973 0 0 0-.747-2.535 23.18 23.18 0 0 0-1.075-2.153c-.034-.06-.084-.114-.062-.193Zm-4.063 17.15c.023-.784.027-1.568.047-2.353.045-1.73.013-3.46.062-5.19.047-1.638.014-3.278.057-4.918.038-1.458.024-2.918.034-4.377.001-.1.003-.2.013-.3.007-.066.048-.11.118-.115.049-.003.099-.003.148-.003.526.008 1.051.021 1.577.02.169 0 .268.061.361.204a17.026 17.026 0 0 1 1.663 3.229c.365.942.564 1.923.578 2.94.007.604.002 1.207-.063 1.807-.028.26-.046.521-.086.78-.101.665-.256 1.32-.419 1.971a43.817 43.817 0 0 1-1.698 5.3c-.27.693-.557 1.377-.838 2.064-.114.278-.233.555-.351.832-.028.067-.062.129-.146.13-.318.001-.635.002-.952.001-.073 0-.101-.053-.103-.12-.002-.08-.002-.161-.002-.242v-1.66Zm-1.188-16.48c.011.373-.03.744-.036 1.116-.029 1.75-.009 3.5-.059 5.251-.045 1.6-.018 3.2-.054 4.799-.046 2.022-.022 4.045-.073 6.067-.009.362-.004.724-.009 1.087-.002.174-.02.192-.185.196-.327.008-.654.01-.981.03-.391.022-.341.042-.487-.333-.179-.459-.341-.923-.51-1.385a29.28 29.28 0 0 1-.687-2.088c-.399-1.4-.72-2.82-1.074-4.232-.156-.624-.255-1.26-.354-1.894-.077-.496-.149-.994-.14-1.5.001-.05-.004-.1-.01-.15a7.584 7.584 0 0 1-.015-1.296c.027-.46.079-.919.144-1.377a7.502 7.502 0 0 1 .865-2.582c.377-.688.834-1.321 1.319-1.934.155-.197.307-.394.499-.557.071-.06.139-.101.237-.102.497-.004.991.03 1.486.056.091.005.122.038.123.134.003.231.001.463.001.694ZM213.966-26c.005.09.015.18.014.27-.006 1.439.007 2.879-.027 4.317-.049 2.073-.013 4.146-.06 6.218-.046 1.982-.013 3.965-.059 5.946-.047 2.043-.013 4.086-.06 6.128-.046 1.982-.03 3.964-.055 5.946-.005.422-.02.844-.032 1.266-.005.139-.023.157-.158.16-.099 0-.2.006-.297-.008-.306-.046-.614-.034-.921-.045-.535-.02-1.069-.043-1.604-.06a13.222 13.222 0 0 0-.744-.008c-.618.014-1.194.168-1.7.544a1.501 1.501 0 0 0-.459.546c-.16.324-.183.653-.06.993.021.056.047.11.072.166.023.053.011.098-.037.129a1.21 1.21 0 0 1-.129.075c-.28.134-.526.318-.766.515-.471.388-.902.82-1.315 1.267-.569.617-.975 1.342-1.29 2.12-.32.793-.558 1.612-.706 2.455-.049.277-.067.558-.096.839-.049.492-.053.984-.034 1.476.023.643.095 1.282.198 1.918.193 1.196.555 2.343.947 3.483a44.7 44.7 0 0 0 1.19 3.024c.328.767.699 1.512 1.082 2.251.369.714.778 1.403 1.267 2.04.079.103.16.206.25.3a.358.358 0 0 1 .108.266c-.002.696.385 1.136.947 1.453.227.128.48.187.737.222a.764.764 0 0 0 .296 0c.235-.067.472-.046.708-.047.516 0 1.033.001 1.548.008.198.002.396.019.594.032.088.006.117.04.122.136.004.07.003.14.002.212-.005.925.002 1.851-.022 2.777-.013.523-.025 1.045-.033 1.569-.001.04-.003.08-.007.12-.007.056-.039.092-.095.095a3.78 3.78 0 0 1-.238.006c-.348-.001-.695-.01-1.042-.004a.696.696 0 0 0-.682.486.784.784 0 0 0-.033.268c-.001.392-.005.784-.003 1.177l.015 2.385c.001.11.001.22.027.33.088.36.329.563.692.597.286.027.57.056.858.018.117-.015.237-.008.356-.006.1.002.134.035.124.124-.051.461-.038.925-.044 1.386-.003.18-.048.298-.213.387-.47.254-.802.652-1.056 1.117-.241.44-.45.896-.638 1.363a1.74 1.74 0 0 0-.099.346c-.068.384.185.779.545.846.215.04.39-.026.55-.157a.983.983 0 0 0 .27-.392c.112-.257.227-.514.338-.771.1-.232.215-.454.347-.667.124-.2.29-.356.491-.473.062-.036.112-.024.16.025a.798.798 0 0 1 .179.31c.054.162.1.327.138.493.069.314.127.63.196.943.032.148.076.292.157.422a.665.665 0 0 0 .747.307c.257-.058.479-.323.503-.607.012-.14.01-.282-.019-.421-.077-.374-.149-.749-.237-1.12a4.887 4.887 0 0 0-.189-.603 2.217 2.217 0 0 0-.636-.897c-.08-.069-.132-.142-.126-.257.026-.532-.002-1.067.06-1.598.015-.136.031-.158.163-.161.336-.007.674-.013 1.011-.01a.76.76 0 0 0 .4-.093c.213-.122.342-.302.354-.555.014-.281.03-.563.032-.844.008-.866.009-1.731.013-2.597 0-.12-.002-.239-.034-.358a.702.702 0 0 0-.432-.502c-.119-.05-.24-.094-.358-.145-.114-.05-.233-.042-.352-.045-.208-.006-.416.012-.623-.026-.135-.026-.153-.036-.151-.174.009-.462-.021-.926.027-1.387.009-.08.006-.161.007-.242l.019-2.777c.001-.07 0-.141.004-.212.006-.098.033-.129.122-.134.079-.005.159-.003.238-.003.834.004 1.667.006 2.5.013.171 0 .334-.018.493-.087.109-.047.228-.067.34-.108.333-.122.62-.312.83-.608.205-.286.31-.604.296-.96-.002-.08-.003-.161-.015-.24-.015-.1.022-.173.088-.243.192-.203.376-.414.57-.616a15.11 15.11 0 0 0 2.106-2.801c.731-1.237 1.321-2.542 1.824-3.89.266-.715.524-1.433.73-2.169.11-.397.185-.802.233-1.21.057-.48.108-.96.161-1.438.004-.03.005-.06.007-.09.016-.312.041-.623.048-.934.02-.985-.115-1.939-.492-2.859a10.568 10.568 0 0 0-1.814-2.958 10.454 10.454 0 0 0-1.493-1.38c-.323-.25-.648-.5-.969-.75-.097-.077-.093-.08-.041-.2.044-.102.091-.202.123-.307.185-.608-.164-1.174-.516-1.44a2.435 2.435 0 0 0-1.379-.5c-.277-.013-.557.012-.832-.014-.367-.035-.733-.034-1.1-.047-.554-.02-1.109-.04-1.664-.062-.135-.006-.154-.022-.151-.161.006-.271-.014-.544.023-.814.013-.09.008-.181.008-.271.01-1.641 0-3.282.033-4.922.043-2.193.018-4.387.063-6.58.039-1.891.014-3.783.055-5.674.048-2.153.019-4.307.065-6.46.036-1.69.026-3.38.048-5.07.001-.121-.002-.241-.004-.362h-1.428ZM172.7 37.249v-.01c-.656 0-1.313-.004-1.969.003a.624.624 0 0 1-.425-.146c-.091-.075-.076-.192.027-.255.15-.091.315-.102.484-.102l3.707-.02c.077 0 .155 0 .231.006.075.006.115.054.119.126.003.09.004.18-.003.27-.006.071-.052.116-.124.122-.078.005-.155.005-.232.005l-1.815.001Zm5.951.024v-.016c-.592 0-1.183.002-1.774-.001-.155-.001-.183-.035-.19-.178a1.985 1.985 0 0 1 0-.155c.007-.173.034-.21.199-.212.591-.01 1.182-.01 1.773-.043.475-.025.952.008 1.427-.02.321-.02.606.075.894.181.048.018.091.049.096.108a.131.131 0 0 1-.074.127c-.229.117-.464.212-.731.21-.54-.004-1.08-.001-1.62-.001Zm3.831-29.165a1.48 1.48 0 0 1-1.016.3c-.116-.007-.231-.03-.346-.033-.902-.025-1.804-.017-2.706-.07-.913-.055-1.829-.025-2.744-.08-.887-.052-1.778-.027-2.667-.074-.848-.046-1.701-.017-2.552-.028a2.22 2.22 0 0 1-1.072-.278c-.064-.035-.059-.119.006-.15.046-.023.094-.042.143-.06a3.187 3.187 0 0 1 1.521-.16c.09.011.179.026.269.028.696.02 1.391.024 2.086.074.668.048 1.339.026 2.009.075.693.05 1.39.03 2.086.079.68.048 1.364.029 2.047.076.642.044 1.289.02 1.933.036.336.008.668.047 1.003.265Zm-5.192 40.614h-.01c0 .44.002.877-.002 1.315-.001.123-.037.16-.16.172-.244.022-.487.042-.732.052-.759.03-1.521-.017-2.278.07a.41.41 0 0 1-.116-.007c-.056-.008-.093-.04-.101-.099a1.1 1.1 0 0 1-.01-.115c-.023-.876.022-1.753-.052-2.627-.017-.204.026-.237.251-.237.979.004 1.959.01 2.938.018.256.002.269.016.271.26.004.399.001.799.001 1.198Zm-6.364-13.818c-.079.012-.129.03-.177.026-.382-.03-.742.057-1.093.195-.202.08-.229.07-.358-.1a14.722 14.722 0 0 1-.803-1.184c-.532-.871-.99-1.782-1.429-2.701a49.733 49.733 0 0 1-2-4.82c-.423-1.192-.821-2.39-1.067-3.633-.187-.95-.321-1.906-.342-2.875a27.5 27.5 0 0 1 .009-1.316 9.304 9.304 0 0 1 .186-1.532c.182-.928.472-1.821.846-2.687.351-.812.812-1.552 1.454-2.173.416-.404.815-.825 1.266-1.194.222-.18.442-.354.7-.48.139-.067.278-.138.405-.226.248-.172.545-.228.814-.349a.288.288 0 0 1 .151-.018c.267.039.535.08.8.128.1.019.126.09.068.169-.098.136-.204.266-.302.402-.691.952-1.341 1.927-1.786 3.024-.242.597-.461 1.2-.601 1.834-.104.467-.179.935-.238 1.409-.058.473-.134.944-.133 1.422.001.813.006 1.626.012 2.439 0 .103.003.207.017.309.066.524.131 1.048.208 1.57.116.79.249 1.577.441 2.353.216.875.433 1.751.646 2.627.555 2.268 1.201 4.508 2.059 6.682.089.225.162.456.247.7Zm11.099-24.642c.248-.151.478-.168.688.074.05.057.123.093.183.142.653.526 1.347.998 1.99 1.539a11.234 11.234 0 0 1 3.012 3.929c.468 1.013.73 2.064.694 3.182-.017.54-.053 1.081-.08 1.622-.003.038-.01.077-.014.115l-.126 1.114a10.074 10.074 0 0 1-.351 1.819 38.34 38.34 0 0 1-.756 2.193 30.894 30.894 0 0 1-1.988 4.362 19.997 19.997 0 0 1-1.96 2.874c-.368.451-.791.85-1.172 1.289-.152.175-.322.334-.486.5-.05.05-.11.068-.171.02-.229-.181-.495-.201-.771-.19-.103.003-.207-.001-.309-.008a.11.11 0 0 1-.099-.136c.016-.062.035-.123.06-.183.192-.465.38-.931.581-1.392a56.727 56.727 0 0 0 1.451-3.752c.46-1.3.875-2.617 1.226-3.951.382-1.446.757-2.892.889-4.39.056-.642.125-1.283.129-1.928a13.6 13.6 0 0 0-.05-1.468c-.037-.372-.055-.747-.118-1.115a13.85 13.85 0 0 0-.973-3.252 29.378 29.378 0 0 0-1.398-2.76c-.044-.077-.109-.148-.081-.249Zm-5.286 22c.029-1.006.034-2.012.06-3.018.058-2.218.017-4.438.081-6.657.061-2.102.019-4.206.074-6.31.049-1.87.032-3.742.045-5.613.001-.129.003-.258.016-.386.009-.084.063-.14.154-.146.064-.004.128-.005.192-.004.685.01 1.369.027 2.052.025.22 0 .349.079.471.261a21.797 21.797 0 0 1 2.164 4.142c.475 1.21.734 2.468.751 3.772.01.774.004 1.548-.081 2.319-.037.332-.06.667-.112.998-.132.854-.333 1.693-.545 2.53a55.544 55.544 0 0 1-2.211 6.8c-.35.886-.724 1.764-1.09 2.645-.148.358-.304.713-.456 1.067-.037.086-.082.166-.191.166-.413.003-.826.005-1.239.003-.095 0-.13-.068-.133-.154-.003-.103-.002-.207-.002-.31v-2.13Zm-1.547-21.139c.014.478-.038.954-.046 1.431-.039 2.245-.013 4.49-.077 6.736-.059 2.051-.025 4.104-.071 6.156-.059 2.593-.029 5.188-.095 7.781-.011.465-.005.93-.011 1.395-.004.223-.027.247-.241.252-.426.01-.851.013-1.276.037-.51.03-.445.055-.635-.427-.233-.587-.444-1.183-.664-1.775a37.536 37.536 0 0 1-.893-2.679c-.519-1.795-.938-3.617-1.398-5.428-.203-.8-.332-1.616-.461-2.43-.1-.637-.194-1.275-.182-1.923a1.383 1.383 0 0 0-.013-.193 9.617 9.617 0 0 1-.019-1.662c.035-.59.103-1.18.186-1.767a9.558 9.558 0 0 1 1.127-3.312c.49-.883 1.084-1.695 1.716-2.481.201-.252.4-.506.649-.714a.462.462 0 0 1 .309-.131c.646-.005 1.289.038 1.934.072.118.006.158.049.16.171.004.298.001.594.001.891ZM175.51-33c.008.115.02.23.02.346-.009 1.846.009 3.693-.036 5.538-.064 2.658-.017 5.319-.079 7.976-.059 2.542-.016 5.086-.076 7.627-.061 2.62-.017 5.24-.078 7.86-.06 2.542-.039 5.085-.071 7.627-.007.542-.027 1.083-.043 1.625-.005.177-.03.2-.205.203-.129.003-.26.01-.386-.009-.399-.059-.799-.044-1.198-.058-.697-.025-1.393-.055-2.088-.077-.323-.01-.646-.017-.968-.01-.804.018-1.554.216-2.213.698a1.94 1.94 0 0 0-.597.7 1.537 1.537 0 0 0-.078 1.274c.027.072.062.142.093.213.031.069.015.125-.047.166-.055.034-.11.068-.168.096-.364.172-.685.407-.997.66a17.338 17.338 0 0 0-1.711 1.626c-.74.792-1.269 1.72-1.678 2.72a15.422 15.422 0 0 0-.92 3.148c-.063.356-.087.716-.124 1.076a13.622 13.622 0 0 0-.045 1.894c.031.825.124 1.644.257 2.46.251 1.534.723 3.005 1.234 4.467.459 1.316.993 2.602 1.548 3.88.427.983.909 1.94 1.407 2.887.481.915 1.013 1.8 1.649 2.617.103.132.208.264.325.383a.454.454 0 0 1 .142.342c-.003.893.5 1.458 1.231 1.864.296.164.626.24.959.285.127.017.266.032.385 0 .306-.085.615-.06.923-.06.671 0 1.343.001 2.014.01.257.003.515.024.772.041.115.008.152.051.16.175.005.09.003.18.002.271-.007 1.188.002 2.375-.028 3.563-.017.67-.034 1.34-.044 2.011a1.587 1.587 0 0 1-.009.155c-.009.072-.05.118-.124.122a4.901 4.901 0 0 1-.309.007c-.452-.001-.904-.011-1.355-.004-.437.007-.748.235-.888.623a.976.976 0 0 0-.043.344c-.001.503-.006 1.006-.004 1.51.005 1.02.012 2.039.019 3.059.001.141.001.282.036.423.114.461.427.722.9.766.372.035.742.072 1.116.024.152-.02.309-.011.464-.008.13.002.174.044.161.158-.066.592-.049 1.186-.058 1.779-.003.23-.062.381-.277.495-.611.326-1.043.837-1.374 1.434-.313.564-.586 1.15-.83 1.747a2.29 2.29 0 0 0-.129.444c-.088.493.241 1 .71 1.086.279.05.508-.033.716-.202.164-.132.267-.311.351-.503.146-.33.295-.658.44-.99.129-.296.279-.58.451-.854.161-.257.377-.457.639-.607.08-.046.146-.03.208.033.111.113.184.251.234.398.069.206.13.418.178.631.091.403.166.808.255 1.21.042.19.099.375.205.541.215.339.569.483.973.394.334-.074.623-.414.654-.779a1.85 1.85 0 0 0-.025-.54c-.101-.479-.194-.96-.308-1.435a6.184 6.184 0 0 0-.247-.774 2.836 2.836 0 0 0-.827-1.152c-.104-.088-.171-.182-.164-.33.034-.681-.003-1.367.078-2.049.02-.174.041-.203.212-.206.438-.01.877-.016 1.316-.013.185.001.358-.027.52-.12.278-.156.445-.387.461-.712.018-.36.039-.721.042-1.082.01-1.11.012-2.22.017-3.33 0-.155-.003-.307-.044-.46a.91.91 0 0 0-.563-.645c-.154-.062-.312-.12-.466-.185-.148-.063-.303-.054-.458-.058-.27-.008-.542.016-.811-.034-.175-.033-.199-.046-.196-.222.011-.594-.027-1.188.036-1.78.011-.103.007-.206.008-.31l.026-3.563c.001-.09-.001-.18.004-.27.008-.127.043-.166.16-.173.102-.006.206-.003.309-.003 1.084.004 2.169.007 3.253.015a1.57 1.57 0 0 0 .642-.11c.141-.06.296-.087.441-.14.435-.156.807-.4 1.082-.779.266-.367.402-.776.385-1.231-.004-.103-.004-.207-.02-.31-.02-.128.029-.22.115-.31.25-.26.489-.531.741-.79a19.394 19.394 0 0 0 2.74-3.593c.952-1.587 1.72-3.261 2.374-4.99.347-.917.682-1.838.95-2.782.144-.51.24-1.028.304-1.553.074-.615.14-1.23.209-1.844.005-.039.006-.077.009-.116.021-.4.054-.798.062-1.197.026-1.264-.15-2.487-.64-3.668a13.497 13.497 0 0 0-2.361-3.794c-.582-.66-1.244-1.236-1.943-1.77-.42-.322-.842-.64-1.26-.963-.127-.097-.121-.1-.053-.256.057-.13.118-.258.16-.393.241-.78-.214-1.506-.672-1.847a3.195 3.195 0 0 0-1.794-.642c-.361-.017-.725.016-1.083-.018-.477-.045-.954-.043-1.431-.06-.722-.026-1.444-.052-2.166-.08-.175-.007-.2-.028-.197-.207.008-.347-.018-.697.031-1.044.016-.114.01-.231.01-.348.013-2.104 0-4.209.042-6.312.056-2.814.024-5.628.083-8.44.051-2.427.018-4.854.072-7.28.061-2.76.024-5.524.083-8.284.047-2.168.035-4.337.063-6.505.002-.155-.003-.309-.004-.464h-1.86ZM134.649 53.977c2.858 1.65 3.328 10.638 3.206 14.926-.001 2.594-2.975 2.336-2.999 1.355-.02-.784-1.172-7.817-1.745-11.236-.206-.387-1.29-1.496-3.984-2.836-2.694-1.341-5.975-1.606-7.278-1.571-.247 1.87 4.599 3.997 5.396 4.564.796.568 2.191 5.534 1.72 10.256-.47 4.722-2.54 4.09-3.246 3.227-.706-.864-.145-5.883-.9-8.708s-4.509-4.294-8.377-6.447c-3.095-1.722-5.571-5.05-6.422-6.5-.706-.864-2.96-2.589-6.325-2.577-3.365.012-11.759-2.072-15.535-3.116-7.453 3.242-20.802 1.441-21.122.37-.32-1.07.132-2.554 5.226-2.298 4.075.205 8.304-1.793 9.91-2.817-1.16.62-4.992 1.527-11.051.198-7.574-1.66-10.67-4.227-8.534-4.873 2.136-.646 5.504 1.03 11.847.37 6.342-.661 5.038-5.924 4.012-7.859-.82-1.548-3.906-2.38-5.347-2.604-5.031-7.243 5.23-10.082 10.989-10.596 2.066-5.079 8.734-8.149 11.81-9.049.005 3.375-3.249 7.119-4.876 8.569 5.18-2.572 9.493-2.511 11.002-2.16.652-.017.897.663-3.337 3.524-4.234 2.86-9.992 3.44-12.341 3.372-.584.147-1.381 1.136.096 3.922 1.847 3.483 13.423 4.742 26.567 6.156 10.516 1.13 14.063 6.883 14.521 9.618.135-1.148 1.001-3.068 3.386-1.563 2.385 1.506-.273 4.782-1.901 6.233-.142.82-.277 3.029.327 5.289.754 2.825 1.732 2.799 5.305 4.861Z" fill="#F1B95C"/></svg>