<svg width="45" height="64" fill="none" xmlns="http://www.w3.org/2000/svg"><path d="M42.686 63.525a.542.542 0 0 0-.158.378.522.522 0 0 0 .158.378.556.556 0 0 0 .276.146.548.548 0 0 0 .487-.147.534.534 0 0 0 .067-.674.524.524 0 0 0-.242-.197.55.55 0 0 0-.507.05.531.531 0 0 0-.081.066ZM29.704 50.262a.536.536 0 0 0-.244.911.526.526 0 0 0 .281.137.555.555 0 0 0 .31-.041.545.545 0 0 0 .282-.3.523.523 0 0 0-.014-.409.526.526 0 0 0-.208-.232.542.542 0 0 0-.407-.066ZM33.546 51.04a.539.539 0 0 0-.157.48.537.537 0 0 0 .727.403.534.534 0 0 0-.29-1.023.544.544 0 0 0-.28.14ZM37.175 52.976a.537.537 0 0 0-.07.499.527.527 0 0 0 .28.3.56.56 0 0 0 .31.043.547.547 0 0 0 .353-.214.535.535 0 0 0 .023-.593.533.533 0 0 0-.439-.255.556.556 0 0 0-.303.078.542.542 0 0 0-.154.142ZM40.008 56.11a.539.539 0 0 0 .096.397.534.534 0 0 0 .458.22.544.544 0 0 0 .485-.35.532.532 0 0 0-.422-.712.542.542 0 0 0-.617.444ZM41.94 59.607a.545.545 0 0 0-.055.305.52.52 0 0 0 .125.285.535.535 0 0 0 .368.185.527.527 0 0 0 .306-.066.54.54 0 0 0 .275-.425.53.53 0 0 0-.293-.518.547.547 0 0 0-.596.07.539.539 0 0 0-.13.164ZM16.455 63.373a.533.533 0 0 0-.382.333.528.528 0 0 0 .222.641.549.549 0 0 0 .599-.02.535.535 0 0 0 .176-.656.533.533 0 0 0-.405-.306.556.556 0 0 0-.21.008ZM17.167 59.31a.545.545 0 0 0-.418.287.536.536 0 0 0 .008.503.546.546 0 0 0 .428.273.55.55 0 0 0 .467-.2.52.52 0 0 0 .114-.29.53.53 0 0 0-.39-.556.538.538 0 0 0-.21-.017ZM18.794 56.618a.54.54 0 0 0 .85-.516.521.521 0 0 0-.136-.279.529.529 0 0 0-.27-.157.561.561 0 0 0-.313.018.546.546 0 0 0-.303.278.525.525 0 0 0 .093.586c.024.026.05.049.08.07ZM21.503 53.245a.523.523 0 0 0 .13.388.541.541 0 0 0 .943-.415.535.535 0 0 0-.602-.464.544.544 0 0 0-.453.388.524.524 0 0 0-.018.103ZM25.3 51.107a.53.53 0 0 0 .304.835.561.561 0 0 0 .313-.016.534.534 0 1 0-.367-1.005.538.538 0 0 0-.25.186ZM29.817 61.419c-.108 0-.215.007-.322.021l-.12-.365v-7.714a.44.44 0 0 1 .201-.372.455.455 0 0 1 .694.285.44.44 0 0 1 .009.087v7.714l-.12.367a2.539 2.539 0 0 0-.342-.023ZM30.279 61.462v-.387l2.406-7.336a.441.441 0 0 1 .225-.257.448.448 0 0 1 .343-.026.453.453 0 0 1 .31.387.436.436 0 0 1-.019.173l-2.407 7.335-.231.315a2.446 2.446 0 0 0-.627-.204Z" fill="#F1B95C"/><path d="m30.158 61.442.12-.367v.387a2.675 2.675 0 0 0-.12-.02ZM31.015 61.724l.122-.37 4.578-6.24a.451.451 0 0 1 .555-.144.45.45 0 0 1 .25.511.445.445 0 0 1-.074.159l-4.579 6.24-.323.233a2.5 2.5 0 0 0-.529-.389Z" fill="#F1B95C"/><path d="m30.906 61.668.231-.315-.122.371-.109-.056ZM31.63 62.202l.237-.322 6.301-4.533a.445.445 0 0 1 .244-.074.455.455 0 0 1 .443.338.43.43 0 0 1-.01.253.439.439 0 0 1-.147.206l-6.301 4.534-.388.125a2.417 2.417 0 0 0-.378-.527Z" fill="#F1B95C"/><path d="m31.543 62.113.324-.233-.236.322a2.622 2.622 0 0 0-.088-.09ZM32.065 62.843l.332-.238 7.407-2.384a.473.473 0 0 1 .263-.005.455.455 0 0 1 .306.293.444.444 0 0 1-.292.563l-7.408 2.383h-.417a2.401 2.401 0 0 0-.19-.612ZM32.009 62.73l.388-.126-.332.239a1.66 1.66 0 0 0-.056-.114ZM32.293 63.87a2.41 2.41 0 0 0-.017-.286l.398-.129h7.79a.466.466 0 0 1 .32.131.445.445 0 0 1-.233.755.458.458 0 0 1-.088.009h-7.79l-.404-.133c.016-.115.024-.23.024-.347Z" fill="#F1B95C"/><path d="M32.258 63.455h.415l-.398.129a1.392 1.392 0 0 0-.017-.129ZM19.182 63.447h7.79l.39.125a2.438 2.438 0 0 0 .006.642l-.396.127h-7.79a.464.464 0 0 1-.251-.075.463.463 0 0 1-.167-.201.429.429 0 0 1-.026-.259.43.43 0 0 1 .124-.229.45.45 0 0 1 .32-.13ZM27.38 63.446h-.408l-7.408-2.383a.453.453 0 0 1-.31-.39.45.45 0 0 1 .327-.465.458.458 0 0 1 .262.006l7.409 2.383.324.233a2.386 2.386 0 0 0-.196.616ZM27.363 63.572l-.39-.126h.409a.998.998 0 0 0-.02.126ZM27.63 62.719l-.38-.123-6.299-4.533a.443.443 0 0 1-.041-.69.45.45 0 0 1 .412-.107.446.446 0 0 1 .16.073l6.302 4.535.232.316a2.45 2.45 0 0 0-.386.529Z" fill="#F1B95C"/><path d="m27.576 62.83-.324-.234.378.123a6.835 6.835 0 0 0-.054.11ZM28.103 62.103l-.319-.23-4.578-6.24a.444.444 0 0 1 .266-.683.442.442 0 0 1 .257.011.454.454 0 0 1 .208.148l4.579 6.24.12.367a2.472 2.472 0 0 0-.533.387Z" fill="#F1B95C"/><path d="m28.016 62.19-.232-.316.319.229c-.03.028-.058.057-.087.087ZM28.746 61.66l-.229-.31-2.406-7.337a.46.46 0 0 1-.021-.27.444.444 0 0 1 .391-.342.455.455 0 0 1 .487.338l2.407 7.336v.385a2.47 2.47 0 0 0-.629.2ZM29.375 61.459v-.384l.12.367c-.04.004-.08.01-.12.017ZM28.636 61.716l-.12-.367.23.312a1.704 1.704 0 0 0-.11.055ZM28.641 63.898a1.158 1.158 0 0 0 .432.904 1.179 1.179 0 0 0 .98.243 1.23 1.23 0 0 0 .426-.174 1.179 1.179 0 0 0 .52-.858 1.128 1.128 0 0 0-.046-.455 1.22 1.22 0 0 0-.148-.31 1.189 1.189 0 0 0-.64-.47 1.263 1.263 0 0 0-.342-.05 1.214 1.214 0 0 0-.557.139 1.214 1.214 0 0 0-.356.289 1.117 1.117 0 0 0-.179.294 1.19 1.19 0 0 0-.09.448ZM9.29 31.314v-.006c.345 0 .689-.003 1.033.002a.309.309 0 0 0 .222-.084c.048-.043.04-.11-.014-.146a.434.434 0 0 0-.254-.06c-.647-.002-1.294-.007-1.942-.01-.04 0-.08 0-.12.003-.04.003-.061.03-.063.072a1.45 1.45 0 0 0 .001.155c.003.041.027.067.066.07.04.003.08.003.12.003h.952Zm-3.117.013v-.009c.31 0 .62.002.93 0 .08 0 .096-.02.099-.103v-.088c-.004-.1-.018-.12-.104-.122-.31-.006-.62-.006-.93-.024-.248-.015-.498.004-.747-.012-.168-.011-.317.043-.468.104-.025.01-.048.028-.05.062a.077.077 0 0 0 .038.072c.12.068.243.122.383.121.283-.002.566 0 .849 0ZM4.166 14.591c.174.14.346.183.532.171.06-.004.12-.016.182-.018.472-.014.945-.01 1.417-.04.478-.032.958-.015 1.438-.046.465-.03.931-.016 1.397-.043.445-.026.891-.01 1.337-.016.198-.003.388-.052.562-.16a.05.05 0 0 0-.003-.086 1.535 1.535 0 0 0-.872-.126c-.047.007-.094.015-.141.017-.365.01-.729.013-1.093.042-.35.027-.702.015-1.053.043-.363.029-.728.017-1.092.045-.357.028-.715.017-1.073.044-.336.025-.675.012-1.013.02-.176.005-.35.027-.525.153Zm2.72 23.307h.005l.001.754c0 .07.02.093.084.099.128.013.255.024.384.03.397.017.797-.01 1.193.04.02.002.04 0 .06-.004.03-.005.05-.023.054-.057a.667.667 0 0 0 .005-.066c.012-.502-.011-1.006.027-1.508.01-.117-.013-.136-.13-.135-.514.002-1.027.005-1.54.01-.135.001-.141.01-.142.149-.002.229 0 .459 0 .688Zm3.334-7.93c.041.007.068.017.093.015.2-.017.389.032.573.112.106.046.12.04.187-.057.151-.22.29-.446.421-.68.279-.5.519-1.023.749-1.55a30.28 30.28 0 0 0 1.048-2.767c.221-.683.43-1.37.559-2.084a10.487 10.487 0 0 0 .174-2.405 5.868 5.868 0 0 0-.097-.88 8.056 8.056 0 0 0-.444-1.541c-.183-.466-.425-.89-.761-1.247-.218-.232-.427-.474-.664-.685a1.932 1.932 0 0 0-.367-.275 1.599 1.599 0 0 1-.212-.13c-.13-.1-.285-.132-.426-.2a.138.138 0 0 0-.08-.011 10.6 10.6 0 0 0-.418.073c-.053.011-.066.052-.036.097.052.078.107.153.158.23.362.547.703 1.107.936 1.736.127.343.242.69.315 1.053.054.268.094.536.124.808.031.272.07.542.07.816 0 .467-.003.933-.006 1.4 0 .06-.002.119-.009.177-.035.3-.069.602-.109.901-.06.454-.13.905-.231 1.35l-.339 1.508c-.29 1.302-.629 2.587-1.078 3.835-.047.13-.085.262-.13.401ZM4.405 15.827c-.13-.087-.25-.097-.36.042-.026.033-.065.054-.096.081-.342.302-.706.574-1.043.884a6.416 6.416 0 0 0-1.578 2.255 4.318 4.318 0 0 0-.364 1.825c.01.311.028.621.043.931 0 .022.004.045.007.067l.065.639c.036.353.09.702.185 1.044.117.425.255.842.396 1.258.292.862.631 1.7 1.041 2.503.298.583.642 1.132 1.027 1.65.193.258.415.488.614.74.08.1.17.19.255.286.026.029.058.04.09.011.12-.103.259-.115.403-.109.054.003.109 0 .163-.004.035-.002.06-.04.051-.078a.78.78 0 0 0-.031-.105c-.1-.267-.2-.535-.304-.799a34.478 34.478 0 0 1-.761-2.153 30.918 30.918 0 0 1-.642-2.268c-.2-.829-.397-1.66-.466-2.518-.03-.369-.065-.737-.068-1.107-.002-.28 0-.561.026-.843.02-.213.03-.428.063-.64a8.52 8.52 0 0 1 .509-1.865c.219-.543.463-1.07.733-1.585.023-.044.057-.084.042-.142Zm2.77 12.625c-.016-.577-.018-1.155-.032-1.732-.03-1.273-.009-2.547-.042-3.82-.032-1.207-.01-2.414-.04-3.621-.025-1.073-.016-2.148-.022-3.222 0-.073-.002-.148-.01-.221-.004-.048-.032-.08-.08-.084-.033-.002-.067-.003-.1-.002-.359.005-.717.015-1.076.014-.115 0-.182.045-.246.15a12.941 12.941 0 0 0-1.134 2.377A6.613 6.613 0 0 0 4 20.456c-.006.444-.002.888.042 1.33.02.191.032.383.059.573.069.49.174.972.285 1.452a34.128 34.128 0 0 0 1.158 3.902c.184.509.38 1.013.572 1.518.078.205.159.409.239.613.019.049.042.095.1.095l.649.002c.05 0 .068-.04.07-.09v-1.399Zm.81-12.131c-.007.274.02.547.024.821.02 1.288.007 2.577.04 3.866.032 1.177.014 2.355.038 3.532.03 1.488.015 2.978.05 4.466.005.266.002.533.005.8.002.128.015.142.127.145.223.005.446.007.668.021.268.017.233.031.333-.245.122-.337.232-.68.348-1.019.172-.506.33-1.017.468-1.537.272-1.03.491-2.076.732-3.115.107-.46.174-.927.242-1.394.052-.366.101-.732.095-1.104 0-.037.003-.074.007-.11.033-.318.027-.638.01-.955a13.459 13.459 0 0 0-.098-1.014 5.834 5.834 0 0 0-.59-1.9 10.27 10.27 0 0 0-.899-1.424c-.106-.145-.21-.29-.34-.41-.049-.044-.095-.075-.162-.075-.339-.003-.676.022-1.013.041-.062.004-.083.028-.084.099-.002.17 0 .34 0 .511ZM7.818-9c-.003.066-.01.132-.01.199.005 1.059-.004 2.119.019 3.178.033 1.525.009 3.052.041 4.577.031 1.459.009 2.918.04 4.377.032 1.503.01 3.007.041 4.51.031 1.46.02 2.918.037 4.377.004.311.014.622.023.932.003.102.015.116.107.117.068.002.137.006.203-.005.208-.034.418-.025.627-.033.365-.014.73-.032 1.094-.044.17-.006.338-.01.507-.006.422.01.815.124 1.16.4.133.107.238.24.313.402a.96.96 0 0 1 .04.731c-.014.042-.032.082-.049.122-.016.04-.007.072.026.096.028.02.057.039.087.055.191.099.36.233.523.379.32.286.615.603.896.933.388.454.665.987.88 1.56.218.584.38 1.186.481 1.807.034.204.046.411.066.617.033.363.036.725.023 1.088a12.42 12.42 0 0 1-.135 1.41c-.131.881-.379 1.726-.646 2.565-.24.755-.52 1.493-.811 2.226a25.913 25.913 0 0 1-.737 1.657 10.2 10.2 0 0 1-.865 1.502 2.59 2.59 0 0 1-.17.22.273.273 0 0 0-.074.196c.001.512-.262.836-.645 1.07a1.315 1.315 0 0 1-.503.163.483.483 0 0 1-.201 0c-.16-.049-.322-.034-.484-.034-.352 0-.704 0-1.055.005-.135.002-.27.014-.405.024-.06.005-.08.03-.083.1-.003.052-.002.104-.001.156.003.681-.002 1.363.014 2.045.01.384.018.769.023 1.154 0 .03.002.06.005.089.004.04.026.067.065.07.054.003.108.004.162.004.237-.001.473-.007.71-.002.229.003.392.135.465.357.021.065.022.13.022.197.001.289.004.578.003.867l-.01 1.755c-.001.081-.001.162-.019.243-.06.265-.224.414-.472.44-.195.02-.388.041-.584.013-.08-.011-.163-.006-.244-.004-.068.001-.09.025-.084.09.035.34.026.681.03 1.021.002.132.033.22.146.285.32.187.546.48.72.822.163.324.306.66.434 1.003.03.082.054.168.068.255.046.283-.126.573-.372.623-.146.029-.266-.019-.375-.116a.738.738 0 0 1-.184-.288c-.076-.19-.155-.378-.23-.568a3.827 3.827 0 0 0-.237-.49.979.979 0 0 0-.335-.35c-.042-.026-.076-.017-.109.02a.604.604 0 0 0-.122.228c-.037.118-.068.24-.094.363-.047.23-.087.463-.133.694a1.011 1.011 0 0 1-.108.31c-.112.195-.298.278-.51.226-.174-.042-.326-.237-.342-.447a1.166 1.166 0 0 1 .013-.31c.053-.275.102-.55.161-.823.033-.151.079-.3.13-.444.091-.261.24-.48.433-.661.055-.05.09-.105.086-.19-.017-.39.002-.784-.04-1.176-.011-.1-.022-.116-.112-.118-.23-.005-.46-.01-.69-.008a.487.487 0 0 1-.272-.068.48.48 0 0 1-.242-.409c-.009-.207-.02-.414-.021-.62-.005-.638-.007-1.275-.01-1.912 0-.089.002-.176.024-.264.043-.178.14-.3.295-.37.08-.036.163-.069.244-.106.077-.036.159-.031.24-.033.141-.005.284.009.425-.02.092-.019.104-.026.102-.127-.005-.34.015-.682-.018-1.022-.006-.059-.004-.118-.005-.177l-.013-2.045c0-.052 0-.104-.002-.155-.004-.073-.023-.096-.084-.1-.054-.003-.108-.001-.162-.001-.568.002-1.136.004-1.704.009a.758.758 0 0 1-.337-.064c-.074-.035-.155-.05-.231-.08a1.17 1.17 0 0 1-.567-.447 1.176 1.176 0 0 1-.201-.707c.002-.059.002-.119.01-.177.01-.074-.015-.127-.06-.178-.131-.15-.257-.305-.389-.454A11.09 11.09 0 0 1 2.05 28.22a18.553 18.553 0 0 1-1.244-2.863 21.136 21.136 0 0 1-.498-1.597 6.338 6.338 0 0 1-.159-.891c-.038-.353-.073-.706-.11-1.058l-.004-.067c-.011-.229-.028-.458-.033-.687-.013-.725.079-1.427.336-2.104a7.898 7.898 0 0 1 1.237-2.178c.305-.378.651-.71 1.018-1.016l.66-.552c.066-.056.063-.058.028-.147-.03-.075-.062-.148-.084-.226-.126-.447.112-.864.352-1.06.278-.227.593-.35.94-.368.189-.01.38.009.568-.01.25-.026.5-.025.75-.035l1.134-.046c.092-.004.105-.016.103-.118-.004-.2.01-.4-.016-.6-.008-.065-.005-.132-.005-.2-.007-1.207 0-2.414-.022-3.622-.03-1.614-.013-3.23-.044-4.843-.026-1.393-.01-2.785-.037-4.177-.033-1.585-.013-3.17-.044-4.755-.025-1.244-.018-2.488-.033-3.733-.001-.089.001-.177.002-.266h.974Z" fill="#F1B95C"/></svg>