<svg width="320" height="63" fill="none" xmlns="http://www.w3.org/2000/svg"><path d="M4.68 12.385a1.13 1.13 0 0 1 .31.572 1.099 1.099 0 0 1-.169.839 1.15 1.15 0 0 1-.311.308 1.148 1.148 0 0 1-.848.167 1.137 1.137 0 0 1-.718-.475 1.11 1.11 0 0 1 .312-1.55 1.118 1.118 0 0 1 .627-.189 1.13 1.13 0 0 1 .798.328ZM6.24 4.189a1.13 1.13 0 0 1 .12.42 1.106 1.106 0 0 1-.267.813 1.12 1.12 0 0 1-.552.35 1.14 1.14 0 0 1-1.193-.384 1.123 1.123 0 0 1-.239-.604 1.106 1.106 0 0 1 .267-.814 1.14 1.14 0 0 1 .77-.388 1.117 1.117 0 0 1 .64.139 1.112 1.112 0 0 1 .454.468ZM5.753 20.656a1.143 1.143 0 0 1 .473.45 1.116 1.116 0 0 1 .101.85 1.084 1.084 0 0 1-.2.388 1.102 1.102 0 0 1-.334.283 1.126 1.126 0 0 1-.64.14 1.125 1.125 0 0 1-.77-.39 1.101 1.101 0 0 1-.267-.813 1.112 1.112 0 0 1 .776-.975 1.13 1.13 0 0 1 .861.067ZM8.516 28.395a1.107 1.107 0 0 1 .4-.182 1.15 1.15 0 0 1 .853.133 1.154 1.154 0 0 1 .323.296 1.125 1.125 0 0 1 .215.613 1.131 1.131 0 0 1-.069.431 1.121 1.121 0 0 1-1.014.73 1.136 1.136 0 0 1-1.07-.648 1.148 1.148 0 0 1-.102-.424 1.104 1.104 0 0 1 .298-.803c.05-.054.106-.102.166-.146ZM16.425 35.192a1.085 1.085 0 0 1-.017.436 1.123 1.123 0 0 1-1.36.826 1.166 1.166 0 0 1-.4-.182 1.086 1.086 0 0 1-.3-.32 1.115 1.115 0 0 1 .05-1.241 1.107 1.107 0 0 1 .522-.392 1.128 1.128 0 0 1 .654-.038 1.163 1.163 0 0 1 .4.182 1.106 1.106 0 0 1 .451.73ZM24.041 38.755a1.112 1.112 0 0 1-.699 1.583 1.129 1.129 0 0 1-.857-.1 1.14 1.14 0 0 1-.455-.468 1.125 1.125 0 0 1-.115-.64 1.098 1.098 0 0 1 .263-.594 1.107 1.107 0 0 1 .552-.35 1.15 1.15 0 0 1 .655.014 1.143 1.143 0 0 1 .537.37c.046.058.086.12.12.185ZM31.857 39.512a1.141 1.141 0 0 1 .7.5 1.111 1.111 0 0 1-.778 1.691 1.134 1.134 0 0 1-1.238-.712 1.104 1.104 0 0 1 .287-1.209 1.128 1.128 0 0 1 .81-.299c.074.003.147.013.22.03ZM40.672 38.26a1.115 1.115 0 0 1-.38 2.106 1.137 1.137 0 0 1-1.117-.564 1.115 1.115 0 0 1-.101-.85 1.12 1.12 0 0 1 .953-.806 1.169 1.169 0 0 1 .44.035c.07.02.14.046.205.08ZM48.058 34.253a1.13 1.13 0 0 1 .921.843 1.12 1.12 0 0 1-.135.845 1.128 1.128 0 0 1-1.353.464 1.146 1.146 0 0 1-.523-.391 1.106 1.106 0 0 1-.201-.832 1.113 1.113 0 0 1 .642-.84 1.116 1.116 0 0 1 .428-.102c.074-.003.148.001.221.013ZM54.473 28.261a1.15 1.15 0 0 1 .358.255 1.13 1.13 0 0 1 .29.582 1.083 1.083 0 0 1-.015.436 1.097 1.097 0 0 1-.328.561 1.127 1.127 0 0 1-1.028.273 1.147 1.147 0 0 1-.567-.325 1.103 1.103 0 0 1-.29-.582 1.127 1.127 0 0 1 .086-.643 1.112 1.112 0 0 1 .63-.585 1.12 1.12 0 0 1 .655-.042c.072.017.142.04.21.07ZM57.594 22.698a1.13 1.13 0 0 1-.737-.76 1.088 1.088 0 0 1 .013-.648 1.103 1.103 0 0 1 .375-.532 1.098 1.098 0 0 1 .392-.198 1.152 1.152 0 0 1 .858.1 1.141 1.141 0 0 1 .454.468 1.14 1.14 0 0 1 .12.42 1.115 1.115 0 0 1-.82 1.163 1.124 1.124 0 0 1-.655-.013ZM59.553 12.066a1.123 1.123 0 0 1 .84 1.345 1.127 1.127 0 0 1-1.76.65 1.116 1.116 0 0 1-.438-1.164 1.093 1.093 0 0 1 .33-.56 1.117 1.117 0 0 1 .588-.286 1.157 1.157 0 0 1 .44.015ZM58.063 3.567a1.136 1.136 0 0 1 .875.6 1.108 1.108 0 0 1-.304 1.386 1.14 1.14 0 0 1-1.25.1 1.125 1.125 0 0 1-.575-.886 1.097 1.097 0 0 1 .264-.814 1.136 1.136 0 0 1 .99-.386ZM31.6 7.98c.226 0 .45.014.675.043l.25-.763V-8.877a.93.93 0 0 0-.761-.917.932.932 0 0 0-.546.053.922.922 0 0 0-.307.203.928.928 0 0 0-.276.661V7.26l.252.768c.236-.032.474-.048.713-.049ZM30.635 8.069V7.26L25.6-8.086a.937.937 0 0 0-.824-.636.947.947 0 0 0-1.013.853.923.923 0 0 0 .04.361l5.035 15.346.484.659a5.113 5.113 0 0 1 1.313-.428ZM30.887 8.028l-.252-.768v.809c.084-.016.167-.029.252-.04ZM29.094 8.618l-.255-.777-9.576-13.053a.938.938 0 0 0-.617-.374.959.959 0 0 0-.842.29.946.946 0 0 0-.24.489.929.929 0 0 0 .17.697l9.578 13.054.677.487c.332-.32.7-.59 1.105-.813Z" fill="#F1B95C"/><path d="m29.323 8.5-.484-.659.255.777c.079-.04.15-.08.229-.117ZM27.806 9.617l-.494-.673L14.131-.54a.936.936 0 0 0-.51-.155.946.946 0 0 0-.954.884.924.924 0 0 0 .356.784l13.181 9.485.811.261c.214-.403.478-.77.791-1.103Z" fill="#F1B95C"/><path d="m27.989 9.43-.677-.487.494.674c.06-.064.12-.125.183-.186ZM26.897 10.958l-.693-.499-15.497-4.985a.983.983 0 0 0-.366-.043.942.942 0 0 0-.866 1.007.916.916 0 0 0 .202.506.938.938 0 0 0 .452.309l15.496 4.986h.872c.076-.445.21-.872.4-1.281ZM27.015 10.72l-.81-.261.692.498c.035-.08.076-.16.118-.237ZM26.42 13.107c0-.2.012-.4.036-.6l-.833-.268H9.329a.986.986 0 0 0-.362.07.96.96 0 0 0-.424.345.924.924 0 0 0 0 1.04.929.929 0 0 0 .424.345.937.937 0 0 0 .362.071h16.296l.847-.277a5.229 5.229 0 0 1-.052-.726Z" fill="#F1B95C"/><path d="M26.495 12.24h-.87l.834.267c.007-.09.02-.18.036-.268ZM26.519 14.11h-.894l-15.497 4.983a.944.944 0 0 0-.617.636.92.92 0 0 0 .085.711.947.947 0 0 0 1.116.432l15.497-4.986.733-.528a5.075 5.075 0 0 1-.423-1.248Z" fill="#F1B95C"/><path d="m26.472 13.838-.847.277h.894a7.425 7.425 0 0 1-.047-.277ZM27.078 15.61l-.866.278-13.181 9.484a.936.936 0 0 0-.303 1.15.942.942 0 0 0 1.08.517.962.962 0 0 0 .335-.153L27.326 17.4l.542-.74a5.15 5.15 0 0 1-.79-1.05Z" fill="#F1B95C"/><path d="m26.945 15.36-.733.529.866-.277a6.738 6.738 0 0 1-.133-.251ZM28.073 16.863l-.747.538-9.577 13.052a.942.942 0 0 0-.187.515.922.922 0 0 0 .388.802.956.956 0 0 0 .89.118.928.928 0 0 0 .437-.335L28.855 18.5l.288-.875a5.203 5.203 0 0 1-1.07-.761ZM27.866 16.662l-.543.74.747-.538a13.75 13.75 0 0 1-.204-.202Z" fill="#F1B95C"/><path d="m29.402 17.752-.547.747-5.034 15.345a.934.934 0 0 0 .787 1.219.956.956 0 0 0 .83-.322.917.917 0 0 0 .18-.318l5.035-15.346v-.924a5.134 5.134 0 0 1-1.25-.4Z" fill="#F1B95C"/><path d="m29.143 17.624-.288.875.547-.747a5.288 5.288 0 0 1-.259-.128ZM31.6 18.236c-.219 0-.437-.015-.653-.043l-.29.88v16.135a.928.928 0 0 0 .42.777.942.942 0 0 0 .885.087.93.93 0 0 0 .423-.345.923.923 0 0 0 .16-.52V19.072l-.291-.878a5.308 5.308 0 0 1-.654.043ZM30.653 18.149v.924l.29-.88a3.657 3.657 0 0 1-.29-.044Z" fill="#F1B95C"/><path d="M32.543 18.149v.924l5.035 15.346a.904.904 0 0 0 .18.318.944.944 0 0 0 .829.321.954.954 0 0 0 .73-.504.933.933 0 0 0 .058-.714l-5.036-15.345-.542-.74a5.14 5.14 0 0 1-1.254.394ZM32.253 18.193l.288.878v-.925a2.615 2.615 0 0 1-.288.047Z" fill="#F1B95C"/><path d="m34.054 17.623.28.867 9.582 13.052a.911.911 0 0 0 .27.248.947.947 0 0 0 1.05-.04.92.92 0 0 0 .33-.433.96.96 0 0 0 .058-.361.92.92 0 0 0-.18-.513l-9.578-13.056-.736-.53a5.17 5.17 0 0 1-1.076.766Z" fill="#F1B95C"/><path d="m33.797 17.75.542.74-.28-.867a6.19 6.19 0 0 1-.262.127ZM35.334 16.66l.534.727 13.179 9.484a.964.964 0 0 0 .703.166.952.952 0 0 0 .71-.532.94.94 0 0 0 .075-.537.926.926 0 0 0-.377-.611l-13.184-9.485-.85-.277c-.217.388-.48.744-.79 1.065ZM35.13 16.858l.736.53-.532-.728a8.056 8.056 0 0 1-.204.198ZM36.255 15.354l.72.518 15.496 4.986a.953.953 0 0 0 1.117-.432.921.921 0 0 0 .017-.882.947.947 0 0 0-.55-.466L37.56 14.092h-.874c-.088.44-.231.86-.43 1.262Z" fill="#F1B95C"/><path d="m36.125 15.6.85.277-.72-.518c-.042.079-.08.16-.13.24ZM53.848 12.22H37.552l-.818.263a5.068 5.068 0 0 1-.01 1.342l.828.267h16.296a.973.973 0 0 0 .362-.071.937.937 0 0 0 .425-1.385.967.967 0 0 0-.261-.258.957.957 0 0 0-.526-.158Z" fill="#F1B95C"/><path d="M36.681 14.092h.874l-.83-.269c-.012.092-.027.181-.044.269ZM36.698 12.22h.854l15.497-4.985a.964.964 0 0 0 .448-.31.928.928 0 0 0-.313-1.412.957.957 0 0 0-.72-.056l-15.497 4.987-.679.488c.195.411.332.84.41 1.288ZM36.735 12.483l.815-.263h-.855c.019.087.032.175.04.263ZM36.175 10.698l.795-.256L50.147.96a.925.925 0 0 0 .378-.61.928.928 0 0 0-.44-.944.929.929 0 0 0-.345-.127.934.934 0 0 0-.543.074.946.946 0 0 0-.16.093L35.853 8.931l-.486.661c.32.333.588.702.808 1.106Z" fill="#F1B95C"/><path d="m36.287 10.93.679-.488-.792.256c.037.075.076.153.113.232ZM35.186 9.41l.667-.48L45.43-4.122a.924.924 0 0 0 .099-.859.917.917 0 0 0-.192-.303.934.934 0 0 0-.643-.295.965.965 0 0 0-.522.125.97.97 0 0 0-.271.235L34.322 7.833l-.252.768c.409.22.78.49 1.116.81Z" fill="#F1B95C"/><path d="m35.367 9.592.486-.661-.667.48c.062.058.122.119.181.181ZM33.84 8.485l.479-.652 5.034-15.345a.964.964 0 0 0 .07-.376.916.916 0 0 0-.189-.536.926.926 0 0 0-.466-.33.954.954 0 0 0-1.042.324.941.941 0 0 0-.166.344L32.524 7.26v.805a5.17 5.17 0 0 1 1.317.42ZM32.524 8.062V7.26l-.251.766c.084.009.167.022.251.036Z" fill="#F1B95C"/><path d="m34.07 8.6.252-.767-.482.652c.08.037.156.075.23.116ZM34.06 13.165a2.434 2.434 0 0 1-1.525 2.261 2.461 2.461 0 0 1-.946.186 2.51 2.51 0 0 1-1.165-.289 2.501 2.501 0 0 1-.745-.605 2.396 2.396 0 0 1-.373-.616 2.569 2.569 0 0 1-.14-.46 2.33 2.33 0 0 1-.048-.477 2.342 2.342 0 0 1 .047-.477 2.42 2.42 0 0 1 .677-1.253 2.454 2.454 0 0 1 1.03-.611 2.637 2.637 0 0 1 .475-.094 2.543 2.543 0 0 1 .959.094 2.491 2.491 0 0 1 1.193.789 2.342 2.342 0 0 1 .269.399 2.414 2.414 0 0 1 .292 1.153ZM277.397 53.053a.811.811 0 0 1 .224.732.805.805 0 0 1-.644.638.816.816 0 0 1-.614-.122.767.767 0 0 1-.226-.224.772.772 0 0 1-.123-.292.84.84 0 0 1 .047-.469.767.767 0 0 1 .076-.14.75.75 0 0 1 .226-.224.767.767 0 0 1 .295-.12.819.819 0 0 1 .739.221ZM297.108 32.917a.825.825 0 0 1 .579.505.75.75 0 0 1 .051.313.763.763 0 0 1-.073.308.8.8 0 0 1-.459.423.83.83 0 0 1-.765-.102.82.82 0 0 1-.289-.374.817.817 0 0 1-.03-.47.812.812 0 0 1 .239-.407.858.858 0 0 1 .272-.167.843.843 0 0 1 .475-.03ZM291.274 34.098a.81.81 0 0 1-.551 1.396.811.811 0 0 1-.458-.128.787.787 0 0 1-.231-.22.82.82 0 0 1-.134-.606.817.817 0 0 1 .116-.294.768.768 0 0 1 .222-.229.84.84 0 0 1 .452-.145.808.808 0 0 1 .458.128.834.834 0 0 1 .126.098ZM285.764 37.036a.82.82 0 0 1 .134.288c.013.052.02.104.023.158a.82.82 0 0 1-.217.583.883.883 0 0 1-.259.186.83.83 0 0 1-.899-.141.815.815 0 0 1-.263-.564.77.77 0 0 1 .05-.313.838.838 0 0 1 .168-.27.771.771 0 0 1 .258-.186.802.802 0 0 1 .311-.074.843.843 0 0 1 .46.119.806.806 0 0 1 .234.215ZM281.463 41.794a.845.845 0 0 1-.013.316.8.8 0 0 1-.513.572.806.806 0 0 1-.475.028.856.856 0 0 1-.29-.133.857.857 0 0 1-.217-.232.838.838 0 0 1-.11-.297.77.77 0 0 1 .012-.317.805.805 0 0 1 .369-.502.837.837 0 0 1 .46-.119.821.821 0 0 1 .777.684ZM278.529 47.105a.835.835 0 0 1 .084.464.823.823 0 0 1-.307.54.81.81 0 0 1-.603.17.806.806 0 0 1-.436-.19.785.785 0 0 1-.198-.248.795.795 0 0 1-.083-.463.753.753 0 0 1 .098-.301.853.853 0 0 1 .208-.241.829.829 0 0 1 .76-.135.832.832 0 0 1 .477.404ZM278.176 59.057a.81.81 0 0 1 .407.472.825.825 0 0 1 .038.314.789.789 0 0 1-.285.553.819.819 0 0 1-.754.164.802.802 0 0 1-.401-.254.851.851 0 0 1-.156-.276.756.756 0 0 1-.037-.314.76.76 0 0 1 .086-.305.863.863 0 0 1 .198-.248.825.825 0 0 1 .904-.106ZM315.802 60.54a.832.832 0 0 1-.39-.27.812.812 0 0 1-.173-.44.824.824 0 0 1 .102-.46.836.836 0 0 1 .207-.24.805.805 0 0 1 .285-.143.82.82 0 0 1 .623.073.817.817 0 0 1 .413.803.825.825 0 0 1-.307.542.79.79 0 0 1-.285.143.8.8 0 0 1-.318.025.82.82 0 0 1-.157-.034ZM317.224 52.822a.8.8 0 0 1 .411.237.784.784 0 0 1 .21.423.842.842 0 0 1-.012.316.812.812 0 0 1-.826.624.806.806 0 0 1-.45-.152.784.784 0 0 1-.33-.528.764.764 0 0 1 .064-.467.825.825 0 0 1 .187-.257.779.779 0 0 1 .271-.166.853.853 0 0 1 .316-.051.806.806 0 0 1 .159.021ZM316.143 46.653a.846.846 0 0 1 .304.097.824.824 0 0 1 .389.487.758.758 0 0 1 .026.315.757.757 0 0 1-.098.302.858.858 0 0 1-.207.24.812.812 0 0 1-.603.17.821.821 0 0 1-.694-.583.833.833 0 0 1 .009-.47.785.785 0 0 1 .406-.473.837.837 0 0 1 .468-.085ZM313.671 42.566a.803.803 0 0 1-.449.154.807.807 0 0 1-.46-.118.783.783 0 0 1-.235-.215.805.805 0 0 1 .471-1.266.851.851 0 0 1 .475.028.819.819 0 0 1 .513.572.76.76 0 0 1 .013.316.822.822 0 0 1-.328.529ZM309.559 37.445a.767.767 0 0 1-.039.314.853.853 0 0 1-.158.276.835.835 0 0 1-.252.194.82.82 0 0 1-.625.046.829.829 0 0 1-.475-.406.797.797 0 0 1-.085-.305.846.846 0 0 1 .04-.315.776.776 0 0 1 .157-.275.793.793 0 0 1 .561-.279.808.808 0 0 1 .317.04.835.835 0 0 1 .278.155.798.798 0 0 1 .196.25.79.79 0 0 1 .085.305ZM303.796 34.199a.797.797 0 0 1 .15.602.811.811 0 0 1-.933.681.79.79 0 0 1-.3-.107.845.845 0 0 1-.236-.214.809.809 0 0 1-.159-.444.768.768 0 0 1 .048-.313.775.775 0 0 1 .165-.27.83.83 0 0 1 .409-.241.816.816 0 0 1 .619.092.845.845 0 0 1 .237.214ZM296.935 49.856c.164 0 .328.01.49.032l.181-.554V37.621a.654.654 0 0 0-.115-.377.67.67 0 0 0-.19-.187.64.64 0 0 0-.247-.101.67.67 0 0 0-.396.038.674.674 0 0 0-.308.25.657.657 0 0 0-.102.245.654.654 0 0 0-.013.133v11.712l.183.557a3.85 3.85 0 0 1 .517-.035Z" fill="#F1B95C"/><path d="M296.235 49.921v-.587l-3.654-11.138a.675.675 0 0 0-.342-.39.676.676 0 0 0-.39-.069.678.678 0 0 0-.455.252.71.71 0 0 0-.122.234.64.64 0 0 0 .005.392l3.654 11.138.351.479c.304-.147.621-.25.953-.311ZM296.418 49.892l-.183-.558v.587l.183-.03ZM295.116 50.32l-.185-.564-6.95-9.474a.662.662 0 0 0-.197-.18.695.695 0 0 0-.761.03.682.682 0 0 0-.283.576.656.656 0 0 0 .063.258c.019.04.041.079.068.115l6.952 9.475.492.353c.241-.231.508-.428.801-.59ZM295.282 50.234l-.351-.478.185.563c.058-.03.11-.058.166-.085Z" fill="#F1B95C"/><path d="m294.182 51.044-.358-.488-9.568-6.883a.678.678 0 0 0-.37-.113.689.689 0 0 0-.692.642.7.7 0 0 0 .035.256.645.645 0 0 0 .129.224.73.73 0 0 0 .094.09l9.567 6.883.589.19c.155-.292.347-.56.574-.8Z" fill="#F1B95C"/><path d="m294.314 50.91-.491-.354.359.488c.043-.046.087-.09.132-.135ZM293.522 52.018l-.503-.362-11.248-3.618a.694.694 0 0 0-.636.112.638.638 0 0 0-.174.202.65.65 0 0 0-.06.517.688.688 0 0 0 .216.33.641.641 0 0 0 .234.13l11.248 3.619h.633a3.66 3.66 0 0 1 .29-.93ZM293.608 51.845l-.589-.19.503.362a2.93 2.93 0 0 1 .086-.172ZM293.176 53.578c0-.146.008-.291.026-.436l-.605-.194h-11.826a.715.715 0 0 0-.263.051.688.688 0 0 0-.424.628.657.657 0 0 0 .053.26.662.662 0 0 0 .253.305.688.688 0 0 0 .381.114h11.828l.614-.202a3.713 3.713 0 0 1-.037-.526Z" fill="#F1B95C"/><path d="M293.23 52.948h-.631l.605.194a2.13 2.13 0 0 1 .026-.194ZM293.248 54.306h-.649l-11.248 3.616a.737.737 0 0 0-.233.13.693.693 0 0 0-.215.332.65.65 0 0 0-.021.264.725.725 0 0 0 .083.252.693.693 0 0 0 .544.345.7.7 0 0 0 .266-.031l11.248-3.62.532-.382a3.678 3.678 0 0 1-.307-.906Z" fill="#F1B95C"/><path d="m293.214 54.108-.615.201h.649a5.032 5.032 0 0 1-.034-.201ZM293.653 55.395l-.628.2-9.567 6.885a.676.676 0 0 0 .296 1.22.707.707 0 0 0 .395-.054.71.71 0 0 0 .116-.068l9.568-6.884.393-.536a3.762 3.762 0 0 1-.573-.763Z" fill="#F1B95C"/><path d="m293.557 55.214-.532.383.628-.202a5.931 5.931 0 0 1-.096-.181ZM294.376 56.304l-.542.39-6.951 9.474a.66.66 0 0 0-.096.638.681.681 0 0 0 .621.447.688.688 0 0 0 .584-.287l6.951-9.475.209-.635a3.778 3.778 0 0 1-.776-.552ZM294.225 56.158l-.393.537.542-.39-.149-.147Z" fill="#F1B95C"/><path d="m295.34 56.95-.397.54-3.654 11.139a.659.659 0 0 0-.008.394.715.715 0 0 0 .215.332.67.67 0 0 0 .365.158.688.688 0 0 0 .732-.464l3.655-11.138v-.671a3.723 3.723 0 0 1-.908-.29Z" fill="#F1B95C"/><path d="m295.152 56.856-.209.635.397-.542a4.314 4.314 0 0 1-.188-.093ZM296.935 57.3a3.85 3.85 0 0 1-.474-.03l-.21.638v11.71a.731.731 0 0 0 .052.26.665.665 0 0 0 .252.305.705.705 0 0 0 .38.114.67.67 0 0 0 .263-.051.64.64 0 0 0 .222-.147.67.67 0 0 0 .201-.48V57.905l-.211-.637c-.158.02-.316.03-.475.031ZM296.248 57.237v.671l.21-.639a2.742 2.742 0 0 1-.21-.032Z" fill="#F1B95C"/><path d="M297.62 57.237v.671l3.654 11.138a.675.675 0 0 0 .466.443.681.681 0 0 0 .521-.061.681.681 0 0 0 .317-.802l-3.654-11.138-.394-.537a3.73 3.73 0 0 1-.91.286ZM297.41 57.27l.209.636v-.67a1.882 1.882 0 0 1-.209.033Z" fill="#F1B95C"/><path d="m298.717 56.855.203.63 6.955 9.473a.645.645 0 0 0 .196.18.68.68 0 0 0 .518.081.683.683 0 0 0 .518-.553c.007-.044.009-.089.007-.133a.624.624 0 0 0-.13-.372l-6.952-9.477-.535-.384a3.754 3.754 0 0 1-.78.556Z" fill="#F1B95C"/><path d="m298.53 56.948.394.537-.204-.63a4.258 4.258 0 0 1-.19.093ZM299.646 56.156l.387.528 9.566 6.884a.68.68 0 0 0 .51.12.699.699 0 0 0 .447-.271.727.727 0 0 0 .112-.24.73.73 0 0 0 .011-.265.716.716 0 0 0-.093-.249.673.673 0 0 0-.181-.195l-9.569-6.883-.616-.202c-.158.282-.349.54-.574.773ZM299.497 56.3l.535.384-.386-.528c-.05.05-.099.098-.149.144Z" fill="#F1B95C"/><path d="m300.314 55.209.522.376 11.248 3.618a.705.705 0 0 0 .523-.04.708.708 0 0 0 .211-.164.688.688 0 0 0 .138-.626.648.648 0 0 0-.214-.332.678.678 0 0 0-.234-.13l-11.248-3.619h-.634a3.713 3.713 0 0 1-.312.917ZM300.22 55.387l.616.2-.522-.375c-.03.057-.058.116-.094.175ZM313.083 52.934h-11.827l-.594.19a3.61 3.61 0 0 1-.008.975l.602.193h11.827a.7.7 0 0 0 .486-.198.664.664 0 0 0 .149-.22.7.7 0 0 0 .052-.26.656.656 0 0 0-.116-.378.674.674 0 0 0-.437-.289.684.684 0 0 0-.134-.013Z" fill="#F1B95C"/><path d="M300.624 54.292h.634l-.602-.194c-.009.066-.02.13-.032.194ZM300.636 52.934h.62l11.248-3.618a.71.71 0 0 0 .325-.226.635.635 0 0 0 .121-.235.722.722 0 0 0 .024-.13.737.737 0 0 0-.031-.263.684.684 0 0 0-.864-.436l-11.248 3.619-.493.354c.142.298.241.61.298.935ZM300.662 53.125l.592-.19h-.62c.013.062.023.126.028.19ZM300.256 51.83l.577-.186 9.564-6.883a.667.667 0 0 0 .24-.315.64.64 0 0 0 .042-.261.648.648 0 0 0-.13-.373.656.656 0 0 0-.196-.18.708.708 0 0 0-.386-.1.688.688 0 0 0-.376.13l-9.569 6.885-.352.48c.231.241.426.509.586.802Z" fill="#F1B95C"/><path d="m300.338 51.998.492-.355-.574.186.082.169ZM299.538 50.895l.484-.349 6.951-9.474a.631.631 0 0 0 .102-.238.626.626 0 0 0 .005-.26.711.711 0 0 0-.174-.345.664.664 0 0 0-.213-.152.67.67 0 0 0-.385-.057.702.702 0 0 0-.445.256l-6.952 9.474-.183.557c.297.16.567.356.81.588ZM299.67 51.027l.352-.48-.484.348c.045.042.089.086.132.132ZM298.562 50.223l.347-.473 3.654-11.138a.694.694 0 0 0 .032-.41.682.682 0 0 0-.873-.493.687.687 0 0 0-.461.487l-3.655 11.138v.584c.333.06.651.16.956.305ZM297.606 49.916v-.582l-.182.556c.061.006.121.016.182.026Z" fill="#F1B95C"/><path d="m298.728 50.307.183-.557-.349.473c.058.027.113.054.166.084ZM298.721 53.62a1.689 1.689 0 0 1-.034.347 1.965 1.965 0 0 1-.103.333 2.085 2.085 0 0 1-.165.307 1.95 1.95 0 0 1-.223.269 2.035 2.035 0 0 1-.272.22 1.79 1.79 0 0 1-.997.3 1.798 1.798 0 0 1-1.759-1.43 1.674 1.674 0 0 1-.034-.346 1.687 1.687 0 0 1 .034-.346 1.984 1.984 0 0 1 .102-.334 1.81 1.81 0 0 1 .812-.886 1.912 1.912 0 0 1 .325-.134 1.936 1.936 0 0 1 .345-.068 1.798 1.798 0 0 1 1.313.395 1.872 1.872 0 0 1 .354.386 2.085 2.085 0 0 1 .165.307 1.647 1.647 0 0 1 .128.506c.006.058.009.116.009.174ZM107.626 28.766v-.008c.505 0 1.009-.003 1.514.002a.472.472 0 0 0 .326-.114c.07-.058.059-.149-.021-.198-.115-.072-.241-.08-.371-.08l-2.849-.016c-.06 0-.119 0-.178.005-.057.005-.088.042-.091.098-.003.07-.003.14.002.21.005.056.04.091.096.096.059.004.119.004.178.004h1.394Zm-4.572.018v-.012c.454 0 .909.002 1.363 0 .119-.002.141-.028.146-.14.002-.04.002-.08 0-.12-.006-.136-.026-.163-.153-.166-.455-.007-.909-.008-1.362-.033-.365-.02-.732.006-1.097-.016-.247-.015-.466.059-.687.142-.037.014-.07.037-.074.083a.102.102 0 0 0 .057.1c.176.091.357.165.561.163.416-.003.83 0 1.246 0Zm-2.945-22.736c.256.19.509.249.782.233.089-.005.177-.022.266-.025.693-.02 1.386-.014 2.078-.055.702-.043 1.406-.02 2.109-.062.682-.04 1.366-.021 2.05-.058.652-.036 1.307-.013 1.961-.022.29-.004.568-.07.824-.216.049-.028.045-.093-.005-.118a1.17 1.17 0 0 0-.11-.046 2.415 2.415 0 0 0-1.169-.125c-.069.009-.137.02-.207.022-.534.015-1.068.019-1.603.057-.513.038-1.029.02-1.543.06-.533.039-1.068.022-1.603.06-.523.038-1.048.023-1.573.06-.493.034-.991.016-1.486.028-.258.006-.513.037-.771.207ZM104.1 37.71h.007c0 .342-.001.683.001 1.025.001.096.029.126.124.134.187.017.374.033.562.04.583.025 1.169-.012 1.751.055.029.003.059 0 .088-.005.044-.006.072-.032.078-.077a.89.89 0 0 0 .008-.09c.018-.682-.017-1.366.04-2.048.013-.16-.02-.185-.193-.184-.752.002-1.505.007-2.258.014-.196 0-.206.012-.208.202-.002.31 0 .623 0 .934Zm4.89-10.772c.06.01.099.023.136.02.294-.024.57.044.84.152.155.062.176.055.275-.078.221-.297.425-.605.617-.923.409-.68.761-1.39 1.098-2.106a39.066 39.066 0 0 0 1.537-3.758c.325-.928.631-1.863.82-2.832a13.195 13.195 0 0 0 .256-3.267 7.389 7.389 0 0 0-.143-1.195c-.14-.723-.363-1.42-.651-2.094-.269-.633-.623-1.21-1.117-1.694-.319-.315-.626-.644-.973-.93a2.803 2.803 0 0 0-.538-.375 2.463 2.463 0 0 1-.311-.176c-.19-.135-.418-.178-.625-.272a.219.219 0 0 0-.116-.014c-.206.03-.411.062-.615.1-.077.014-.096.069-.052.13.075.107.156.208.232.314.531.742 1.03 1.503 1.372 2.358.187.466.355.936.463 1.43.079.364.137.729.182 1.098.045.369.103.736.103 1.109-.001.633-.005 1.267-.01 1.901 0 .08-.002.162-.013.24-.051.41-.101.818-.16 1.225-.089.616-.191 1.23-.339 1.834-.166.683-.332 1.366-.496 2.048-.426 1.769-.923 3.515-1.582 5.21-.068.175-.124.355-.19.545Zm-8.529-19.21c-.19-.119-.368-.132-.529.056-.038.045-.094.073-.14.11-.502.411-1.036.78-1.53 1.2a8.748 8.748 0 0 0-2.314 3.064c-.36.79-.561 1.61-.534 2.48.014.422.041.844.062 1.265.002.03.007.06.01.09l.097.868c.053.48.132.954.27 1.418.173.578.375 1.145.581 1.71.428 1.171.926 2.31 1.528 3.4.437.793.94 1.538 1.506 2.241.283.352.608.663.9 1.005.117.137.248.26.374.39.038.039.085.053.132.015.175-.14.38-.156.592-.148.079.003.159 0 .238-.006a.084.084 0 0 0 .075-.105 1.006 1.006 0 0 0-.045-.143c-.148-.363-.292-.727-.447-1.086a44.255 44.255 0 0 1-1.115-2.924 39.44 39.44 0 0 1-.943-3.081c-.293-1.127-.581-2.255-.682-3.422-.043-.5-.096-1-.1-1.503-.002-.382.001-.763.039-1.145.028-.29.042-.583.09-.869a10.91 10.91 0 0 1 .748-2.535c.32-.737.68-1.454 1.075-2.153.034-.06.083-.114.062-.193Zm4.062 17.15c-.023-.784-.026-1.568-.046-2.353-.045-1.73-.013-3.46-.063-5.19-.046-1.638-.014-3.278-.057-4.918-.037-1.458-.024-2.918-.034-4.377 0-.1-.003-.2-.012-.3-.007-.066-.049-.11-.118-.115a1.865 1.865 0 0 0-.148-.003c-.526.008-1.052.021-1.577.02-.169 0-.268.061-.362.204a17.084 17.084 0 0 0-1.663 3.229 8.398 8.398 0 0 0-.577 2.94c-.008.604-.003 1.207.063 1.807.028.26.046.521.085.78.101.665.257 1.32.419 1.971a43.821 43.821 0 0 0 1.699 5.3c.269.693.557 1.377.838 2.064.114.278.233.555.35.832.028.067.063.129.147.13.317.001.634.002.952.001.073 0 .1-.053.102-.12.003-.08.002-.161.002-.242v-1.66Zm1.189-16.48c-.011.373.029.744.035 1.116.03 1.75.01 3.5.059 5.251.046 1.6.019 3.2.055 4.799.045 2.022.022 4.045.072 6.067.009.362.004.724.009 1.087.003.174.021.192.186.196.327.008.653.01.98.03.392.022.342.042.488-.333.179-.459.341-.923.51-1.385.252-.688.486-1.382.686-2.088.399-1.4.721-2.82 1.075-4.232.156-.624.255-1.26.354-1.894.077-.496.149-.994.14-1.5-.001-.05.003-.1.009-.15.049-.431.041-.865.015-1.296-.026-.46-.079-.919-.143-1.377a7.525 7.525 0 0 0-.866-2.582c-.376-.688-.833-1.321-1.318-1.934-.155-.197-.307-.394-.499-.557a.353.353 0 0 0-.238-.102c-.496-.004-.99.03-1.485.056-.091.005-.122.038-.123.134-.004.231-.001.463-.001.694ZM105.467-26c-.006.09-.015.18-.015.27.007 1.439-.007 2.879.027 4.317.049 2.073.014 4.146.061 6.218.046 1.982.012 3.965.059 5.946.047 2.043.013 4.086.06 6.128.045 1.982.029 3.964.054 5.946.006.422.021.844.033 1.266.004.139.023.157.158.16.099 0 .2.006.297-.008.306-.046.613-.034.92-.045.535-.02 1.07-.043 1.605-.06.248-.008.496-.014.743-.008.619.014 1.195.168 1.701.544.195.145.349.325.459.546.16.324.182.653.06.993-.021.056-.048.11-.072.166-.024.053-.011.098.037.129.041.027.084.054.128.075.28.134.527.318.766.515.471.388.902.82 1.315 1.267.569.617.975 1.342 1.29 2.12.32.793.559 1.612.707 2.455.048.277.067.558.095.839.05.492.053.984.035 1.476a15.818 15.818 0 0 1-.198 1.918c-.193 1.196-.556 2.343-.948 3.483a44.179 44.179 0 0 1-1.19 3.024 33.701 33.701 0 0 1-1.081 2.251c-.37.714-.778 1.403-1.267 2.04a3.65 3.65 0 0 1-.25.3.359.359 0 0 0-.109.266c.002.696-.384 1.136-.946 1.453a2.043 2.043 0 0 1-.737.222.764.764 0 0 1-.296 0c-.235-.067-.472-.046-.709-.047-.516 0-1.032.001-1.548.008-.197.002-.395.019-.593.032-.088.006-.117.04-.123.136-.003.07-.002.14-.001.212.005.925-.002 1.851.021 2.777.014.523.026 1.045.034 1.569.001.04.003.08.007.12.006.056.039.092.095.095.079.005.158.006.238.006.347-.001.694-.01 1.041-.004a.695.695 0 0 1 .682.486.76.76 0 0 1 .033.268c.001.392.005.784.003 1.177-.003.795-.009 1.59-.014 2.385-.001.11-.001.22-.028.33-.088.36-.328.563-.692.597-.285.027-.57.056-.857.018-.117-.015-.238-.008-.357-.006-.1.002-.133.035-.123.124.051.461.037.925.044 1.386.003.18.048.298.213.387.47.254.802.652 1.056 1.117.24.44.45.896.638 1.363.044.11.078.228.099.346.067.384-.185.779-.545.846a.644.644 0 0 1-.551-.157 1.004 1.004 0 0 1-.27-.392l-.338-.771a5.016 5.016 0 0 0-.346-.667c-.124-.2-.29-.356-.491-.473-.062-.036-.112-.024-.16.025a.8.8 0 0 0-.18.31c-.053.162-.1.327-.137.493-.07.314-.128.63-.196.943a1.305 1.305 0 0 1-.157.422.666.666 0 0 1-.748.307c-.256-.058-.479-.323-.503-.607-.011-.14-.01-.282.019-.421.078-.374.15-.749.237-1.12.049-.204.115-.406.19-.603.134-.354.351-.651.636-.897.079-.069.131-.142.126-.257-.026-.532.002-1.067-.06-1.598-.016-.136-.032-.158-.163-.161a35.132 35.132 0 0 0-1.011-.01.76.76 0 0 1-.4-.093.648.648 0 0 1-.355-.555c-.013-.281-.029-.563-.032-.844-.007-.866-.009-1.731-.012-2.597a1.36 1.36 0 0 1 .033-.358.706.706 0 0 1 .433-.502c.118-.05.24-.094.358-.145.113-.05.233-.042.352-.045.207-.006.416.012.623-.026.135-.026.153-.036.15-.174-.008-.462.021-.926-.027-1.387-.008-.08-.006-.161-.006-.242l-.02-2.777c-.001-.07.001-.141-.003-.212-.006-.098-.034-.129-.123-.134-.079-.005-.158-.003-.237-.003-.834.004-1.667.006-2.5.013a1.192 1.192 0 0 1-.494-.087c-.108-.047-.227-.067-.339-.108a1.698 1.698 0 0 1-.831-.608 1.513 1.513 0 0 1-.296-.96c.003-.08.003-.161.015-.24.016-.1-.022-.173-.088-.243-.192-.203-.376-.414-.57-.616a15.1 15.1 0 0 1-2.105-2.801c-.731-1.237-1.322-2.542-1.824-3.89a27.208 27.208 0 0 1-.73-2.169 8.045 8.045 0 0 1-.234-1.21c-.056-.48-.108-.96-.16-1.438-.004-.03-.005-.06-.007-.09-.017-.312-.042-.623-.048-.934-.02-.985.115-1.939.492-2.859a10.552 10.552 0 0 1 1.814-2.958c.447-.514.956-.964 1.493-1.38l.969-.75c.097-.077.092-.08.04-.2-.043-.102-.09-.202-.123-.307-.185-.608.165-1.174.517-1.44.408-.309.87-.476 1.378-.5.278-.013.557.012.833-.014.366-.035.733-.034 1.099-.047.555-.02 1.109-.04 1.664-.062.135-.006.154-.022.152-.161-.006-.271.014-.544-.024-.814-.012-.09-.007-.181-.008-.271-.009-1.641.001-3.282-.032-4.922-.043-2.193-.019-4.387-.064-6.58-.039-1.891-.013-3.783-.055-5.674-.047-2.153-.018-4.307-.064-6.46-.036-1.69-.027-3.38-.048-5.07-.002-.121.002-.241.003-.362h1.429ZM146.732 37.249v-.01c.657 0 1.313-.004 1.97.003a.624.624 0 0 0 .425-.146c.091-.075.076-.192-.028-.255-.149-.091-.314-.102-.483-.102l-3.708-.02c-.077 0-.154 0-.231.006-.074.006-.115.054-.118.126-.004.09-.005.18.002.27.006.071.052.116.125.122.077.005.154.005.231.005l1.815.001Zm-5.95.024v-.016c.591 0 1.183.002 1.774-.001.154-.001.183-.035.19-.178a1.985 1.985 0 0 0 0-.155c-.007-.173-.034-.21-.2-.212-.591-.01-1.182-.01-1.772-.043-.475-.025-.953.008-1.427-.02-.322-.02-.606.075-.894.181-.048.018-.091.049-.096.108a.131.131 0 0 0 .074.127c.229.117.464.212.73.21.541-.004 1.08-.001 1.621-.001ZM136.95 8.108c.333.245.662.32 1.017.3.116-.007.23-.03.346-.033.902-.025 1.804-.017 2.705-.07.914-.055 1.83-.025 2.745-.08.887-.052 1.777-.027 2.666-.074.849-.046 1.701-.017 2.552-.028.379-.005.74-.091 1.073-.278.063-.035.059-.119-.006-.15a1.736 1.736 0 0 0-.143-.06 3.19 3.19 0 0 0-1.522-.16c-.089.011-.179.026-.269.028-.695.02-1.39.024-2.086.074-.667.048-1.339.026-2.008.075-.693.05-1.391.03-2.086.079-.681.048-1.365.029-2.047.076-.642.044-1.289.02-1.933.036-.336.008-.668.047-1.004.265Zm5.193 40.614h.01c0 .44-.002.877.001 1.315.001.123.038.16.161.172.243.022.487.042.732.052.759.03 1.521-.017 2.278.07.038.004.077 0 .115-.007.056-.008.093-.04.101-.099a1.1 1.1 0 0 0 .01-.115c.024-.876-.021-1.753.053-2.627.017-.204-.026-.237-.251-.237-.979.004-1.959.01-2.939.018-.256.002-.268.016-.27.26-.004.399-.001.799-.001 1.198Zm6.364-13.818c.078.012.129.03.177.026.382-.03.741.057 1.093.195.202.08.229.07.358-.1.287-.38.553-.776.803-1.184.531-.871.99-1.782 1.429-2.701a50.24 50.24 0 0 0 2-4.82c.422-1.192.821-2.39 1.066-3.633.188-.95.321-1.906.342-2.875.01-.438.004-.877-.008-1.316a9.415 9.415 0 0 0-.187-1.532 13.106 13.106 0 0 0-.846-2.687c-.35-.812-.811-1.552-1.453-2.173-.417-.404-.815-.825-1.267-1.194-.221-.18-.442-.354-.7-.48a3.093 3.093 0 0 1-.404-.226c-.249-.172-.545-.228-.815-.349a.285.285 0 0 0-.151-.018c-.267.039-.534.08-.799.128-.101.019-.126.09-.068.169.098.136.203.266.302.402.69.952 1.341 1.927 1.785 3.024.243.597.462 1.2.602 1.834.103.467.179.935.237 1.409.059.473.134.944.134 1.422-.001.813-.007 1.626-.012 2.439a2.648 2.648 0 0 1-.017.309c-.067.524-.132 1.048-.208 1.57-.116.79-.25 1.577-.442 2.353-.215.875-.432 1.751-.646 2.627-.554 2.268-1.2 4.508-2.058 6.682-.089.225-.162.456-.247.7Zm-11.099-24.642c-.248-.151-.479-.168-.689.074-.049.057-.122.093-.182.142-.653.526-1.347.998-1.99 1.539a11.237 11.237 0 0 0-3.013 3.929c-.468 1.013-.73 2.064-.694 3.182.018.54.054 1.081.081 1.622.002.038.009.077.013.115.043.371.085.743.126 1.114.069.615.172 1.224.352 1.819.224.741.487 1.468.756 2.193a30.894 30.894 0 0 0 1.988 4.362 19.916 19.916 0 0 0 1.96 2.874c.368.451.791.85 1.171 1.289.152.175.323.334.486.5.05.05.111.068.172.02.229-.181.495-.201.771-.19.102.003.206-.001.309-.008a.109.109 0 0 0 .098-.136 1.294 1.294 0 0 0-.059-.183c-.192-.465-.38-.931-.581-1.392-.537-1.23-1.004-2.488-1.452-3.752-.46-1.3-.874-2.617-1.226-3.951-.381-1.446-.757-2.892-.888-4.39-.056-.642-.125-1.283-.13-1.928-.003-.49.002-.978.05-1.468.037-.372.056-.747.119-1.115.193-1.121.512-2.208.972-3.252.417-.945.885-1.864 1.399-2.76.044-.077.108-.148.081-.249Zm5.286 22c-.03-1.006-.034-2.012-.06-3.018-.059-2.218-.017-4.438-.082-6.657-.06-2.102-.018-4.206-.074-6.31-.049-1.87-.031-3.742-.044-5.613a4.147 4.147 0 0 0-.017-.386c-.008-.084-.063-.14-.153-.146a2.427 2.427 0 0 0-.193-.004c-.684.01-1.368.027-2.052.025-.219 0-.349.079-.47.261a21.683 21.683 0 0 0-2.164 4.142 10.627 10.627 0 0 0-.751 3.772c-.01.774-.004 1.548.081 2.319.037.332.06.667.111.998.132.854.334 1.693.546 2.53a55.539 55.539 0 0 0 2.21 6.8c.351.886.725 1.764 1.091 2.645.148.358.303.713.456 1.067.036.086.081.166.19.166.414.003.826.005 1.239.003.095 0 .131-.068.134-.154.003-.103.002-.207.002-.31v-2.13Zm1.547-21.139c-.015.478.038.954.046 1.431.038 2.245.013 4.49.077 6.736.059 2.051.024 4.104.071 6.156.059 2.593.029 5.188.094 7.781.012.465.005.93.012 1.395.003.223.027.247.241.252.426.01.851.013 1.276.037.51.03.444.055.635-.427.233-.587.443-1.183.664-1.775.328-.883.632-1.773.893-2.679.519-1.795.937-3.617 1.398-5.428.203-.8.332-1.616.46-2.43.101-.637.194-1.275.182-1.923a1.383 1.383 0 0 1 .013-.193c.064-.553.053-1.11.019-1.662-.034-.59-.102-1.18-.186-1.767a9.517 9.517 0 0 0-1.127-3.312c-.489-.883-1.084-1.695-1.715-2.481-.202-.252-.4-.506-.649-.714a.464.464 0 0 0-.31-.131c-.646-.005-1.289.038-1.933.072-.118.006-.158.049-.16.171-.004.298-.001.594-.001.891ZM143.922-33c-.007.115-.019.23-.019.346.008 1.846-.009 3.693.035 5.538.064 2.658.018 5.319.079 7.976.06 2.542.016 5.086.077 7.627.061 2.62.017 5.24.078 7.86.059 2.542.038 5.085.071 7.627.007.542.026 1.083.042 1.625.006.177.03.2.206.203.129.003.26.01.386-.009.398-.059.799-.044 1.198-.058.696-.025 1.392-.055 2.088-.077.323-.01.645-.017.967-.01.805.018 1.555.216 2.214.698.254.187.454.417.596.7.209.416.238.838.078 1.274-.027.072-.061.142-.093.213-.03.069-.014.125.048.166.054.034.11.068.168.096.364.172.684.407.996.66.613.498 1.174 1.051 1.712 1.626.74.792 1.268 1.72 1.678 2.72.417 1.016.727 2.066.919 3.148.064.356.088.716.125 1.076.064.631.069 1.263.045 1.894a19.912 19.912 0 0 1-.258 2.46c-.251 1.534-.723 3.005-1.233 4.467-.459 1.316-.994 2.602-1.549 3.88-.426.983-.908 1.94-1.406 2.887-.481.915-1.013 1.8-1.65 2.617a4.35 4.35 0 0 1-.325.383.457.457 0 0 0-.141.342c.002.893-.5 1.458-1.232 1.864-.296.164-.625.24-.959.285a1.005 1.005 0 0 1-.385 0c-.306-.085-.614-.06-.922-.06-.672 0-1.343.001-2.014.01-.258.003-.515.024-.773.041-.115.008-.152.051-.159.175-.005.09-.003.18-.002.271.007 1.188-.003 2.375.028 3.563.017.67.033 1.34.044 2.011.001.052.003.104.009.155.008.072.05.118.123.122.103.006.206.008.31.007.452-.001.903-.011 1.355-.004.437.007.747.235.888.623a.975.975 0 0 1 .042.344c.002.503.007 1.006.005 1.51-.005 1.02-.013 2.039-.02 3.059-.001.141-.001.282-.035.423-.115.461-.427.722-.901.766-.371.035-.741.072-1.115.024-.153-.02-.31-.011-.464-.008-.131.002-.174.044-.161.158.066.592.049 1.186.057 1.779.004.23.063.381.278.495.61.326 1.043.837 1.374 1.434.312.564.585 1.15.83 1.747.057.142.101.293.129.444.087.493-.241 1-.71 1.086-.28.05-.508-.033-.716-.202-.165-.132-.267-.311-.352-.503-.145-.33-.294-.658-.439-.99a6.404 6.404 0 0 0-.452-.854 1.784 1.784 0 0 0-.638-.607c-.081-.046-.146-.03-.208.033a1.028 1.028 0 0 0-.234.398c-.07.206-.13.418-.179.631-.09.403-.166.808-.255 1.21a1.653 1.653 0 0 1-.204.541c-.215.339-.569.483-.973.394-.334-.074-.623-.414-.655-.779a1.884 1.884 0 0 1 .025-.54c.101-.479.195-.96.309-1.435.063-.263.149-.522.246-.774.175-.455.458-.836.828-1.152.103-.088.171-.182.164-.33-.034-.681.002-1.367-.078-2.049-.021-.174-.041-.203-.212-.206-.438-.01-.877-.016-1.316-.013a.999.999 0 0 1-.52-.12c-.279-.156-.446-.387-.462-.712-.017-.36-.038-.721-.041-1.082-.01-1.11-.012-2.22-.017-3.33 0-.155.003-.307.044-.46a.906.906 0 0 1 .562-.645c.155-.062.313-.12.467-.185.147-.063.303-.054.457-.058.271-.008.542.016.811-.034.176-.033.199-.046.196-.222-.011-.594.027-1.188-.035-1.78-.011-.103-.008-.206-.009-.31l-.025-3.563c-.001-.09.001-.18-.005-.27-.007-.127-.043-.166-.159-.173-.103-.006-.206-.003-.309-.003-1.085.004-2.169.007-3.254.015a1.565 1.565 0 0 1-.641-.11c-.142-.06-.297-.087-.442-.14-.434-.156-.807-.4-1.081-.779a1.916 1.916 0 0 1-.385-1.231c.003-.103.004-.207.019-.31.021-.128-.028-.22-.114-.31-.25-.26-.49-.531-.742-.79a19.437 19.437 0 0 1-2.74-3.593c-.951-1.587-1.719-3.261-2.374-4.99-.346-.917-.682-1.838-.949-2.782a10.153 10.153 0 0 1-.304-1.553c-.074-.615-.14-1.23-.21-1.844a2.247 2.247 0 0 1-.008-.116c-.022-.4-.054-.798-.062-1.197-.027-1.264.149-2.487.639-3.668a13.542 13.542 0 0 1 2.361-3.794c.582-.66 1.244-1.236 1.943-1.77.42-.322.843-.64 1.261-.963.126-.097.12-.1.053-.256-.057-.13-.119-.258-.16-.393-.241-.78.214-1.506.672-1.847a3.19 3.19 0 0 1 1.794-.642c.361-.017.725.016 1.083-.018.477-.045.954-.043 1.431-.06.722-.026 1.443-.052 2.165-.08.176-.007.201-.028.197-.207-.007-.347.018-.697-.03-1.044-.016-.114-.01-.231-.011-.348-.012-2.104.001-4.209-.041-6.312-.056-2.814-.025-5.628-.084-8.44-.05-2.427-.017-4.854-.071-7.28-.062-2.76-.024-5.524-.084-8.284-.047-2.168-.035-4.337-.063-6.505-.001-.155.003-.309.005-.464h1.859ZM187.784 53.977c-2.859 1.65-3.329 10.638-3.206 14.926 0 2.594 2.975 2.336 2.999 1.355.019-.784 1.171-7.817 1.745-11.236.205-.387 1.289-1.496 3.983-2.836 2.695-1.341 5.975-1.606 7.279-1.571.247 1.87-4.599 3.997-5.396 4.564-.797.568-2.191 5.534-1.721 10.256.47 4.722 2.541 4.09 3.247 3.227.706-.864.145-5.883.9-8.708.754-2.825 4.508-4.294 8.377-6.447 3.095-1.722 5.571-5.05 6.422-6.5.706-.864 2.96-2.589 6.325-2.577 3.365.012 11.758-2.072 15.534-3.116 7.453 3.242 20.803 1.441 21.123.37.32-1.07-.133-2.554-5.226-2.298-4.075.205-8.304-1.793-9.909-2.817 1.158.62 4.99 1.527 11.05.198 7.574-1.66 10.67-4.227 8.534-4.873-2.137-.646-5.504 1.03-11.847.37-6.343-.661-5.039-5.924-4.013-7.859.821-1.548 3.907-2.38 5.348-2.604 5.031-7.243-5.23-10.082-10.989-10.596-2.066-5.079-8.734-8.149-11.81-9.049-.005 3.375 3.248 7.119 4.875 8.569-5.18-2.572-9.493-2.511-11.001-2.16-.652-.017-.897.663 3.337 3.524 4.234 2.86 9.991 3.44 12.341 3.372.584.147 1.381 1.136-.097 3.922-1.847 3.483-13.422 4.742-26.567 6.156-10.515 1.13-14.062 6.883-14.521 9.618-.135-1.148-1-3.068-3.385-1.563-2.386 1.506.273 4.782 1.9 6.233.143.82.277 3.029-.326 5.289-.755 2.825-1.733 2.799-5.305 4.861Z" fill="#F1B95C"/></svg>