<svg width="63" height="64" viewBox="0 0 63 64" fill="none" xmlns="http://www.w3.org/2000/svg">
<path fill-rule="evenodd" clip-rule="evenodd" d="M44.993 32.2472C45.0346 32.6619 45.09 33.0908 45.1313 33.5055C45.1451 33.6576 45.1592 33.8098 45.1867 33.9619C45.1867 34.0032 45.1867 34.0449 45.2005 34.1003C45.2005 34.114 45.2005 34.1554 45.2143 34.1694C45.2559 34.3213 45.408 34.3905 45.5464 34.4321C45.7123 34.4734 45.892 34.515 46.0582 34.5426C46.1273 34.5566 46.1965 34.5566 46.2657 34.5704C46.39 34.5842 46.7359 34.6255 46.8604 34.598C46.9293 34.5704 46.9985 34.515 47.0263 34.4321C47.0539 34.3353 47.0126 34.1278 46.9985 34.0173C46.9572 33.796 46.9018 33.5609 46.8464 33.3258C46.6805 32.6206 46.487 31.9013 46.2933 31.196L49.7371 27.7528C49.9033 27.5315 50 27.2688 50 27.0062C50 26.6881 49.8754 26.3839 49.6541 26.1626L45.8369 22.3459C45.6156 22.1246 45.3113 22 44.993 22C44.675 22 44.3845 22.1246 44.1494 22.3459L40.3459 26.1626C40.1246 26.3839 40.0001 26.6881 40.0001 27.0062C40.0001 27.3104 40.1246 27.6144 40.3319 27.8357H40.3459L43.7068 31.196C43.4993 31.9013 43.3196 32.6206 43.1396 33.3258C43.0845 33.5609 43.0291 33.796 42.9875 34.0173C42.9737 34.1278 42.9321 34.3353 42.9737 34.4321C43.0013 34.515 43.0567 34.5704 43.1396 34.598C43.2642 34.6255 43.596 34.5842 43.7344 34.5704C43.8035 34.5566 43.8589 34.5566 43.9281 34.5426C44.1078 34.515 44.2878 34.4734 44.4537 34.4321C44.5782 34.3905 44.7441 34.3213 44.7858 34.1694C44.7858 34.1554 44.7858 34.114 44.7995 34.1003C44.7995 34.0449 44.7995 34.0032 44.8133 33.9619C44.8271 33.8098 44.8409 33.6576 44.8546 33.5055C44.91 33.0908 44.9517 32.6619 44.993 32.2472ZM46.7221 30.1036L45.3251 28.7209L46.7221 27.338L48.105 28.7209L46.7221 30.1036ZM43.278 23.8947L44.6612 25.2774L43.278 26.6603L41.8948 25.2774L43.278 23.8947ZM44.993 24.9456L43.6101 23.5626L44.4812 22.6777C44.6196 22.5534 44.7995 22.4702 44.993 22.4702C45.1867 22.4702 45.3664 22.5534 45.5048 22.6777L46.3762 23.5626L44.993 24.9456ZM45.5048 31.3206H45.491C45.3664 31.459 45.1867 31.5281 44.993 31.5281C44.8133 31.5281 44.6333 31.459 44.4953 31.3206L43.6101 30.4357L44.993 29.0527L46.3762 30.4357L45.5048 31.3206ZM44.0802 31.5833L44.1494 31.6524C44.1632 31.6524 44.1632 31.6524 44.1632 31.6662C44.177 31.6662 44.177 31.6662 44.177 31.6662V31.6803H44.1907C44.1907 31.6803 44.1907 31.694 44.2048 31.694C44.2048 31.694 44.2048 31.694 44.2186 31.7078L44.2461 31.7354H44.2599V31.7492H44.274V31.7632C44.3707 31.8183 44.4537 31.8737 44.5644 31.9153L44.5366 32.1364C44.4953 32.5652 44.4399 32.9937 44.3983 33.4226C44.3845 33.5609 44.3707 33.713 44.3431 33.8511C44.3431 33.8927 44.3431 33.9343 44.3431 33.9757C44.3291 33.9757 44.3153 33.9757 44.3153 33.9757C44.1632 34.0311 43.9973 34.0586 43.8451 34.0724C43.7898 34.0862 43.7344 34.1003 43.6652 34.1003C43.596 34.114 43.5271 34.1278 43.4439 34.1278C43.4579 34.0724 43.4717 34.0173 43.4855 33.9619C43.5131 33.7822 43.5547 33.616 43.596 33.4363C43.7484 32.8141 43.9143 32.1918 44.0802 31.5833ZM46.5421 34.1278C46.4729 34.1278 46.39 34.114 46.3208 34.1003C46.2657 34.1003 46.2103 34.0862 46.1549 34.0724C46.0028 34.0586 45.8369 34.0311 45.6847 33.9757C45.6707 33.9757 45.6569 33.9757 45.6569 33.9757C45.6569 33.9343 45.6431 33.8927 45.6431 33.8511C45.6293 33.713 45.6156 33.5609 45.5877 33.4226C45.5464 32.9937 45.5048 32.5652 45.4634 32.1364L45.4356 31.9153C45.5186 31.8875 45.5877 31.8462 45.6569 31.7908C45.6707 31.7908 45.6707 31.7908 45.6707 31.7908L45.6847 31.777H45.6985C45.6985 31.7632 45.6985 31.7632 45.6985 31.7632H45.7123C45.7123 31.7632 45.7123 31.7632 45.7123 31.7492C45.7261 31.7492 45.7261 31.7492 45.7261 31.7492C45.7677 31.7216 45.7953 31.694 45.8231 31.6662L45.906 31.5833C46.072 32.1918 46.2379 32.8141 46.39 33.4363C46.4316 33.616 46.4729 33.7822 46.5146 33.9619C46.5283 34.0173 46.5421 34.0724 46.5421 34.1278ZM46.3762 27.0062L44.993 28.3888L43.6101 27.0062L44.993 25.6095L46.3762 27.0062ZM41.5629 25.6095L42.9462 27.0062L41.5629 28.3888L40.6777 27.5039C40.5394 27.3656 40.4702 27.1859 40.4702 27.0062C40.4702 26.8124 40.5394 26.6327 40.6777 26.4944L41.5629 25.6095ZM41.8948 28.7209L43.278 27.338L44.6612 28.7209L43.278 30.1036L41.8948 28.7209ZM46.7221 26.6603L45.3251 25.2774L46.7221 23.8947L48.105 25.2774L46.7221 26.6603ZM47.0539 27.0062L48.4371 25.6095L49.3085 26.4944C49.4466 26.6327 49.5298 26.8124 49.5298 27.0062C49.5298 27.1859 49.4607 27.3656 49.3223 27.4901L48.4371 28.3888L47.0539 27.0062Z" fill="#D4D766"/>
<path fill-rule="evenodd" clip-rule="evenodd" d="M14.4246 39.1332C14.4698 39.5838 14.53 40.0497 14.5749 40.5004C14.5898 40.6656 14.6051 40.8309 14.6351 40.9962C14.6351 41.0411 14.6351 41.0863 14.65 41.1465C14.65 41.1615 14.65 41.2064 14.665 41.2217C14.7102 41.3866 14.8755 41.4618 15.0258 41.507C15.2061 41.5519 15.4013 41.5971 15.5818 41.6271C15.657 41.6424 15.7322 41.6424 15.8073 41.6573C15.9423 41.6723 16.3181 41.7172 16.4535 41.6873C16.5283 41.6573 16.6035 41.5971 16.6337 41.507C16.6637 41.4019 16.6187 41.1765 16.6035 41.0564C16.5586 40.8159 16.4984 40.5605 16.4382 40.3051C16.2579 39.5389 16.0477 38.7574 15.8372 37.9912L19.5789 34.2502C19.7594 34.0097 19.8645 33.7244 19.8645 33.439C19.8645 33.0935 19.7292 32.7629 19.4887 32.5225L15.3414 28.3758C15.101 28.1353 14.7704 28 14.4246 28C14.079 28 13.7634 28.1353 13.508 28.3758L9.37568 32.5225C9.13524 32.7629 8.9999 33.0935 8.9999 33.439C8.9999 33.7696 9.13524 34.0999 9.36041 34.3403H9.37568L13.0272 37.9912C12.8017 38.7574 12.6065 39.5389 12.4109 40.3051C12.3511 40.5605 12.2909 40.8159 12.2457 41.0564C12.2307 41.1765 12.1855 41.4019 12.2307 41.507C12.2606 41.5971 12.3208 41.6573 12.4109 41.6873C12.5463 41.7172 12.9068 41.6723 13.0571 41.6573C13.1323 41.6424 13.1924 41.6424 13.2676 41.6271C13.4628 41.5971 13.6583 41.5519 13.8386 41.507C13.9739 41.4618 14.1542 41.3866 14.1994 41.2217C14.1994 41.2064 14.1994 41.1615 14.2144 41.1465C14.2144 41.0863 14.2144 41.0411 14.2293 40.9962C14.2443 40.8309 14.2593 40.6656 14.2743 40.5004C14.3344 40.0497 14.3797 39.5838 14.4246 39.1332ZM16.3032 36.8043L14.7854 35.3021L16.3032 33.7995L17.8057 35.3021L16.3032 36.8043ZM12.5613 30.0585L14.0641 31.5608L12.5613 33.0633L11.0584 31.5608L12.5613 30.0585ZM14.4246 31.2002L12.9221 29.6977L13.8685 28.7363C14.0188 28.6012 14.2144 28.5108 14.4246 28.5108C14.6351 28.5108 14.8303 28.6012 14.9806 28.7363L15.9274 29.6977L14.4246 31.2002ZM14.9806 38.1265H14.9656C14.8303 38.2768 14.6351 38.352 14.4246 38.352C14.2293 38.352 14.0338 38.2768 13.8838 38.1265L12.9221 37.1651L14.4246 35.6626L15.9274 37.1651L14.9806 38.1265ZM13.4329 38.4119L13.508 38.487C13.523 38.487 13.523 38.487 13.523 38.502C13.538 38.502 13.538 38.502 13.538 38.502V38.5173H13.5529C13.5529 38.5173 13.5529 38.5322 13.5682 38.5322C13.5682 38.5322 13.5682 38.5322 13.5832 38.5472L13.6131 38.5772H13.6281V38.5921H13.6434V38.6074C13.7485 38.6673 13.8386 38.7275 13.959 38.7727L13.9287 39.0128C13.8838 39.4787 13.8236 39.9443 13.7784 40.4102C13.7634 40.5605 13.7485 40.7258 13.7185 40.8758C13.7185 40.921 13.7185 40.9663 13.7185 41.0112C13.7033 41.0112 13.6883 41.0112 13.6883 41.0112C13.523 41.0714 13.3427 41.1013 13.1775 41.1163C13.1173 41.1312 13.0571 41.1465 12.9819 41.1465C12.9068 41.1615 12.8319 41.1765 12.7415 41.1765C12.7568 41.1163 12.7717 41.0564 12.7867 40.9962C12.8167 40.801 12.8619 40.6204 12.9068 40.4252C13.0724 39.7491 13.2526 39.073 13.4329 38.4119ZM16.1076 41.1765C16.0325 41.1765 15.9423 41.1615 15.8672 41.1465C15.8073 41.1465 15.7471 41.1312 15.6869 41.1163C15.5217 41.1013 15.3414 41.0714 15.1761 41.0112C15.1609 41.0112 15.1459 41.0112 15.1459 41.0112C15.1459 40.9663 15.1309 40.921 15.1309 40.8758C15.1159 40.7258 15.101 40.5605 15.0707 40.4102C15.0258 39.9443 14.9806 39.4787 14.9357 39.0128L14.9054 38.7727C14.9956 38.7424 15.0707 38.6975 15.1459 38.6373C15.1609 38.6373 15.1609 38.6373 15.1609 38.6373L15.1761 38.6224H15.1911C15.1911 38.6074 15.1911 38.6074 15.1911 38.6074H15.2061C15.2061 38.6074 15.2061 38.6074 15.2061 38.5921C15.221 38.5921 15.221 38.5921 15.221 38.5921C15.2662 38.5622 15.2962 38.5322 15.3264 38.502L15.4166 38.4119C15.5968 39.073 15.7771 39.7491 15.9423 40.4252C15.9876 40.6204 16.0325 40.801 16.0777 40.9962C16.0927 41.0564 16.1076 41.1163 16.1076 41.1765ZM15.9274 33.439L14.4246 34.9412L12.9221 33.439L14.4246 31.9216L15.9274 33.439ZM10.6979 31.9216L12.2007 33.439L10.6979 34.9412L9.73619 33.9798C9.58588 33.8295 9.51072 33.6343 9.51072 33.439C9.51072 33.2285 9.58588 33.0333 9.73619 32.883L10.6979 31.9216ZM11.0584 35.3021L12.5613 33.7995L14.0641 35.3021L12.5613 36.8043L11.0584 35.3021ZM16.3032 33.0633L14.7854 31.5608L16.3032 30.0585L17.8057 31.5608L16.3032 33.0633ZM16.6637 33.439L18.1665 31.9216L19.1132 32.883C19.2633 33.0333 19.3537 33.2285 19.3537 33.439C19.3537 33.6343 19.2785 33.8295 19.1282 33.9648L18.1665 34.9412L16.6637 33.439Z" fill="#D4D766"/>
<path fill-rule="evenodd" clip-rule="evenodd" d="M53.8152 52.0726C51.1422 47.3021 44.2907 44.4339 40.1925 41.7803C37.858 40.2705 35.8087 38.6623 34.1608 36.7859C32.5124 38.6619 30.472 40.2701 28.1375 41.7803C23.8697 44.541 17.1428 47.3554 14.497 52.1084C13.8733 53.136 13.3652 54.2436 13 55.423C13.4009 54.6905 14.4256 54.2616 15.085 53.8416C15.4324 53.6092 15.7444 53.3683 16.0025 53.0822C16.2521 53.3683 16.5637 53.6092 16.9204 53.8416C17.366 54.1277 17.9808 54.4223 18.462 54.8154V53.7077C18.462 52.9394 19.0858 52.3139 19.8519 52.3139H19.8251C19.5135 52.3139 19.2639 52.0547 19.2639 51.7422C19.2639 51.5635 19.3442 51.4028 19.4867 51.2958C19.3532 51.0276 19.2639 50.7594 19.246 50.5185C19.1215 48.6332 21.4288 47.7578 22.7477 46.9089C23.3004 46.5427 23.7812 46.1675 24.1732 45.7207C24.5652 46.1675 25.0555 46.5427 25.6077 46.9089C26.9262 47.7578 29.234 48.6336 29.1094 50.5185C29.0915 50.7598 29.0027 51.0276 28.8687 51.2958C29.0022 51.4028 29.0915 51.5635 29.0915 51.7422C29.0915 52.0551 28.833 52.3139 28.5214 52.3139H28.5035C29.2607 52.3139 29.8934 52.9394 29.8934 53.7077V54.8154C30.3653 54.4223 30.9894 54.1277 31.435 53.8416C31.7913 53.6092 32.1029 53.3683 32.3525 53.0822C32.6021 53.3683 32.9137 53.6092 33.2704 53.8416C34.1165 54.3958 35.5957 54.9493 35.5157 56.1555C35.5068 56.3162 35.4443 56.4859 35.3643 56.6645C35.4536 56.7272 35.5068 56.8342 35.5068 56.9506C35.5068 57.1472 35.3465 57.3169 35.1416 57.3169H35.1237C35.4626 57.3169 35.7564 57.5045 35.9077 57.7812L36.2287 50.8839H36.113C35.8992 50.8839 35.721 50.7053 35.721 50.4908C35.721 50.3659 35.7835 50.2585 35.8724 50.1873C35.7568 50.0261 35.6586 49.8031 35.6496 49.6245C35.6139 48.9542 36.2644 48.6507 36.6386 48.3467C36.7899 48.2217 36.9324 48.0785 37.0395 47.9267C37.1551 48.0785 37.2886 48.2213 37.4493 48.3467C37.8146 48.6507 38.4651 48.9542 38.4293 49.6245C38.4204 49.8031 38.3226 50.0265 38.2066 50.1873C38.3044 50.2585 38.3579 50.3659 38.3579 50.4908C38.3579 50.7053 38.1798 50.8839 37.9659 50.8839H37.8503L38.1713 57.7901C38.3583 57.2273 38.8928 56.8163 39.5169 56.8163H39.4901C39.1784 56.8163 38.911 56.5571 38.911 56.2356C38.911 56.048 39.0003 55.8783 39.1427 55.7803C39.0092 55.5035 38.92 55.226 38.9021 54.9851C38.7686 53.0639 41.1206 52.1707 42.4658 51.3043C43.036 50.9381 43.5262 50.545 43.9271 50.0892C44.328 50.5446 44.8182 50.9377 45.3794 51.3043C46.7251 52.1707 49.0771 53.0643 48.9521 54.9851C48.9342 55.2264 48.845 55.5031 48.7115 55.7803C48.845 55.8783 48.9342 56.048 48.9342 56.2356C48.9342 56.5575 48.6757 56.8163 48.3552 56.8163H48.3373C49.1124 56.8163 49.745 57.4503 49.745 58.228V59.363C50.2348 58.9609 50.8675 58.6659 51.322 58.3712C51.6872 58.1389 51.9992 57.8886 52.2577 57.594C52.5162 57.8886 52.8279 58.1389 53.1931 58.3712C54.0574 58.934 55.5634 59.5058 55.483 60.7299C55.4741 60.8906 55.4116 61.0693 55.3316 61.2479C55.4205 61.3106 55.4741 61.4176 55.4741 61.5425C55.4741 61.7391 55.3049 61.9088 55.0999 61.9088H55.091C55.3848 61.9088 55.6437 62.052 55.8129 62.275C55.9375 61.4888 56 60.6847 56 59.8716C56 57.0125 55.2071 54.3413 53.8172 52.0718L53.8152 52.0726ZM54.6974 62.7044C54.4657 62.7044 54.2786 62.8919 54.2786 63.1243V64H55.1162V63.1243C55.1162 62.8919 54.9291 62.7044 54.6974 62.7044ZM52.8352 62.7044C52.6035 62.7044 52.4164 62.8919 52.4164 63.1243V64H53.254V63.1243C53.254 62.8919 53.0669 62.7044 52.8352 62.7044ZM50.973 62.7044C50.7502 62.7044 50.5542 62.8919 50.5542 63.1243V64H51.3918V63.1243C51.3918 62.8919 51.2047 62.7044 50.973 62.7044ZM24.1724 53.5201C24.8854 53.5201 25.473 54.1098 25.473 54.8244V57.5492H22.8714V54.8244C22.8714 54.1094 23.4594 53.5201 24.172 53.5201H24.1724ZM20.4306 53.5201C20.7779 53.5201 21.0721 53.8147 21.0721 54.1635V55.5035H19.789V54.1635C19.789 53.8151 20.0832 53.5201 20.4306 53.5201ZM27.9236 53.5201C27.5673 53.5201 27.2821 53.8147 27.2821 54.1635V55.5035H28.5563V54.1635C28.5563 53.8151 28.271 53.5201 27.9236 53.5201ZM13.6055 58.0945C13.8282 58.0945 14.0153 58.2736 14.0153 58.5055V59.3634H13.1956V58.5055C13.1956 58.2732 13.3827 58.0945 13.6055 58.0945ZM15.4319 58.0945C15.6547 58.0945 15.8418 58.2736 15.8418 58.5055V59.3634H15.0221V58.5055C15.0221 58.2732 15.2092 58.0945 15.4319 58.0945ZM17.2584 58.0945C17.4812 58.0945 17.6683 58.2736 17.6683 58.5055V59.3634H16.8486V58.5055C16.8486 58.2732 17.0267 58.0945 17.2584 58.0945ZM34.7483 58.0945C34.5166 58.0945 34.3385 58.2736 34.3385 58.5055V59.3634H35.1582V58.5055C35.1582 58.2732 34.9711 58.0945 34.7483 58.0945ZM32.9219 58.0945C32.6901 58.0945 32.512 58.2736 32.512 58.5055V59.3634H33.3317V58.5055C33.3317 58.2732 33.1446 58.0945 32.9219 58.0945ZM31.0954 58.0945C30.8726 58.0945 30.6855 58.2736 30.6855 58.5055V59.3634H31.5052V58.5055C31.5052 58.2732 31.3181 58.0945 31.0954 58.0945ZM37.0383 51.5546C37.2521 51.5546 37.4213 51.7243 37.4213 51.9387V52.7339H36.6552V51.9387C36.6552 51.7243 36.8333 51.5546 37.0383 51.5546ZM37.0383 55.9499C37.2968 55.9499 37.5102 56.1644 37.5102 56.4236V57.4153H36.5659V56.4236C36.5659 56.1644 36.7798 55.9499 37.0383 55.9499Z" fill="#D4D766"/>
<path d="M62.5361 -28C62.5361 6 33.5 22.5 -0.499999 22.5" stroke="#E6D412"/>
<path d="M19 7L19.4722 8.52782H21L19.7641 9.47218L20.2363 11L19 10.0558L17.7641 11L18.2363 9.47218L17 8.52782H18.528L19 7Z" fill="#42C5A5"/>
<path d="M45 10L45 23.5" stroke="#D4D766" stroke-width="0.5"/>
<path d="M14 21V28" stroke="#D4D766" stroke-width="0.5"/>
</svg>
