<svg width="306" height="64" viewBox="0 0 306 64" fill="none" xmlns="http://www.w3.org/2000/svg">
<path d="M85.4342 49.2146C85.3178 49.1323 85.2048 49.0458 85.0954 48.9548C84.9857 48.8639 84.8799 48.7687 84.7776 48.6697C84.6755 48.5704 84.5773 48.4675 84.4833 48.3609C84.3891 48.2544 84.2993 48.1443 84.2138 48.0308C84.1282 47.917 84.0472 47.8005 83.9709 47.6809C83.8946 47.561 83.8228 47.4386 83.756 47.3131C83.6892 47.188 83.6273 47.0603 83.5703 46.9304C83.5137 46.8005 83.4618 46.6684 83.4152 46.5346C83.3686 46.4005 83.3274 46.265 83.2915 46.1279C83.2556 45.9908 83.225 45.8523 83.1998 45.7129C83.1745 45.5735 83.1549 45.4331 83.1406 45.2923C83.1266 45.1513 83.1179 45.01 83.1145 44.8681C83.1114 44.7266 83.1137 44.585 83.1218 44.4437C83.1297 44.3021 83.1428 44.1611 83.1619 44.0206C83.1807 43.8801 83.2051 43.7408 83.2348 43.6022C83.2646 43.4634 83.2999 43.3263 83.3403 43.1906C83.381 43.0546 83.4267 42.9205 83.4778 42.7881C83.5285 42.6557 83.5846 42.5255 83.6458 42.3975C83.7069 42.2693 83.7731 42.1439 83.8441 42.0209C83.915 41.898 83.9908 41.7778 84.071 41.6607C84.1515 41.5433 84.2362 41.4296 84.3254 41.3189C84.4146 41.2081 84.5083 41.1011 84.6059 40.9976C84.7035 40.8941 84.8048 40.7942 84.9102 40.6986C85.0157 40.6029 85.1248 40.5114 85.2373 40.424C85.3498 40.3367 85.4656 40.2538 85.5845 40.1754C85.7038 40.0969 85.8255 40.0229 85.9503 39.9539C86.0751 39.885 86.2025 39.8207 86.3323 39.7612C86.4622 39.7019 86.594 39.6477 86.7281 39.5985C86.8622 39.5492 86.998 39.5053 87.1354 39.4663C87.2728 39.4277 87.4117 39.394 87.5516 39.3659C87.6919 39.3378 87.833 39.315 87.9746 39.2978C88.1166 39.2805 88.2591 39.2686 88.4018 39.2622C88.3062 39.2343 88.21 39.2088 88.1129 39.1854C88.0161 39.162 87.9188 39.1406 87.8209 39.1217C87.723 39.1028 87.6249 39.0858 87.5264 39.0713C87.4277 39.0566 87.3289 39.0444 87.2296 39.0341C87.1306 39.0241 87.0311 39.0163 86.9318 39.0104C86.8322 39.0049 86.7326 39.0015 86.6328 39.0004C86.5332 38.9993 86.4333 39.0004 86.3337 39.0038C86.2342 39.0071 86.1346 39.0129 86.0353 39.0207C85.936 39.0285 85.8367 39.0388 85.738 39.051C85.639 39.0633 85.5405 39.078 85.4421 39.0947C85.3439 39.1117 85.246 39.1306 85.1487 39.1517C85.0513 39.1732 84.9546 39.1965 84.8583 39.2221C84.7619 39.2477 84.6662 39.2755 84.5714 39.3056C84.4763 39.3353 84.3821 39.3673 84.2884 39.4015C84.195 39.4357 84.1021 39.4722 84.0104 39.5106C83.9184 39.5489 83.8275 39.5893 83.7375 39.6318C83.6475 39.6744 83.5585 39.7189 83.4707 39.7653C83.3827 39.8118 83.296 39.8605 83.2102 39.9108C83.1243 39.9612 83.0399 40.0135 82.9566 40.068C82.8733 40.1222 82.7911 40.1781 82.7106 40.2363C82.6298 40.2941 82.5504 40.3539 82.4725 40.4154C82.3945 40.4772 82.3179 40.5403 82.2427 40.6054C82.1679 40.6705 82.0944 40.7369 82.0223 40.8054C81.9502 40.8738 81.8798 40.9436 81.8111 41.0151C81.7423 41.0866 81.675 41.1597 81.6097 41.2343C81.5443 41.3088 81.4806 41.3848 81.4187 41.4624C81.3567 41.5397 81.2966 41.6184 81.2383 41.6988C81.18 41.7789 81.1236 41.8601 81.0692 41.943C81.0145 42.0256 80.962 42.1097 80.9112 42.1948C80.8605 42.2796 80.8117 42.3658 80.7651 42.4532C80.7183 42.5405 80.6737 42.6287 80.631 42.718C80.5884 42.8073 80.5477 42.8977 80.5093 42.9886C80.4706 43.0799 80.4344 43.1719 80.3999 43.2646C80.3657 43.3575 80.3337 43.4509 80.3037 43.5452C80.2737 43.6395 80.2459 43.7344 80.2201 43.8298C80.1946 43.9252 80.1713 44.0214 80.15 44.1179C80.1287 44.2145 80.1099 44.3113 80.093 44.4089C80.0762 44.5063 80.0619 44.6039 80.0496 44.7021C80.0372 44.8 80.0274 44.8985 80.0195 44.9969C80.012 45.0954 80.0064 45.1941 80.0033 45.2929C80.0002 45.3916 79.9994 45.4904 80.0005 45.5891C80.0019 45.6879 80.0055 45.7866 80.0114 45.8854C80.0173 45.9838 80.0257 46.0823 80.0361 46.1808C80.0465 46.2789 80.0591 46.3769 80.0742 46.4745C80.0891 46.5724 80.1062 46.6695 80.1256 46.7666C80.1452 46.8633 80.1668 46.9599 80.1906 47.0558C80.2145 47.1518 80.2406 47.2472 80.2689 47.3418C80.297 47.4366 80.3275 47.5306 80.3601 47.6241C80.3926 47.7176 80.4274 47.8102 80.4641 47.902C80.5009 47.9938 80.5399 48.0847 80.5808 48.1746C80.622 48.2647 80.665 48.3537 80.7101 48.4419C80.7553 48.5301 80.8024 48.6171 80.8515 48.7031C80.9006 48.789 80.9516 48.8739 81.0046 48.9576C81.0577 49.0413 81.1126 49.1237 81.1696 49.2049C81.2262 49.2861 81.2851 49.3659 81.3454 49.4444C81.406 49.5231 81.4683 49.6001 81.5323 49.6758C81.5965 49.7515 81.6621 49.8257 81.7297 49.8986C81.797 49.9712 81.866 50.0424 81.937 50.1122C82.0077 50.1818 82.0801 50.2496 82.1538 50.3161C82.2276 50.3826 82.303 50.4471 82.3799 50.51C82.4568 50.5731 82.535 50.6343 82.6147 50.6936C82.6943 50.7531 82.7754 50.8107 82.8576 50.8663C82.9398 50.9222 83.0234 50.9759 83.1083 51.0279C83.1931 51.0799 83.2789 51.13 83.3661 51.1781C83.4531 51.2262 83.5411 51.2724 83.6303 51.3164C83.7198 51.3606 83.8099 51.4026 83.901 51.4426C83.9922 51.4827 84.0842 51.5205 84.177 51.5564C84.2699 51.5923 84.3636 51.6262 84.4581 51.6577C84.5526 51.6894 84.6477 51.7189 84.7433 51.7461C84.8393 51.7736 84.9355 51.7987 85.0325 51.8218C85.1296 51.8446 85.2269 51.8654 85.3248 51.8841C85.4227 51.9027 85.5212 51.9191 85.6199 51.933C85.7183 51.9472 85.8174 51.9592 85.9166 51.9689C86.0159 51.9784 86.1152 51.9859 86.2148 51.9912C86.3144 51.9962 86.414 51.9992 86.5135 51.9998C86.6134 52.0006 86.713 51.999 86.8125 51.9951C86.9121 51.9912 87.0117 51.985 87.111 51.977C87.2103 51.9686 87.3096 51.9581 87.4083 51.945C87.5071 51.9322 87.6058 51.9172 87.704 51.8999C87.8021 51.8827 87.8997 51.8632 87.9971 51.8415C88.0941 51.8198 88.1909 51.7962 88.2871 51.77C88.3833 51.7439 88.4787 51.7158 88.5738 51.6855C88.6686 51.6549 88.7625 51.6226 88.8559 51.5878C88.9493 51.5533 89.0419 51.5166 89.1336 51.4777C89.2254 51.439 89.316 51.3981 89.4057 51.355C89.4958 51.3122 89.5844 51.2674 89.6722 51.2204C89.76 51.1734 89.8464 51.1247 89.9319 51.0738C90.0175 51.0229 90.1016 50.9701 90.1849 50.9155C90.268 50.861 90.3496 50.8043 90.4301 50.7461C90.5106 50.6877 90.5897 50.6276 90.6674 50.5656C90.7451 50.5039 90.8214 50.4402 90.896 50.3748C90.9709 50.3094 91.0441 50.2424 91.1156 50.1737C91.1874 50.105 91.2575 50.0349 91.326 49.9628C91.3944 49.8911 91.4612 49.8177 91.5262 49.7428C91.5913 49.668 91.6547 49.5918 91.7161 49.5139C91.7776 49.4363 91.8373 49.3573 91.8954 49.2769C91.9318 49.2263 91.9652 49.1746 92 49.1228C91.883 49.2107 91.763 49.2936 91.6396 49.3718C91.5161 49.4499 91.3899 49.5231 91.2606 49.5915C91.1313 49.6597 90.9995 49.7228 90.8651 49.7809C90.7308 49.8388 90.5944 49.8914 90.4559 49.9384C90.3173 49.9857 90.1771 50.0274 90.0351 50.0635C89.8935 50.0997 89.7504 50.1303 89.606 50.1553C89.4618 50.1801 89.3165 50.1996 89.1707 50.2129C89.0248 50.2265 88.8787 50.2343 88.7322 50.2363C88.5858 50.2385 88.4394 50.2346 88.2933 50.2252C88.1471 50.2157 88.0016 50.2007 87.8565 50.1798C87.7115 50.1587 87.5676 50.1322 87.4249 50.1C87.2821 50.0677 87.1407 50.0302 87.0008 49.9868C86.8611 49.9434 86.7231 49.8947 86.5873 49.8405C86.4513 49.7865 86.3178 49.727 86.1865 49.6624C86.0555 49.5976 85.927 49.5281 85.8014 49.4533C85.6757 49.3787 85.5534 49.2992 85.4342 49.2146Z" fill="#D4D766"/>
<path d="M127.583 22H126.583V32H127.583V22Z" fill="#D4D766"/>
<path fill-rule="evenodd" clip-rule="evenodd" d="M126.779 49.4119C126.852 50.1412 126.95 50.8952 127.022 51.6245C127.047 51.892 127.071 52.1595 127.12 52.427C127.12 52.4997 127.12 52.5729 127.144 52.6703C127.144 52.6945 127.144 52.7672 127.168 52.7919C127.241 53.0589 127.509 53.1805 127.752 53.2537C128.044 53.3264 128.36 53.3996 128.652 53.448C128.774 53.4727 128.895 53.4727 129.017 53.497C129.235 53.5212 129.844 53.5939 130.063 53.5454C130.184 53.497 130.305 53.3996 130.354 53.2537C130.403 53.0836 130.33 52.7187 130.305 52.5244C130.233 52.1353 130.135 51.7219 130.038 51.3086C129.746 50.0685 129.406 48.8038 129.065 47.5637L135.121 41.5093C135.413 41.1202 135.583 40.6584 135.583 40.1965C135.583 39.6373 135.364 39.1024 134.975 38.7132L128.263 32.0022C127.874 31.6131 127.339 31.394 126.779 31.394C126.22 31.394 125.709 31.6131 125.296 32.0022L118.608 38.7132C118.219 39.1024 118 39.6373 118 40.1965C118 40.7315 118.219 41.266 118.583 41.6552H118.608L124.517 47.5637C124.153 48.8038 123.837 50.0685 123.52 51.3086C123.423 51.7219 123.326 52.1353 123.253 52.5244C123.228 52.7187 123.155 53.0836 123.228 53.2537C123.277 53.3996 123.374 53.497 123.52 53.5454C123.739 53.5939 124.323 53.5212 124.566 53.497C124.688 53.4727 124.785 53.4727 124.907 53.448C125.223 53.3996 125.539 53.3264 125.831 53.2537C126.05 53.1805 126.341 53.0589 126.415 52.7919C126.415 52.7672 126.415 52.6945 126.439 52.6703C126.439 52.5729 126.439 52.4997 126.463 52.427C126.487 52.1595 126.512 51.892 126.536 51.6245C126.633 50.8952 126.706 50.1412 126.779 49.4119ZM129.819 45.6428L127.363 43.2116L129.819 40.78L132.251 43.2116L129.819 45.6428ZM123.763 34.7256L126.196 37.1567L123.763 39.5884L121.331 37.1567L123.763 34.7256ZM126.779 36.5733L124.347 34.1416L125.879 32.5856C126.122 32.3671 126.439 32.2207 126.779 32.2207C127.12 32.2207 127.436 32.3671 127.679 32.5856L129.211 34.1416L126.779 36.5733ZM127.679 47.7827H127.655C127.436 48.026 127.12 48.1476 126.779 48.1476C126.463 48.1476 126.147 48.026 125.904 47.7827L124.347 46.2267L126.779 43.7951L129.211 46.2267L127.679 47.7827ZM125.174 48.2445L125.296 48.3662C125.32 48.3662 125.32 48.3662 125.32 48.3904C125.344 48.3904 125.344 48.3904 125.344 48.3904V48.4151H125.368C125.368 48.4151 125.368 48.4394 125.393 48.4394C125.393 48.4394 125.393 48.4394 125.417 48.4636L125.466 48.512H125.49V48.5363H125.515V48.561C125.685 48.6579 125.831 48.7553 126.026 48.8285L125.977 49.2171C125.904 49.9711 125.806 50.7247 125.733 51.4787C125.709 51.7219 125.685 51.9894 125.636 52.2322C125.636 52.3054 125.636 52.3786 125.636 52.4512C125.612 52.4512 125.587 52.4512 125.587 52.4512C125.32 52.5486 125.028 52.5971 124.761 52.6213C124.663 52.6456 124.566 52.6703 124.444 52.6703C124.323 52.6945 124.202 52.7187 124.055 52.7187C124.08 52.6213 124.104 52.5244 124.128 52.427C124.177 52.1111 124.25 51.8189 124.323 51.5029C124.591 50.4087 124.882 49.3145 125.174 48.2445ZM129.503 52.7187C129.381 52.7187 129.235 52.6945 129.114 52.6703C129.017 52.6703 128.919 52.6456 128.822 52.6213C128.555 52.5971 128.263 52.5486 127.995 52.4512C127.971 52.4512 127.946 52.4512 127.946 52.4512C127.946 52.3786 127.922 52.3054 127.922 52.2322C127.898 51.9894 127.874 51.7219 127.825 51.4787C127.752 50.7247 127.679 49.9711 127.606 49.2171L127.557 48.8285C127.703 48.7795 127.825 48.7068 127.946 48.6094C127.971 48.6094 127.971 48.6094 127.971 48.6094L127.995 48.5852H128.02C128.02 48.561 128.02 48.561 128.02 48.561H128.044C128.044 48.561 128.044 48.561 128.044 48.5363C128.068 48.5363 128.068 48.5363 128.068 48.5363C128.141 48.4878 128.19 48.4394 128.239 48.3904L128.384 48.2445C128.676 49.3145 128.968 50.4087 129.235 51.5029C129.309 51.8189 129.381 52.1111 129.454 52.427C129.479 52.5244 129.503 52.6213 129.503 52.7187ZM129.211 40.1965L126.779 42.6277L124.347 40.1965L126.779 37.7407L129.211 40.1965ZM120.748 37.7407L123.18 40.1965L120.748 42.6277L119.191 41.0717C118.948 40.8284 118.827 40.5125 118.827 40.1965C118.827 39.8559 118.948 39.5399 119.191 39.2967L120.748 37.7407ZM121.331 43.2116L123.763 40.78L126.196 43.2116L123.763 45.6428L121.331 43.2116ZM129.819 39.5884L127.363 37.1567L129.819 34.7256L132.251 37.1567L129.819 39.5884ZM130.403 40.1965L132.835 37.7407L134.367 39.2967C134.61 39.5399 134.756 39.8559 134.756 40.1965C134.756 40.5125 134.635 40.8284 134.391 41.0475L132.835 42.6277L130.403 40.1965Z" fill="#D4D766"/>
<path d="M168.583 6H167.583V20H168.583V6Z" fill="#D4D766"/>
<path fill-rule="evenodd" clip-rule="evenodd" d="M167.573 33.622C167.631 34.2027 167.709 34.803 167.767 35.3837C167.786 35.5967 167.806 35.8097 167.844 36.0226C167.844 36.0805 167.844 36.1388 167.864 36.2163C167.864 36.2356 167.864 36.2935 167.883 36.3132C167.941 36.5258 168.154 36.6226 168.348 36.6809C168.58 36.7387 168.832 36.797 169.064 36.8356C169.161 36.8553 169.258 36.8553 169.355 36.8746C169.529 36.8938 170.013 36.9517 170.188 36.9131C170.284 36.8746 170.381 36.797 170.42 36.6809C170.458 36.5454 170.401 36.2549 170.381 36.1002C170.323 35.7904 170.245 35.4612 170.168 35.1321C169.936 34.1448 169.665 33.1378 169.394 32.1504L174.215 27.3298C174.448 27.02 174.583 26.6523 174.583 26.2846C174.583 25.8393 174.409 25.4133 174.099 25.1035L168.755 19.7601C168.445 19.4503 168.019 19.2759 167.573 19.2759C167.128 19.2759 166.721 19.4503 166.392 19.7601L161.067 25.1035C160.757 25.4133 160.583 25.8393 160.583 26.2846C160.583 26.7105 160.757 27.1361 161.048 27.4459H161.067L165.772 32.1504C165.482 33.1378 165.23 34.1448 164.978 35.1321C164.901 35.4612 164.824 35.7904 164.765 36.1002C164.746 36.2549 164.688 36.5454 164.746 36.6809C164.785 36.797 164.862 36.8746 164.978 36.9131C165.153 36.9517 165.617 36.8938 165.811 36.8746C165.908 36.8553 165.985 36.8553 166.082 36.8356C166.334 36.797 166.586 36.7387 166.818 36.6809C166.992 36.6226 167.225 36.5258 167.283 36.3132C167.283 36.2935 167.283 36.2356 167.302 36.2163C167.302 36.1388 167.302 36.0805 167.322 36.0226C167.341 35.8097 167.36 35.5967 167.379 35.3837C167.457 34.803 167.515 34.2027 167.573 33.622ZM169.994 30.621L168.038 28.6852L169.994 26.7491L171.93 28.6852L169.994 30.621ZM165.172 21.9285L167.109 23.8642L165.172 25.8003L163.236 23.8642L165.172 21.9285ZM167.573 23.3997L165.637 21.4636L166.857 20.2246C167.05 20.0506 167.302 19.9341 167.573 19.9341C167.844 19.9341 168.096 20.0506 168.29 20.2246L169.51 21.4636L167.573 23.3997ZM168.29 32.3248H168.27C168.096 32.5185 167.844 32.6153 167.573 32.6153C167.322 32.6153 167.07 32.5185 166.876 32.3248L165.637 31.0859L167.573 29.1498L169.51 31.0859L168.29 32.3248ZM166.295 32.6925L166.392 32.7893C166.411 32.7893 166.411 32.7893 166.411 32.8086C166.431 32.8086 166.431 32.8086 166.431 32.8086V32.8283H166.45C166.45 32.8283 166.45 32.8476 166.47 32.8476C166.47 32.8476 166.47 32.8476 166.489 32.8669L166.528 32.9055H166.547V32.9248H166.567V32.9444C166.702 33.0216 166.818 33.0992 166.973 33.1574L166.934 33.4669C166.876 34.0672 166.799 34.6672 166.741 35.2676C166.721 35.4612 166.702 35.6742 166.663 35.8675C166.663 35.9258 166.663 35.9841 166.663 36.0419C166.644 36.0419 166.624 36.0419 166.624 36.0419C166.411 36.1195 166.179 36.1581 165.966 36.1774C165.889 36.1966 165.811 36.2163 165.714 36.2163C165.617 36.2356 165.521 36.2549 165.404 36.2549C165.424 36.1774 165.443 36.1002 165.463 36.0226C165.501 35.7711 165.559 35.5384 165.617 35.2868C165.831 34.4156 166.063 33.5444 166.295 32.6925ZM169.742 36.2549C169.645 36.2549 169.529 36.2356 169.432 36.2163C169.355 36.2163 169.277 36.1966 169.2 36.1774C168.987 36.1581 168.755 36.1195 168.542 36.0419C168.522 36.0419 168.503 36.0419 168.503 36.0419C168.503 35.9841 168.483 35.9258 168.483 35.8675C168.464 35.6742 168.445 35.4612 168.406 35.2676C168.348 34.6672 168.29 34.0672 168.232 33.4669L168.193 33.1574C168.309 33.1185 168.406 33.0606 168.503 32.983C168.522 32.983 168.522 32.983 168.522 32.983L168.542 32.9637H168.561C168.561 32.9444 168.561 32.9444 168.561 32.9444H168.58C168.58 32.9444 168.58 32.9444 168.58 32.9248C168.599 32.9248 168.599 32.9248 168.599 32.9248C168.658 32.8862 168.696 32.8476 168.735 32.8086L168.851 32.6925C169.084 33.5444 169.316 34.4156 169.529 35.2868C169.587 35.5384 169.645 35.7711 169.703 36.0226C169.723 36.1002 169.742 36.1774 169.742 36.2549ZM169.51 26.2846L167.573 28.2203L165.637 26.2846L167.573 24.3292L169.51 26.2846ZM162.771 24.3292L164.708 26.2846L162.771 28.2203L161.532 26.9814C161.338 26.7877 161.241 26.5361 161.241 26.2846C161.241 26.0133 161.338 25.7618 161.532 25.5681L162.771 24.3292ZM163.236 28.6852L165.172 26.7491L167.109 28.6852L165.172 30.621L163.236 28.6852ZM169.994 25.8003L168.038 23.8642L169.994 21.9285L171.93 23.8642L169.994 25.8003ZM170.458 26.2846L172.395 24.3292L173.615 25.5681C173.808 25.7618 173.925 26.0133 173.925 26.2846C173.925 26.5361 173.828 26.7877 173.634 26.9621L172.395 28.2203L170.458 26.2846Z" fill="#D4D766"/>
<path d="M299.143 0H298V16.0001H299.143V0Z" fill="#D4D766"/>
<path fill-rule="evenodd" clip-rule="evenodd" d="M297.989 31.5682C298.055 32.2318 298.144 32.9179 298.21 33.5816C298.232 33.825 298.255 34.0684 298.299 34.3118C298.299 34.3779 298.299 34.4445 298.321 34.5331C298.321 34.5552 298.321 34.6213 298.343 34.6438C298.409 34.8868 298.653 34.9975 298.874 35.0641C299.14 35.1302 299.427 35.1968 299.693 35.2409C299.804 35.2634 299.914 35.2634 300.025 35.2854C300.224 35.3075 300.777 35.3736 300.977 35.3295C301.087 35.2854 301.198 35.1968 301.242 35.0641C301.286 34.9093 301.22 34.5772 301.198 34.4004C301.131 34.0463 301.043 33.6702 300.954 33.2941C300.689 32.1657 300.379 31.0148 300.069 29.8863L305.579 24.377C305.845 24.0229 306 23.6027 306 23.1825C306 22.6736 305.801 22.1868 305.447 21.8327L299.339 15.7259C298.985 15.3718 298.498 15.1725 297.989 15.1725C297.48 15.1725 297.015 15.3718 296.639 15.7259L290.553 21.8327C290.199 22.1868 290 22.6736 290 23.1825C290 23.6693 290.199 24.1557 290.531 24.5098H290.553L295.931 29.8863C295.599 31.0148 295.311 32.1657 295.023 33.2941C294.935 33.6702 294.846 34.0463 294.78 34.4004C294.758 34.5772 294.691 34.9093 294.758 35.0641C294.802 35.1968 294.891 35.2854 295.023 35.3295C295.223 35.3736 295.753 35.3075 295.975 35.2854C296.086 35.2634 296.174 35.2634 296.285 35.2409C296.572 35.1968 296.86 35.1302 297.126 35.0641C297.325 34.9975 297.591 34.8868 297.657 34.6438C297.657 34.6213 297.657 34.5552 297.679 34.5331C297.679 34.4445 297.679 34.3779 297.701 34.3118C297.723 34.0684 297.745 33.825 297.767 33.5816C297.856 32.9179 297.923 32.2318 297.989 31.5682ZM300.755 28.1384L298.52 25.9261L300.755 23.7134L302.968 25.9261L300.755 28.1384ZM295.245 18.2041L297.458 20.4163L295.245 22.6291L293.031 20.4163L295.245 18.2041ZM297.989 19.8854L295.776 17.6727L297.17 16.2568C297.391 16.0579 297.679 15.9248 297.989 15.9248C298.299 15.9248 298.586 16.0579 298.808 16.2568L300.202 17.6727L297.989 19.8854ZM298.808 30.0857H298.786C298.586 30.307 298.299 30.4177 297.989 30.4177C297.701 30.4177 297.413 30.307 297.192 30.0857L295.776 28.6697L297.989 26.457L300.202 28.6697L298.808 30.0857ZM296.528 30.5059L296.639 30.6166C296.661 30.6166 296.661 30.6166 296.661 30.6386C296.683 30.6386 296.683 30.6386 296.683 30.6386V30.6611H296.705C296.705 30.6611 296.705 30.6832 296.728 30.6832C296.728 30.6832 296.728 30.6832 296.75 30.7052L296.794 30.7493H296.816V30.7713H296.838V30.7938C296.993 30.882 297.126 30.9707 297.303 31.0372L297.258 31.3909C297.192 32.077 297.104 32.7627 297.037 33.4488C297.015 33.6702 296.993 33.9136 296.949 34.1345C296.949 34.2011 296.949 34.2677 296.949 34.3338C296.926 34.3338 296.904 34.3338 296.904 34.3338C296.661 34.4225 296.396 34.4666 296.152 34.4886C296.063 34.5107 295.975 34.5331 295.864 34.5331C295.753 34.5552 295.643 34.5772 295.51 34.5772C295.533 34.4886 295.555 34.4004 295.577 34.3118C295.621 34.0243 295.687 33.7584 295.753 33.4709C295.997 32.4752 296.263 31.4795 296.528 30.5059ZM300.467 34.5772C300.357 34.5772 300.224 34.5552 300.113 34.5331C300.025 34.5331 299.936 34.5107 299.848 34.4886C299.604 34.4666 299.339 34.4225 299.095 34.3338C299.073 34.3338 299.051 34.3338 299.051 34.3338C299.051 34.2677 299.029 34.2011 299.029 34.1345C299.007 33.9136 298.985 33.6702 298.94 33.4488C298.874 32.7627 298.808 32.077 298.741 31.3909L298.697 31.0372C298.83 30.9927 298.94 30.9266 299.051 30.8379C299.073 30.8379 299.073 30.8379 299.073 30.8379L299.095 30.8159H299.118C299.118 30.7938 299.118 30.7938 299.118 30.7938H299.14C299.14 30.7938 299.14 30.7938 299.14 30.7713C299.162 30.7713 299.162 30.7713 299.162 30.7713C299.228 30.7272 299.272 30.6832 299.317 30.6386L299.45 30.5059C299.715 31.4795 299.98 32.4752 300.224 33.4709C300.29 33.7584 300.357 34.0243 300.423 34.3118C300.445 34.4004 300.467 34.4886 300.467 34.5772ZM300.202 23.1825L297.989 25.3948L295.776 23.1825L297.989 20.9477L300.202 23.1825ZM292.501 20.9477L294.714 23.1825L292.501 25.3948L291.084 23.9788C290.863 23.7575 290.752 23.47 290.752 23.1825C290.752 22.8725 290.863 22.585 291.084 22.3636L292.501 20.9477ZM293.031 25.9261L295.245 23.7134L297.458 25.9261L295.245 28.1384L293.031 25.9261ZM300.755 22.6291L298.52 20.4163L300.755 18.2041L302.968 20.4163L300.755 22.6291ZM301.286 23.1825L303.499 20.9477L304.894 22.3636C305.115 22.585 305.248 22.8725 305.248 23.1825C305.248 23.47 305.137 23.7575 304.916 23.9568L303.499 25.3948L301.286 23.1825Z" fill="#D4D766"/>
<path d="M68 3.03906L64.5859 -0.489583H61.4073L63.8168 -2.89974L63.6495 -7.57321L58.7384 -7.65422L56.4896 -5.40538V-8.81467L53.0666 -12L49.5375 -8.58594V-5.40538L47.3312 -7.61155L42.3704 -7.602L42.5137 -2.59867L44.6223 -0.489583H41.5027L38 3.0246L41.639 6.46253H44.6223L42.4159 8.66884L42.4251 13.6296L47.429 13.4863L49.5375 11.3777V14.4973L53.0522 18L56.4896 14.361V11.3802L58.8997 13.7898L63.5732 13.6218L63.6536 8.71137L61.4048 6.46267H64.8147L68 3.03906ZM56.4896 -4.00087L59.1434 -6.65394L62.6905 -6.59578L62.8087 -3.29644L60.0026 -0.489583H56.4896V-4.00087ZM50.5304 -8.16536L53.0799 -10.6308L55.4965 -8.38194V-4.41175L53.0137 -1.92896L50.5304 -4.41175V-8.16536ZM43.4948 -3.02156L43.3922 -6.61082L46.9209 -6.61733L49.5375 -4.00087V-0.489583H46.0268L43.4948 -3.02156ZM42.0339 5.46904L39.4232 3.00362L41.9149 0.503471H45.6152L48.0979 2.98625L45.6152 5.46904H42.0339ZM49.5375 9.97324L47.0059 12.5052L43.4162 12.6078L43.4102 9.07914L46.0268 6.46267H49.5375V9.97324ZM55.4965 13.9661L53.0307 16.5762L50.5304 14.0843V10.3848L53.0132 7.90205L55.4965 10.3866V13.9661ZM55.4965 5.46904V8.98134L53.0137 6.49682L50.5304 8.98018V5.46904H47.0198L49.5026 2.98625L47.0198 0.503327H50.5304V-3.00723L53.0137 -0.52445L55.4965 -3.00723V0.503327H59.0084L56.5245 2.98625L59.0072 5.46904H55.4965ZM62.6539 9.11574L62.5958 12.663L59.2959 12.7818L56.4896 9.97497V6.46253H60.0009L62.6539 9.11574ZM60.4117 5.46904L57.929 2.98625L60.4136 0.503327H64.1654L66.6308 3.05281L64.3819 5.46904H60.4117Z" fill="#42C56E"/>
<path d="M197 14L197.944 17.0556H201L198.528 18.9444L199.473 22L197 20.1117L194.528 22L195.473 18.9444L193 17.0556H196.056L197 14Z" fill="#42C56E"/>
<path d="M114.5 9L115.09 10.9098H117L115.455 12.0902L116.045 14L114.5 12.8198L112.955 14L113.545 12.0902L112 10.9098H113.91L114.5 9Z" fill="#42C56E"/>
<path d="M18 32L18.7083 34.2917H21L19.1461 35.7083L19.8544 38L18 36.5837L16.1461 38L16.8544 35.7083L15 34.2917H17.2919L18 32Z" fill="#42C56E"/>
<path d="M176 0C150.271 23.7522 68.5 43.5 0 7.5" stroke="#E6D412"/>
<path d="M95 0C91 19.5 51 50.5 -0.5 50.5" stroke="#E6D412"/>
<path fill-rule="evenodd" clip-rule="evenodd" d="M275.989 42.086C271.078 33.3211 258.49 28.0516 250.96 23.1761C246.671 20.4022 242.906 17.4475 239.878 14C236.85 17.4467 233.101 20.4015 228.812 23.1761C220.971 28.2482 208.611 33.4191 203.75 42.1518C202.604 44.0396 201.671 46.0748 201 48.2415C201.737 46.8957 203.619 46.1077 204.831 45.3361C205.469 44.9092 206.042 44.4665 206.516 43.9409C206.975 44.4665 207.548 44.9092 208.203 45.3361C209.022 45.8617 210.151 46.403 211.035 47.1252V45.0901C211.035 43.6785 212.181 42.5293 213.589 42.5293H213.54C212.967 42.5293 212.509 42.0531 212.509 41.4789C212.509 41.1507 212.656 40.8553 212.918 40.6587C212.673 40.166 212.509 39.6733 212.476 39.2307C212.247 35.7667 216.486 34.1585 218.909 32.5989C219.925 31.926 220.808 31.2366 221.528 30.4157C222.249 31.2366 223.149 31.926 224.164 32.5989C226.586 34.1585 230.826 35.7675 230.597 39.2307C230.565 39.674 230.401 40.166 230.155 40.6587C230.401 40.8553 230.565 41.1507 230.565 41.4789C230.565 42.0538 230.09 42.5293 229.517 42.5293H229.484C230.876 42.5293 232.038 43.6785 232.038 45.0901V47.1252C232.905 46.403 234.052 45.8617 234.87 45.3361C235.525 44.9092 236.097 44.4665 236.556 43.9409C237.014 44.4665 237.587 44.9092 238.242 45.3361C239.797 46.3544 242.515 47.3712 242.368 49.5873C242.351 49.8826 242.236 50.1944 242.09 50.5226C242.254 50.6378 242.351 50.8344 242.351 51.0482C242.351 51.4093 242.057 51.7211 241.68 51.7211H241.647C242.27 51.7211 242.81 52.0658 243.088 52.5742L243.678 39.9021H243.465C243.072 39.9021 242.745 39.5738 242.745 39.1798C242.745 38.9503 242.86 38.7529 243.023 38.6221C242.811 38.326 242.63 37.9163 242.614 37.588C242.548 36.3566 243.743 35.7989 244.431 35.2404C244.709 35.0108 244.97 34.7477 245.167 34.4688C245.38 34.7477 245.625 35.0101 245.92 35.2404C246.591 35.7989 247.786 36.3566 247.721 37.588C247.704 37.9163 247.525 38.3267 247.311 38.6221C247.491 38.7529 247.59 38.9503 247.59 39.1798C247.59 39.5738 247.262 39.9021 246.869 39.9021H246.657L247.247 52.5907C247.59 51.5566 248.572 50.8015 249.719 50.8015H249.67C249.097 50.8015 248.606 50.3252 248.606 49.7346C248.606 49.3899 248.77 49.0781 249.031 48.8979C248.786 48.3895 248.622 47.8796 248.589 47.437C248.344 43.9073 252.665 42.2662 255.137 40.6744C256.184 40.0015 257.085 39.2793 257.822 38.4419C258.558 39.2785 259.459 40.0007 260.49 40.6744C262.962 42.2662 267.284 43.908 267.054 47.437C267.021 47.8804 266.857 48.3888 266.612 48.8979C266.857 49.0781 267.021 49.3899 267.021 49.7346C267.021 50.326 266.546 50.8015 265.957 50.8015H265.924C267.349 50.8015 268.511 51.9664 268.511 53.3951V55.4804C269.411 54.7417 270.573 54.1996 271.408 53.6583C272.079 53.2314 272.652 52.7716 273.127 52.2303C273.602 52.7716 274.175 53.2314 274.846 53.6583C276.434 54.6923 279.201 55.7428 279.053 57.9918C279.037 58.2871 278.922 58.6153 278.775 58.9436C278.938 59.0587 279.037 59.2553 279.037 59.4849C279.037 59.846 278.726 60.1578 278.349 60.1578H278.333C278.873 60.1578 279.348 60.4209 279.659 60.8307C279.888 59.3862 280.003 57.9088 280.003 56.415C280.003 51.1619 278.546 46.2542 275.993 42.0845L275.989 42.086ZM277.61 61.6194C277.184 61.6194 276.84 61.9641 276.84 62.391V64H278.379V62.391C278.379 61.9641 278.035 61.6194 277.61 61.6194ZM274.188 61.6194C273.763 61.6194 273.419 61.9641 273.419 62.391V64H274.958V62.391C274.958 61.9641 274.614 61.6194 274.188 61.6194ZM270.767 61.6194C270.358 61.6194 269.998 61.9641 269.998 62.391V64H271.536V62.391C271.536 61.9641 271.193 61.6194 270.767 61.6194ZM221.527 44.7454C222.837 44.7454 223.916 45.8288 223.916 47.1417V52.148H219.137V47.1417C219.137 45.828 220.217 44.7454 221.526 44.7454H221.527ZM214.652 44.7454C215.29 44.7454 215.831 45.2867 215.831 45.9275V48.3895H213.473V45.9275C213.473 45.2875 214.014 44.7454 214.652 44.7454ZM228.419 44.7454C227.764 44.7454 227.24 45.2867 227.24 45.9275V48.3895H229.581V45.9275C229.581 45.2875 229.057 44.7454 228.419 44.7454ZM202.112 53.1499C202.522 53.1499 202.865 53.4789 202.865 53.905V55.4811H201.359V53.905C201.359 53.4781 201.703 53.1499 202.112 53.1499ZM205.468 53.1499C205.877 53.1499 206.221 53.4789 206.221 53.905V55.4811H204.715V53.905C204.715 53.4781 205.059 53.1499 205.468 53.1499ZM208.824 53.1499C209.233 53.1499 209.577 53.4789 209.577 53.905V55.4811H208.071V53.905C208.071 53.4781 208.398 53.1499 208.824 53.1499ZM240.958 53.1499C240.532 53.1499 240.205 53.4789 240.205 53.905V55.4811H241.711V53.905C241.711 53.4781 241.367 53.1499 240.958 53.1499ZM237.602 53.1499C237.176 53.1499 236.849 53.4789 236.849 53.905V55.4811H238.355V53.905C238.355 53.4781 238.011 53.1499 237.602 53.1499ZM234.246 53.1499C233.837 53.1499 233.493 53.4789 233.493 53.905V55.4811H234.999V53.905C234.999 53.4781 234.656 53.1499 234.246 53.1499ZM245.165 41.1342C245.558 41.1342 245.869 41.446 245.869 41.84V43.3009H244.461V41.84C244.461 41.446 244.788 41.1342 245.165 41.1342ZM245.165 49.2097C245.64 49.2097 246.032 49.6037 246.032 50.08V51.9021H244.297V50.08C244.297 49.6037 244.69 49.2097 245.165 49.2097Z" fill="#D4D766"/>
</svg>
