<svg width="69" height="64" viewBox="0 0 69 64" fill="none" xmlns="http://www.w3.org/2000/svg">
<mask id="mask0_2225_4245" style="mask-type:alpha" maskUnits="userSpaceOnUse" x="0" y="0" width="69" height="64">
<rect width="69" height="64" fill="url(#paint0_radial_2225_4245)"/>
</mask>
<g mask="url(#mask0_2225_4245)">
<path d="M50 6.53255L47.1549 3.59201H44.5061L46.514 1.58355L46.3745 -2.311L42.282 -2.37852L40.408 -0.504485V-3.34556L37.5555 -6L34.6146 -3.15495V-0.504485L32.776 -2.34295L28.642 -2.335L28.7615 1.83444L30.5185 3.59201H27.919L25 6.5205L28.0325 9.38544H30.5185L28.68 11.224L28.6875 15.358L32.8575 15.2385L34.6146 13.4815V16.081L37.5435 19L40.408 15.9675V13.4835L42.4165 15.4915L46.311 15.3515L46.378 11.2595L44.504 9.38556H47.3456L50 6.53255ZM40.408 0.665943L42.6195 -1.54495L45.5754 -1.49648L45.6739 1.25297L43.3355 3.59201H40.408V0.665943ZM35.442 -2.80447L37.5666 -4.85899L39.5804 -2.98495V0.323544L37.5115 2.39253L35.442 0.323544V-2.80447ZM29.579 1.48204L29.4935 -1.50902L32.4341 -1.51444L34.6146 0.665943V3.59201H31.689L29.579 1.48204ZM28.3615 8.55753L26.186 6.50301L28.2624 4.41956H31.346L33.415 6.48855L31.346 8.55753H28.3615ZM34.6146 12.311L32.5049 14.421L29.5135 14.5065L29.5085 11.5659L31.689 9.38556H34.6146V12.311ZM39.5804 15.6385L37.5256 17.8135L35.442 15.737V12.654L37.511 10.585L39.5804 12.6555V15.6385ZM39.5804 8.55753V11.4844L37.5115 9.41401L35.442 11.4835V8.55753H32.5165L34.5855 6.48855L32.5165 4.41944H35.442V1.49397L37.5115 3.56296L39.5804 1.49397V4.41944H42.507L40.437 6.48855L42.506 8.55753H39.5804ZM45.5449 11.5965L45.4965 14.5525L42.7466 14.6515L40.408 12.3125V9.38544H43.3341L45.5449 11.5965ZM43.6765 8.55753L41.6075 6.48855L43.678 4.41944H46.8045L48.859 6.54401L46.985 8.55753H43.6765Z" fill="#42C5A5"/>
<path d="M25.4901 46.072C25.6939 45.9263 25.8917 45.7733 26.0831 45.6124C26.275 45.4514 26.4601 45.2831 26.6393 45.1079C26.8179 44.9322 26.9897 44.7502 27.1542 44.5617C27.3191 44.3732 27.4762 44.1783 27.6259 43.9775C27.7756 43.7762 27.9175 43.57 28.051 43.3584C28.1845 43.1463 28.3102 42.9298 28.427 42.7078C28.5438 42.4864 28.6523 42.2605 28.7519 42.0307C28.8511 41.8009 28.9419 41.5671 29.0234 41.3304C29.1049 41.0932 29.177 40.8535 29.2399 40.6109C29.3027 40.3683 29.3562 40.1232 29.4004 39.8767C29.4446 39.6301 29.4789 39.3816 29.5039 39.1326C29.5285 38.8831 29.5437 38.6331 29.5496 38.3821C29.555 38.1316 29.5511 37.8811 29.5368 37.6311C29.5231 37.3806 29.5 37.1311 29.4666 36.8826C29.4338 36.6341 29.391 36.3875 29.339 36.1424C29.287 35.8969 29.2251 35.6542 29.1545 35.4141C29.0833 35.1734 29.0033 34.9362 28.9139 34.702C28.8251 34.4677 28.7269 34.2374 28.6199 34.011C28.5129 33.7842 28.397 33.5622 28.2729 33.3447C28.1487 33.1272 28.0161 32.9146 27.8757 32.7074C27.7349 32.4997 27.5866 32.2985 27.4305 32.1026C27.2744 31.9067 27.1105 31.7173 26.9397 31.5342C26.7689 31.3511 26.5916 31.1744 26.4071 31.0052C26.2225 30.8359 26.0316 30.674 25.8347 30.5194C25.6379 30.3649 25.4352 30.2182 25.227 30.0795C25.0184 29.9407 24.8054 29.8098 24.587 29.6877C24.3685 29.5657 24.1457 29.452 23.9184 29.3467C23.6911 29.2419 23.4604 29.1459 23.2258 29.0588C22.9912 28.9717 22.7536 28.8939 22.5131 28.825C22.2725 28.7566 22.0296 28.6971 21.7846 28.6474C21.5392 28.5977 21.2923 28.5573 21.0444 28.5268C20.796 28.4963 20.5467 28.4751 20.2968 28.4638C20.4642 28.4146 20.6326 28.3693 20.8024 28.328C20.9717 28.2867 21.1421 28.2488 21.3134 28.2153C21.4847 28.1818 21.6565 28.1518 21.8288 28.1262C22.0016 28.1001 22.1744 28.0785 22.3481 28.0603C22.5214 28.0426 22.6957 28.0288 22.8694 28.0185C23.0437 28.0086 23.2179 28.0027 23.3927 28.0007C23.5669 27.9988 23.7417 28.0007 23.9159 28.0066C24.0902 28.0125 24.2645 28.0229 24.4382 28.0367C24.612 28.0504 24.7858 28.0687 24.9585 28.0903C25.1318 28.112 25.3041 28.138 25.4764 28.1676C25.6482 28.1976 25.8195 28.2311 25.9898 28.2685C26.1602 28.3063 26.3295 28.3477 26.4979 28.393C26.6668 28.4382 26.8341 28.4874 27 28.5406C27.1665 28.5933 27.3314 28.6498 27.4953 28.7104C27.6588 28.7709 27.8213 28.8354 27.9818 28.9033C28.1428 28.9712 28.3018 29.0426 28.4594 29.1179C28.617 29.1932 28.7726 29.2719 28.9262 29.3541C29.0803 29.4363 29.232 29.5224 29.3822 29.6115C29.5324 29.7005 29.6802 29.7931 29.826 29.8895C29.9717 29.9855 30.1156 30.0844 30.2564 30.1872C30.3978 30.2896 30.5367 30.3954 30.6732 30.5042C30.8096 30.6134 30.9436 30.7251 31.0752 30.8403C31.2063 30.9554 31.3349 31.0731 31.461 31.1941C31.5872 31.3152 31.7104 31.4387 31.8306 31.5652C31.9509 31.6917 32.0687 31.8211 32.1831 31.953C32.2975 32.0849 32.4089 32.2192 32.5174 32.3565C32.6258 32.4933 32.7309 32.6326 32.833 32.7748C32.9351 32.9166 33.0337 33.0603 33.129 33.2069C33.2247 33.3531 33.3165 33.5017 33.4053 33.6523C33.4942 33.8024 33.5796 33.9549 33.6611 34.1095C33.743 34.264 33.8211 34.42 33.8957 34.578C33.9703 34.7359 34.0415 34.8959 34.1087 35.0568C34.1765 35.2182 34.2398 35.3811 34.3002 35.545C34.3601 35.7094 34.416 35.8747 34.4685 36.0415C34.5211 36.2084 34.5697 36.3762 34.6148 36.545C34.6595 36.7138 34.7002 36.8841 34.7375 37.0548C34.7748 37.2256 34.8077 37.3968 34.8372 37.5696C34.8666 37.7418 34.8917 37.9146 34.9133 38.0883C34.9349 38.2615 34.952 38.4357 34.9658 38.6099C34.979 38.7841 34.9889 38.9588 34.9943 39.1336C34.9997 39.3083 35.0011 39.483 34.9992 39.6577C34.9967 39.8324 34.9903 40.0071 34.98 40.1818C34.9697 40.356 34.955 40.5302 34.9368 40.7044C34.9187 40.8781 34.8966 41.0514 34.8701 41.2241C34.8441 41.3973 34.8141 41.5691 34.7802 41.7408C34.7459 41.9121 34.7081 42.0828 34.6664 42.2526C34.6246 42.4224 34.579 42.5912 34.5294 42.7585C34.4803 42.9263 34.4268 43.0927 34.3699 43.258C34.3129 43.4234 34.2521 43.5873 34.1878 43.7497C34.1235 43.9121 34.0552 44.073 33.9836 44.2319C33.9114 44.3914 33.8363 44.5489 33.7573 44.7049C33.6783 44.8609 33.5958 45.0149 33.5099 45.167C33.424 45.319 33.3346 45.4691 33.2419 45.6173C33.1491 45.7654 33.0529 45.9111 32.9532 46.0548C32.8541 46.1985 32.751 46.3397 32.6455 46.4785C32.5394 46.6178 32.4305 46.7541 32.3186 46.8879C32.2062 47.0218 32.0913 47.1532 31.973 47.2821C31.8552 47.4106 31.7344 47.5366 31.6102 47.6601C31.4865 47.7831 31.3599 47.9032 31.2308 48.0208C31.1017 48.1384 30.9697 48.2526 30.8352 48.3638C30.7007 48.4755 30.5637 48.5838 30.4243 48.6886C30.2849 48.7939 30.1431 48.8958 29.9992 48.9942C29.8554 49.0931 29.7091 49.1881 29.5604 49.2802C29.4122 49.3722 29.2619 49.4608 29.1093 49.5459C28.9571 49.631 28.803 49.7127 28.6469 49.7905C28.4903 49.8687 28.3327 49.943 28.1732 50.0139C28.0137 50.0848 27.8527 50.1517 27.6902 50.2152C27.5277 50.2787 27.3638 50.3387 27.1984 50.3943C27.0329 50.4504 26.8665 50.5026 26.6991 50.5508C26.5313 50.5995 26.3629 50.6438 26.1931 50.6847C26.0232 50.725 25.8529 50.7619 25.6816 50.7949C25.5103 50.8279 25.338 50.8569 25.1652 50.8815C24.9929 50.9066 24.8196 50.9278 24.6459 50.945C24.4721 50.9617 24.2983 50.975 24.1241 50.9844C23.9498 50.9932 23.7756 50.9986 23.6013 50.9996C23.4266 51.0011 23.2523 50.9982 23.078 50.9913C22.9038 50.9844 22.7295 50.9735 22.5558 50.9593C22.382 50.9445 22.2082 50.9258 22.0354 50.9027C21.8627 50.88 21.6899 50.8535 21.5181 50.823C21.3463 50.7924 21.1755 50.758 21.0051 50.7196C20.8353 50.6812 20.6659 50.6394 20.4976 50.5931C20.3292 50.5469 20.1623 50.4972 19.9959 50.4435C19.83 50.3894 19.6656 50.3323 19.5021 50.2708C19.3386 50.2098 19.1767 50.1448 19.0161 50.0759C18.8556 50.0075 18.6971 49.9352 18.54 49.8589C18.3824 49.7831 18.2273 49.7039 18.0737 49.6207C17.92 49.5375 17.7689 49.4514 17.6191 49.3613C17.4694 49.2713 17.3222 49.1778 17.1764 49.0813C17.0311 48.9849 16.8882 48.8845 16.7474 48.7816C16.6065 48.6783 16.4681 48.572 16.3321 48.4622C16.1961 48.353 16.0626 48.2403 15.932 48.1246C15.801 48.009 15.6729 47.8904 15.5477 47.7688C15.422 47.6473 15.2993 47.5233 15.1795 47.3958C15.0598 47.2688 14.9429 47.1389 14.8291 47.0065C14.7152 46.8742 14.6043 46.7393 14.4968 46.6015C14.3893 46.4642 14.2847 46.3245 14.1831 46.1822C14.1193 46.0927 14.0609 46.0011 14 45.9096C14.2047 46.0651 14.4148 46.2118 14.6308 46.35C14.8467 46.4883 15.0676 46.6178 15.2939 46.7388C15.5202 46.8594 15.7509 46.9711 15.986 47.074C16.2212 47.1763 16.4597 47.2693 16.7022 47.3525C16.9447 47.4362 17.1901 47.51 17.4385 47.574C17.6864 47.6379 17.9367 47.6921 18.1895 47.7364C18.4418 47.7802 18.6961 47.8146 18.9513 47.8382C19.2066 47.8623 19.4623 47.8761 19.7186 47.8796C19.9748 47.8835 20.231 47.8766 20.4868 47.8599C20.7425 47.8432 20.9973 47.8166 21.251 47.7797C21.5048 47.7423 21.7566 47.6955 22.0065 47.6384C22.2563 47.5813 22.5037 47.5149 22.7487 47.4381C22.9931 47.3614 23.2346 47.2752 23.4722 47.1793C23.7103 47.0838 23.9439 46.9785 24.1737 46.8643C24.4029 46.7497 24.6277 46.6266 24.8476 46.4942C25.0675 46.3624 25.2815 46.2216 25.4901 46.072Z" fill="#D4D766"/>
<path d="M53 47L53.7083 49.2917H56L54.1461 50.7083L54.8544 53L53 51.5837L51.1461 53L51.8544 50.7083L50 49.2917H52.2919L53 47Z" fill="#42C5A5"/>
<path d="M9.5 8L10.0903 9.90978H12L10.4551 11.0902L11.0454 13L9.5 11.8198L7.95508 13L8.54535 11.0902L7 9.90978H8.90995L9.5 8Z" fill="#42C5A5"/>
</g>
<defs>
<radialGradient id="paint0_radial_2225_4245" cx="0" cy="0" r="1" gradientUnits="userSpaceOnUse" gradientTransform="translate(57.2125 -108.5) rotate(95.6992) scale(291.441 55.6625)">
<stop stop-color="white"/>
<stop offset="1" stop-color="#C82120"/>
</radialGradient>
</defs>
</svg>
