<svg width="60" height="64" viewBox="0 0 60 64" fill="none" xmlns="http://www.w3.org/2000/svg">
<path d="M18.0313 22H32.9687C33.0366 22 33.1036 22.0032 33.1699 22.0095C33.2362 22.0159 33.301 22.0254 33.3635 22.038C33.4261 22.0506 33.4854 22.066 33.5417 22.0843C33.5979 22.1025 33.65 22.1232 33.698 22.1463C33.7457 22.1696 33.7887 22.1949 33.8263 22.2222C33.8639 22.2494 33.8958 22.2782 33.9217 22.3086C33.9476 22.3389 33.9671 22.3702 33.9801 22.4023C33.9934 22.4345 34 22.4671 34 22.4999V22.5001C34 22.5329 33.9934 22.5653 33.9801 22.5975C33.9671 22.6297 33.9476 22.6609 33.9217 22.6913C33.8958 22.7216 33.8639 22.7504 33.8263 22.7778C33.7887 22.8051 33.7457 22.8304 33.698 22.8535C33.65 22.8768 33.5979 22.8975 33.5417 22.9157C33.4854 22.934 33.4261 22.9493 33.3635 22.9619C33.301 22.9744 33.2362 22.9839 33.1699 22.9903C33.1036 22.9968 33.0366 23 32.9687 23H18.0313C17.9637 23 17.8968 22.9968 17.8301 22.9903C17.7638 22.9839 17.6993 22.9744 17.6368 22.9619C17.5743 22.9493 17.5149 22.934 17.4583 22.9157C17.4021 22.8975 17.35 22.8768 17.3023 22.8535C17.2543 22.8304 17.2116 22.8051 17.174 22.7778C17.1361 22.7504 17.1046 22.7216 17.0787 22.6913C17.0528 22.6609 17.0332 22.6297 17.0199 22.5975C17.0066 22.5653 17 22.5329 17 22.5001V22.4999C17 22.4671 17.0066 22.4345 17.0199 22.4023C17.0332 22.3702 17.0528 22.3389 17.0787 22.3086C17.1046 22.2782 17.1361 22.2494 17.174 22.2222C17.2116 22.1949 17.2543 22.1696 17.3023 22.1463C17.35 22.1232 17.4021 22.1025 17.4583 22.0843C17.5149 22.066 17.5743 22.0506 17.6368 22.038C17.6993 22.0254 17.7638 22.0159 17.8301 22.0095C17.8968 22.0032 17.9637 22 18.0313 22Z" fill="#D4D766"/>
<path d="M20.8591 19H30.1409C30.2018 19 30.2626 19.0022 30.3232 19.0063C30.3838 19.0104 30.4441 19.0165 30.5037 19.0245C30.5633 19.0327 30.6223 19.0429 30.6807 19.055C30.739 19.0672 30.7961 19.0813 30.8523 19.0973C30.9088 19.1131 30.9636 19.1311 31.0173 19.1508C31.0709 19.1706 31.1233 19.192 31.1738 19.2152C31.2245 19.2384 31.2731 19.2633 31.3205 19.2898C31.3675 19.3164 31.4126 19.3444 31.4555 19.3739C31.4987 19.4036 31.5394 19.4343 31.5779 19.4668C31.6167 19.4991 31.653 19.5325 31.6867 19.5674C31.7205 19.6021 31.7517 19.6378 31.7804 19.6749C31.8091 19.7117 31.8353 19.7495 31.8583 19.788C31.8817 19.8266 31.9022 19.8661 31.9199 19.9059C31.9375 19.946 31.9524 19.9866 31.9644 20.0275C31.976 20.0685 31.9852 20.1099 31.9912 20.1515C31.9972 20.1931 32 20.2347 32 20.2765V21H19V20.2765C19 20.2347 19.0032 20.1931 19.0091 20.1515C19.0151 20.1099 19.024 20.0685 19.036 20.0275C19.0476 19.9866 19.0625 19.946 19.0801 19.9059C19.0978 19.8661 19.1183 19.8266 19.1417 19.788C19.165 19.7495 19.1909 19.7117 19.2196 19.6749C19.2483 19.6378 19.2795 19.6021 19.3136 19.5674C19.3473 19.5325 19.3836 19.4991 19.4221 19.4668C19.4606 19.4343 19.5016 19.4036 19.5445 19.3739C19.5877 19.3444 19.6329 19.3164 19.6799 19.2898C19.7269 19.2633 19.7758 19.2384 19.8262 19.2152C19.877 19.192 19.9291 19.1706 19.9827 19.1508C20.0367 19.1311 20.0916 19.1131 20.1477 19.0973C20.2039 19.0813 20.2613 19.0672 20.3197 19.055C20.3777 19.0429 20.4367 19.0327 20.4966 19.0245C20.5563 19.0165 20.6165 19.0104 20.6771 19.0063C20.7377 19.0022 20.7982 19 20.8591 19Z" fill="#D4D766"/>
<path d="M18.0313 32H32.9687C33.0366 32 33.1036 32.0032 33.1699 32.0095C33.2362 32.0159 33.301 32.0254 33.3635 32.038C33.4261 32.0506 33.4854 32.066 33.5417 32.0843C33.5979 32.1025 33.65 32.1232 33.698 32.1463C33.7457 32.1696 33.7887 32.1949 33.8263 32.2222C33.8639 32.2494 33.8958 32.2782 33.9217 32.3086C33.9476 32.3389 33.9671 32.3702 33.9801 32.4023C33.9934 32.4345 34 32.4671 34 32.4999V32.5001C34 32.5329 33.9934 32.5653 33.9801 32.5975C33.9671 32.6297 33.9476 32.6609 33.9217 32.6913C33.8958 32.7216 33.8639 32.7504 33.8263 32.7778C33.7887 32.8051 33.7457 32.8304 33.698 32.8535C33.65 32.8768 33.5979 32.8975 33.5417 32.9157C33.4854 32.934 33.4261 32.9493 33.3635 32.9619C33.301 32.9744 33.2362 32.9839 33.1699 32.9903C33.1036 32.9968 33.0366 33 32.9687 33H18.0313C17.9637 33 17.8968 32.9968 17.8301 32.9903C17.7638 32.9839 17.6993 32.9744 17.6368 32.9619C17.5743 32.9493 17.5149 32.934 17.4583 32.9157C17.4021 32.8975 17.35 32.8768 17.3023 32.8535C17.2543 32.8304 17.2116 32.8051 17.174 32.7778C17.1361 32.7504 17.1046 32.7216 17.0787 32.6913C17.0528 32.6609 17.0332 32.6297 17.0199 32.5975C17.0066 32.5653 17 32.5329 17 32.5001V32.4999C17 32.4671 17.0066 32.4345 17.0199 32.4023C17.0332 32.3702 17.0528 32.3389 17.0787 32.3086C17.1046 32.2782 17.1361 32.2494 17.174 32.2222C17.2116 32.1949 17.2543 32.1696 17.3023 32.1463C17.35 32.1232 17.4021 32.1025 17.4583 32.0843C17.5149 32.066 17.5743 32.0506 17.6368 32.038C17.6993 32.0254 17.7638 32.0159 17.8301 32.0095C17.8968 32.0032 17.9637 32 18.0313 32Z" fill="#D4D766"/>
<path d="M19.2454 33H32.4754C32.4754 33.149 32.4683 33.2976 32.4535 33.4456C32.4391 33.594 32.4172 33.741 32.388 33.8871C32.3591 34.0332 32.3229 34.1776 32.2795 34.3199C32.2362 34.4624 32.1861 34.6027 32.1293 34.7401C32.0721 34.8778 32.0085 35.0124 31.9382 35.1437C31.8679 35.275 31.7915 35.4024 31.7087 35.5264C31.6259 35.6503 31.5372 35.7697 31.4428 35.8847C31.3481 35.9999 31.2483 36.1101 31.143 36.2154C31.0377 36.3207 30.9272 36.4205 30.812 36.5152C30.697 36.6096 30.5773 36.6982 30.4534 36.7811C30.3294 36.8639 30.202 36.9403 30.0703 37.0103C29.939 37.0806 29.8045 37.1442 29.6668 37.2013C29.529 37.2581 29.3891 37.3082 29.2465 37.3516C29.104 37.3949 28.9595 37.4309 28.8134 37.4601C28.6673 37.489 28.52 37.5108 28.3716 37.5256C28.2233 37.54 28.0747 37.5474 27.9257 37.5474H23.795C23.6461 37.5474 23.4974 37.54 23.3491 37.5256C23.2007 37.5108 23.0537 37.489 22.9073 37.4601C22.7612 37.4309 22.6168 37.3949 22.4742 37.3516C22.3317 37.3082 22.1917 37.2581 22.0539 37.2013C21.9162 37.1442 21.7817 37.0806 21.6504 37.0103C21.5187 36.9403 21.3913 36.8639 21.2674 36.7811C21.1434 36.6982 21.024 36.6096 20.9087 36.5152C20.7935 36.4205 20.6834 36.3207 20.5777 36.2154C20.4724 36.1101 20.3726 35.9999 20.2779 35.8847C20.1835 35.7697 20.0949 35.6503 20.012 35.5264C19.9292 35.4024 19.8528 35.275 19.7825 35.1437C19.7122 35.0124 19.6486 34.8778 19.5915 34.7401C19.5346 34.6027 19.4845 34.4624 19.4412 34.3199C19.3979 34.1776 19.3619 34.0332 19.3327 33.8871C19.3035 33.741 19.2816 33.594 19.2672 33.4456C19.2524 33.2976 19.2454 33.149 19.2454 33Z" fill="#D4D766"/>
<path d="M19 23H21V32H19V23Z" fill="#D4D766"/>
<path d="M30 23H32V32H30V23Z" fill="#D4D766"/>
<path d="M6.22 43.828C6.08677 43.733 5.95738 43.6331 5.83217 43.5281C5.70664 43.4231 5.5856 43.3133 5.46842 43.1991C5.35155 43.0844 5.23918 42.9656 5.13163 42.8427C5.02376 42.7197 4.92102 42.5926 4.8231 42.4616C4.72518 42.3303 4.63239 42.1958 4.54506 42.0577C4.45774 41.9193 4.37555 41.7781 4.29914 41.6333C4.22273 41.4888 4.15177 41.3414 4.0866 41.1915C4.02175 41.0416 3.96235 40.8891 3.90906 40.7346C3.85576 40.5799 3.80857 40.4235 3.76747 40.2653C3.72638 40.107 3.69138 39.9471 3.66249 39.7862C3.63359 39.6254 3.61112 39.4633 3.59474 39.3008C3.57869 39.138 3.56874 38.9749 3.56489 38.8112C3.56135 38.6478 3.56392 38.4844 3.57323 38.3213C3.58222 38.1579 3.59731 37.9951 3.61914 37.833C3.64066 37.6708 3.66859 37.51 3.70262 37.3501C3.73665 37.1899 3.7771 37.0316 3.82333 36.8749C3.86989 36.7179 3.92222 36.5632 3.98065 36.4104C4.03876 36.2575 4.10297 36.1073 4.17296 35.9596C4.24295 35.8116 4.31872 35.6668 4.39995 35.5249C4.48117 35.383 4.56786 35.2443 4.65968 35.1091C4.75182 34.9736 4.84878 34.8423 4.95088 34.7146C5.05297 34.5868 5.1602 34.4632 5.27193 34.3437C5.38366 34.2243 5.49956 34.109 5.62028 33.9986C5.74099 33.8882 5.86588 33.7825 5.99462 33.6817C6.12337 33.5809 6.25596 33.4852 6.39209 33.3947C6.52854 33.3042 6.66787 33.2188 6.81074 33.1391C6.95361 33.0595 7.09937 32.9854 7.24802 32.9167C7.39667 32.8483 7.54756 32.7857 7.70103 32.7288C7.85449 32.672 8.00988 32.6213 8.1672 32.5763C8.32451 32.5317 8.48344 32.4929 8.64364 32.4604C8.80417 32.428 8.96566 32.4017 9.12779 32.3818C9.29025 32.3619 9.45334 32.3481 9.61676 32.3407C9.50728 32.3086 9.39716 32.279 9.28607 32.2521C9.17531 32.2251 9.0639 32.2004 8.95185 32.1785C8.83981 32.1567 8.72744 32.1371 8.61475 32.1204C8.50174 32.1034 8.38873 32.0893 8.27507 32.0774C8.16174 32.0659 8.04777 32.0569 7.93411 32.0501C7.82014 32.0437 7.70616 32.0399 7.59187 32.0386C7.47789 32.0373 7.3636 32.0386 7.24962 32.0424C7.13565 32.0463 7.02168 32.053 6.90802 32.062C6.79437 32.071 6.68072 32.0829 6.56771 32.097C6.45437 32.1111 6.34168 32.1281 6.22899 32.1474C6.11662 32.167 6.00458 32.1888 5.89317 32.2132C5.78177 32.2379 5.671 32.2649 5.56088 32.2944C5.45044 32.324 5.34096 32.3561 5.23244 32.3908C5.1236 32.4251 5.01573 32.462 4.9085 32.5015C4.80159 32.541 4.69532 32.5831 4.59033 32.6274C4.48503 32.6717 4.38101 32.7182 4.27795 32.7674C4.17489 32.8165 4.07312 32.8679 3.97263 32.9215C3.87181 32.9751 3.77261 33.0313 3.67437 33.0894C3.57612 33.1475 3.47949 33.2078 3.38413 33.2708C3.28878 33.3334 3.19471 33.3979 3.10257 33.465C3.0101 33.5318 2.91925 33.6008 2.82999 33.6718C2.74074 33.743 2.65309 33.8159 2.56705 33.8911C2.48133 33.9662 2.39721 34.0429 2.3147 34.1219C2.23219 34.2009 2.15161 34.2815 2.07295 34.364C1.99429 34.4465 1.91724 34.5309 1.84243 34.617C1.76763 34.703 1.69475 34.7906 1.62379 34.8802C1.55284 34.9695 1.48413 35.0603 1.41736 35.1531C1.35058 35.2456 1.28604 35.3393 1.22376 35.435C1.16115 35.5304 1.10112 35.6273 1.04301 35.7256C0.984895 35.8235 0.929032 35.923 0.875737 36.0238C0.822121 36.1246 0.771073 36.2264 0.722273 36.3295C0.673473 36.4325 0.62692 36.5369 0.582935 36.6418C0.53863 36.7471 0.497214 36.8534 0.457724 36.9603C0.418556 37.0676 0.381955 37.1754 0.347603 37.2843C0.31325 37.3931 0.281466 37.5026 0.251929 37.6127C0.222713 37.7228 0.196065 37.8339 0.171665 37.9453C0.147265 38.0567 0.125754 38.1685 0.106491 38.2811C0.0872278 38.3935 0.070854 38.5062 0.0567276 38.6195C0.0426012 38.7325 0.0313644 38.8462 0.0223748 38.9599C0.0137064 39.0735 0.00728531 39.1875 0.00375369 39.3015C0.000222075 39.4154 -0.000741149 39.5294 0.00054315 39.6434C0.0021484 39.7574 0.00632215 39.8713 0.0130643 39.9853C0.0198064 40.099 0.029438 40.2126 0.041317 40.3263C0.053196 40.4396 0.0676435 40.5526 0.0849804 40.6653C0.101996 40.7783 0.121581 40.8904 0.143733 41.0024C0.166207 41.1141 0.190928 41.2255 0.218218 41.3363C0.245507 41.4471 0.275366 41.5572 0.307792 41.6663C0.339897 41.7758 0.374892 41.8843 0.412135 41.9922C0.449377 42.1001 0.489188 42.207 0.531246 42.3129C0.573304 42.4189 0.61793 42.5239 0.664804 42.6276C0.711999 42.7316 0.76112 42.8343 0.81281 42.9361C0.8645 43.0379 0.918437 43.1384 0.974621 43.2376C1.03081 43.3368 1.08924 43.4347 1.14992 43.5313C1.2106 43.628 1.27352 43.723 1.3387 43.8168C1.40355 43.9105 1.47097 44.0027 1.54 44.0932C1.60935 44.184 1.68062 44.273 1.75382 44.3603C1.82734 44.4476 1.90247 44.5334 1.97984 44.6175C2.0569 44.7013 2.13587 44.7835 2.2171 44.864C2.29801 44.9443 2.38084 45.0226 2.46528 45.0994C2.54971 45.1761 2.63608 45.2506 2.72405 45.3231C2.81201 45.396 2.90159 45.4667 2.99277 45.535C3.08395 45.6037 3.17673 45.6702 3.2708 45.7344C3.36487 45.7989 3.46054 45.8609 3.55782 45.9209C3.65478 45.981 3.75302 46.0388 3.85287 46.0943C3.9524 46.1499 4.05321 46.2032 4.1553 46.2539C4.25772 46.3049 4.36078 46.3534 4.46512 46.3996C4.56946 46.4459 4.67477 46.4895 4.78104 46.531C4.88731 46.5724 4.99454 46.6115 5.10274 46.6478C5.21093 46.6844 5.31977 46.7184 5.42925 46.7499C5.53905 46.7817 5.64917 46.8106 5.76025 46.8372C5.87134 46.8636 5.98275 46.8876 6.09479 46.9092C6.20684 46.9307 6.31953 46.9496 6.43254 46.9657C6.54523 46.982 6.65856 46.9958 6.77222 47.0071C6.88587 47.018 6.99952 47.0267 7.1135 47.0328C7.22747 47.0385 7.34145 47.0421 7.45542 47.0427C7.56972 47.0437 7.68369 47.0417 7.79766 47.0373C7.91164 47.0328 8.02561 47.0257 8.13927 47.0164C8.25292 47.0068 8.36657 46.9946 8.47958 46.9795C8.59259 46.9647 8.70561 46.9474 8.81797 46.9275C8.93034 46.9075 9.04207 46.8851 9.15348 46.86C9.26456 46.835 9.37532 46.8077 9.48545 46.7775C9.59557 46.7473 9.70473 46.7149 9.81356 46.6799C9.92208 46.6446 10.0296 46.6074 10.1365 46.5672C10.2435 46.5274 10.3494 46.485 10.4544 46.4401C10.5594 46.3955 10.6631 46.3483 10.7658 46.2985C10.8689 46.2491 10.9703 46.1974 11.0708 46.1431C11.1713 46.0889 11.2702 46.0327 11.3681 45.9739C11.466 45.9152 11.5623 45.8542 11.6577 45.7912C11.7527 45.7283 11.8462 45.6628 11.9383 45.5957C12.0304 45.5283 12.121 45.459 12.2099 45.3874C12.2988 45.3161 12.3862 45.2426 12.4716 45.1671C12.5573 45.0917 12.6411 45.0143 12.723 44.935C12.8051 44.8557 12.8854 44.7748 12.9637 44.6916C13.0421 44.6088 13.1185 44.524 13.193 44.4377C13.2675 44.3513 13.34 44.2633 13.4103 44.1735C13.4806 44.0839 13.549 43.9927 13.6155 43.8999C13.6572 43.8415 13.6954 43.7818 13.7352 43.722C13.6014 43.8235 13.4639 43.9192 13.3227 44.0094C13.1814 44.0996 13.0369 44.184 12.8889 44.263C12.7409 44.3417 12.59 44.4146 12.4363 44.4817C12.2825 44.5484 12.1264 44.6091 11.9678 44.6634C11.8092 44.718 11.6487 44.7661 11.4863 44.8079C11.3241 44.8496 11.1604 44.8849 10.995 44.9138C10.83 44.9424 10.6637 44.9649 10.4968 44.9803C10.3298 44.996 10.1625 45.005 9.99496 45.0072C9.82737 45.0098 9.65978 45.0053 9.49251 44.9944C9.32524 44.9835 9.15861 44.9661 8.99263 44.9421C8.82664 44.9177 8.66194 44.8872 8.49853 44.8499C8.33511 44.8127 8.1733 44.7693 8.01309 44.7192C7.85321 44.6692 7.69525 44.613 7.53986 44.5504C7.38415 44.4881 7.23132 44.4194 7.08107 44.3449C6.93114 44.2701 6.7841 44.1898 6.64026 44.1035C6.49643 44.0174 6.35645 43.9256 6.22 43.828Z" fill="#D4D766"/>
<path d="M30.6379 19.9862C30.5866 19.9862 30.5374 19.9748 30.4903 19.9521C30.4432 19.9293 30.4027 19.8971 30.3685 19.8554L25.5051 13.9738L20.6421 19.8558C20.6268 19.8763 20.6093 19.8948 20.5905 19.9119C20.5717 19.9286 20.5511 19.943 20.5294 19.9555C20.5078 19.9676 20.4851 19.9775 20.4617 19.9847C20.4384 19.9923 20.4143 19.9968 20.3899 19.9987C20.3655 20.001 20.3414 20.0002 20.317 19.9968C20.2925 19.9938 20.2688 19.9877 20.2458 19.9794C20.2228 19.9707 20.2004 19.9597 20.1795 19.9464C20.1582 19.9327 20.1387 19.9172 20.1205 19.8998C20.102 19.882 20.0856 19.8622 20.0713 19.841C20.0567 19.8198 20.0441 19.797 20.034 19.7732C20.0235 19.7489 20.0155 19.7239 20.0099 19.6981C20.0043 19.6723 20.0008 19.6462 20.0002 19.6197C19.9995 19.5931 20.0012 19.5666 20.005 19.5404C20.0092 19.5143 20.0159 19.4889 20.0246 19.4642C20.0336 19.4392 20.0448 19.4157 20.0581 19.3937C20.0713 19.3714 20.0863 19.3505 20.1034 19.3316L25.2361 13.1247C25.2536 13.105 25.2728 13.0872 25.2934 13.0716C25.3143 13.0565 25.3359 13.0432 25.3593 13.0326C25.3823 13.022 25.4064 13.0136 25.4308 13.0083C25.4556 13.003 25.4804 13 25.5055 13C25.531 13 25.5557 13.003 25.5805 13.0083C25.6049 13.0136 25.629 13.022 25.652 13.0326C25.6751 13.0432 25.697 13.0565 25.718 13.0716C25.7386 13.0872 25.7577 13.105 25.7752 13.1247L30.9079 19.3316C30.9309 19.36 30.9501 19.3911 30.9651 19.4256C30.9801 19.4597 30.9902 19.4957 30.9955 19.5329C31.0011 19.5704 31.0014 19.6079 30.9969 19.6454C30.9923 19.683 30.9829 19.7193 30.9686 19.7538C30.9543 19.7883 30.9358 19.8202 30.9131 19.849C30.8905 19.8778 30.8646 19.9024 30.8353 19.9233C30.806 19.9441 30.7746 19.9597 30.7411 19.9707C30.7076 19.9813 30.6734 19.9866 30.6386 19.9869L30.6379 19.9862Z" fill="#D4D766"/>
<path d="M25.2222 13.259C25.1926 13.259 25.1644 13.2533 25.1371 13.242C25.1098 13.2308 25.0857 13.2147 25.0652 13.1939C25.0443 13.1733 25.0283 13.1492 25.017 13.1219C25.0058 13.0947 25 13.0664 25 13.0372V-16.7782C25 -16.8074 25.0058 -16.8359 25.017 -16.8629C25.0283 -16.8902 25.0443 -16.9143 25.0652 -16.9348C25.0857 -16.9557 25.1098 -16.9717 25.1371 -16.983C25.1644 -16.9942 25.1926 -17 25.2222 -17C25.2514 -17 25.28 -16.9942 25.3069 -16.983C25.3342 -16.9717 25.3583 -16.9557 25.3792 -16.9348C25.4 -16.9143 25.4161 -16.8902 25.4273 -16.8629C25.4386 -16.8359 25.444 -16.8074 25.444 -16.7782V13.0372C25.444 13.0664 25.4386 13.0947 25.4273 13.1219C25.4161 13.1492 25.4 13.1733 25.3792 13.1939C25.3583 13.2147 25.3342 13.2308 25.3069 13.242C25.28 13.2533 25.2514 13.259 25.2222 13.259Z" fill="#D4D766"/>
<path d="M5.22185 32.9712C5.19263 32.9712 5.16406 32.9654 5.13709 32.9542C5.1098 32.9429 5.08572 32.9269 5.06485 32.906C5.04398 32.8851 5.02793 32.8611 5.01669 32.8341C5.00546 32.8068 5 32.7786 5 32.749V-13.7782C5 -13.8074 5.00546 -13.8359 5.01669 -13.8629C5.02793 -13.8902 5.04398 -13.9143 5.06485 -13.9348C5.08572 -13.9557 5.1098 -13.9717 5.13709 -13.983C5.16406 -13.9942 5.19263 -14 5.22185 -14C5.25139 -14 5.27964 -13.9942 5.30693 -13.983C5.33422 -13.9717 5.35798 -13.9557 5.37884 -13.9348C5.39971 -13.9143 5.41577 -13.8902 5.427 -13.8629C5.43824 -13.8359 5.44402 -13.8074 5.44402 -13.7782V32.749C5.44402 32.7786 5.43824 32.8068 5.427 32.8341C5.41577 32.8611 5.39971 32.8851 5.37884 32.906C5.35798 32.9269 5.33422 32.9429 5.30693 32.9542C5.27964 32.9654 5.25139 32.9712 5.22185 32.9712Z" fill="#D4D766"/>
<path d="M60 60.5456L56.0169 56.4288H52.3085L55.1196 53.617L54.9244 48.1646L49.1948 48.0701L46.5712 50.6937V46.7162L42.5776 43L38.4604 46.9831V50.6937L35.8864 48.1199L30.0988 48.131L30.266 53.9682L32.726 56.4288H29.0865L25 60.5287L29.2455 64.5396H32.726L30.1519 67.1136L30.1626 72.9012L36.0005 72.734L38.4604 70.274V73.9135L42.5609 78L46.5712 73.7545V70.2769L49.383 73.0881L54.8354 72.8921L54.9293 67.1633L52.3056 64.5398H56.2838L60 60.5456ZM46.5712 52.3323L49.6673 49.2371L53.8056 49.3049L53.9435 53.1542L50.6697 56.4288H46.5712V52.3323ZM39.6188 47.4737L42.5932 44.5974L45.4126 47.2211V51.853L42.516 54.7495L39.6188 51.853V47.4737ZM31.4106 53.4749L31.2909 49.2874L35.4077 49.2798L38.4604 52.3323V56.4288H34.3646L31.4106 53.4749ZM29.7062 63.3805L26.6604 60.5042L29.5674 57.5874H33.8844L36.7809 60.484L33.8844 63.3805H29.7062ZM38.4604 68.6354L35.5069 71.5894L31.3189 71.7091L31.3118 67.5923L34.3646 64.5398H38.4604V68.6354ZM45.4126 73.2938L42.5358 76.339L39.6188 73.4317V69.1156L42.5154 66.2191L45.4126 69.1177V73.2938ZM45.4126 63.3805V67.4782L42.516 64.5796L39.6188 67.4769V63.3805H35.5231L38.4197 60.484L35.5231 57.5872H39.6188V53.4916L42.516 56.3881L45.4126 53.4916V57.5872H49.5098L46.6119 60.484L49.5084 63.3805H45.4126ZM53.7629 67.635L53.6951 71.7736L49.8452 71.9121L46.5712 68.6375V64.5396H50.6677L53.7629 67.635ZM51.147 63.3805L48.2505 60.484L51.1492 57.5872H55.5263L58.4026 60.5616L55.7789 63.3805H51.147Z" fill="#42C5A5"/>
<path d="M12 54L12.4722 55.5278H14L12.7641 56.4722L13.2363 58L12 57.0558L10.7641 58L11.2363 56.4722L10 55.5278H11.528L12 54Z" fill="#42C5A5"/>
<path d="M47.5 14L48.0903 15.9098H50L48.4551 17.0902L49.0454 19L47.5 17.8198L45.9551 19L46.5454 17.0902L45 15.9098H46.9099L47.5 14Z" fill="#42C5A5"/>
</svg>
