<svg width="265" height="64" viewBox="0 0 265 64" fill="none" xmlns="http://www.w3.org/2000/svg">
<path d="M138.711 23.7434H120.042C119.957 23.7434 119.873 23.7474 119.79 23.7553C119.707 23.7633 119.627 23.7752 119.548 23.7909C119.47 23.8066 119.396 23.8259 119.326 23.8487C119.255 23.8715 119.19 23.8974 119.13 23.9263C119.071 23.9554 119.017 23.987 118.97 24.0211C118.923 24.0551 118.883 24.0911 118.851 24.1291C118.818 24.167 118.794 24.206 118.778 24.2463C118.761 24.2865 118.753 24.3273 118.753 24.3682V24.3684C118.753 24.4094 118.761 24.45 118.778 24.4902C118.794 24.5304 118.818 24.5695 118.851 24.6074C118.883 24.6453 118.923 24.6813 118.97 24.7156C119.017 24.7497 119.071 24.7813 119.13 24.8102C119.19 24.8393 119.255 24.8651 119.326 24.8879C119.396 24.9107 119.47 24.9299 119.548 24.9456C119.627 24.9613 119.707 24.9731 119.79 24.9812C119.873 24.9892 119.957 24.9932 120.042 24.9932H138.711C138.795 24.9932 138.879 24.9892 138.962 24.9812C139.045 24.9731 139.126 24.9613 139.204 24.9456C139.282 24.9299 139.356 24.9107 139.427 24.8879C139.497 24.8651 139.563 24.8393 139.622 24.8102C139.682 24.7813 139.735 24.7497 139.782 24.7156C139.83 24.6813 139.869 24.6453 139.902 24.6074C139.934 24.5695 139.959 24.5304 139.975 24.4902C139.992 24.45 140 24.4094 140 24.3684V24.3682C140 24.3273 139.992 24.2865 139.975 24.2463C139.959 24.206 139.934 24.167 139.902 24.1291C139.869 24.0911 139.83 24.0551 139.782 24.0211C139.735 23.987 139.682 23.9554 139.622 23.9263C139.563 23.8974 139.497 23.8715 139.427 23.8487C139.356 23.8259 139.282 23.8066 139.204 23.7909C139.126 23.7752 139.045 23.7633 138.962 23.7553C138.879 23.7474 138.795 23.7434 138.711 23.7434Z" fill="#D4D766"/>
<path d="M135.177 19.994H123.576C123.5 19.994 123.424 19.9967 123.348 20.0019C123.273 20.007 123.197 20.0146 123.123 20.0246C123.048 20.0349 122.975 20.0477 122.902 20.0628C122.829 20.078 122.757 20.0956 122.687 20.1156C122.617 20.1354 122.548 20.1579 122.481 20.1825C122.414 20.2072 122.348 20.234 122.285 20.263C122.222 20.292 122.161 20.3231 122.102 20.3562C122.043 20.3895 121.987 20.4244 121.933 20.4613C121.879 20.4984 121.828 20.5369 121.78 20.5775C121.732 20.6179 121.686 20.6596 121.644 20.7032C121.602 20.7465 121.563 20.7912 121.527 20.8375C121.491 20.8836 121.458 20.9307 121.43 20.9789C121.401 21.0271 121.375 21.0764 121.353 21.1263C121.331 21.1764 121.312 21.2271 121.297 21.2783C121.283 21.3294 121.271 21.3812 121.264 21.4332C121.256 21.4852 121.253 21.5372 121.253 21.5895V22.4937H137.5V21.5895C137.5 21.5372 137.497 21.4852 137.489 21.4332C137.482 21.3812 137.471 21.3294 137.456 21.2783C137.441 21.2271 137.422 21.1764 137.4 21.1263C137.378 21.0764 137.353 21.0271 137.323 20.9789C137.294 20.9307 137.262 20.8836 137.226 20.8375C137.19 20.7912 137.151 20.7465 137.109 20.7032C137.066 20.6596 137.021 20.6179 136.973 20.5775C136.925 20.5369 136.874 20.4984 136.82 20.4613C136.766 20.4244 136.71 20.3895 136.651 20.3562C136.592 20.3231 136.531 20.292 136.468 20.263C136.404 20.234 136.339 20.2072 136.272 20.1825C136.205 20.1579 136.136 20.1354 136.066 20.1156C135.996 20.0956 135.924 20.078 135.851 20.0628C135.779 20.0477 135.705 20.0349 135.63 20.0246C135.555 20.0146 135.48 20.007 135.404 20.0019C135.329 19.9967 135.253 19.994 135.177 19.994Z" fill="#D4D766"/>
<path d="M138.711 36.2418H120.042C119.957 36.2418 119.873 36.2458 119.79 36.2537C119.707 36.2617 119.627 36.2736 119.548 36.2893C119.47 36.305 119.396 36.3244 119.326 36.3471C119.255 36.3699 119.19 36.3958 119.13 36.4247C119.071 36.4538 119.017 36.4854 118.97 36.5195C118.923 36.5536 118.883 36.5896 118.851 36.6275C118.818 36.6654 118.794 36.7045 118.778 36.7447C118.761 36.7849 118.753 36.8257 118.753 36.8666V36.8668C118.753 36.9078 118.761 36.9484 118.778 36.9886C118.794 37.0288 118.818 37.0679 118.851 37.1058C118.883 37.1437 118.923 37.1797 118.97 37.214C119.017 37.2481 119.071 37.2797 119.13 37.3086C119.19 37.3377 119.255 37.3635 119.326 37.3863C119.396 37.4091 119.47 37.4283 119.548 37.444C119.627 37.4597 119.707 37.4715 119.79 37.4796C119.873 37.4876 119.957 37.4917 120.042 37.4917H138.711C138.795 37.4917 138.879 37.4876 138.962 37.4796C139.045 37.4715 139.126 37.4597 139.204 37.444C139.282 37.4283 139.356 37.4091 139.427 37.3863C139.497 37.3635 139.563 37.3377 139.622 37.3086C139.682 37.2797 139.735 37.2481 139.782 37.214C139.83 37.1797 139.869 37.1437 139.902 37.1058C139.934 37.0679 139.959 37.0288 139.975 36.9886C139.992 36.9484 140 36.9078 140 36.8668V36.8666C140 36.8257 139.992 36.7849 139.975 36.7447C139.959 36.7045 139.934 36.6654 139.902 36.6275C139.869 36.5896 139.83 36.5536 139.782 36.5195C139.735 36.4854 139.682 36.4538 139.622 36.4247C139.563 36.3958 139.497 36.3699 139.427 36.3471C139.356 36.3244 139.282 36.305 139.204 36.2893C139.126 36.2736 139.045 36.2617 138.962 36.2537C138.879 36.2458 138.795 36.2418 138.711 36.2418Z" fill="#D4D766"/>
<path d="M137.194 37.4916H120.659C120.659 37.6778 120.667 37.8635 120.686 38.0485C120.704 38.2339 120.731 38.4177 120.768 38.6003C120.804 38.7828 120.849 38.9634 120.903 39.1412C120.958 39.3193 121.02 39.4947 121.091 39.6664C121.163 39.8386 121.242 40.0067 121.33 40.1708C121.418 40.3349 121.513 40.4942 121.617 40.6491C121.72 40.804 121.831 40.9533 121.949 41.0969C122.067 41.241 122.192 41.3786 122.324 41.5102C122.455 41.6418 122.593 41.7666 122.738 41.885C122.881 42.003 123.031 42.1137 123.186 42.2173C123.341 42.3208 123.5 42.4163 123.664 42.5038C123.829 42.5916 123.997 42.6711 124.169 42.7425C124.341 42.8135 124.516 42.8761 124.694 42.9303C124.872 42.9845 125.053 43.0294 125.235 43.0659C125.418 43.102 125.602 43.1293 125.788 43.1478C125.973 43.1658 126.159 43.1751 126.345 43.1751H131.508C131.694 43.1751 131.88 43.1658 132.065 43.1478C132.25 43.1293 132.434 43.102 132.617 43.0659C132.8 43.0294 132.98 42.9845 133.158 42.9303C133.336 42.8761 133.511 42.8135 133.684 42.7425C133.856 42.6711 134.024 42.5916 134.188 42.5038C134.352 42.4163 134.512 42.3208 134.667 42.2173C134.822 42.1137 134.971 42.003 135.115 41.885C135.259 41.7666 135.397 41.6418 135.529 41.5102C135.66 41.3786 135.785 41.241 135.903 41.0969C136.021 40.9533 136.132 40.804 136.236 40.6491C136.339 40.4942 136.435 40.3349 136.523 40.1708C136.61 40.0067 136.69 39.8386 136.761 39.6664C136.832 39.4947 136.895 39.3193 136.949 39.1412C137.003 38.9634 137.048 38.7828 137.085 38.6003C137.121 38.4177 137.149 38.2339 137.167 38.0485C137.185 37.8635 137.194 37.6778 137.194 37.4916Z" fill="#D4D766"/>
<path d="M137.5 24.9933H135.001V36.2418H137.5V24.9933Z" fill="#D4D766"/>
<path d="M123.752 24.9933H121.252V36.2418H123.752V24.9933Z" fill="#D4D766"/>
<path d="M167.037 47.8577C167.251 47.7057 167.458 47.546 167.658 47.3781C167.86 47.2102 168.053 47.0346 168.241 46.8518C168.428 46.6684 168.608 46.4784 168.781 46.2817C168.953 46.0851 169.118 45.8817 169.275 45.6722C169.432 45.4622 169.58 45.247 169.72 45.0262C169.86 44.8049 169.992 44.5789 170.114 44.3473C170.236 44.1162 170.35 43.8805 170.454 43.6407C170.558 43.4009 170.653 43.157 170.739 42.91C170.824 42.6625 170.9 42.4124 170.966 42.1592C171.031 41.906 171.087 41.6503 171.134 41.393C171.18 41.1358 171.216 40.8764 171.242 40.6166C171.268 40.3562 171.284 40.0954 171.29 39.8335C171.296 39.5721 171.292 39.3107 171.277 39.0498C171.262 38.7885 171.238 38.5281 171.203 38.2688C171.169 38.0095 171.124 37.7522 171.069 37.4964C171.015 37.2402 170.95 36.987 170.876 36.7364C170.802 36.4853 170.718 36.2378 170.624 35.9934C170.531 35.7489 170.428 35.5086 170.316 35.2724C170.204 35.0357 170.083 34.8041 169.953 34.5771C169.822 34.3501 169.684 34.1283 169.536 33.9121C169.389 33.6954 169.234 33.4853 169.07 33.281C168.907 33.0766 168.735 32.8789 168.556 32.6878C168.377 32.4968 168.191 32.3125 167.998 32.1358C167.805 31.9592 167.605 31.7902 167.398 31.629C167.192 31.4677 166.98 31.3147 166.762 31.1699C166.543 31.0251 166.32 30.8885 166.091 30.7611C165.862 30.6338 165.629 30.5151 165.391 30.4052C165.153 30.2959 164.911 30.1957 164.665 30.1048C164.419 30.0139 164.17 29.9328 163.918 29.8609C163.666 29.7895 163.412 29.7274 163.155 29.6755C162.898 29.6237 162.64 29.5816 162.38 29.5497C162.12 29.5179 161.858 29.4958 161.597 29.484C161.772 29.4326 161.948 29.3854 162.126 29.3423C162.304 29.2991 162.482 29.2596 162.662 29.2247C162.841 29.1897 163.021 29.1584 163.202 29.1317C163.383 29.1045 163.564 29.0819 163.746 29.0629C163.927 29.0444 164.11 29.03 164.292 29.0193C164.474 29.009 164.657 29.0028 164.84 29.0008C165.023 28.9987 165.206 29.0008 165.388 29.0069C165.571 29.0131 165.753 29.0239 165.935 29.0383C166.117 29.0526 166.299 29.0716 166.48 29.0942C166.662 29.1168 166.842 29.144 167.023 29.1749C167.203 29.2062 167.382 29.2411 167.561 29.2801C167.739 29.3197 167.917 29.3628 168.093 29.41C168.27 29.4573 168.445 29.5086 168.619 29.5641C168.793 29.619 168.966 29.6781 169.138 29.7413C169.309 29.8044 169.479 29.8717 169.648 29.9426C169.816 30.0134 169.983 30.0879 170.148 30.1665C170.313 30.245 170.476 30.3272 170.637 30.413C170.798 30.4987 170.957 30.5886 171.115 30.6815C171.272 30.7745 171.427 30.871 171.58 30.9717C171.732 31.0718 171.883 31.175 172.031 31.2823C172.179 31.3892 172.324 31.4996 172.467 31.613C172.61 31.727 172.75 31.8436 172.888 31.9638C173.026 32.0839 173.16 32.2067 173.292 32.333C173.425 32.4593 173.554 32.5882 173.68 32.7202C173.806 32.8522 173.929 32.9872 174.049 33.1248C174.169 33.2625 174.285 33.4027 174.399 33.5459C174.513 33.6887 174.623 33.834 174.73 33.9824C174.837 34.1303 174.94 34.2803 175.04 34.4333C175.14 34.5858 175.236 34.7409 175.329 34.898C175.422 35.0547 175.512 35.2138 175.597 35.3751C175.683 35.5363 175.765 35.6991 175.843 35.864C175.921 36.0288 175.996 36.1957 176.066 36.3636C176.137 36.5321 176.204 36.702 176.267 36.873C176.33 37.0445 176.388 37.2171 176.443 37.3912C176.498 37.5653 176.549 37.7404 176.596 37.9165C176.643 38.0926 176.686 38.2703 176.725 38.4485C176.764 38.6267 176.799 38.8054 176.829 38.9857C176.86 39.1654 176.887 39.3456 176.909 39.5269C176.932 39.7077 176.95 39.8894 176.964 40.0712C176.978 40.253 176.988 40.4353 176.994 40.6176C177 40.7999 177.001 40.9822 176.999 41.1645C176.997 41.3468 176.99 41.5291 176.979 41.7114C176.968 41.8932 176.953 42.075 176.934 42.2568C176.915 42.438 176.892 42.6188 176.864 42.7991C176.837 42.9798 176.805 43.159 176.77 43.3382C176.734 43.517 176.694 43.6951 176.65 43.8723C176.607 44.0495 176.559 44.2256 176.507 44.4002C176.456 44.5753 176.4 44.7489 176.34 44.9214C176.28 45.094 176.216 45.265 176.149 45.4344C176.082 45.6039 176.01 45.7718 175.935 45.9377C175.86 46.1041 175.781 46.2684 175.698 46.4312C175.615 46.594 175.529 46.7547 175.439 46.9134C175.349 47.0721 175.255 47.2287 175.158 47.3832C175.061 47.5378 174.96 47.6898 174.856 47.8398C174.752 47.9897 174.644 48.1371 174.533 48.2819C174.422 48.4272 174.308 48.5695 174.191 48.7092C174.073 48.8488 173.953 48.9859 173.829 49.1205C173.705 49.2545 173.579 49.386 173.449 49.5149C173.319 49.6432 173.187 49.7685 173.051 49.8913C172.916 50.014 172.778 50.1331 172.637 50.2492C172.496 50.3658 172.352 50.4787 172.206 50.5881C172.06 50.698 171.912 50.8043 171.761 50.907C171.61 51.0102 171.457 51.1093 171.301 51.2054C171.146 51.3014 170.989 51.3938 170.829 51.4827C170.669 51.5715 170.508 51.6568 170.344 51.7379C170.18 51.8195 170.015 51.8971 169.848 51.971C169.681 52.045 169.512 52.1148 169.342 52.1811C169.172 52.2473 169 52.31 168.827 52.368C168.654 52.4265 168.479 52.481 168.304 52.5313C168.128 52.5821 167.952 52.6283 167.774 52.671C167.596 52.7131 167.417 52.7516 167.238 52.786C167.058 52.8204 166.878 52.8507 166.697 52.8764C166.516 52.9026 166.335 52.9246 166.153 52.9426C165.971 52.9601 165.789 52.9739 165.606 52.9837C165.424 52.9929 165.241 52.9986 165.059 52.9996C164.875 53.0012 164.693 52.9981 164.51 52.9909C164.328 52.9837 164.145 52.9724 163.963 52.9575C163.781 52.9421 163.599 52.9226 163.418 52.8984C163.237 52.8748 163.056 52.8471 162.876 52.8153C162.696 52.7834 162.517 52.7475 162.339 52.7074C162.161 52.6674 161.983 52.6237 161.807 52.5754C161.631 52.5272 161.456 52.4753 161.281 52.4193C161.108 52.3628 160.935 52.3033 160.764 52.2391C160.593 52.1754 160.423 52.1076 160.255 52.0357C160.087 51.9644 159.921 51.8889 159.756 51.8093C159.591 51.7302 159.429 51.6475 159.268 51.5607C159.107 51.4739 158.948 51.3841 158.791 51.2901C158.635 51.1961 158.48 51.0986 158.328 50.9979C158.175 50.8973 158.026 50.7925 157.878 50.6852C157.731 50.5773 157.586 50.4664 157.443 50.3519C157.301 50.2379 157.161 50.1203 157.024 49.9996C156.887 49.879 156.753 49.7552 156.621 49.6284C156.49 49.5015 156.361 49.3721 156.236 49.2391C156.11 49.1066 155.988 48.971 155.869 48.8329C155.749 48.6948 155.633 48.5541 155.52 48.4103C155.408 48.267 155.298 48.1212 155.192 47.9728C155.125 47.8793 155.064 47.7838 155 47.6883C155.214 47.8505 155.435 48.0036 155.661 48.1479C155.887 48.2922 156.118 48.4272 156.356 48.5536C156.593 48.6794 156.834 48.7959 157.081 48.9033C157.327 49.0101 157.577 49.1071 157.831 49.1939C158.085 49.2812 158.342 49.3582 158.602 49.425C158.862 49.4918 159.124 49.5482 159.389 49.5945C159.653 49.6402 159.92 49.6761 160.187 49.7008C160.455 49.7259 160.722 49.7403 160.991 49.7439C161.259 49.748 161.528 49.7408 161.796 49.7234C162.064 49.7059 162.33 49.6782 162.596 49.6397C162.862 49.6006 163.126 49.5518 163.388 49.4923C163.649 49.4327 163.909 49.3634 164.165 49.2833C164.421 49.2032 164.674 49.1133 164.923 49.0132C165.173 48.9135 165.417 48.8036 165.658 48.6845C165.898 48.5649 166.134 48.4365 166.364 48.2983C166.595 48.1607 166.819 48.0138 167.037 47.8577Z" fill="#D4D766"/>
<path d="M122.955 21.2266C123.019 21.2266 123.081 21.2124 123.139 21.1839C123.198 21.1555 123.249 21.1152 123.292 21.0631L129.37 13.712L135.448 21.0636C135.467 21.0892 135.489 21.1124 135.512 21.1337C135.536 21.1546 135.562 21.1726 135.589 21.1882C135.616 21.2033 135.644 21.2157 135.673 21.2247C135.703 21.2341 135.733 21.2398 135.763 21.2422C135.794 21.245 135.824 21.2441 135.854 21.2398C135.885 21.236 135.915 21.2285 135.943 21.218C135.972 21.2071 136 21.1934 136.026 21.1768C136.053 21.1598 136.077 21.1403 136.1 21.1185C136.123 21.0963 136.143 21.0716 136.161 21.0451C136.18 21.0186 136.195 20.9902 136.208 20.9603C136.221 20.93 136.231 20.8987 136.238 20.8665C136.245 20.8343 136.249 20.8016 136.25 20.7685C136.251 20.7353 136.249 20.7021 136.244 20.6694C136.239 20.6368 136.231 20.605 136.22 20.5742C136.208 20.543 136.194 20.5136 136.178 20.4861C136.161 20.4582 136.143 20.4321 136.121 20.4084L129.706 12.6509C129.684 12.6262 129.66 12.604 129.635 12.5845C129.609 12.5656 129.581 12.549 129.552 12.5357C129.523 12.5225 129.493 12.512 129.463 12.5054C129.432 12.4988 129.401 12.495 129.37 12.495C129.338 12.495 129.307 12.4988 129.276 12.5054C129.245 12.512 129.215 12.5225 129.186 12.5357C129.158 12.549 129.13 12.5656 129.104 12.5845C129.078 12.604 129.054 12.6262 129.032 12.6509L122.617 20.4084C122.589 20.4439 122.565 20.4828 122.546 20.5259C122.527 20.5685 122.515 20.6135 122.508 20.66C122.501 20.7069 122.501 20.7538 122.506 20.8007C122.512 20.8476 122.524 20.893 122.542 20.9362C122.559 20.9793 122.583 21.0191 122.611 21.0551C122.639 21.0911 122.672 21.1219 122.708 21.1479C122.745 21.174 122.784 21.1934 122.826 21.2071C122.868 21.2204 122.91 21.227 122.954 21.2275L122.955 21.2266Z" fill="#D4D766"/>
<path d="M129.724 12.8187C129.761 12.8187 129.796 12.8115 129.83 12.7975C129.864 12.7834 129.894 12.7633 129.92 12.7373C129.946 12.7116 129.966 12.6815 129.98 12.6474C129.994 12.6133 130.001 12.578 130.001 12.5415V-24.7227C130.001 -24.7592 129.994 -24.795 129.98 -24.8287C129.966 -24.8628 129.946 -24.8929 129.92 -24.9185C129.894 -24.9446 129.864 -24.9647 129.83 -24.9787C129.796 -24.9928 129.761 -25 129.724 -25C129.687 -25 129.652 -24.9928 129.618 -24.9787C129.584 -24.9647 129.554 -24.9446 129.528 -24.9185C129.501 -24.8929 129.481 -24.8628 129.467 -24.8287C129.453 -24.795 129.447 -24.7592 129.447 -24.7227V12.5415C129.447 12.578 129.453 12.6133 129.467 12.6474C129.481 12.6815 129.501 12.7116 129.528 12.7373C129.554 12.7633 129.584 12.7834 129.618 12.7975C129.652 12.8115 129.687 12.8187 129.724 12.8187Z" fill="#D4D766"/>
<path d="M168.723 30.7061C168.759 30.7061 168.795 30.6989 168.829 30.6848C168.863 30.6708 168.893 30.6507 168.919 30.6247C168.945 30.5986 168.965 30.5685 168.979 30.5348C168.993 30.5007 169 30.4654 169 30.4284V-27.7227C169 -27.7592 168.993 -27.795 168.979 -27.8287C168.965 -27.8628 168.945 -27.8929 168.919 -27.9185C168.893 -27.9446 168.863 -27.9647 168.829 -27.9787C168.795 -27.9928 168.759 -28 168.723 -28C168.686 -28 168.65 -27.9928 168.616 -27.9787C168.582 -27.9647 168.553 -27.9446 168.527 -27.9185C168.5 -27.8929 168.48 -27.8628 168.466 -27.8287C168.452 -27.795 168.445 -27.7592 168.445 -27.7227V30.4284C168.445 30.4654 168.452 30.5007 168.466 30.5348C168.48 30.5685 168.5 30.5986 168.527 30.6247C168.553 30.6507 168.582 30.6708 168.616 30.6848C168.65 30.6989 168.686 30.7061 168.723 30.7061Z" fill="#D4D766"/>
<path d="M-3.8147e-06 57.5716L6.25911 51.1024H12.0867L7.66912 46.6838L7.97601 38.1158L16.9795 37.9673L21.1024 42.0901V35.8398L27.378 30L33.848 36.2591V42.0901L37.8929 38.0455L46.9877 38.063L46.7248 47.2358L42.8592 51.1024H48.5783L55 57.5451L48.3284 63.848H42.8592L46.9041 67.8929L46.8874 76.9877L37.7136 76.7248L33.848 72.8592V78.5783L27.4042 85L21.1024 78.3284V72.8637L16.6838 77.2813L8.11579 76.9733L7.96832 67.9708L12.0912 63.8482H5.83977L-3.8147e-06 57.5716ZM21.1024 44.6651L16.2371 39.8011L9.73401 39.9077L9.51731 45.9565L14.6619 51.1024H21.1024V44.6651ZM32.0276 37.0302L27.3536 32.5102L22.923 36.6331V43.9118L27.4748 48.4636L32.0276 43.9118V37.0302ZM44.9262 46.4605L45.1143 39.8802L38.6451 39.8682L33.848 44.6651V51.1024H40.2843L44.9262 46.4605ZM47.6046 62.0266L52.3908 57.5066L47.8226 52.923H41.0389L36.4871 57.4748L41.0389 62.0266H47.6046ZM33.848 70.2843L38.4891 74.9262L45.0702 75.1143L45.0814 68.6451L40.2843 63.8482H33.848V70.2843ZM22.923 77.6046L27.4438 82.3898L32.0276 77.8213V71.0389L27.4759 66.4871L22.923 71.0421V77.6046ZM22.923 62.0266V68.4658L27.4748 63.9108L32.0276 68.4637V62.0266H38.4637L33.9119 57.4748L38.4637 52.9228H32.0276V46.4867L27.4748 51.0385L22.923 46.4867V52.9228H16.4846L21.0385 57.4748L16.4867 62.0266H22.923ZM9.80112 68.7122L9.90774 75.2156L15.9576 75.4334L21.1024 70.2874V63.848H14.6651L9.80112 68.7122ZM13.9118 62.0266L18.4636 57.4748L13.9083 52.9228H7.03016L2.51022 57.5968L6.63309 62.0266H13.9118Z" fill="#42C5A5"/>
<path d="M210 13.5716L216.259 7.10243H222.087L217.669 2.68381L217.976 -5.88421L226.98 -6.03275L231.102 -1.90987V-8.16023L237.378 -14L243.848 -7.74089V-1.90987L247.893 -5.9545L256.988 -5.93699L256.725 3.23577L252.859 7.10243H258.578L265 13.5451L258.328 19.848H252.859L256.904 23.8929L256.887 32.9877L247.714 32.7248L243.848 28.8592V34.5783L237.404 41L231.102 34.3284V28.8637L226.684 33.2813L218.116 32.9733L217.968 23.9708L222.091 19.8482H215.84L210 13.5716ZM231.102 0.665074L226.237 -4.19888L219.734 -4.09226L219.517 1.95652L224.662 7.10243H231.102V0.665074ZM242.028 -6.96984L237.354 -11.4898L232.923 -7.3669V-0.0882044L237.475 4.46357L242.028 -0.0882044V-6.96984ZM254.926 2.46048L255.114 -4.11984L248.645 -4.13178L243.848 0.665074V7.10243H250.284L254.926 2.46048ZM257.605 18.0266L262.391 13.5066L257.823 8.92303H251.039L246.487 13.4748L251.039 18.0266H257.605ZM243.848 26.2843L248.489 30.9262L255.07 31.1143L255.081 24.6451L250.284 19.8482H243.848V26.2843ZM232.923 33.6046L237.444 38.3898L242.028 33.8213V27.0389L237.476 22.4871L232.923 27.042V33.6046ZM232.923 18.0266V24.4658L237.475 19.9108L242.028 24.4637V18.0266H248.464L243.912 13.4748L248.464 8.92277H242.028V2.48674L237.475 7.03851L232.923 2.48674V8.92277H226.485L231.039 13.4748L226.487 18.0266H232.923ZM219.801 24.7122L219.908 31.2156L225.958 31.4333L231.102 26.2874V19.848H224.665L219.801 24.7122ZM223.912 18.0266L228.464 13.4748L223.908 8.92277H217.03L212.51 13.5968L216.633 18.0266H223.912Z" fill="#42C5A5"/>
<path d="M67 15L66.0556 18.0556H63L65.4719 19.9444L64.5274 23L67 21.1117L69.4719 23L68.5274 19.9444L71 18.0556H67.9441L67 15Z" fill="#42C5A5"/>
<path d="M201.5 37L200.674 39.6737H198L200.163 41.3263L199.337 44L201.5 42.3477L203.663 44L202.837 41.3263L205 39.6737H202.326L201.5 37Z" fill="#42C5A5"/>
<path d="M96.5 41L94.9653 45.9654H90L94.0168 49.0346L92.4821 54L96.5 50.9314L100.517 54L98.9821 49.0346L103 45.9654H98.0341L96.5 41Z" fill="#42C5A5"/>
</svg>
