<svg width="247" height="226" viewBox="0 0 247 226" fill="none" xmlns="http://www.w3.org/2000/svg">
<path d="M114.811 186.613C103.568 186.613 92.3254 186.624 81.083 186.61C66.3517 186.592 51.621 186.557 36.8902 186.523C31.4432 186.511 25.9966 186.482 20.5496 186.461C20.3352 186.46 20.1198 186.47 19.9059 186.46C19.635 186.447 19.4896 186.552 19.3502 186.808C18.9284 187.58 18.2327 187.615 17.6884 186.921C17.5565 186.753 17.4525 186.561 17.3426 186.376C15.5604 183.367 14.2765 180.14 13.232 176.812C12.016 172.936 11.3113 168.961 10.894 164.922C10.5377 161.474 10.4652 158.022 10.6751 154.571C11.011 149.055 11.8796 143.629 13.7197 138.398C15.6424 132.933 18.6595 128.175 22.8846 124.212C26.4099 120.906 30.5351 118.687 35.163 117.395C37.4139 116.767 39.6979 116.278 42.0188 116.009C44.904 115.676 47.7982 115.622 50.6934 115.896C55.9885 116.397 61.0891 117.715 66.0749 119.546C69.6857 120.872 73.1451 122.534 76.5891 124.232C79.3828 125.609 82.1415 127.061 84.9608 128.383C89.5082 130.516 94.1331 132.465 98.9349 133.962C102.993 135.227 107.129 136.12 111.346 136.639C114.845 137.07 118.358 137.175 121.87 136.951C125.787 136.702 129.638 135.992 133.435 134.989C138.363 133.687 143.285 132.363 148.22 131.093C151.571 130.23 154.926 129.376 158.323 128.714C161.223 128.149 164.15 127.797 167.094 127.568C169.423 127.387 171.751 127.271 174.087 127.282C181.011 127.313 187.671 128.68 194.094 131.26C197.366 132.574 200.511 134.137 203.465 136.078C209.796 140.237 214.2 145.927 216.772 153.065C217.521 155.146 218.213 157.246 218.683 159.414C219.264 162.094 219.45 164.799 219.349 167.539C219.238 170.523 218.821 173.446 217.95 176.304C217.186 178.813 216.202 181.233 215.064 183.591C214.513 184.735 213.85 185.814 213.097 186.835C212.872 187.14 212.644 187.44 212.317 187.643C211.852 187.933 211.372 188.006 210.865 187.751C210.612 187.622 210.449 187.415 210.339 187.162C210.264 186.99 210.131 186.926 209.957 186.924C209.743 186.921 209.528 186.918 209.314 186.917C200.727 186.893 192.141 186.867 183.554 186.848C163.35 186.804 143.145 186.764 122.94 186.724C120.23 186.719 117.52 186.724 114.811 186.724C114.811 186.688 114.811 186.65 114.811 186.613Z" fill="#F3F9FD"/>
<path d="M166.748 146.476C165.768 149.305 164.281 151.861 162.516 154.26C160.031 157.638 157.147 160.649 154.06 163.465C149.697 167.442 145.007 170.995 140.127 174.307C135.208 177.646 130.154 180.759 124.832 183.411C123.198 184.224 121.539 184.989 119.878 185.745C118.874 186.201 117.815 186.469 116.748 186.709C116.401 186.785 116.054 186.86 115.706 186.936C115.663 186.946 115.619 186.954 115.575 186.964C115.247 187.034 114.916 187.094 114.584 187.12C114.243 187.145 113.903 187.133 113.557 187.057C113.537 187.052 113.513 187.045 113.495 187.047C113.488 187.047 113.483 187.047 113.476 187.049C112.767 187.266 112.344 186.868 111.893 186.39C111.188 185.651 110.43 184.962 109.67 184.279C106.01 180.984 102.333 177.71 98.6817 174.407C95.2458 171.297 91.9957 168.004 89.0846 164.385C86.989 161.775 85.0829 159.033 83.5831 156.029C82.689 154.236 81.9908 152.367 81.6974 150.372C81.4555 148.719 81.501 147.082 82.1422 145.512C83.0683 143.25 84.8085 142.131 87.1874 141.991C88.9356 141.888 90.5934 142.34 92.2056 142.973C94.4306 143.848 96.3767 145.178 98.1654 146.755C101.994 150.131 104.781 154.238 106.652 158.988C107.624 161.451 108.37 163.987 109.033 166.546C110.451 172.032 111.702 177.557 112.912 183.09C112.993 183.46 113.075 183.83 113.157 184.198C113.245 184.593 113.334 184.988 113.424 185.381C113.464 185.555 113.476 185.747 113.635 185.912C113.718 185.772 113.771 185.625 113.813 185.477C113.874 185.261 113.907 185.038 113.963 184.825C115.397 179.332 117.172 173.964 119.652 168.85C122.746 162.465 126.483 156.488 130.937 150.981C134.282 146.846 138.002 143.073 142.153 139.742C144.791 137.627 147.626 135.853 150.774 134.599C152.601 133.873 154.47 133.294 156.415 133.01C158.18 132.754 159.95 132.703 161.671 133.291C163.799 134.018 165.547 135.244 166.658 137.268C167.294 138.426 167.584 139.678 167.63 140.992C167.694 142.877 167.362 144.702 166.748 146.476Z" fill="#EEF6FB"/>
<path d="M72.3325 186.832C72.2116 186.923 72.0841 186.912 71.9582 186.837C71.8457 186.771 71.7483 186.648 71.6008 186.687C71.5623 186.697 71.5254 186.704 71.4899 186.706C71.2415 186.723 71.0706 186.55 70.8857 186.408C70.5938 186.184 70.3034 185.956 70.0165 185.725C67.4192 183.657 64.9848 181.41 62.7514 178.939C58.5568 174.296 54.7415 169.357 51.2131 164.187C48.6173 160.38 46.0775 156.538 43.844 152.5C41.4111 148.105 39.334 143.548 37.7652 138.765C36.9161 136.175 36.163 133.558 35.6562 130.876C35.3159 129.072 35.047 127.256 35.1045 125.41C35.1919 122.493 35.8511 119.736 37.5793 117.333C39.44 114.743 41.9014 113.02 45.0219 112.306C45.4397 112.21 45.8676 112.157 46.2939 112.107C46.6127 112.069 46.9366 112.066 47.168 112.053C49.0691 112.07 50.7503 112.573 52.3321 113.433C53.9294 114.303 55.3068 115.452 56.5452 116.781C58.9531 119.362 60.8372 122.299 62.3825 125.469C64.2062 129.215 65.5821 133.124 66.6576 137.147C67.948 141.975 68.8571 146.879 69.6057 151.816C70.1375 155.339 70.5368 158.877 70.8337 162.427C71.0586 165.088 71.1925 167.757 71.3739 170.422C71.5568 173.115 71.5973 175.812 71.7378 178.507C71.8517 180.662 72.0381 182.813 72.2041 184.965C72.241 185.447 72.2845 185.933 72.4489 186.397C72.5069 186.557 72.4799 186.721 72.3325 186.832Z" fill="#EEF6FB"/>
<path d="M202.298 136.635C202.328 138.669 201.9 140.586 201.312 142.473C200.455 145.213 199.25 147.799 197.877 150.311C195.829 154.055 193.453 157.58 190.929 161.013C187.882 165.158 184.706 169.204 181.589 173.294C179.809 175.627 178.111 178.026 176.26 180.303C175.463 181.286 174.646 182.253 173.819 183.21C173.025 184.13 172.134 184.95 171.178 185.696C169.878 186.713 168.396 187.234 166.804 187.454C166.601 187.482 166.395 187.506 166.187 187.525C166.064 187.536 165.945 187.535 165.829 187.523C165.33 187.474 164.885 187.24 164.44 187.013C164.256 186.919 164.217 186.716 164.22 186.522C164.23 186.09 164.23 185.658 164.271 185.229C164.476 183.024 164.829 180.838 165.23 178.664C166.323 172.746 167.709 166.895 169.337 161.103C170.846 155.742 172.76 150.536 175.191 145.527C177.092 141.611 179.287 137.877 182.125 134.559C183.813 132.589 185.654 130.785 187.843 129.374C189.325 128.42 190.898 127.689 192.639 127.359C194.427 127.019 196.167 127.151 197.821 127.953C199.221 128.632 200.261 129.697 200.997 131.064C201.941 132.815 202.349 134.692 202.298 136.635Z" fill="#EEF6FB"/>
<path d="M71.4897 186.705C71.2413 186.722 71.0704 186.55 70.8855 186.408C70.5936 186.184 70.3033 185.956 70.0164 185.724C69.1608 183.43 68.3202 181.131 67.4546 178.84C64.3945 170.748 61.6092 162.554 58.5016 154.479C56.0318 148.063 53.4864 141.681 50.6192 135.433C49.9231 133.914 49.1849 132.415 48.4717 130.906C48.3578 130.663 48.2453 130.414 48.1779 130.156C48.1274 129.963 48.2163 129.783 48.4112 129.688C48.6042 129.595 48.7971 129.627 48.9215 129.789C49.0674 129.978 49.1784 130.198 49.2888 130.412C51.1695 134.052 52.8477 137.789 54.4465 141.56C56.9179 147.393 59.2013 153.301 61.3928 159.245C63.1275 163.948 64.8073 168.671 66.532 173.379C68.0808 177.604 69.6561 181.821 71.2263 186.04C71.3088 186.265 71.3993 186.486 71.4897 186.705Z" fill="#CBE5F4"/>
<path d="M152.271 148.652C152.096 148.89 151.895 149.109 151.687 149.32C150.456 150.563 149.15 151.726 147.845 152.889C144.227 156.109 140.548 159.256 136.84 162.369C134.307 164.497 131.808 166.663 129.484 169.028C126.57 171.994 124.021 175.261 121.655 178.675C120.551 180.271 119.521 181.915 118.489 183.557C117.85 184.575 117.269 185.625 116.75 186.709C116.402 186.785 116.055 186.859 115.707 186.935C115.664 186.945 115.62 186.954 115.577 186.964C115.578 186.962 115.578 186.959 115.58 186.957C116.038 185.921 116.535 184.903 117.105 183.924C119.696 179.494 122.605 175.293 125.926 171.381C128.354 168.518 131.066 165.947 133.907 163.512C137.786 160.186 141.721 156.923 145.551 153.539C147.385 151.918 149.212 150.289 150.979 148.593C151.192 148.388 151.414 148.189 151.652 148.019C151.858 147.871 152.098 147.906 152.242 148.056C152.383 148.201 152.415 148.454 152.271 148.652Z" fill="#CBE5F4"/>
<path d="M189.062 143.54C188.99 143.683 188.894 143.817 188.795 143.943C183.344 150.877 179.042 158.536 174.847 166.264C173.238 169.225 171.691 172.22 170.436 175.354C169.071 178.762 167.893 182.231 167.096 185.823C166.975 186.362 166.866 186.902 166.804 187.453C166.601 187.481 166.395 187.505 166.187 187.523C166.064 187.535 165.946 187.534 165.83 187.522V187.264C165.895 186.889 165.976 186.355 166.081 185.827C166.808 182.189 167.969 178.686 169.333 175.246C170.739 171.705 172.513 168.343 174.32 165C177.073 159.898 179.957 154.873 183.125 150.018C184.583 147.783 186.113 145.599 187.832 143.554C188.004 143.348 188.18 143.144 188.38 142.967C188.57 142.8 188.81 142.812 188.971 142.948C189.13 143.086 189.174 143.313 189.062 143.54Z" fill="#CBE5F4"/>
<path d="M114.584 187.119C114.243 187.144 113.903 187.133 113.557 187.057C113.537 187.052 113.514 187.045 113.495 187.047C113.438 186.964 113.388 186.88 113.339 186.793C113.091 186.346 112.856 185.89 112.621 185.435C111.133 182.533 109.644 179.631 108.158 176.729C105.962 172.44 103.317 168.451 100.239 164.754C97.9282 161.982 95.5878 159.238 93.2773 156.466C91.5526 154.398 89.8094 152.347 87.9587 150.391C87.7928 150.215 87.6129 150.048 87.5424 149.803C87.4585 149.511 87.6534 149.226 87.9353 149.235C88.1047 149.24 88.2441 149.316 88.3596 149.436C88.5475 149.628 88.7319 149.825 88.9183 150.02C90.613 151.789 92.2423 153.617 93.8126 155.499C96.296 158.477 98.8143 161.424 101.289 164.409C104.361 168.112 106.97 172.126 109.167 176.413C110.495 179.009 111.826 181.603 113.156 184.198C113.374 184.625 113.594 185.05 113.812 185.477C113.997 185.837 114.182 186.198 114.366 186.558C114.428 186.678 114.492 186.798 114.541 186.923C114.567 186.989 114.582 187.055 114.584 187.119Z" fill="#CBE5F4"/>
<path d="M99.9875 148.175C99.1114 150.622 97.9525 152.931 96.6756 155.186C93.9103 160.076 90.7363 164.69 87.2983 169.121C85.1103 171.942 82.8908 174.735 80.6359 177.502C78.4883 180.142 76.3068 182.757 74.0938 185.347C73.656 185.858 73.2232 186.373 72.7849 186.884C72.681 187.004 72.575 187.124 72.4596 187.23C72.4376 187.252 72.4161 187.272 72.3941 187.291C72.2177 187.448 71.9813 187.522 71.8239 187.318C71.7584 187.234 71.6964 187.181 71.6359 187.154C71.5035 187.095 71.3741 187.154 71.2196 187.26C70.9228 187.461 70.6544 187.392 70.3221 187.247C70.0082 187.11 69.7028 186.958 69.4045 186.798C68.9012 186.526 68.4164 186.225 67.9381 185.915C65.5472 184.36 63.0809 182.941 60.5425 181.646C56.9786 179.83 53.4572 177.927 49.8429 176.209C44.7492 173.79 39.6015 171.492 34.4739 169.148C28.3887 166.364 22.4374 163.325 16.721 159.829C13.5079 157.866 10.3569 155.815 7.50117 153.339C5.95087 151.995 4.50453 150.555 3.28809 148.894C2.43897 147.734 1.74429 146.495 1.35497 145.096C1.10508 144.198 1.02962 143.286 1.17855 142.369C1.45392 140.69 2.383 139.456 3.82934 138.603C4.91485 137.964 6.1063 137.656 7.33774 137.491C9.58622 137.185 11.8327 137.278 14.0757 137.57C18.7465 138.181 23.156 139.665 27.4211 141.634C33.6977 144.532 39.4561 148.266 44.8502 152.588C50.4576 157.083 55.5028 162.137 59.8098 167.917C62.7915 171.916 65.4908 176.103 67.9306 180.46C68.5094 181.494 69.0866 182.531 69.6674 183.564C69.7428 183.699 69.7883 183.86 69.9272 183.937C70.0397 183.885 70.0262 183.8 70.0262 183.729C70.0432 180.293 70.4675 176.895 70.9673 173.502C71.4485 170.245 72.0228 167.006 72.7524 163.795C73.791 159.232 75.1718 154.784 77.1199 150.525C78.5813 147.328 80.3045 144.284 82.4405 141.489C83.8044 139.704 85.3417 138.087 87.1384 136.739C88.8096 135.485 90.6183 134.504 92.6619 134.012C93.9018 133.714 95.1532 133.614 96.4102 133.893C98.1284 134.274 99.4318 135.243 100.301 136.779C100.937 137.904 101.23 139.128 101.311 140.412C101.481 143.107 100.885 145.667 99.9875 148.175Z" fill="#E1F4F9"/>
<path d="M166.303 177.144C166.237 179.72 166.176 182.338 165.856 184.94C165.794 185.447 165.692 185.95 165.585 186.451C165.451 187.076 165.046 187.493 164.496 187.778C164.259 187.901 164.014 188.01 163.767 188.114C163.448 188.248 163.192 188.197 162.966 187.955C162.893 187.878 162.827 187.787 162.783 187.691C162.441 186.942 161.899 186.339 161.35 185.748C160.417 184.742 159.473 183.745 158.518 182.761C155.724 179.884 152.915 177.025 150.335 173.946C145.215 167.835 141.525 160.953 139.215 153.312C138.238 150.08 137.446 146.809 136.952 143.465C136.549 140.733 136.399 137.986 136.566 135.231C136.695 133.098 137.03 130.993 137.831 128.992C138.388 127.6 139.121 126.317 140.224 125.288C142.079 123.558 144.24 122.989 146.698 123.646C148.068 124.012 149.284 124.681 150.386 125.568C151.143 126.177 151.823 126.866 152.469 127.589C154.566 129.936 156.21 132.584 157.587 135.407C159.485 139.297 160.897 143.366 162.012 147.545C163.437 152.893 164.543 158.305 165.269 163.796C165.69 166.981 166.021 170.173 166.183 173.381C166.245 174.621 166.264 175.863 166.303 177.144Z" fill="#E1F4F9"/>
<path d="M106.718 151.074C106.729 147.019 107.007 143.066 107.706 139.152C108.541 134.478 109.909 129.979 112.188 125.792C113.657 123.094 115.472 120.67 117.832 118.689C119.416 117.359 121.167 116.335 123.194 115.851C124.439 115.554 125.687 115.499 126.934 115.84C128.508 116.271 129.71 117.213 130.594 118.576C131.401 119.819 131.831 121.204 132.05 122.658C132.378 124.834 132.329 127.019 132.116 129.197C131.615 134.295 130.367 139.231 128.897 144.119C127.639 148.304 126.187 152.422 124.752 156.546C122.973 161.664 121.187 166.78 119.539 171.942C118.398 175.516 117.533 179.162 116.776 182.835C116.569 183.839 116.351 184.84 116.135 185.841C116.089 186.052 116.023 186.258 115.974 186.468C115.703 187.612 114.879 188.007 113.755 188.084C113.432 188.106 113.199 187.961 113.048 187.656C112.737 187.027 112.477 186.379 112.26 185.714C111.276 182.713 110.504 179.656 109.839 176.569C109.181 173.511 108.599 170.437 108.128 167.344C107.743 164.81 107.422 162.269 107.178 159.717C106.903 156.815 106.74 153.908 106.718 151.074Z" fill="#E0E1FE"/>
<path d="M212.86 148.165C214.395 148.139 216.07 148.305 217.699 148.822C219.148 149.281 220.494 149.947 221.611 150.995C223.848 153.098 224.518 155.645 223.606 158.586C223.127 160.128 222.258 161.457 221.241 162.693C219.637 164.643 217.718 166.24 215.66 167.674C212.073 170.172 208.207 172.153 204.191 173.846C201.075 175.16 197.893 176.301 194.729 177.491C188.375 179.879 182.069 182.388 175.901 185.237C173.951 186.138 171.959 186.937 169.935 187.653C169.683 187.743 169.429 187.843 169.168 187.887C168.411 188.017 167.898 187.497 168.062 186.742C168.158 186.297 168.324 185.864 168.495 185.441C170.186 181.253 172.261 177.272 174.765 173.514C179.636 166.204 185.708 160.1 192.963 155.194C196.45 152.836 200.181 150.953 204.17 149.598C206.765 148.717 209.724 148.146 212.86 148.165Z" fill="#E1F4F9"/>
<path d="M94.6986 142.17C93.0543 144.223 91.9403 146.603 90.6399 148.867C88.1721 153.166 85.7272 157.481 83.3298 161.821C81.0228 165.997 78.9757 170.309 76.9307 174.62C75.0011 178.691 73.3403 182.876 71.6726 187.058C71.6591 187.091 71.6476 187.124 71.6356 187.156C71.5032 187.096 71.3737 187.156 71.2193 187.262C70.9224 187.462 70.654 187.394 70.3217 187.248C70.0078 187.111 69.7025 186.96 69.4041 186.799C65.201 181.548 60.7516 176.522 55.6914 172.073C52.3959 169.177 48.9634 166.452 45.4515 163.826C40.2589 159.942 34.8763 156.341 29.2804 153.071C26.0324 151.172 22.6999 149.431 19.2854 147.852C18.4333 147.457 17.5572 147.118 16.6946 146.745C16.4982 146.66 16.3003 146.569 16.1274 146.446C15.933 146.308 15.8925 146.053 16.0064 145.869C16.1174 145.69 16.2883 145.618 16.4897 145.67C16.6711 145.717 16.8436 145.792 17.02 145.857C20.4209 147.134 23.6475 148.784 26.8385 150.508C32.0936 153.347 37.0848 156.614 41.9791 160.032C47.1637 163.653 52.1365 167.551 56.8698 171.749C60.3562 174.841 63.5793 178.202 66.5794 181.776C67.7909 183.219 68.9853 184.676 70.1883 186.128C70.2922 186.251 70.3912 186.379 70.5056 186.492C70.5946 186.578 70.7135 186.58 70.7705 186.464C70.9014 186.197 71.0169 185.925 71.1263 185.65C72.1414 183.093 73.1244 180.523 74.2504 178.015C77.4634 170.854 80.9079 163.81 84.8191 157.004C87.141 152.961 89.443 148.908 91.7619 144.863C92.2567 143.997 92.767 143.139 93.3492 142.331C93.5541 142.046 93.76 141.76 94.0439 141.547C94.2938 141.36 94.5122 141.357 94.7016 141.524C94.89 141.693 94.9065 141.91 94.6986 142.17Z" fill="#EEF6FB"/>
<path d="M114.121 176.107C114.201 173.517 114.319 170.93 114.448 168.343C114.575 165.782 114.762 163.227 114.992 160.675C115.256 157.744 115.724 154.842 116.296 151.956C117.251 147.14 118.331 142.353 119.643 137.621C120.306 135.23 121.003 132.849 121.933 130.546C122.033 130.297 122.145 130.049 122.279 129.818C122.38 129.646 122.555 129.562 122.763 129.605C122.961 129.646 123.105 129.857 123.077 130.106C123.056 130.291 123.005 130.476 122.941 130.651C120.658 136.955 119.125 143.462 117.75 150.011C117.213 152.571 116.711 155.139 116.375 157.736C116.195 159.128 116.037 160.52 115.928 161.919C115.793 163.667 115.642 165.414 115.534 167.163C115.436 168.752 115.387 170.343 115.315 171.932C115.155 175.438 115.13 178.946 115.134 182.454C115.136 183.858 115.147 185.261 115.261 186.661C115.281 186.901 115.276 187.148 115.242 187.386C115.206 187.634 115.011 187.776 114.794 187.765C114.577 187.753 114.441 187.627 114.395 187.428C114.347 187.219 114.329 187.003 114.313 186.788C114.148 184.608 114.11 182.423 114.119 180.237C114.125 178.859 114.121 177.483 114.121 176.107Z" fill="#CFD0FB"/>
<path d="M214.401 159.061C214.407 159.201 214.348 159.354 214.199 159.441C214.038 159.534 213.866 159.619 213.688 159.672C209.854 160.833 206.171 162.397 202.491 163.963C199.304 165.32 196.117 166.678 193.036 168.269C189.548 170.07 186.134 171.998 182.955 174.32C180.169 176.354 177.574 178.612 175.152 181.072C173.233 183.022 171.645 185.224 170.205 187.542C170.106 187.701 170.018 187.873 169.895 188.012C169.764 188.16 169.586 188.227 169.387 188.123C169.201 188.025 169.111 187.861 169.128 187.658C169.149 187.411 169.271 187.195 169.399 186.989C170.687 184.898 172.03 182.847 173.719 181.053C177.824 176.691 182.473 173.026 187.638 170.008C191.589 167.7 195.7 165.724 199.895 163.917C203.125 162.525 206.36 161.145 209.654 159.91C210.785 159.486 211.926 159.092 213.095 158.783C213.377 158.708 213.671 158.653 213.962 158.636C214.202 158.621 214.384 158.816 214.401 159.061Z" fill="#EEF6FB"/>
<path d="M163.407 185.878C163.385 186.196 163.381 186.412 163.351 186.625C163.317 186.855 163.199 187.029 162.948 187.064C162.713 187.096 162.51 186.949 162.431 186.654C162.369 186.421 162.334 186.178 162.318 185.937C162.198 184.159 161.95 182.397 161.689 180.635C161.443 178.973 160.997 177.368 160.414 175.796C159.381 173.009 158.099 170.336 156.737 167.703C154.371 163.128 152.25 158.44 150.296 153.674C148.985 150.474 148.038 147.156 147.171 143.812C146.806 142.403 146.454 140.99 146.096 139.579C146.036 139.343 145.964 139.11 146.011 138.863C146.044 138.687 146.156 138.574 146.319 138.524C146.489 138.472 146.642 138.536 146.755 138.661C146.923 138.847 146.974 139.09 147.037 139.325C147.463 140.913 147.875 142.506 148.316 144.09C149.169 147.156 150.021 150.223 151.236 153.17C153.097 157.681 155.066 162.142 157.31 166.479C158.659 169.087 159.938 171.73 161.044 174.458C162.044 176.927 162.675 179.478 162.982 182.118C163.132 183.404 163.273 184.69 163.407 185.878Z" fill="#EEF6FB"/>
<path d="M73.5479 186.4C73.4474 186.524 73.3485 186.649 73.249 186.772C73.1331 186.917 73.0106 187.066 72.8697 187.185C72.7387 187.298 72.5658 187.314 72.4219 187.209C72.2974 187.118 72.2624 186.983 72.2994 186.853C72.3059 186.826 72.3179 186.799 72.3314 186.772C72.3734 186.689 72.4219 186.61 72.4759 186.532C72.5043 186.486 72.5363 186.443 72.5683 186.4H73.5479Z" fill="#CFD0FB"/>
<path d="M193.196 161.069C193.352 161.093 193.438 160.98 193.536 160.897C196.566 158.34 199.859 156.16 203.226 154.089C205.057 152.963 206.901 151.859 208.749 150.762C209.087 150.561 209.332 150.323 209.493 149.955C209.968 148.875 210.715 148 211.584 147.216C213.554 145.438 215.886 144.407 218.434 143.813C218.641 143.765 218.859 143.738 219.072 143.74C219.586 143.747 219.852 144.078 219.765 144.597C219.711 144.92 219.58 145.216 219.401 145.49C219.12 145.92 218.795 146.314 218.434 146.678C216.48 148.653 214.175 150.024 211.49 150.733C211.36 150.767 211.23 150.805 211.098 150.818C210.142 150.911 209.309 151.289 208.488 151.785C206.234 153.146 203.979 154.505 201.761 155.925C201.652 155.995 201.549 156.076 201.449 156.147C201.505 156.336 201.63 156.269 201.712 156.256C203.78 155.937 205.835 156.089 207.873 156.484C209.109 156.723 210.33 157.043 211.554 157.342C211.839 157.411 212.126 157.507 212.381 157.647C212.929 157.949 212.998 158.443 212.587 158.925C212.392 159.154 212.143 159.313 211.885 159.459C210.949 159.988 209.929 160.181 208.871 160.216C206.815 160.284 204.808 159.957 202.819 159.477C201.488 159.156 200.183 158.748 198.891 158.296C198.558 158.18 198.291 158.218 197.995 158.429C194.051 161.229 190.481 164.44 187.367 168.155C187.316 168.216 187.275 168.286 187.235 168.354C187.227 168.368 187.245 168.396 187.252 168.419C187.394 168.467 187.507 168.384 187.628 168.335C190.089 167.346 192.633 166.971 195.277 167.24C196.185 167.333 197.089 167.436 197.986 167.602C198.196 167.64 198.409 167.686 198.606 167.766C199.236 168.021 199.35 168.51 198.915 169.047C198.726 169.281 198.482 169.448 198.227 169.602C197.648 169.951 197.022 170.197 196.38 170.389C194.808 170.86 193.203 171.141 191.564 171.277C189.617 171.438 187.708 171.253 185.815 170.826C185.484 170.751 185.273 170.779 185.057 171.066C182.832 174.019 180.842 177.122 179.103 180.388C179.069 180.451 179.07 180.533 179.04 180.675C179.302 180.561 179.517 180.476 179.725 180.375C181.788 179.386 183.969 178.899 186.244 178.766C187.211 178.71 188.174 178.736 189.139 178.786C189.377 178.798 189.624 178.822 189.849 178.896C190.234 179.02 190.357 179.382 190.162 179.741C190.031 179.984 189.818 180.152 189.606 180.318C188.792 180.955 187.881 181.411 186.904 181.724C185.035 182.321 183.144 182.807 181.177 182.962C180.362 183.027 179.572 182.922 178.773 182.834C178.64 182.819 178.51 182.778 178.377 182.762C177.975 182.711 177.934 182.725 177.755 183.1C177.233 184.196 176.761 185.313 176.324 186.446C176.247 186.646 176.169 186.848 176.061 187.032C175.992 187.148 175.857 187.208 175.711 187.15C175.573 187.094 175.512 186.98 175.505 186.834C175.494 186.582 175.598 186.357 175.687 186.134C176.069 185.183 176.452 184.234 176.854 183.292C177.754 181.182 178.836 179.167 180.009 177.2C180.092 177.061 180.17 176.92 180.253 176.781C180.332 176.648 180.308 176.524 180.222 176.406C180.127 176.275 180.027 176.148 179.935 176.016C178.512 173.976 177.503 171.764 177.192 169.267C176.998 167.702 177.075 166.143 177.305 164.588C177.337 164.376 177.396 164.163 177.48 163.966C177.644 163.584 177.977 163.477 178.338 163.686C178.719 163.906 179.001 164.23 179.223 164.607C179.51 165.097 179.734 165.617 179.932 166.148C180.709 168.232 181.197 170.383 181.354 172.605C181.394 173.169 181.373 173.738 181.385 174.304C181.387 174.407 181.409 174.51 181.421 174.609C181.671 174.672 181.702 174.466 181.782 174.354C182.782 172.95 183.734 171.509 184.78 170.142C186.663 167.68 188.691 165.342 190.949 163.214C191.047 163.121 191.135 163.015 191.245 162.94C191.6 162.696 191.588 162.403 191.447 162.029C190.696 160.039 190.395 157.958 190.338 155.845C190.273 153.461 190.818 151.187 191.709 148.99C191.943 148.415 192.19 147.846 192.507 147.312C192.687 147.009 192.873 146.675 193.289 146.714C193.7 146.751 193.835 147.104 193.965 147.434C194.195 148.016 194.293 148.627 194.375 149.244C194.623 151.105 194.498 152.962 194.314 154.816C194.208 155.889 194.055 156.959 193.9 158.026C193.775 158.881 193.582 159.722 193.291 160.538C193.231 160.704 193.092 160.869 193.196 161.069Z" fill="#CBE5F4"/>
<path d="M60.6378 167.29C60.5439 167.075 60.4554 166.857 60.3549 166.645C57.8656 161.392 54.9064 156.419 51.5445 151.686C51.4975 151.62 51.4425 151.559 51.404 151.489C51.2326 151.175 51.0087 151.156 50.6654 151.237C47.6087 151.963 44.6456 151.655 41.7904 150.342C40.9858 149.972 40.1921 149.577 39.402 149.176C39.1901 149.068 38.9837 148.924 38.8202 148.752C38.5164 148.434 38.5849 148.03 38.9627 147.795C39.1926 147.651 39.45 147.561 39.7178 147.532C40.2241 147.477 40.7324 147.405 41.2401 147.404C44.0194 147.399 46.6757 147.944 49.1525 149.257C49.3884 149.382 49.6313 149.494 49.9567 149.654C49.9062 149.308 49.7048 149.13 49.5594 148.931C47.6977 146.385 45.7031 143.946 43.685 141.526C42.4436 140.037 41.1817 138.565 39.9322 137.082C39.7043 136.811 39.4535 136.584 39.1396 136.41C35.5377 134.419 33.0044 131.489 31.5411 127.624C31.3502 127.121 31.1497 126.617 31.0028 126.1C30.8109 125.424 31.1737 125.052 31.8654 125.191C32.3187 125.282 32.72 125.505 33.1059 125.753C34.5247 126.664 35.7262 127.811 36.7222 129.172C37.9407 130.837 38.8967 132.645 39.4929 134.626C39.7643 135.527 40.2181 136.281 40.8418 136.977C41.9008 138.161 42.9019 139.396 43.9279 140.609C44.0993 140.812 44.2743 141.012 44.4882 141.259C44.6406 141.055 44.5846 140.866 44.5756 140.699C44.4027 137.54 45.2803 134.673 46.9515 132.027C47.109 131.778 47.2809 131.529 47.4883 131.323C47.8606 130.954 48.3004 131.044 48.5313 131.519C48.7352 131.94 48.7787 132.398 48.8037 132.858C48.8777 134.218 48.6818 135.552 48.3994 136.874C47.9896 138.79 47.2919 140.591 46.2479 142.253C45.7901 142.981 45.7781 142.851 46.3563 143.555C48.1175 145.7 49.7953 147.909 51.4105 150.166C52.8214 152.138 54.1877 154.142 55.4882 156.19C55.6261 156.407 55.7295 156.66 56.0249 156.857C56.0499 156.409 56.0704 156.039 56.0914 155.67C56.2033 153.699 56.7606 151.851 57.6102 150.084C58.1135 149.037 58.6997 148.038 59.3824 147.099C59.5563 146.86 59.7442 146.63 59.9361 146.405C60.1725 146.129 60.4529 145.909 60.8422 146.009C61.281 146.122 61.3685 146.504 61.4359 146.885C61.5024 147.261 61.4944 147.638 61.4634 148.016C61.393 148.88 61.221 149.727 61.0031 150.562C60.2615 153.401 59.181 156.095 57.4897 158.506C57.2169 158.895 57.2783 159.153 57.4862 159.513C59.1975 162.481 60.7308 165.541 62.1411 168.663C63.3296 171.294 64.3496 173.993 65.3337 176.706C65.4251 176.959 65.3881 177.307 65.731 177.428C65.9214 177.22 65.9354 176.942 66.0174 176.692C66.5426 175.089 67.3063 173.61 68.3033 172.254C69.0875 171.187 69.9716 170.21 70.9456 169.316C71.143 169.135 71.3414 168.95 71.6128 168.878C71.9682 168.783 72.258 168.935 72.3695 169.288C72.4614 169.58 72.4284 169.873 72.376 170.169C72.224 171.025 71.9347 171.836 71.5768 172.624C70.4693 175.062 68.949 177.195 66.9584 178.987C66.1883 179.68 66.2652 179.431 66.5636 180.41C67.2013 182.5 67.6496 184.641 68.2423 186.744C68.2568 186.795 68.2698 186.849 68.2693 186.902C68.2678 187.048 68.2039 187.159 68.0639 187.215C67.9215 187.272 67.7925 187.226 67.7011 187.12C67.4627 186.842 67.4227 186.481 67.3313 186.146C66.8855 184.507 66.4926 182.852 66.0019 181.227C64.8479 177.402 63.4495 173.665 61.8832 169.992C61.8518 169.917 61.8138 169.845 61.7883 169.768C61.6833 169.45 61.4749 169.312 61.1351 169.276C60.2535 169.183 59.3944 168.968 58.5408 168.728C56.6491 168.196 54.9569 167.294 53.4821 165.989C52.9583 165.526 52.452 165.042 51.9503 164.555C51.7584 164.369 51.5779 164.161 51.4355 163.936C51.0907 163.389 51.2956 162.933 51.9313 162.798C52.2241 162.736 52.519 162.762 52.8109 162.817C53.5535 162.958 54.2607 163.206 54.9394 163.538C56.7591 164.429 58.4183 165.566 59.9666 166.872C60.162 167.037 60.3634 167.194 60.5623 167.355C60.5873 167.333 60.6123 167.312 60.6378 167.29Z" fill="#CBE5F4"/>
<path d="M47.9821 181.25C48.018 180.957 47.8306 180.739 47.7267 180.496C47.0565 178.933 46.4433 177.351 46.1324 175.667C46.0289 175.107 45.9975 174.543 46.0085 173.975C46.011 173.841 46.017 173.704 46.0409 173.573C46.1764 172.822 46.7436 172.588 47.3289 173.055C47.5368 173.22 47.7157 173.43 47.8821 173.639C49.5419 175.735 50.5684 178.102 50.9157 180.766C51.0592 181.868 51.1416 182.968 51.0402 184.075C51.0127 184.374 51.1071 184.589 51.2906 184.807C51.8278 185.445 52.3496 186.096 52.8828 186.737C53.0048 186.884 53.1267 187.026 53.1442 187.226C53.1567 187.368 53.1192 187.498 52.9928 187.575C52.8693 187.651 52.7264 187.654 52.6164 187.561C52.4955 187.458 52.3891 187.334 52.2916 187.207C49.3185 183.36 45.7386 180.163 41.8369 177.308C41.7069 177.213 41.5745 177.121 41.4415 177.029C41.2966 176.929 41.1487 176.915 40.9907 177.007C40.8283 177.101 40.6589 177.184 40.495 177.276C37.8887 178.737 35.0704 179.426 32.1133 179.603C31.2777 179.654 30.4525 179.566 29.6424 179.347C29.2771 179.248 28.9267 179.111 28.6184 178.889C28.0182 178.457 28.0037 177.864 28.5894 177.429C28.7818 177.286 28.9987 177.168 29.2186 177.072C31.2432 176.188 33.3237 175.49 35.5177 175.17C36.2384 175.065 36.9606 175.06 37.6858 175.074C37.8867 175.078 38.0996 175.163 38.3519 174.991C38.0246 174.765 37.7322 174.54 37.4194 174.35C33.756 172.13 29.9148 170.283 25.8996 168.801C25.8242 168.773 25.7442 168.755 25.6727 168.719C25.3654 168.565 25.131 168.634 24.8881 168.885C24.1754 169.622 23.3753 170.259 22.5392 170.849C20.9169 171.992 19.1552 172.819 17.2061 173.225C16.5694 173.357 15.9292 173.381 15.2845 173.344C14.8227 173.318 14.3789 173.201 13.9781 172.973C13.3194 172.597 13.2329 171.976 13.7716 171.441C14.0175 171.196 14.3054 170.989 14.5938 170.793C16.7733 169.315 19.0997 168.182 21.7255 167.765C21.778 167.757 21.836 167.748 21.877 167.719C21.9139 167.694 21.9364 167.641 21.9554 167.596C21.9604 167.584 21.9349 167.547 21.9159 167.539C21.768 167.478 21.6221 167.408 21.4686 167.367C19.3701 166.8 17.2566 166.299 15.1145 165.924C14.4089 165.8 13.7567 165.849 13.0825 166.157C11.949 166.674 10.7215 166.863 9.4861 166.962C7.19414 167.147 4.92868 166.993 2.71119 166.349C2.22341 166.207 1.74812 166.016 1.27684 165.824C0.873523 165.659 0.532179 165.39 0.258303 165.05C-0.15151 164.542 -0.0690478 164.044 0.472705 163.671C0.582655 163.596 0.702601 163.531 0.825545 163.478C2.79665 162.628 4.83072 162.102 6.99973 162.235C9.28969 162.375 11.3453 163.154 13.1659 164.54C13.5707 164.849 13.9776 164.993 14.4733 165.06C17.0307 165.402 19.5305 166.02 22.0129 166.713C24.5237 167.414 26.9586 168.332 29.3605 169.343C29.5295 169.414 29.7009 169.48 29.9333 169.469C29.7963 169.331 29.6614 169.191 29.5215 169.057C27.7548 167.356 26.062 165.59 24.7292 163.509C24.3503 162.917 24.023 162.3 23.7751 161.641C23.6686 161.358 23.6082 161.07 23.6382 160.769C23.6836 160.31 23.999 160.043 24.4613 160.082C24.8441 160.114 25.1824 160.284 25.5103 160.472C26.2115 160.872 26.8662 161.343 27.5079 161.832C29.527 163.371 31.1747 165.221 32.2722 167.542C32.7475 168.548 33.1653 169.568 33.2743 170.685C33.3097 171.05 33.4652 171.274 33.7845 171.434C34.4797 171.784 35.1774 172.133 35.8506 172.523C39.9277 174.887 43.801 177.541 47.2964 180.728C47.5083 180.921 47.6682 181.2 47.9966 181.236C48.01 181.315 48.028 181.327 48.051 181.272C48.0275 181.265 48.0046 181.257 47.9821 181.25Z" fill="#CBE5F4"/>
<path d="M158.971 149.029C159.155 149.059 159.222 148.926 159.302 148.826C160.524 147.299 162.088 146.233 163.831 145.403C164.632 145.022 165.453 144.694 166.291 144.402C166.495 144.33 166.697 144.262 166.915 144.264C167.328 144.267 167.566 144.554 167.469 144.959C167.427 145.138 167.344 145.318 167.239 145.469C167.039 145.755 166.825 146.035 166.589 146.293C165.232 147.776 163.659 148.983 161.892 149.93C160.968 150.424 160.033 150.901 159.049 151.262C158.721 151.382 158.585 151.572 158.557 151.907C158.494 152.659 158.391 153.409 158.337 154.162C158.169 156.476 157.997 158.79 157.866 161.106C157.79 162.453 157.787 163.804 157.757 165.153C157.753 165.336 157.679 165.592 157.847 165.68C158.049 165.786 158.159 165.528 158.282 165.402C159.341 164.316 160.538 163.409 161.819 162.609C163.454 161.586 165.214 160.885 167.117 160.562C167.462 160.503 167.809 160.454 168.157 160.508C168.657 160.586 168.894 160.975 168.724 161.457C168.653 161.657 168.542 161.854 168.405 162.014C168.126 162.341 167.845 162.676 167.515 162.947C165.212 164.836 162.696 166.363 159.895 167.394C159.364 167.589 158.815 167.708 158.263 167.823C157.814 167.918 157.779 167.958 157.779 168.41C157.78 169.247 157.791 170.084 157.804 170.921C157.831 172.648 157.844 174.376 157.897 176.102C157.96 178.206 158.058 180.309 158.143 182.411C158.151 182.627 158.169 182.842 158.193 183.057C158.198 183.102 158.24 183.158 158.28 183.181C158.37 183.233 158.421 183.164 158.463 183.095C158.492 183.049 158.522 183.004 158.547 182.956C159.519 181.107 160.922 179.635 162.544 178.359C163.453 177.643 164.415 177.001 165.408 176.408C165.591 176.298 165.784 176.192 165.986 176.129C166.365 176.008 166.684 176.206 166.773 176.6C166.847 176.925 166.793 177.242 166.698 177.557C166.509 178.181 166.23 178.766 165.894 179.318C164.528 181.56 162.776 183.432 160.584 184.877C160.044 185.233 159.464 185.511 158.872 185.769C158.491 185.934 158.479 185.968 158.536 186.386C158.587 186.759 158.662 187.13 158.719 187.502C158.735 187.606 158.741 187.716 158.73 187.82C158.718 187.936 158.636 188.013 158.529 188.049C158.388 188.098 158.255 188.055 158.171 187.941C158.025 187.739 157.992 187.494 157.951 187.254C157.741 186.002 157.586 184.743 157.489 183.479C157.389 182.161 157.332 180.84 157.257 179.52C157.251 179.412 157.253 179.303 157.244 179.196C157.215 178.858 157.081 178.62 156.776 178.41C155.419 177.478 154.195 176.389 153.102 175.152C151.662 173.523 150.785 171.599 150.177 169.533C150.162 169.481 150.148 169.428 150.136 169.376C150.07 169.074 150.053 168.773 150.317 168.556C150.583 168.337 150.87 168.436 151.153 168.545C151.561 168.7 151.914 168.943 152.251 169.212C152.864 169.7 153.397 170.269 153.904 170.865C155.077 172.245 156.129 173.705 156.863 175.376C156.896 175.451 156.938 175.515 157.035 175.523C157.057 175.488 157.103 175.45 157.103 175.413C157.104 174.873 157.112 174.332 157.094 173.793C156.965 169.988 156.965 166.182 157.043 162.377C157.064 161.379 157.127 160.382 157.192 159.386C157.219 158.986 157.077 158.755 156.724 158.555C154.447 157.269 152.829 155.369 151.727 153.008C151.201 151.883 150.775 150.719 150.493 149.505C150.432 149.241 150.374 148.977 150.4 148.704C150.449 148.187 150.795 147.932 151.294 148.057C151.665 148.15 151.98 148.363 152.279 148.593C153.073 149.203 153.764 149.914 154.373 150.71C155.531 152.221 156.364 153.907 157.053 155.674C157.125 155.86 157.124 156.098 157.392 156.253C157.419 155.962 157.445 155.706 157.466 155.45C157.718 152.329 158.013 149.213 158.567 146.129C158.734 145.2 158.914 144.272 159.214 143.375C159.405 142.802 159.441 142.222 159.412 141.62C159.337 140.083 159.308 138.547 159.542 137.015C159.918 134.541 160.83 132.29 162.263 130.25C162.447 129.987 162.651 129.727 162.891 129.517C163.268 129.185 163.734 129.294 163.952 129.752C164.054 129.967 164.105 130.21 164.154 130.447C164.355 131.421 164.186 132.384 164.031 133.342C163.88 134.275 163.629 135.185 163.333 136.083C162.587 138.347 161.624 140.509 160.346 142.522C160.17 142.8 160.037 143.087 159.955 143.401C159.528 145.048 159.21 146.717 158.973 148.401C158.943 148.61 158.898 148.823 158.971 149.029Z" fill="#CBE5F4"/>
<path d="M215.12 187.59C215.127 188.047 214.805 188.442 214.318 188.574C214.003 188.66 213.681 188.65 213.358 188.648C203.939 188.631 194.519 188.609 185.1 188.599C173.959 188.587 162.819 188.577 151.678 188.572C151.155 188.571 150.631 188.571 150.109 188.571C149.429 188.571 148.751 188.571 148.072 188.571C147.636 188.57 147.2 188.569 146.766 188.569C145.697 188.568 144.628 188.567 143.559 188.567C134.032 188.562 124.505 188.567 114.979 188.567V188.494H110.955C101.833 188.494 92.7103 188.494 83.587 188.492C81.8193 188.493 80.0511 188.493 78.2829 188.493C73.2872 188.493 68.2904 188.492 63.2932 188.492C59.7248 188.492 56.156 188.479 52.5876 188.473C40.645 188.452 28.7035 188.432 16.7624 188.41C16.494 188.408 16.2217 188.422 15.9573 188.388C15.3766 188.312 14.9852 187.897 14.9792 187.383C14.9722 186.898 15.3081 186.498 15.8583 186.377C16.0917 186.326 16.3366 186.316 16.5765 186.316C21.8361 186.326 27.0962 186.344 32.3568 186.357C36.0866 186.366 39.8159 186.379 43.5457 186.381C47.1431 186.382 50.7404 186.385 54.3378 186.387H55.2924C60.2251 186.39 65.1559 186.394 70.0891 186.396H70.8443C71.1561 186.398 71.4685 186.398 71.7788 186.396C72.2251 186.398 72.6714 186.398 73.1157 186.398H74.0623C74.2517 186.4 74.4416 186.4 74.6311 186.398C74.804 186.4 74.9754 186.4 75.1463 186.398C75.1863 186.4 75.2273 186.4 75.2673 186.4H76.2468C76.9985 186.4 77.7506 186.4 78.5023 186.401C80.3539 186.402 82.2056 186.403 84.0573 186.404C92.8008 186.409 101.544 186.414 110.287 186.423C111.733 186.425 113.181 186.426 114.628 186.428H115.839C116.222 186.428 116.604 186.43 116.986 186.43H116.998C117.314 186.43 117.627 186.43 117.943 186.432H118.514C118.869 186.432 119.225 186.432 119.581 186.433H120.582C129.23 186.443 137.877 186.456 146.525 186.469C146.862 186.469 147.199 186.469 147.537 186.47C148.322 186.472 149.107 186.473 149.893 186.473C150.333 186.474 150.772 186.475 151.213 186.475C154.319 186.48 157.426 186.484 160.531 186.489C160.771 186.489 161.011 186.489 161.251 186.491C162.27 186.491 163.289 186.493 164.308 186.494C164.57 186.494 164.83 186.494 165.091 186.496H166.064C166.348 186.498 166.634 186.498 166.917 186.498C167.495 186.498 168.076 186.499 168.655 186.499C168.988 186.501 169.317 186.501 169.65 186.501C170.564 186.503 171.48 186.504 172.395 186.504H172.613C172.93 186.506 173.246 186.506 173.563 186.506C175.123 186.508 176.682 186.511 178.242 186.513H178.992C188.107 186.525 197.219 186.537 206.333 186.549C208.747 186.552 211.161 186.559 213.577 186.565C213.846 186.565 214.114 186.549 214.376 186.634C214.815 186.782 215.115 187.165 215.12 187.59Z" fill="#1D415E"/>
<path d="M99.7053 83.5543L91.395 181.968C91.395 181.968 90.5251 187.933 94.9799 187.944C102.305 187.961 131.443 187.944 131.443 187.944C131.443 187.944 125.93 186.702 125.997 183.908C126.075 180.616 135.71 82.623 135.71 82.623L99.7053 83.5543Z" fill="#1D415E"/>
<path d="M134.185 186.197C132.744 186.202 104.536 186.249 97.4011 186.157C94.292 186.119 93.746 183.403 93.721 181.647C93.7076 180.806 93.8162 180.182 93.8162 180.182L94.0316 177.624L94.5826 171.106L95.0685 165.345L95.6946 157.943L96.2206 151.696L102.126 81.7653L138.131 80.834C138.131 80.834 134.073 121.844 131.203 151.694C130.882 155.02 130.579 158.209 130.296 161.186C130.205 162.137 130.118 163.065 130.031 163.97C129.765 166.794 129.522 169.388 129.31 171.678C129.198 172.885 129.094 174.006 129.002 175.034C128.637 179.06 128.421 181.631 128.418 182.119C128.416 182.404 128.441 182.67 128.488 182.916C129.079 186.054 133.644 186.197 134.185 186.197Z" fill="#306599"/>
<path d="M12.2682 30L32.5103 110.982L35.282 122.074L44.711 159.793H219.874L185.122 30H12.2682Z" fill="#306599"/>
<path d="M12.2687 30L9.46191 30.9312L40.9813 162.61L44.7115 159.793L12.2687 30Z" fill="#1D415E"/>
<path d="M40.9813 162.61H215.065L219.872 159.793H44.7115L40.9813 162.61Z" fill="#1D415E"/>
<path d="M102.115 187.98H139.807V186.196H102.115V187.98Z" fill="#306599"/>
<path d="M130.225 162.609L130.031 163.975L94.5832 171.105L95.0691 165.347L95.3012 162.609H130.225Z" fill="#1D415E"/>
<path opacity="0.4" d="M134.186 186.197C132.745 186.202 104.536 186.249 97.4015 186.157C94.2924 186.119 93.7464 183.403 93.7214 181.647L129.001 175.037C128.635 179.063 128.42 181.634 128.417 182.123C128.415 182.407 128.44 182.673 128.487 182.919C129.08 186.054 133.645 186.197 134.186 186.197Z" fill="#1D415E"/>
<path d="M12.2682 30H185.122L213.168 134.312H38.3426L12.2682 30Z" fill="#306599"/>
<path d="M205.016 129.792H43.1708L37.3886 106.847L35.1511 97.9685L34.2378 94.3483L28.2936 70.7676L27.9863 69.5387L24.8439 57.0749L23.438 51.4973L22.2391 46.7396L19.4273 35.5879H178.94L182.027 46.7396L183.343 51.4973L184.887 57.0749L195.057 93.8162V93.8178L195.919 96.9309L196.32 98.376L203.341 123.743L205.016 129.792Z" fill="#D1E7F2"/>
<path d="M182.026 46.7413H22.2386L19.4285 35.5879H178.939L182.026 46.7413Z" fill="#C2DCF5"/>
<path d="M26.0272 40.6279C25.8352 39.858 26.3043 39.2344 27.0774 39.2344C27.8505 39.2344 28.6336 39.858 28.8256 40.6279C29.0177 41.3979 28.5485 42.0215 27.7754 42.0215C27.0023 42.0215 26.2192 41.3979 26.0272 40.6279Z" fill="#E9F3FE"/>
<path d="M30.6797 40.6279C30.4877 39.858 30.9569 39.2344 31.73 39.2344C32.5031 39.2344 33.2862 39.858 33.4782 40.6279C33.6702 41.3979 33.201 42.0215 32.4279 42.0215C31.6548 42.0215 30.8717 41.3979 30.6797 40.6279Z" fill="#E9F3FE"/>
<path d="M35.6869 40.6279C35.4949 39.858 35.9641 39.2344 36.7372 39.2344C37.5103 39.2344 38.2934 39.858 38.4854 40.6279C38.6774 41.3979 38.2082 42.0215 37.4351 42.0215C36.6637 42.0215 35.8806 41.3979 35.6869 40.6279Z" fill="#E9F3FE"/>
<path d="M90.7034 99.32H84.7534V108H74.8134V99.32H52.5534V91.48L68.8634 59.7H80.0634L63.1234 90.29H74.8134V80.42H84.7534V90.29H90.7034V99.32ZM114.002 59C126.532 59 133.042 68.31 133.042 83.71C133.042 91.48 131.432 97.57 128.212 102.12C124.992 106.6 120.232 108.84 114.002 108.84C101.472 108.84 94.9625 99.32 94.9625 83.71C94.9625 68.31 101.402 59 114.002 59ZM105.392 83.64C105.392 94.63 108.122 99.25 114.002 99.25C119.882 99.25 122.612 94.77 122.612 83.64C122.612 72.79 119.952 68.59 114.002 68.59C108.052 68.59 105.392 72.79 105.392 83.64ZM175.948 99.32H169.998V108H160.058V99.32H137.798V91.48L154.108 59.7H165.308L148.368 90.29H160.058V80.42H169.998V90.29H175.948V99.32Z" fill="#51A8DB" fill-opacity="0.2"/>
<path d="M63.8477 109.529C63.8477 109.529 64.2027 108.733 64.4327 108.357C64.6626 107.981 65.6457 106.877 65.8124 107.126C65.9792 107.377 66.6489 109.057 66.2938 109.529C65.9388 110 66.3167 110.819 64.5497 111.315L63.8477 109.529Z" fill="#ED9A41"/>
<path d="M44.2047 104.506C44.2047 104.506 53.2536 112.029 56.7809 111.332C59.5404 110.787 63.9014 109.41 63.9014 109.41C63.9014 109.41 65.0525 110.501 64.7271 111.808C64.7271 111.808 59.1705 117.015 55.2116 117.048C49.0229 117.101 46.1048 113.995 46.1048 113.995L44.2047 104.506Z" fill="#901C18"/>
<path d="M28.3354 183.851C28.3354 183.851 28.5977 188.072 29.418 188.132C29.5269 188.14 33.576 188.14 33.576 188.14L38.7453 188.11C38.7453 188.11 38.7117 186.87 37.2001 186.608C35.69 186.345 33.1605 185.289 32.2447 183.3C31.2832 181.208 28.3354 183.851 28.3354 183.851Z" fill="#0A0063"/>
<path d="M28.0378 184.146C28.0378 184.146 29.6085 184.67 30.8362 184.67C32.2052 184.67 33.4478 184.299 33.4478 184.299C33.4478 184.299 33.7436 181.45 35.3708 175.173C36.2247 171.882 37.4431 167.651 39.1765 162.394C43.9706 147.865 45.4283 139.366 45.5614 138.561C45.5682 138.518 45.5708 138.498 45.5708 138.498L45.5547 138.492L30.8147 132.047C30.8147 132.047 32.6369 152.071 30.3118 159.757C29.9864 160.831 29.708 162.084 29.4686 163.439C28.0042 171.786 28.0378 184.146 28.0378 184.146Z" fill="#51A8DB"/>
<path d="M35.3707 175.17C36.2247 171.879 37.443 167.648 39.1764 162.392C43.9705 147.863 45.4282 139.364 45.5614 138.559C45.56 138.535 45.5587 138.512 45.556 138.488L30.816 132.043C30.816 132.043 32.6382 152.067 30.3131 159.753C29.989 160.827 35.3707 175.17 35.3707 175.17Z" fill="#3C98C6"/>
<path d="M39.8474 183.851C39.8474 183.851 40.1096 188.072 40.9299 188.132C41.0388 188.14 45.0879 188.14 45.0879 188.14L50.2572 188.11C50.2572 188.11 50.2236 186.87 48.712 186.608C47.2019 186.345 44.6724 185.289 43.7566 183.3C42.7937 181.208 39.8474 183.851 39.8474 183.851Z" fill="#0A0063"/>
<path d="M48.2036 132.516C48.2036 132.516 48.3946 145.491 46.1408 161.423C43.8869 177.356 44.6508 184.118 44.6508 184.118C44.6508 184.118 43.1016 184.617 42.4776 184.668C40.8854 184.797 39.2529 184.296 39.2529 184.296C39.2529 184.296 36.0268 168.358 36.952 160.384C37.8772 152.41 32.5344 133.021 32.5344 133.021L48.2036 132.516Z" fill="#51A8DB"/>
<path d="M37.7528 102.15L40.6293 104.029L43.2502 103.291C43.7289 102.611 43.8567 101.298 43.8634 100.163C43.8701 99.035 43.7599 98.0788 43.7599 98.0788L39.8775 96.3725L38.4292 95.7363C38.4333 95.7591 38.5422 96.9203 38.557 97.0904C38.83 100.102 37.7528 102.15 37.7528 102.15Z" fill="#ED9A41"/>
<path d="M48.2695 136.122C44.6884 139.566 31.1359 138.987 30.3008 135.193C29.467 131.399 31.2112 102.896 37.3285 101.105C38.598 100.734 45.385 102.918 45.385 102.918C45.385 102.918 46.45 105.693 47.148 109.225C47.2838 109.912 47.6792 117.197 47.975 124.011C48.1135 127.199 48.2305 130.283 48.2897 132.543C48.3448 134.657 48.3475 136.047 48.2695 136.122Z" fill="#B4231E"/>
<path d="M38.8499 97.145C39.638 98.4709 42.4001 99.6321 43.8646 100.164C43.8713 99.0361 43.761 98.0799 43.761 98.0799L39.8787 96.3736C39.0207 96.3615 38.499 96.553 38.8499 97.145Z" fill="#BE7B34"/>
<path d="M45.2255 97.8446C45.2255 97.8446 38.971 99.7879 37.8158 95.8905C36.6606 91.9931 35.0752 89.6185 39.0194 88.2136C42.9636 86.8087 44.1846 88.0663 44.8879 89.2744C45.5912 90.4797 46.823 97.2379 45.2255 97.8446Z" fill="#ED9A41"/>
<path d="M44.6416 88.8961C44.6416 88.8961 44.2422 93.4324 43.3009 93.2355C42.3596 93.0386 41.3228 92.6167 41.4599 93.9842C41.5984 95.3516 40.5441 97.6954 39.1859 97.69C36.2732 97.678 33.1089 90.2341 33.9064 88.8225C36.2073 84.7496 47.9672 83.9273 44.6416 88.8961Z" fill="#163560"/>
<path d="M43.7218 101.204C43.6411 101.17 39.0662 99.1262 38.531 99.3017C37.9957 99.4771 37.3287 101.106 37.3287 101.106L45.3852 102.919C45.3852 102.919 44.7505 101.636 43.7218 101.204Z" fill="#901C18"/>
<path d="M72.2067 123.279L46.5593 147.329C46.0564 147.801 45.423 147.951 45.15 147.663L44.284 146.747C44.0123 146.459 44.2006 145.837 44.7035 145.366L70.3509 121.316C70.8538 120.844 71.4872 120.694 71.7602 120.982L72.6262 121.898C72.8979 122.186 72.7096 122.808 72.2067 123.279Z" fill="#1D415E"/>
<path d="M57.8137 136.776L46.5593 147.33C46.0564 147.801 45.423 147.951 45.15 147.663L44.284 146.747C44.0123 146.459 44.2006 145.838 44.7035 145.366L55.9579 134.812L57.8137 136.776Z" fill="#EBECEE"/>
<path d="M66.3113 114.199C67.2956 117.431 69.1191 120.458 71.767 122.938C79.8531 130.514 92.5759 130.127 100.183 122.075C107.69 114.128 107.411 101.686 99.6305 94.0785C99.527 93.9767 99.4221 93.8749 99.3145 93.7758C91.2298 86.1993 78.5083 86.5837 70.901 94.637C65.7841 100.054 64.2834 107.56 66.3113 114.199ZM72.0575 95.7205C76.4844 91.0342 82.7927 89.1659 88.7164 90.1878C92.1684 90.7825 95.4873 92.3575 98.2293 94.9263C105.677 101.904 106.033 113.573 99.0267 120.992C96.4475 123.723 93.2308 125.495 89.8232 126.3C83.9721 127.679 77.5602 126.198 72.8549 121.789C65.4076 114.81 65.0485 103.14 72.0575 95.7205Z" fill="#1D415E"/>
<g opacity="0.5">
<path d="M99.0273 120.992C96.448 123.722 93.23 125.494 89.8237 126.299C83.9727 127.677 77.5622 126.197 72.8555 121.787C65.4082 114.809 65.0505 103.139 72.058 95.7201C76.485 91.0338 82.7933 89.1655 88.717 90.1874C92.169 90.7821 95.4892 92.3571 98.2299 94.9259C105.677 101.904 106.035 113.574 99.0273 120.992Z" fill="#B3CFF9"/>
</g>
<path d="M48.2899 132.543C34.1577 122.515 35.333 109.131 35.333 109.131C40.4983 112.032 45.6232 118.447 47.9752 124.012C48.1137 127.198 48.2307 130.284 48.2899 132.543Z" fill="#901C18"/>
<path d="M62.2378 127.974C63.2343 127.745 63.904 126.995 64.0425 126.863C64.0425 126.863 64.4674 126.893 63.9725 127.795C63.9309 127.87 63.8394 128.065 63.7695 128.203C63.7412 128.259 63.7802 128.324 63.8434 128.328C64.419 128.373 64.9973 128.145 66.104 128.375C66.2573 128.407 66.3017 128.772 66.295 128.927C66.2855 129.19 66.3044 129.486 65.9978 129.889C65.8189 130.123 65.3214 130.375 64.2119 130.82C63.7897 130.988 62.5807 130.861 61.4484 130.474L60.5434 130.056L60.8245 128.382L61.0517 128.429C61.4148 128.505 61.8613 128.066 62.2378 127.974Z" fill="#ED9A41"/>
<path d="M39.7198 102.918C39.7198 102.918 27.0225 105.326 43.4555 123.64C46.0832 126.569 60.2839 130.382 60.2839 130.382C60.2839 130.382 61.7242 129.162 60.998 128.173C60.998 128.173 51.2202 121.102 49.0699 119.978C48.1017 119.472 45.314 108.692 43.7366 106.096C42.1578 103.501 39.7198 102.918 39.7198 102.918Z" fill="#B4231E"/>
<path d="M64.1917 109.75C64.1917 109.75 64.6072 108.96 64.6879 108.542C64.7686 108.126 65.2917 106.91 65.5068 106.695C65.5929 106.61 65.878 106.721 65.9116 107.089C65.9264 107.25 65.8471 107.542 65.7072 107.889C65.4799 108.455 65.5176 109.223 65.4383 109.478C65.2433 110.116 64.1917 109.75 64.1917 109.75Z" fill="#ED9A41"/>
<path d="M176.879 91.3627C174.89 90.7051 173.514 91.5355 173.514 91.5355C167.79 91.7699 167.577 97.6146 168.248 99.7897C169.192 102.845 165.852 105.253 169.557 106.489C173.855 107.923 177.461 106.221 177.215 106.96C190.805 108.026 181.401 92.8587 176.879 91.3627Z" fill="#163560"/>
<path d="M170.94 119.789C170.94 119.789 170.397 120.861 169.41 122.094C168.221 123.578 161.979 120.056 162.517 119.789C163.055 119.521 166.191 110.521 166.938 109.39C167.686 108.26 170.23 107.672 170.23 107.672L170.94 119.789Z" fill="#B4231E"/>
<path d="M192.005 180.487C192.005 180.487 193.728 182.052 193.392 183.165C193.055 184.278 191.501 185.02 191.291 186.38C191.081 187.739 190.241 188.481 189.484 188.481C188.728 188.481 185.877 188.481 185.877 188.481C185.877 188.481 185.32 187.523 186.665 187.235C188.01 186.948 188.517 185.35 188.432 183.866C188.349 182.382 188.559 180.405 188.559 180.405L191.416 179.746L192.005 180.487Z" fill="#0A0063"/>
<path d="M177.423 181.15C177.423 181.15 178.043 187.784 177.287 188.155L167.608 188.135C167.608 188.135 167.608 187.022 169.162 186.775C170.717 186.528 173.448 185.621 173.911 183.603C174.373 181.584 177.423 181.15 177.423 181.15Z" fill="#0A0063"/>
<path d="M184.87 115.313C184.87 115.313 185.014 117.338 184.87 119.769C184.774 121.38 183.138 123.537 182.905 124.072C182.323 125.411 181.665 125.628 181.665 125.628L176.583 126.868L174.796 127.304L169.16 125.627C169.16 125.627 166.593 118.492 167.624 114.476C168.655 110.459 170.229 107.669 170.229 107.669C170.229 107.669 174.059 106.812 180.815 107.289L184.87 115.313Z" fill="#B4231E"/>
<path d="M185.354 119.826C185.259 121.437 183.138 123.538 182.905 124.073C182.323 125.412 181.665 125.629 181.665 125.629L176.583 126.869L175.666 124.249C175.666 124.249 183.092 122.306 181.898 115.461L185.354 119.826Z" fill="#901C18"/>
<path d="M169.519 126.713C169.519 126.713 166.729 135.363 166.549 138.31C166.37 141.255 171.884 180.153 172.105 181.509C172.314 182.788 173.91 183.604 173.91 183.604C173.91 183.604 174.644 184.035 175.691 183.741C177.143 183.332 177.603 182.843 177.603 182.843C177.603 182.843 179.775 155.102 178.431 145.193C177.086 135.283 177.072 126.713 177.072 126.713H169.519Z" fill="#3C98C6"/>
<path d="M181.344 126.453C181.344 126.453 185.601 132.141 185.998 135.988C186.395 139.833 186.621 153.34 187.467 157.088C188.312 160.837 191.419 168.052 191.419 179.744C191.419 179.744 191.096 180.414 190.1 180.771C189.781 180.885 189.353 180.996 188.939 181.092C188.117 181.279 187.273 180.879 186.898 180.127C184.797 175.917 178.108 162.333 177.764 159.514C177.522 157.518 175.409 144.313 170.801 136.565C169.694 134.705 171.48 127.306 171.48 127.306L181.344 126.453Z" fill="#51A8DB"/>
<path d="M169.074 125.377C169.074 125.377 170.194 126.26 172.419 126.304C175.078 126.357 181.665 125.629 181.665 125.629C181.665 125.629 181.958 126.443 181.946 127.303C181.946 127.303 173.9 129.324 169.239 127.598C169.239 127.599 168.638 126.473 169.074 125.377Z" fill="#306599"/>
<path d="M171.782 128.586C171.114 128.586 170.569 127.973 170.569 127.219C170.569 126.465 171.114 125.852 171.782 125.852C172.451 125.852 172.995 126.465 172.995 127.219C172.995 127.973 172.451 128.586 171.782 128.586ZM171.782 126.252C171.335 126.252 170.972 126.686 170.972 127.219C170.972 127.752 171.336 128.186 171.782 128.186C172.229 128.186 172.593 127.752 172.593 127.219C172.593 126.686 172.229 126.252 171.782 126.252Z" fill="white"/>
<path d="M177.594 131.074L165.502 131.186L159.552 117.259L171.644 117.146L177.594 131.074Z" fill="#C2DCF5"/>
<path d="M176.012 124.78L175.126 123.695C175.126 123.695 174.526 123.162 174.091 123.073C173.655 122.981 172.737 122.454 172.648 122.602C172.559 122.751 173.354 123.812 173.354 123.812L173.394 123.817C172.481 124.502 170.176 123.898 169.892 124.176C169.548 124.514 170.367 125.245 170.807 125.656C171.247 126.067 172.504 126.75 173.484 126.448C174.201 126.225 175.328 125.999 175.328 125.999L176.012 124.78Z" fill="#ED9A41"/>
<path d="M160.461 119.71C160.461 119.71 161.22 118.85 161.705 119.262C162.189 119.675 161.578 121.705 161.117 121.499C160.656 121.293 160.197 119.961 160.461 119.71Z" fill="#ED9A41"/>
<path d="M180.816 107.293C180.816 107.293 184.278 107.673 186.762 112.168C188.721 115.713 192.069 122.248 190.805 124.093C190.251 124.904 184.933 127.787 174.676 126.14C174.676 126.14 174.838 124.85 175.665 124.251C175.665 124.251 184.297 121.491 184.282 120.942C184.254 119.904 183.116 119.007 178.294 114.202C176.984 112.897 180.816 107.293 180.816 107.293Z" fill="#B4231E"/>
<path d="M178.152 107.475C178.271 107.315 178.119 106.809 177.928 105.866C177.756 105.012 177.464 103.69 177.469 102.203L177.214 102.246L172.924 102.965C172.924 102.965 173.022 104.108 173.025 105.184C173.025 105.194 173.025 105.202 173.025 105.211C173.03 106.146 172.772 107.559 173.088 107.743C174.714 108.691 177.694 108.085 178.152 107.475Z" fill="#ED9A41"/>
<path d="M172.924 102.963C172.924 102.963 173.009 104.575 173.013 105.65C175.413 105.592 176.695 103.271 177.215 102.244L172.924 102.963Z" fill="#BE7B34"/>
<path d="M172.666 104.885C172.666 104.885 178.29 104.087 177.737 100.606C177.185 97.1255 177.538 94.6786 173.924 95.0415C170.309 95.4031 169.825 96.8415 169.725 98.0483C169.626 99.2536 171.188 105.003 172.666 104.885Z" fill="#ED9A41"/>
<path d="M171.355 95.3612C171.355 95.3612 173.544 99.1997 175.997 99.43C178.451 99.6591 179.372 98.8689 179.372 98.8689C179.372 98.8689 177.335 97.7251 176.56 95.2876C176.562 95.2876 172.203 93.2344 171.355 95.3612Z" fill="#163560"/>
<path d="M171.789 95.6326C171.789 95.6326 170.718 96.238 170.381 97.1393C170.051 98.0206 169.832 99.155 170.133 100.454C170.133 100.454 168.532 97.8625 169.582 96.0866C170.694 94.2036 171.789 95.6326 171.789 95.6326Z" fill="#163560"/>
<path d="M238.06 71.829L172.599 77.3219C167.628 77.7392 164.031 72.6921 166.066 68.1567L193.799 6.34054C195.903 1.65113 202.371 1.10849 205.233 5.38145L242.961 61.7047C245.729 65.8368 243.03 71.4118 238.06 71.829Z" fill="#FBEAEA"/>
<path d="M238.269 74.2946L172.808 79.7875C169.588 80.0577 166.549 78.6527 164.679 76.0285C162.809 73.4044 162.48 70.0843 163.798 67.1467L191.531 5.3305C192.894 2.29298 195.695 0.312872 199.024 0.0334274C202.353 -0.246018 205.447 1.23945 207.301 4.00759L245.029 60.3309C246.822 63.0077 247.055 66.3362 245.652 69.2344C244.248 72.1326 241.488 74.0244 238.269 74.2946ZM199.441 4.96513C197.942 5.09053 196.681 5.98228 196.068 7.34931L168.335 69.1655C167.742 70.4876 167.89 71.9824 168.732 73.1629C169.574 74.3441 170.942 74.9766 172.39 74.855L237.852 69.3621C239.301 69.2406 240.543 68.3891 241.174 67.0848C241.806 65.7804 241.701 64.2818 240.894 63.0773L203.166 6.75404C202.332 5.50776 200.939 4.83895 199.441 4.96513Z" fill="#B4231E"/>
<path d="M197.907 62.3694C197.837 61.5295 197.92 60.74 198.162 60.0015C198.403 59.2638 198.776 58.6104 199.282 58.0423C199.788 57.4749 200.415 57.0112 201.163 56.6536C201.911 56.2967 202.77 56.0761 203.739 55.9948C204.707 55.9135 205.598 55.9871 206.408 56.2131C207.219 56.4399 207.921 56.7921 208.515 57.2674C209.11 57.7435 209.587 58.3256 209.948 59.0122C210.31 59.7004 210.526 60.4636 210.597 61.3043C210.668 62.1442 210.582 62.9275 210.341 63.6528C210.099 64.3789 209.725 65.0253 209.219 65.5935C208.713 66.1617 208.08 66.6253 207.319 66.9837C206.558 67.3421 205.693 67.5628 204.724 67.644C203.754 67.7253 202.871 67.6518 202.074 67.4242C201.277 67.1966 200.581 66.8444 199.986 66.3683C199.393 65.893 198.915 65.3179 198.555 64.6421C198.194 63.9671 197.978 63.2093 197.907 62.3694ZM208.028 50.5747L198.598 51.3658L194.548 19.3906L206.649 18.375L208.028 50.5747Z" fill="#B4231E"/>
</svg>
